<svg xmlns="http://www.w3.org/2000/svg" xmlns:xlink="http://www.w3.org/1999/xlink" fill="none" version="1.1" width="14" height="14" viewBox="0 0 14 14"><defs><clipPath id="master_svg0_21443_025141"><rect x="0" y="0" width="14" height="14" rx="0"/></clipPath></defs><g clip-path="url(#master_svg0_21443_025141)"><g><path d="M7.00016609375,13.41679609375C3.45633609375,13.41679609375,0.58349609375,10.54398609375,0.58349609375,7.00016609375C0.58349609375,3.45633609375,3.45633609375,0.58349609375,7.00016609375,0.58349609375C10.54398609375,0.58349609375,13.41679609375,3.45633609375,13.41679609375,7.00016609375C13.41679609375,10.54398609375,10.54398609375,13.41679609375,7.00016609375,13.41679609375ZM4.93776609375,9.88751609375C4.93776609375,9.88751609375,7.00016609375,7.82511609375,7.00016609375,7.82511609375C7.00016609375,7.82511609375,9.06255609375,9.88751609375,9.06255609375,9.88751609375C9.06255609375,9.88751609375,9.88751609375,9.06255609375,9.88751609375,9.06255609375C9.88751609375,9.06255609375,7.82511609375,7.00016609375,7.82511609375,7.00016609375C7.82511609375,7.00016609375,9.88751609375,4.93776609375,9.88751609375,4.93776609375C9.88751609375,4.93776609375,9.06255609375,4.11281609375,9.06255609375,4.11281609375C9.06255609375,4.11281609375,7.00016609375,6.17520609375,7.00016609375,6.17520609375C7.00016609375,6.17520609375,4.93776609375,4.112806093750001,4.93776609375,4.112806093750001C4.93776609375,4.112806093750001,4.112806093750001,4.93776609375,4.112806093750001,4.93776609375C4.112806093750001,4.93776609375,6.17520609375,7.00016609375,6.17520609375,7.00016609375C6.17520609375,7.00016609375,4.112806093750001,9.06255609375,4.112806093750001,9.06255609375C4.112806093750001,9.06255609375,4.93776609375,9.88751609375,4.93776609375,9.88751609375Z" fill-rule="evenodd" fill="#2696FF" fill-opacity="1"/></g></g></svg>