<svg width="19" height="19" viewBox="0 0 19 19" fill="none" xmlns="http://www.w3.org/2000/svg">
<g id="Vector">
<path d="M16.9511 19H2.04892C0.918844 19 0 18.1031 0 17V6.79381C0 6.45361 0.285159 6.17526 0.633685 6.17526C0.982212 6.17526 1.26737 6.45361 1.26737 6.79381V17C1.26737 17.4175 1.6159 17.7629 2.04892 17.7629H16.9511C17.3788 17.7629 17.7326 17.4227 17.7326 17V6.79381C17.7326 6.45361 18.0178 6.17526 18.3663 6.17526C18.7148 6.17526 19 6.45361 19 6.79381V17C19 18.1031 18.0812 19 16.9511 19Z" fill="#8793B6"/>
<path d="M9.33102 13.5825C9.199 13.5825 9.06698 13.5412 8.95609 13.4639L0.258755 7.23196C-0.0211228 7.03093 -0.0844914 6.64433 0.121456 6.36598C0.327404 6.09278 0.723458 6.03093 1.00862 6.23196L9.3363 12.201L17.9491 6.2268C18.2343 6.03093 18.6304 6.09278 18.831 6.37113C19.0317 6.64948 18.9683 7.03608 18.6832 7.23196L9.70067 13.4691C9.58977 13.5464 9.46304 13.5825 9.33102 13.5825Z" fill="#8793B6"/>
<path d="M16.4124 8.52062C16.0639 8.52062 15.7788 8.24227 15.7788 7.90206V1.85567C15.7788 1.51546 15.4936 1.23711 15.1451 1.23711H3.62785C3.27932 1.23711 2.99416 1.51546 2.99416 1.85567V7.89691C2.99416 8.23711 2.709 8.51546 2.36048 8.51546C2.01195 8.51546 1.72679 8.23711 1.72679 7.89691V1.85567C1.72679 0.829897 2.57699 0 3.62785 0H15.1451C16.1959 0 17.0461 0.829897 17.0461 1.85567V7.89691C17.0461 8.24227 16.761 8.52062 16.4124 8.52062Z" fill="#8793B6"/>
<path d="M13.6823 4.54124H5.30183C4.95331 4.54124 4.66815 4.26289 4.66815 3.92268C4.66815 3.58247 4.95331 3.30412 5.30183 3.30412H13.6823C14.0308 3.30412 14.316 3.58247 14.316 3.92268C14.316 4.26289 14.0308 4.54124 13.6823 4.54124ZM11.0684 7.63917H5.30183C4.95331 7.63917 4.66815 7.36082 4.66815 7.02062C4.66815 6.68041 4.95331 6.40206 5.30183 6.40206H11.0631C11.4116 6.40206 11.6968 6.68041 11.6968 7.02062C11.6968 7.36082 11.4169 7.63917 11.0684 7.63917Z" fill="#8793B6"/>
</g>
</svg>
