<svg xmlns="http://www.w3.org/2000/svg" xmlns:xlink="http://www.w3.org/1999/xlink" fill="none" version="1.1" width="20" height="20" viewBox="0 0 20 20"><defs><clipPath id="master_svg0_21443_025163/1141_040392"><rect x="0" y="0" width="20" height="20" rx="0"/></clipPath></defs><g clip-path="url(#master_svg0_21443_025163/1141_040392)"><g><path d="M6.75594390625,17.67880390625Q8.30247390625,18.33320390625,9.99983390625,18.33320390625Q11.69920390625,18.33320390625,13.24380390625,17.67710390625Q14.74050390625,17.04310390625,15.89180390625,15.89180390625Q17.04910390625,14.73440390625,17.67720390625,13.24370390625Q18.33160390625,11.69720390625,18.33160390625,9.99983390625Q18.33160390625,8.30247390625,17.67710390625,6.75587390625Q17.04310390625,5.25921390625,15.89180390625,4.10789390625Q14.73590390625,2.95200390625,13.24370390625,2.32089890625Q11.69720390625,1.66650390625,9.99983390625,1.66650390625Q9.68630390625,1.66650390625,9.464863906249999,1.88794790625Q9.24341390625,2.10939190625,9.24341390625,2.42292290625Q9.24341390625,2.73645390625,9.464863906249999,2.95789390625Q9.68630390625,3.1793439062499997,9.99983390625,3.1793439062499997Q11.38806390625,3.1793439062499997,12.65370390625,3.71409390625Q13.88140390625,4.23193390625,14.82230390625,5.17591390625Q15.76480390625,6.11761390625,16.28410390625,7.34462390625Q16.82030390625,8.610603906249999,16.82030390625,9.99983390625Q16.82030390625,11.38806390625,16.28560390625,12.65370390625Q15.77010390625,13.87590390625,14.82380390625,14.82220390625Q13.88160390625,15.76440390625,12.65500390625,16.28410390625Q11.38906390625,16.82030390625,9.99983390625,16.82030390625Q8.61162390625,16.82030390625,7.34595390625,16.28560390625Q6.12372390625,15.77010390625,5.17744390625,14.82380390625Q4.23522390625,13.88160390625,3.71557390625,12.65500390625Q3.1793439062499997,11.38907390625,3.1793439062499997,9.99983390625Q3.1793439062499997,9.68630390625,2.95789390625,9.464863906249999Q2.73645390625,9.243423906250001,2.42292190625,9.243423906250001Q2.10939090625,9.243423906250001,1.88794790625,9.464863906249999Q1.66650390625,9.68630390625,1.66650390625,9.99983390625Q1.66650390625,11.69720390625,2.32088790625,13.24370390625Q2.95200390625,14.73590390625,4.10789390625,15.89180390625Q5.26379390625,17.04770390625,6.75594390625,17.67880390625ZM2.48977690625,13.17230390625C2.90048390625,14.14330390625,3.48945390625,15.01400390625,4.23756390625,15.76210390625C3.48942390625,15.01400390625,2.90045390625,14.14330390625,2.48977690625,13.17230390625ZM1.84987790625,9.99983390625C1.84987790625,11.09976390625,2.06476890625,12.16780390625,2.48977690625,13.17230390625C2.06479890625,12.16780390625,1.84990790625,11.09975390625,1.84987790625,9.99983390625ZM9.99983390625,2.99596390625C9.68310390625,2.99595390625,9.42682390625,2.73968390625,9.426793906250001,2.42292190625C9.426793906250001,2.73968390625,9.68307390625,2.99596390625,9.99983390625,2.99596390625Z" fill-rule="evenodd" fill="#FFFFFF" fill-opacity="0.8500000238418579"/></g></g></svg>