<svg xmlns="http://www.w3.org/2000/svg" xmlns:xlink="http://www.w3.org/1999/xlink" fill="none" version="1.1" width="48" height="48" viewBox="0 0 48 48"><defs><clipPath id="master_svg0_1858_79162"><rect x="0" y="0" width="48" height="48" rx="0"/></clipPath></defs><g clip-path="url(#master_svg0_1858_79162)"><g><path d="M24,44C21.3008,44,18.6797,43.4727,16.2148,42.4297C13.83203,41.4219,11.69531,39.9766,9.85938,38.1406C8.02344,36.3047,6.57812,34.168,5.57031,31.7852C4.527344,29.3203,4,26.6992,4,24C4,23.2227,4.628906,22.5938,5.40625,22.5938C6.183590000000001,22.5938,6.8125,23.2227,6.8125,24C6.8125,26.3203,7.26562,28.5703,8.16406,30.6914C9.03125,32.738299999999995,10.26953,34.5781,11.847660000000001,36.1562C13.42578,37.7344,15.2656,38.9766,17.3125,39.8398C19.4297,40.7344,21.6797,41.1875,24,41.1875C26.3203,41.1875,28.5703,40.7344,30.6914,39.8359C32.738299999999995,38.9688,34.5781,37.7305,36.1562,36.1523C37.7344,34.574200000000005,38.9766,32.7344,39.8398,30.6875C40.7344,28.5703,41.1875,26.3203,41.1875,24C41.1875,21.6797,40.7344,19.4297,39.8359,17.3086C38.9717,15.2666,37.7209,13.41098,36.1523,11.84375C34.5868,10.273109999999999,32.7308,9.02201,30.6875,8.160160000000001C28.5703,7.26562,26.3203,6.8125,24,6.8125C23.2227,6.8125,22.5937,6.183590000000001,22.5937,5.40625C22.5937,4.628906,23.2227,4,24,4C26.6992,4,29.3203,4.527344,31.7852,5.57031C34.168,6.57812,36.3047,8.02344,38.1406,9.85938C39.9766,11.69531,41.418,13.83594,42.4258,16.2148C43.4688,18.6797,43.9961,21.3008,43.9961,24C43.9961,26.6992,43.4688,29.3203,42.4258,31.7852C41.4219,34.168,39.9766,36.3047,38.1406,38.1406C36.3047,39.9766,34.164100000000005,41.418,31.7852,42.4258C29.3203,43.4727,26.6992,44,24,44C24,44,24,44,24,44Z" fill="#FFFFFF" fill-opacity="0.8500000238418579"/></g></g></svg>