<svg width="19" height="17" viewBox="0 0 19 17" fill="none" xmlns="http://www.w3.org/2000/svg">
<g id="Vector">
<path d="M15.7196 17H3.22126C1.4715 17 0.0966797 15.7533 0.0966797 14.1667V7.36667C0.0966797 5.78 1.4715 4.53333 3.22126 4.53333H15.7196C17.4694 4.53333 18.8442 5.78 18.8442 7.36667V14.1667C18.8442 15.7533 17.4694 17 15.7196 17ZM3.22126 5.66667C2.1589 5.66667 1.34651 6.40333 1.34651 7.36667V14.1667C1.34651 15.13 2.1589 15.8667 3.22126 15.8667H15.7196C16.782 15.8667 17.5943 15.13 17.5943 14.1667V7.36667C17.5943 6.40333 16.782 5.66667 15.7196 5.66667H3.22126Z" fill="#8793B6"/>
<path d="M9.47043 12.1833C9.28295 12.1833 9.15797 12.07 9.15797 11.9V9.06667C9.15797 8.89667 9.28295 8.78333 9.47043 8.78333C9.6579 8.78333 9.78289 8.89667 9.78289 9.06667V11.9C9.78289 12.07 9.6579 12.1833 9.47043 12.1833Z" fill="#8793B6"/>
<path d="M9.47043 12.4667C9.09548 12.4667 8.84551 12.24 8.84551 11.9V9.06667C8.84551 8.72667 9.09548 8.5 9.47043 8.5C9.84538 8.5 10.0953 8.72667 10.0953 9.06667V11.9C10.0953 12.24 9.84538 12.4667 9.47043 12.4667Z" fill="#8793B6"/>
<path d="M14.4698 5.66667H4.4711V4.53333C4.4711 2.04 6.7208 0 9.47043 0C12.2201 0 14.4698 2.04 14.4698 4.53333V5.66667ZM5.72093 4.53333H13.2199C13.2199 2.66333 11.5327 1.13333 9.47043 1.13333C7.4082 1.13333 5.72093 2.66333 5.72093 4.53333Z" fill="#8793B6"/>
</g>
</svg>
