<svg xmlns="http://www.w3.org/2000/svg" xmlns:xlink="http://www.w3.org/1999/xlink" fill="none" version="1.1" width="20" height="20" viewBox="0 0 20 20"><defs><clipPath id="master_svg0_21443_025172/1141_040392"><rect x="0" y="0" width="20" height="20" rx="0"/></clipPath></defs><g clip-path="url(#master_svg0_21443_025172/1141_040392)"><g><path d="M18.11120390625,1.88841390625C18.31710390625,2.09419990625,18.38680390625,2.39967790625,18.29060390625,2.67436390625C18.29060390625,2.67436390625,12.98760390625,17.82590390625,12.98760390625,17.82590390625C12.88500390625,18.11910390625,12.61380390625,18.31990390625,12.30350390625,18.33250390625C11.99310390625,18.34520390625,11.70640390625,18.16710390625,11.58027390625,17.88330390625C11.58027390625,17.88330390625,8.668313906249999,11.33133390625,8.668313906249999,11.33133390625C8.668313906249999,11.33133390625,2.11640290625,8.41940390625,2.11640290625,8.41940390625C1.83255390625,8.29324390625,1.65447550625,8.00660390625,1.66713745425,7.69623390625C1.67979940625,7.38588390625,1.88063490625,7.11469390625,2.17381790625,7.01208390625C2.17381790625,7.01208390625,17.32530390625,1.70905650625,17.32530390625,1.70905650625C17.600003906250002,1.61291620625,17.90550390625,1.68262750625,18.11120390625,1.88841390625C18.11120390625,1.88841390625,18.11120390625,1.88841390625,18.11120390625,1.88841390625ZM10.14588390625,10.92520390625C10.14588390625,10.92520390625,12.18880390625,15.52180390625,12.18880390625,15.52180390625C12.18880390625,15.52180390625,15.76380390625,5.30718390625,15.76380390625,5.30718390625C15.76380390625,5.30718390625,10.14588390625,10.92520390625,10.14588390625,10.92520390625C10.14588390625,10.92520390625,10.14588390625,10.92520390625,10.14588390625,10.92520390625ZM14.69250390625,4.23581390625C14.69250390625,4.23581390625,4.47792390625,7.81091390625,4.47792390625,7.81091390625C4.47792390625,7.81091390625,9.074473906249999,9.85384390625,9.074473906249999,9.85384390625C9.074473906249999,9.85384390625,14.69250390625,4.23581390625,14.69250390625,4.23581390625C14.69250390625,4.23581390625,14.69250390625,4.23581390625,14.69250390625,4.23581390625Z" fill-rule="evenodd" fill="#FFFFFF" fill-opacity="0.8500000238418579"/></g></g></svg>