<svg width="17" height="19" viewBox="0 0 17 19" fill="none" xmlns="http://www.w3.org/2000/svg">
<path id="Vector" d="M12.1384 2.36713L12.1605 2.37594L12.1833 2.38262C13.2334 2.69057 14.3071 2.94229 15.3941 3.10774C15.9833 3.2287 16.4198 3.72919 16.4556 4.33099C16.5305 6.11254 16.5119 7.89331 16.3904 9.68283C16.046 12.5476 14.7565 14.7566 13.2084 16.2488C11.6452 17.7555 9.85428 18.5 8.53928 18.5C7.90334 18.5 7.08328 18.2462 6.18511 17.7518C5.29531 17.262 4.36686 16.557 3.52255 15.7067C1.8219 13.9942 0.536615 11.7709 0.5 9.63036V4.33709C0.531702 3.74054 0.980271 3.25563 1.56637 3.1788C2.65211 3.07926 3.70675 2.81411 4.71063 2.40396C5.78725 2.08815 6.78061 1.53492 7.62356 0.804968C8.09493 0.428591 8.75683 0.399488 9.2565 0.72379C10.1358 1.40247 11.1032 1.95349 12.1384 2.36713ZM15.8822 9.63865L15.8841 9.62333L15.885 9.60792C15.9906 7.87208 16.0099 6.10687 15.933 4.35993L15.9319 4.33541L15.9284 4.31112C15.8867 4.01943 15.6826 3.69934 15.3004 3.61753L15.2878 3.61484L15.2751 3.6128C14.1751 3.43587 13.0837 3.18433 12.0198 2.86739L12.0198 2.86736L12.0142 2.86578L11.9781 2.85547L11.9407 2.83944L11.9407 2.83926L11.928 2.83423C10.8683 2.41446 9.87214 1.84855 8.96715 1.1546L8.94023 1.13395L8.91076 1.11713C8.75028 1.02553 8.5927 1.00388 8.48223 1.00388C8.33075 1.00388 8.13665 1.05017 7.96373 1.17971L7.94851 1.19111L7.9342 1.20364C7.06715 1.96256 6.01759 2.53681 4.90305 2.87798L4.88172 2.8845L4.86106 2.89291C3.83206 3.31132 2.74739 3.57551 1.64335 3.68488L1.64335 3.68484L1.63749 3.68549C1.30651 3.72223 1.05586 3.99449 1.02396 4.31311L1.02148 4.33795V4.36291V9.61555H1.02135L1.0216 9.62673C1.06349 11.4993 2.14035 13.5712 3.89629 15.3349C4.74125 16.1839 5.62768 16.8352 6.42939 17.277C7.21473 17.7098 7.97175 17.9708 8.54879 17.9708C9.77509 17.9708 11.4406 17.2269 12.8637 15.8537C14.3048 14.4632 15.5439 12.3866 15.8822 9.63865ZM6.53169 11.1018L4.68005 9.2523C4.58079 9.15315 4.58079 8.98562 4.68005 8.88648C4.77962 8.78702 4.94832 8.78702 5.04789 8.88648L6.88085 10.7174L6.68347 10.9145L6.68342 10.9145L6.67772 10.9204C6.6227 10.9772 6.57401 11.038 6.53169 11.1018ZM12.3283 7.36573L8.61415 11.0757C8.56653 11.0017 8.51038 10.9316 8.4457 10.867L8.29587 10.7174L11.9926 7.02479C12.0787 6.93881 12.2306 6.92995 12.3347 7.0276C12.4181 7.11396 12.4256 7.26312 12.3283 7.36573ZM7.58836 11.4241L7.739 11.5745C7.83825 11.6737 7.83825 11.8412 7.739 11.9404C7.64271 12.0365 7.48179 12.0397 7.38124 11.9499C7.3037 11.8627 7.29901 11.7184 7.39381 11.6184L7.58836 11.4241Z" fill="#8793B6" stroke="#8793B6"/>
</svg>
