<svg xmlns="http://www.w3.org/2000/svg" xmlns:xlink="http://www.w3.org/1999/xlink" fill="none" version="1.1" width="20" height="20" viewBox="0 0 20 20"><defs><clipPath id="master_svg0_1282_22577"><rect x="0" y="0" width="20" height="20" rx="0"/></clipPath></defs><g clip-path="url(#master_svg0_1282_22577)"><g><path d="M16.5005755859375,4.213809482421874L10.1871155859375,2.031028782421875C10.0615055859375,1.989616382421875,9.9259155859375,1.989616382421875,9.8002955859375,2.031028782421875L3.4868125859375,4.213809482421874C3.2534295859375,4.296949482421875,3.0982224759375,4.518669482421875,3.0999905357375,4.766409482421874L3.0999905357375,11.494349482421875C3.2795865859375,15.445469482421874,9.523995585937499,17.849269482421874,9.7864855859375,17.959769482421876C9.919445585937499,18.013369482421876,10.0679755859375,18.013369482421876,10.2009355859375,17.959769482421876C10.4634155859375,17.863069482421874,16.7216755859375,15.431669482421874,16.8874755859375,11.466719482421874L16.8874755859375,4.738779482421875C16.8842755859375,4.4989694824218756,16.7287755859375,4.287809482421875,16.5005755859375,4.213809482421874ZM7.2795755859375,13.333269482421874C6.9042055859375004,13.333269482421874,6.5999755859375,13.028069482421875,6.5999755859375,12.651469482421875C6.5999755859375,11.436659482421875,7.2332255859375,10.370299482421874,8.186905585937499,9.766559482421876C7.8330955859375,9.349959482421875,7.6194655859375,8.809819482421876,7.6194655859375,8.219639482421876C7.6194655859375,6.901699482421875,8.6845455859375,5.833279482421875,9.9983355859375,5.833279482421875C11.3121355859375,5.833279482421875,12.3772155859375,6.901699482421875,12.3772155859375,8.219639482421876C12.3772155859375,8.809819482421876,12.1637755859375,9.349959482421875,11.8099655859375,9.766559482421876C12.7634555859375,10.370299482421874,13.3968755859375,11.436659482421875,13.3968755859375,12.651469482421875C13.3968755859375,13.028069482421875,13.0924755859375,13.333269482421874,12.7171055859375,13.333269482421874C12.3417355859375,13.333269482421874,12.0375155859375,13.028069482421875,12.0375155859375,12.651469482421875C12.0375155859375,11.521759482421874,11.1246455859375,10.605999482421876,9.9983355859375,10.605999482421876C8.8722255859375,10.605999482421876,7.9593555859375,11.521759482421874,7.9593555859375,12.651469482421875C7.9593555859375,13.028069482421875,7.6549455859375,13.333269482421874,7.2795755859375,13.333269482421874Z" fill-rule="evenodd" fill="#FFFFFF" fill-opacity="1"/></g></g></svg>