<svg xmlns="http://www.w3.org/2000/svg" xmlns:xlink="http://www.w3.org/1999/xlink" fill="none" version="1.1" width="20" height="20" viewBox="0 0 20 20"><defs><clipPath id="master_svg0_21208_63973"><rect x="0" y="0" width="20" height="20" rx="0"/></clipPath></defs><g clip-path="url(#master_svg0_21208_63973)"><g><path d="M15.5002,3.00002L13.5002,3.00002L13.5002,3.2500400000000003C13.5002,4.07841,12.82875,4.7500599999999995,12.00014,4.7500599999999995L8.00008,4.7500599999999995C7.1717,4.7500599999999995,6.50005,4.07841,6.50005,3.2500400000000003L6.50005,3.0000299999999998L4.50003,3.0000299999999998C3.6716480000000002,3.0000299999999998,3,3.6716699999999998,3,4.50005L3,16.5C3,17.3286,3.671626,18,4.50003,18L15.5002,18C16.3288,18,17.0002,17.3286,17.0002,16.5L17.0002,4.50005C17.0002,3.6716699999999998,16.3288,3.00002,15.5002,3.00002ZM13.5002,13.9999L6.50005,13.9999C6.22393,13.9999,6.000030000000001,13.7763,6.000030000000001,13.4999C6.000030000000001,13.224,6.22391,12.9999,6.50005,12.9999L13.5002,12.9999C13.776,12.9999,14.0002,13.224,14.0002,13.4999C14.0002,13.7763,13.776,13.9999,13.5002,13.9999ZM13.5002,10.99989L6.50005,10.99989C6.22393,10.99989,6.000030000000001,10.77626,6.000030000000001,10.49989C6.000030000000001,10.22401,6.22391,10.00011,6.50005,10.00011L13.5002,10.00011C13.776,10.00011,14.0002,10.22401,14.0002,10.49989C14.0002,10.77626,13.776,10.99989,13.5002,10.99989ZM13.5002,8.0001L6.50005,8.0001C6.22393,8.0001,6.000030000000001,7.77623,6.000030000000001,7.5001C6.000030000000001,7.22398,6.22391,7.0001,6.50005,7.0001L13.5002,7.0001C13.776,7.0001,14.0002,7.22398,14.0002,7.5001C14.0002,7.77623,13.776,8.0001,13.5002,8.0001ZM8.25009,4.00005L11.75014,4.00005C12.1647,4.00005,12.50016,3.6641,12.50016,3.2500400000000003L12.50016,2.750013C12.50016,2.335703,12.1647,2,11.75014,2L8.25009,2.00000020982C7.83578,2.00000020982,7.50008,2.335703,7.50008,2.750013L7.50008,3.2500400000000003C7.50008,3.6641,7.83578,4.00005,8.25009,4.00005Z" fill="#FFFFFF" fill-opacity="1"/></g></g></svg>