<svg xmlns="http://www.w3.org/2000/svg" xmlns:xlink="http://www.w3.org/1999/xlink" fill="none" version="1.1" width="20" height="20" viewBox="0 0 20 20"><defs><clipPath id="master_svg0_21188_55998"><rect x="0" y="0" width="20" height="20" rx="0"/></clipPath></defs><g clip-path="url(#master_svg0_21188_55998)"><g><path d="M18,9.52999997138977C18,13.39599997138977,14.418,16.52999997138977,10,16.52999997138977C9.20767,16.53109997138977,8.41859,16.42819997138977,7.653,16.223999971389773C7.069,16.519999971389772,5.728,17.08799997138977,3.472,17.45799997138977C3.2720000000000002,17.48999997138977,3.12,17.281999971389773,3.199,17.095999971389773C3.553,16.25999997138977,3.873,15.14599997138977,3.9690000000000003,14.12999997138977C2.7439999999999998,12.89999997138977,2,11.28999997138977,2,9.52999997138977C2,5.663999971389771,5.582,2.5299999713897705,10,2.5299999713897705C14.418,2.5299999713897705,18,5.663999971389771,18,9.52999997138977C18,9.52999997138977,18,9.52999997138977,18,9.52999997138977ZM7,9.52999997138977C7,9.26479997138977,6.89464,9.01042997138977,6.70711,8.82288997138977C6.51957,8.635359971389772,6.26521,8.52999997138977,6,8.52999997138977C5.73479,8.52999997138977,5.48043,8.635359971389772,5.29289,8.82288997138977C5.10536,9.01042997138977,5,9.26479997138977,5,9.52999997138977C5,9.79519997138977,5.10536,10.049599971389771,5.29289,10.23712997138977C5.48043,10.42466997138977,5.73479,10.52999997138977,6,10.52999997138977C6.26521,10.52999997138977,6.51957,10.42466997138977,6.70711,10.23712997138977C6.89464,10.049599971389771,7,9.79519997138977,7,9.52999997138977C7,9.52999997138977,7,9.52999997138977,7,9.52999997138977C7,9.52999997138977,7,9.52999997138977,7,9.52999997138977ZM11,9.52999997138977C11,9.26479997138977,10.89467,9.01042997138977,10.70713,8.82288997138977C10.5196,8.635359971389772,10.2652,8.52999997138977,10,8.52999997138977C9.7348,8.52999997138977,9.4804,8.635359971389772,9.29287,8.82288997138977C9.10533,9.01042997138977,9,9.26479997138977,9,9.52999997138977C9,9.79519997138977,9.10533,10.049599971389771,9.29287,10.23712997138977C9.4804,10.42466997138977,9.7348,10.52999997138977,10,10.52999997138977C10.2652,10.52999997138977,10.5196,10.42466997138977,10.70713,10.23712997138977C10.89467,10.049599971389771,11,9.79519997138977,11,9.52999997138977C11,9.52999997138977,11,9.52999997138977,11,9.52999997138977C11,9.52999997138977,11,9.52999997138977,11,9.52999997138977ZM14,10.52999997138977C14.2652,10.52999997138977,14.5196,10.42466997138977,14.7071,10.23712997138977C14.8947,10.049599971389771,15,9.79519997138977,15,9.52999997138977C15,9.26479997138977,14.8947,9.01042997138977,14.7071,8.82288997138977C14.5196,8.635359971389772,14.2652,8.52999997138977,14,8.52999997138977C13.7348,8.52999997138977,13.4804,8.635359971389772,13.2929,8.82288997138977C13.1053,9.01042997138977,13,9.26479997138977,13,9.52999997138977C13,9.79519997138977,13.1053,10.049599971389771,13.2929,10.23712997138977C13.4804,10.42466997138977,13.7348,10.52999997138977,14,10.52999997138977C14,10.52999997138977,14,10.52999997138977,14,10.52999997138977C14,10.52999997138977,14,10.52999997138977,14,10.52999997138977Z" fill="#FFFFFF" fill-opacity="0.6000000238418579"/></g></g></svg>