<svg xmlns="http://www.w3.org/2000/svg" xmlns:xlink="http://www.w3.org/1999/xlink" fill="none" version="1.1" width="20" height="20" viewBox="0 0 20 20"><defs><clipPath id="master_svg0_1282_22611"><rect x="0" y="0" width="20" height="20" rx="0"/></clipPath></defs><g clip-path="url(#master_svg0_1282_22611)"><g><path d="M11.52389896484375,2.582103L17.99993896484375,8.289629999999999L16.98393896484375,9.552299999999999L16.308938964843747,8.957370000000001L16.308938964843747,15.5239C16.308938964843747,16.8914,15.24963896484375,18,13.94303896484375,18L6.05669896484375,18C4.750048964843749,18,3.69079896484375,16.8914,3.69079896484375,15.5239L3.69079896484375,8.9575L3.0159089648437503,9.552299999999999L1.99993896484375,8.289629999999999L8.475978964843751,2.582104C9.35661896484375,1.805966,10.64324896484375,1.805965,11.52389896484375,2.582103ZM11.97144896484375,16.3493L8.02827896484375,16.3493C7.59272896484375,16.3493,7.23964896484375,15.9797,7.23964896484375,15.5239L7.23964896484375,12.2224C7.23964896484375,10.85492,8.298898964843751,9.74633,9.60554896484375,9.74633L10.39417896484375,9.74633C11.70082896484375,9.74633,12.76003896484375,10.85492,12.76003896484375,12.2224L12.76003896484375,15.5239C12.76003896484375,15.9797,12.40703896484375,16.3493,11.97144896484375,16.3493Z" fill-rule="evenodd" fill="#FFFFFF" fill-opacity="1"/></g></g></svg>