<svg xmlns="http://www.w3.org/2000/svg" xmlns:xlink="http://www.w3.org/1999/xlink" fill="none" version="1.1" width="20" height="20" viewBox="0 0 20 20"><defs><clipPath id="master_svg0_1282_22525"><rect x="0" y="0" width="20" height="20" rx="0"/></clipPath></defs><g clip-path="url(#master_svg0_1282_22525)"><g><path d="M3.9998779296875,4.00006103515625C3.4694479296875,4.00006103515625,2.9607379296875003,4.21077403515625,2.5856649296875,4.58584803515625C2.2105919296875,4.96092103515625,1.9998779296875004,5.46963103515625,1.9998779296875,6.00006103515625L1.9998779296875004,7.00006103515625C1.9998779296875007,7.53049103515625,2.2105919296875,8.03920103515625,2.5856649296875,8.41427103515625C2.9607379296875003,8.789351035156251,3.4694479296875,9.00006103515625,3.9998779296875,9.00006103515625L9.4998779296875,9.00006103515625L9.4998779296875,12.00006103515625C9.1020779296875,12.00006103515625,8.7205479296875,12.15813103515625,8.4392179296875,12.43939103515625C8.1579079296875,12.72073103515625,7.9998779296875,13.10226103515625,7.9998779296875,13.50006103515625L2.4998779296875,13.50006103515625C2.3672699296875,13.50006103515625,2.2400929296875,13.55273103515625,2.1463249296875,13.64653103515625C2.0525563296875,13.74026103515625,1.9998779296875004,13.86746103515625,1.9998779296875002,14.00006103515625C1.9998779296875004,14.13266103515625,2.0525563296875,14.25986103515625,2.1463249296875,14.35356103515625C2.2400929296875,14.44736103515625,2.3672699296875,14.50006103515625,2.4998779296875,14.50006103515625L7.9998779296875,14.50006103515625C7.9998779296875,14.89786103515625,8.1579079296875,15.27936103515625,8.4392179296875,15.56076103515625C8.7205479296875,15.84196103515625,9.1020779296875,16.00006103515625,9.4998779296875,16.00006103515625L10.4998779296875,16.00006103515625C10.8976779296875,16.00006103515625,11.2792079296875,15.84196103515625,11.5605479296875,15.56076103515625C11.8418079296875,15.27936103515625,11.9998779296875,14.89786103515625,11.9998779296875,14.50006103515625L17.4998779296875,14.50006103515625C17.6324779296875,14.50006103515625,17.7596779296875,14.44736103515625,17.8533779296875,14.35356103515625C17.9471779296875,14.25986103515625,17.9998779296875,14.13266103515625,17.9998779296875,14.00006103515625C17.9998779296875,13.86746103515625,17.9471779296875,13.74026103515625,17.8533779296875,13.64653103515625C17.7596779296875,13.55273103515625,17.6324779296875,13.50006103515625,17.4998779296875,13.50006103515625L11.9998779296875,13.50006103515625C11.9998779296875,13.10226103515625,11.8418079296875,12.72073103515625,11.5605479296875,12.43939103515625C11.2792079296875,12.15813103515625,10.8976779296875,12.00006103515625,10.4998779296875,12.00006103515625L10.4998779296875,9.00006103515625L15.9998779296875,9.00006103515625C16.5302779296875,9.00006103515625,17.038977929687498,8.789351035156251,17.4140779296875,8.41427103515625C17.7891779296875,8.03920103515625,17.9998779296875,7.53049103515625,17.9998779296875,7.00006103515625L17.9998779296875,6.00006103515625C17.9998779296875,5.46963103515625,17.7891779296875,4.96092103515625,17.4140779296875,4.58584803515625C17.038977929687498,4.21077403515625,16.5302779296875,4.00006103515625,15.9998779296875,4.00006103515625L3.9998779296875,4.00006103515625ZM4.4998779296875,7.00006103515625C4.3672679296875,7.00006103515625,4.240087929687499,6.9473810351562495,4.1463279296875,6.85361103515625C4.0525579296875005,6.759851035156251,3.9998779296875,6.63267103515625,3.9998779296875,6.50006103515625C3.9998779296875,6.36745103515625,4.0525579296875005,6.240271035156249,4.1463279296875,6.14651103515625C4.240087929687499,6.0527410351562505,4.3672679296875,6.00006103515625,4.4998779296875,6.00006103515625C4.6324879296875,6.00006103515625,4.759667929687501,6.0527410351562505,4.8534279296875,6.14651103515625C4.9471979296874995,6.240271035156249,4.9998779296875,6.36745103515625,4.9998779296875,6.50006103515625C4.9998779296875,6.63267103515625,4.9471979296874995,6.759851035156251,4.8534279296875,6.85361103515625C4.759667929687501,6.9473810351562495,4.6324879296875,7.00006103515625,4.4998779296875,7.00006103515625ZM6.4998779296875,7.00006103515625C6.3672679296875,7.00006103515625,6.2400879296875,6.9473810351562495,6.1463279296875,6.85361103515625C6.0525579296875,6.759851035156251,5.9998779296875,6.63267103515625,5.9998779296875,6.50006103515625C5.9998779296875,6.36745103515625,6.0525579296875,6.240271035156249,6.1463279296875,6.14651103515625C6.2400879296875,6.0527410351562505,6.3672679296875,6.00006103515625,6.4998779296875,6.00006103515625C6.6324879296875,6.00006103515625,6.7596679296875,6.0527410351562505,6.8534279296875,6.14651103515625C6.9471979296875,6.240271035156249,6.9998779296875,6.36745103515625,6.9998779296875,6.50006103515625C6.9998779296875,6.63267103515625,6.9471979296875,6.759851035156251,6.8534279296875,6.85361103515625C6.7596679296875,6.9473810351562495,6.6324879296875,7.00006103515625,6.4998779296875,7.00006103515625Z" fill="#FFFFFF" fill-opacity="0.6000000238418579"/></g></g></svg>