<svg xmlns="http://www.w3.org/2000/svg" xmlns:xlink="http://www.w3.org/1999/xlink" fill="none" version="1.1" width="20" height="20" viewBox="0 0 20 20"><g><g><path d="M1.9998779296875,10C1.9998779296875,5.58172,5.5815979296875,2,9.9998779296875,2C14.4181779296875,2,17.9998779296875,5.58172,17.9998779296875,10C17.9998779296875,14.4183,14.4181779296875,18,9.9998779296875,18C5.5815979296875,18,1.9998779296875,14.4183,1.9998779296875,10ZM7.3037979296875,6.21301C7.5878179296875,5.929,8.0482979296875,5.929,8.3323179296875,6.21301L9.9998779296875,7.88057L11.6674379296875,6.21301C11.9514379296875,5.929,12.4119779296875,5.929,12.6959779296875,6.21301C12.9799779296875,6.49703,12.9799779296875,6.95751,12.6959779296875,7.24153L11.3920279296875,8.545449999999999L12.1816779296875,8.545449999999999C12.5833779296875,8.545449999999999,12.9089779296875,8.87107,12.9089779296875,9.27273C12.9089779296875,9.6744,12.5833779296875,10,12.1816779296875,10L10.7302079296875,10L10.7302079296875,10.72727L12.1816779296875,10.72727C12.5833779296875,10.72727,12.9089779296875,11.05287,12.9089779296875,11.45455C12.9089779296875,11.85622,12.5833779296875,12.1818,12.1816779296875,12.1818L10.7302079296875,12.1818L10.7302079296875,13.6364C10.7302079296875,14.038,10.4045279296875,14.3636,10.0029279296875,14.3636C9.601257929687499,14.3636,9.275657929687501,14.038,9.275657929687501,13.6364L9.275657929687501,12.1818L7.8180579296875,12.1818C7.4163979296875,12.1818,7.0907879296875,11.85622,7.0907879296875,11.45455C7.0907879296875,11.05287,7.4163979296875,10.72727,7.8180579296875,10.72727L9.275657929687501,10.72727L9.275657929687501,10L7.8180579296875,10C7.4163979296875,10,7.0907879296875,9.6744,7.0907879296875,9.27273C7.0907879296875,8.87107,7.4163979296875,8.545449999999999,7.8180579296875,8.545449999999999L8.6077279296875,8.545449999999999L7.3037979296875,7.24153C7.0197879296875,6.95751,7.0197879296875,6.49703,7.3037979296875,6.21301Z" fill-rule="evenodd" fill="#FFFFFF" fill-opacity="0.6000000238418579"/></g></g></svg>