<svg xmlns="http://www.w3.org/2000/svg" xmlns:xlink="http://www.w3.org/1999/xlink" fill="none" version="1.1" width="20" height="20" viewBox="0 0 20 20"><defs><clipPath id="master_svg0_1282_22599"><rect x="0" y="0" width="20" height="20" rx="0"/></clipPath></defs><g clip-path="url(#master_svg0_1282_22599)"><g><path d="M1.9998779296875,3.5C1.9998779296875,3.367392,2.0525563296875,3.240215,2.1463249296875,3.146447C2.2400929296875,3.0526784,2.3672699296875,3.0000000000000004,2.4998779296875,3C2.4998779296875,3,3.4998779296875,3,3.4998779296875,3C3.6324879296874997,3.0000000000000004,3.7596679296874997,3.0526784,3.8534279296875003,3.146447C3.9471979296875,3.240215,3.9998779296875,3.367392,3.9998779296875,3.5C3.9998779296875,3.5,3.9998779296875,6,3.9998779296875,6C3.9998779296875,6,17.4998779296875,6,17.4998779296875,6C17.6324779296875,6,17.7596779296875,6.0526800000000005,17.8533779296875,6.14645C17.9471779296875,6.240209999999999,17.9998779296875,6.36739,17.9998779296875,6.5C17.9998779296875,6.5,17.9998779296875,13.5,17.9998779296875,13.5C17.9998779296875,13.6326,17.9471779296875,13.7598,17.8533779296875,13.8535C17.7596779296875,13.9473,17.6324779296875,14,17.4998779296875,14C17.4998779296875,14,3.9998779296875,14,3.9998779296875,14C3.9998779296875,14,3.9998779296875,16.5,3.9998779296875,16.5C3.9998779296875,16.6326,3.9471979296875,16.7598,3.8534279296875003,16.8535C3.7596679296874997,16.9473,3.6324879296874997,17,3.4998779296875,17C3.3672679296875003,17,3.2400879296875003,16.9473,3.1463279296874997,16.8535C3.0525579296875,16.7598,2.9998779296875,16.6326,2.9998779296875,16.5C2.9998779296875,16.5,2.9998779296875,4,2.9998779296875,4C2.9998779296875,4,2.4998779296875,4,2.4998779296875,4C2.3672699296875,4,2.2400929296875,3.94732,2.1463249296875,3.853553C2.0525563296875,3.759787,1.9998779296875,3.632608,1.9998779296875,3.5C1.9998779296875,3.5,1.9998779296875,3.5,1.9998779296875,3.5ZM6.6666279296875,14.5C6.6666279296875,14.5,10.1663779296875,14.5,10.1663779296875,14.5C10.1663779296875,14.5,10.1663779296875,15.5,10.1663779296875,15.5C10.1663779296875,15.6326,10.1136679296875,15.7598,10.0198979296875,15.8535C9.9261279296875,15.9473,9.7993179296875,16,9.666707929687501,16C9.666707929687501,16,7.1667079296875,16,7.1667079296875,16C7.0340979296875,16,6.9068779296875,15.9473,6.8131079296875,15.8535C6.7193479296875,15.7598,6.6666279296875,15.6326,6.6666279296875,15.5C6.6666279296875,15.5,6.6666279296875,14.5,6.6666279296875,14.5C6.6666279296875,14.5,6.6666279296875,14.5,6.6666279296875,14.5ZM10.6664579296875,15.5C10.6664579296875,15.5,10.6664579296875,14.5,10.6664579296875,14.5C10.6664579296875,14.5,14.6666779296875,14.5,14.6666779296875,14.5C14.6666779296875,14.5,14.6666779296875,15.5,14.6666779296875,15.5C14.6666779296875,15.6326,14.6139779296875,15.7598,14.5201779296875,15.8535C14.4264779296875,15.9473,14.2991779296875,16,14.1665779296875,16C14.1665779296875,16,11.1665479296875,16,11.1665479296875,16C11.0339479296875,16,10.9066779296875,15.9473,10.8129479296875,15.8535C10.7191479296875,15.7598,10.6664579296875,15.6326,10.6664579296875,15.5C10.6664579296875,15.5,10.6664579296875,15.5,10.6664579296875,15.5ZM7.4998779296875,7.5C6.8368379296875,7.5,6.2009479296875,7.76339,5.7321079296874995,8.232230000000001C5.263267929687499,8.70107,4.9998779296875,9.336960000000001,4.9998779296875,10C4.9998779296875,10.663070000000001,5.263267929687499,11.29893,5.7321079296874995,11.7678C6.2009479296875,12.2366,6.8368379296875,12.5,7.4998779296875,12.5C8.162917929687499,12.5,8.7988079296875,12.2366,9.267677929687501,11.7678C9.7364779296875,11.29893,9.9998779296875,10.663070000000001,9.9998779296875,10C9.9998779296875,9.336960000000001,9.7364779296875,8.70107,9.267677929687501,8.232230000000001C8.7988079296875,7.76339,8.162917929687499,7.5,7.4998779296875,7.5C7.4998779296875,7.5,7.4998779296875,7.5,7.4998779296875,7.5ZM10.9998779296875,10C10.9998779296875,9.336960000000001,11.2632779296875,8.70107,11.7320779296875,8.232230000000001C12.2009779296875,7.76339,12.8367779296875,7.5,13.4998779296875,7.5C14.1629779296875,7.5,14.7987779296875,7.76339,15.2675779296875,8.232230000000001C15.7364779296875,8.70107,15.9998779296875,9.336960000000001,15.9998779296875,10C15.9998779296875,10.663070000000001,15.7364779296875,11.29893,15.2675779296875,11.7678C14.7987779296875,12.2366,14.1629779296875,12.5,13.4998779296875,12.5C12.8367779296875,12.5,12.2009779296875,12.2366,11.7320779296875,11.7678C11.2632779296875,11.29893,10.9998779296875,10.663070000000001,10.9998779296875,10C10.9998779296875,10,10.9998779296875,10,10.9998779296875,10C10.9998779296875,10,10.9998779296875,10,10.9998779296875,10Z" fill-rule="evenodd" fill="#FFFFFF" fill-opacity="1"/></g></g></svg>