<svg xmlns="http://www.w3.org/2000/svg" xmlns:xlink="http://www.w3.org/1999/xlink" fill="none" version="1.1" width="20" height="20" viewBox="0 0 20 20"><defs><clipPath id="master_svg0_1282_22883"><rect x="0" y="0" width="20" height="20" rx="0"/></clipPath></defs><g clip-path="url(#master_svg0_1282_22883)"><g><path d="M7.9233579296875,14.431349609375L3.8229879296875,14.431349609375C2.6251349296875,14.431349609375,1.9998779296875,13.825849609375,1.9998779296875,12.601679609375L1.9998779296875,5.013049609375C1.9998779296875,3.788861609375,2.6251349296875,3.183349609375,3.8229879296875,3.183349609375L16.1767779296875,3.183349609375C17.3745779296875,3.183349609375,17.9998779296875,3.788861609375,17.9998779296875,5.013049609375L17.9998779296875,12.601679609375C17.9998779296875,13.825849609375,17.3745779296875,14.431349609375,16.1767779296875,14.431349609375L12.0763779296875,14.431349609375L12.2540779296875,15.622649609375L12.9517779296875,15.622649609375C13.2808779296875,15.622649609375,13.5506779296875,15.892549609375,13.5506779296875,16.228249609375C13.5506779296875,16.550649609375,13.2808779296875,16.827149609375,12.9517779296875,16.827149609375L7.0480079296875,16.827149609375C6.7189279296875,16.827149609375,6.4490679296875,16.550649609375,6.4490679296875,16.228249609375C6.4490679296875,15.892549609375,6.7189279296875,15.622649609375,7.0480079296875,15.622649609375L7.7456579296875,15.622649609375L7.9233579296875,14.431349609375ZM3.2832979296875,11.094499609375C3.2832979296875,11.298519609375,3.3688579296875,11.370919609375,3.5597379296875,11.370919609375L16.4400779296875,11.370919609375C16.6308779296875,11.370919609375,16.7164779296875,11.298519609375,16.7164779296875,11.094499609375L16.7164779296875,5.092029609375C16.7164779296875,4.644469609375,16.5255779296875,4.466769609375,16.0911779296875,4.466769609375L3.9085579296875,4.466769609375C3.4741679296875,4.466769609375,3.2832979296875,4.644469609375,3.2832979296875,5.092029609375L3.2832979296875,11.094499609375ZM12.4999779296875,5.676429609375C12.4999779296875,5.601799609375,12.4678779296875,5.530779609375,12.4118779296875,5.481469609375C12.3558779296875,5.432159609375001,12.2813779296875,5.409319609375,12.2072779296875,5.4187896093750005L10.0790779296875,5.690819609375C9.949417929687499,5.707389609374999,9.8522679296875,5.817739609375,9.8522679296875,5.948459609375L9.8522679296875,7.580649609375C9.8522679296875,7.724099609375,9.968557929687499,7.840389609375,10.1119979296875,7.840389609375L12.2402779296875,7.840389609375C12.3836779296875,7.840389609375,12.4999779296875,7.724099609375,12.4999779296875,7.580649609375L12.4999779296875,5.676429609375ZM9.6996679296875,6.012469609375C9.6996679296875,5.937589609374999,9.667357929687501,5.8663596093749995,9.6110279296875,5.817039609375C9.5546979296875,5.767719609375,9.4798179296875,5.745109609375,9.4056079296875,5.754999609375L7.7254079296875,5.979029609375C7.5963679296875,5.9962396093749994,7.4999979296875,6.106309609375,7.4999979296875,6.236489609375L7.4999979296875,7.580649609375C7.4999979296875,7.724099609375,7.6162879296875,7.840389609375,7.7597379296875,7.840389609375L9.4399279296875,7.840389609375C9.5833779296875,7.840389609375,9.6996679296875,7.724099609375,9.6996679296875,7.580649609375L9.6996679296875,6.012469609375ZM7.7659879296875,7.993059609375C7.6960379296875,7.991369609375,7.6283679296875,8.017979609375,7.5782979296875,8.066859609375001C7.5282279296875,8.115749609375001,7.4999979296875,8.182759609375001,7.4999979296875,8.252729609374999L7.4999979296875,9.425739609375C7.4999979296875,9.552549609375,7.5915479296875,9.660809609375,7.7165779296875,9.681869609375L9.396767929687499,9.965019609375C9.4721379296875,9.977719609375,9.5492779296875,9.956569609375,9.607637929687499,9.907219609375C9.666007929687499,9.857869609375001,9.6996679296875,9.785329609375001,9.6996679296875,9.708889609375L9.6996679296875,8.293179609374999C9.6996679296875,8.152159609375001,9.5871579296875,8.036919609375001,9.4461879296875,8.033509609374999L7.7659879296875,7.993059609375ZM10.1180679296875,8.105069609375C10.0481579296875,8.103439609375,9.9805379296875,8.130059609375,9.9305079296875,8.178939609375C9.880477929687501,8.227799609375001,9.8522679296875,8.294789609375,9.8522679296875,8.364729609375L9.8522679296875,9.808469609374999C9.8522679296875,9.935719609374999,9.9444579296875,10.044209609374999,10.0700379296875,10.064779609375L12.1982779296875,10.413279609375C12.2734779296875,10.425589609374999,12.3503779296875,10.404239609375,12.4084779296875,10.354889609375C12.4664779296875,10.305529609375,12.4999779296875,10.233169609375,12.4999779296875,10.156939609375L12.4999779296875,8.414529609375C12.4999779296875,8.273439609375,12.3873779296875,8.158139609374999,12.2463779296875,8.154839609375L10.1180679296875,8.105069609375ZM9.3515879296875,13.121679609375C9.3515879296875,13.477049609375,9.6477579296875,13.766649609375,10.0031679296875,13.766649609375C10.3519979296875,13.766649609375,10.6481779296875,13.477049609375,10.6481779296875,13.121679609375C10.6481779296875,12.766279609375,10.3519979296875,12.470019609375,10.0031679296875,12.470019609375C9.6477579296875,12.470019609375,9.3515879296875,12.766279609375,9.3515879296875,13.121679609375Z" fill-rule="evenodd" fill="#FFFFFF" fill-opacity="1"/></g></g></svg>