<svg xmlns="http://www.w3.org/2000/svg" xmlns:xlink="http://www.w3.org/1999/xlink" fill="none" version="1.1" width="20" height="20" viewBox="0 0 20 20"><defs><clipPath id="master_svg0_1282_22587"><rect x="0" y="0" width="20" height="20" rx="0"/></clipPath></defs><g clip-path="url(#master_svg0_1282_22587)"><g><path d="M15.6567779296875,15.6569C14.1564779296875,17.1571,12.1215779296875,18,9.9998779296875,18C7.8781479296875,18,5.8433179296875,17.1571,4.3430279296875,15.6569C2.8427319296875,14.1566,1.9998779296875,12.1217,1.9998779296875,10C1.9998779296875,7.87827,2.8427319296875,5.84344,4.3430279296875,4.34315C5.8433179296875,2.842854,7.8781479296875,2,9.9998779296875,2C12.1215779296875,2,14.1564779296875,2.842854,15.6567779296875,4.34315C17.1569779296875,5.84344,17.9998779296875,7.87827,17.9998779296875,10C17.9998779296875,12.1217,17.1569779296875,14.1566,15.6567779296875,15.6569ZM5.4743979296875,14.5254C6.6746279296875,15.7258,8.3024879296875,16.4,9.9998779296875,16.4C11.6972679296875,16.4,13.3250779296875,15.7258,14.5252779296875,14.5254C15.7256779296875,13.3252,16.3998779296875,11.69739,16.3998779296875,10C16.3998779296875,8.30261,15.7256779296875,6.67475,14.5252779296875,5.47452C13.3250779296875,4.27428,11.6972679296875,3.6,9.9998779296875,3.6C8.3024879296875,3.6,6.6746279296875,4.27428,5.4743979296875,5.47452C4.2741579296875,6.67475,3.5998779296875,8.30261,3.5998779296875,10C3.5998779296875,11.69739,4.2741579296875,13.3252,5.4743979296875,14.5254ZM12.2625779296875,12.2627C12.8627779296875,11.66262,13.1998779296875,10.84869,13.1998779296875,10C13.1998779296875,9.151309999999999,12.8627779296875,8.33738,12.2625779296875,7.73726C11.6624979296875,7.13714,10.8485679296875,6.8,9.9998779296875,6.8C9.151187929687499,6.8,8.3372579296875,7.13714,7.7371379296875,7.73726C7.1370179296875,8.33738,6.7998779296875,9.151309999999999,6.7998779296875,10C6.7998779296875,10.84869,7.1370179296875,11.66262,7.7371379296875,12.2627C8.3372579296875,12.8629,9.151187929687499,13.2,9.9998779296875,13.2C10.8485679296875,13.2,11.6624979296875,12.8629,12.2625779296875,12.2627Z" fill-rule="evenodd" fill="#FFFFFF" fill-opacity="1"/></g></g></svg>