<svg xmlns="http://www.w3.org/2000/svg" xmlns:xlink="http://www.w3.org/1999/xlink" fill="none" version="1.1" width="20" height="20" viewBox="0 0 20 20"><defs><clipPath id="master_svg0_1282_22502"><rect x="0" y="0" width="20" height="20" rx="0"/></clipPath></defs><g clip-path="url(#master_svg0_1282_22502)"><g><path d="M9.9998779296875,18C5.5815979296875,18,1.9998779296875,14.4183,1.9998779296875,10C1.9998779296875,5.58172,5.5815979296875,2,9.9998779296875,2C14.4181779296875,2,17.9998779296875,5.58172,17.9998779296875,10C17.9998779296875,14.4183,14.4181779296875,18,9.9998779296875,18ZM9.9998779296875,10.8C8.2325679296875,10.8,6.7998779296875,9.36731,6.7998779296875,7.6C6.7998779296875,5.8326899999999995,8.2325679296875,4.4,9.9998779296875,4.4C11.7671879296875,4.4,13.1998779296875,5.8326899999999995,13.1998779296875,7.6C13.1998779296875,9.36731,11.7671879296875,10.8,9.9998779296875,10.8ZM5.5490479296875,15.6L14.4506779296875,15.6C14.7365779296875,15.6,15.0007779296875,15.4474,15.1436779296875,15.1997C15.2865779296875,14.952,15.2863779296875,14.6469,15.1431779296875,14.3994C14.0756779296875,12.554,12.4359779296875,11.2,9.9998679296875,11.2C7.5637679296875,11.2,5.9240879296875,12.554,4.8565679296875,14.3994C4.713387929687499,14.6469,4.7131979296874995,14.952,4.8560579296875,15.1997C4.9989179296875,15.4474,5.2631179296875,15.6,5.5490479296875,15.6Z" fill-rule="evenodd" fill="#FFFFFF" fill-opacity="0.6000000238418579"/></g></g></svg>