<svg xmlns="http://www.w3.org/2000/svg" xmlns:xlink="http://www.w3.org/1999/xlink" fill="none" version="1.1" width="20" height="20" viewBox="0 0 20 20"><defs><clipPath id="master_svg0_1282_22582"><rect x="0" y="0" width="20" height="20" rx="0"/></clipPath></defs><g clip-path="url(#master_svg0_1282_22582)"><g><path d="M9.9998779296875,17.999969482421875C14.4181779296875,17.999969482421875,17.9998779296875,14.418269482421875,17.9998779296875,9.999969482421875C17.9998779296875,5.581689482421875,14.4181779296875,1.999969482421875,9.9998779296875,1.999969482421875C5.5815979296875,1.999969482421875,1.9998779296875,5.581689482421875,1.9998779296875,9.999969482421875C1.9998779296875,14.418269482421875,5.5815979296875,17.999969482421875,9.9998779296875,17.999969482421875ZM9.563997929687499,6.782779482421875C8.714437929687499,7.635569482421875,8.5822279296875,8.932799482421874,9.1672179296875,9.923919482421875C9.148557929687499,9.943469482421875,9.1311879296875,9.964709482421874,9.1153279296875,9.987609482421874L6.8001379296875,12.302769482421875C6.7518979296875,12.331469482421875,6.7115979296875,12.371769482421875,6.6829179296875,12.420069482421875C6.4933979296875,12.667969482421874,6.5415779296875,13.022869482421875,6.7903679296875,13.211269482421875C6.8157679296875,13.256169482421875,6.8529179296875,13.293369482421875,6.8978279296875,13.318769482421875C7.1512379296875,13.513569482421875,7.5147279296875,13.465369482421876,7.7086279296875,13.211269482421875L8.3924479296875,12.527469482421875L8.841817929687501,12.976869482421876C8.870497929687499,13.025069482421875,8.9107979296875,13.065369482421875,8.9590379296875,13.094069482421874C9.2104679296875,13.292869482421874,9.5776979296875,13.244269482421876,9.769147929687499,12.985869482421876C9.8068479296875,12.951369482421875,9.8397079296875,12.911969482421876,9.8668279296875,12.868669482421875C10.0616779296875,12.615269482421875,10.0134979296875,12.251769482421874,9.7593779296875,12.057869482421875L9.3107079296875,11.609209482421875L10.0238179296875,10.896109482421876C10.0486379296875,10.880729482421875,10.0715679296875,10.862689482421874,10.0922579296875,10.842359482421875C11.0813779296875,11.416649482421874,12.3692779296875,11.281239482421874,13.2174779296875,10.436279482421876C14.2236779296875,9.426269482421876,14.2236779296875,7.792789482421875,13.2174779296875,6.782779482421875C12.2074779296875,5.776599482421875,10.5740079296875,5.776599482421875,9.563997929687499,6.782779482421875ZM10.4731879296875,9.528489482421875C10.9376479296875,10.072449482421876,11.7547079296875,10.137989482421874,12.2999779296875,9.675019482421874C12.8438779296875,9.210559482421875,12.9094779296875,8.393499482421875,12.4464779296875,7.848269482421875C12.4045779296875,7.786829482421875,12.3515779296875,7.733809482421875,12.2901779296875,7.691969482421875C11.7528879296875,7.232839482421875,10.9225479296875,7.301219482421875,10.4634179296875,7.838499482421875C10.0707679296875,8.334699482421875,10.0748279296875,9.036859482421875,10.4731879296875,9.528489482421875Z" fill-rule="evenodd" fill="#FFFFFF" fill-opacity="1"/></g></g></svg>