<svg xmlns="http://www.w3.org/2000/svg" xmlns:xlink="http://www.w3.org/1999/xlink" fill="none" version="1.1" width="20" height="20" viewBox="0 0 20 20"><g><g><path d="M1.9998779296875,4.90456220703125C1.9998779296875,4.10123420703125,2.6510999296874997,3.45001220703125,3.4544279296875002,3.45001220703125C3.4544279296875002,3.45001220703125,16.5453779296875,3.45001220703125,16.5453779296875,3.45001220703125C17.3486779296875,3.45001220703125,17.9998779296875,4.10123420703125,17.9998779296875,4.90456220703125C17.9998779296875,4.90456220703125,17.9998779296875,15.08641220703125,17.9998779296875,15.08641220703125C17.9998779296875,15.88971220703125,17.3486779296875,16.540912207031248,16.5453779296875,16.540912207031248C16.5453779296875,16.540912207031248,3.4544279296875002,16.540912207031248,3.4544279296875002,16.540912207031248C2.6511009296875,16.540912207031248,1.9998779296875,15.88971220703125,1.9998779296875,15.08641220703125C1.9998779296875,15.08641220703125,1.9998779296875,4.90456220703125,1.9998779296875,4.90456220703125C1.9998779296875,4.90456220703125,1.9998779296875,4.90456220703125,1.9998779296875,4.90456220703125ZM5.0840679296874995,7.3403422070312505C5.3454679296875,7.03537220703125,5.8045879296875,7.00005220703125,6.1095579296875,7.26145220703125C6.1095579296875,7.26145220703125,8.6550179296875,9.44327220703125,8.6550179296875,9.44327220703125C8.8162179296875,9.58144220703125,8.9089879296875,9.78315220703125,8.9089879296875,9.995462207031249C8.9089879296875,10.20776220703125,8.8162179296875,10.40947220703125,8.6550179296875,10.547642207031249C8.6550179296875,10.547642207031249,6.1095579296875,12.72943220703125,6.1095579296875,12.72943220703125C5.8045879296875,12.99088220703125,5.3454679296875,12.95554220703125,5.0840679296874995,12.65059220703125C4.8226679296874995,12.34565220703125,4.8579879296875,11.88652220703125,5.1629579296875,11.62506220703125C5.1629579296875,11.62506220703125,7.0641879296875,9.995462207031249,7.0641879296875,9.995462207031249C7.0641879296875,9.995462207031249,5.1629579296875,8.36582220703125,5.1629579296875,8.36582220703125C4.8579879296875,8.10442220703125,4.8226679296874995,7.64530220703125,5.0840679296874995,7.3403422070312505C5.0840679296874995,7.3403422070312505,5.0840679296874995,7.3403422070312505,5.0840679296874995,7.3403422070312505ZM8.908967929687499,12.90456220703125C8.908967929687499,12.50288220703125,9.2345779296875,12.17728220703125,9.6362379296875,12.17728220703125C9.6362379296875,12.17728220703125,14.3634779296875,12.17728220703125,14.3634779296875,12.17728220703125C14.7651779296875,12.17728220703125,15.0907779296875,12.50288220703125,15.0907779296875,12.90456220703125C15.0907779296875,13.30623220703125,14.7651779296875,13.63181220703125,14.3634779296875,13.63181220703125C14.3634779296875,13.63181220703125,9.6362379296875,13.63181220703125,9.6362379296875,13.63181220703125C9.2345779296875,13.63181220703125,8.908967929687499,13.30623220703125,8.908967929687499,12.90456220703125C8.908967929687499,12.90456220703125,8.908967929687499,12.90456220703125,8.908967929687499,12.90456220703125Z" fill-rule="evenodd" fill="#FFFFFF" fill-opacity="1"/></g></g></svg>