<svg xmlns="http://www.w3.org/2000/svg" xmlns:xlink="http://www.w3.org/1999/xlink" fill="none" version="1.1" width="20" height="20" viewBox="0 0 20 20"><g><g><path d="M4.1800537109375,3.4545399999999997C4.1800537109375,2.651228,4.8312567109375,2,5.6345937109375,2C5.6345937109375,2,14.3618537109375,2,14.3618537109375,2C15.1651537109375,2,15.8163537109375,2.651228,15.8163537109375,3.4545399999999997C15.8163537109375,3.4545399999999997,15.8163537109375,17.2727,15.8163537109375,17.2727C15.8163537109375,17.545099999999998,15.6641537109375,17.7947,15.4219537109375,17.9194C15.1796537109375,18.0441,14.8881537109375,18.0229,14.6664537109375,17.8645C14.6664537109375,17.8645,12.5436737109375,16.348300000000002,12.5436737109375,16.348300000000002C12.5436737109375,16.348300000000002,10.4209437109375,17.8645,10.4209437109375,17.8645C10.168073710937499,18.0451,9.8283837109375,18.0451,9.5755037109375,17.8645C9.5755037109375,17.8645,7.4527737109375,16.348300000000002,7.4527737109375,16.348300000000002C7.4527737109375,16.348300000000002,5.3300437109375,17.8645,5.3300437109375,17.8645C5.1083577109375,18.0229,4.8167717109375,18.0441,4.5745387109374995,17.9194C4.3323057109375,17.7947,4.1800537109375,17.545099999999998,4.1800537109375,17.2727C4.1800537109375,17.2727,4.1800537109375,3.4545399999999997,4.1800537109375,3.4545399999999997C4.1800537109375,3.4545399999999997,4.1800537109375,3.4545399999999997,4.1800537109375,3.4545399999999997ZM7.0891437109375,6.36363C7.0891437109375,5.96197,7.4147537109375,5.63636,7.8164137109375,5.63636C7.8164137109375,5.63636,12.1800437109375,5.63636,12.1800437109375,5.63636C12.5817137109375,5.63636,12.9073137109375,5.96197,12.9073137109375,6.36363C12.9073137109375,6.76529,12.5817137109375,7.0909,12.1800437109375,7.0909C12.1800437109375,7.0909,7.8164137109375,7.0909,7.8164137109375,7.0909C7.4147537109375,7.0909,7.0891437109375,6.76529,7.0891437109375,6.36363C7.0891437109375,6.36363,7.0891437109375,6.36363,7.0891437109375,6.36363ZM7.8164137109375,8.54544C7.4147537109375,8.54544,7.0891437109375,8.87106,7.0891437109375,9.27272C7.0891437109375,9.674389999999999,7.4147537109375,9.99999,7.8164137109375,9.99999C7.8164137109375,9.99999,12.1800437109375,9.99999,12.1800437109375,9.99999C12.5817137109375,9.99999,12.9073137109375,9.674389999999999,12.9073137109375,9.27272C12.9073137109375,8.87106,12.5817137109375,8.54544,12.1800437109375,8.54544C12.1800437109375,8.54544,7.8164137109375,8.54544,7.8164137109375,8.54544C7.8164137109375,8.54544,7.8164137109375,8.54544,7.8164137109375,8.54544ZM7.8164137109375,11.45453C7.4147537109375,11.45453,7.0891437109375,11.78013,7.0891437109375,12.1818C7.0891437109375,12.5835,7.4147537109375,12.9091,7.8164137109375,12.9091C7.8164137109375,12.9091,12.1800437109375,12.9091,12.1800437109375,12.9091C12.5817137109375,12.9091,12.9073137109375,12.5835,12.9073137109375,12.1818C12.9073137109375,11.78013,12.5817137109375,11.45453,12.1800437109375,11.45453C12.1800437109375,11.45453,7.8164137109375,11.45453,7.8164137109375,11.45453C7.8164137109375,11.45453,7.8164137109375,11.45453,7.8164137109375,11.45453Z" fill-rule="evenodd" fill="#FFFFFF" fill-opacity="1"/></g></g></svg>