<svg xmlns="http://www.w3.org/2000/svg" xmlns:xlink="http://www.w3.org/1999/xlink" fill="none" version="1.1" width="20" height="20" viewBox="0 0 20 20"><g><g><path d="M5.6345937109375,2C4.8312567109375,2,4.1800537109375,2.651228,4.1800537109375,3.4545399999999997L4.1800537109375,17.2727C4.1800537109375,17.545099999999998,4.3323057109375,17.7947,4.5745387109374995,17.9194C4.8167717109375,18.0441,5.1083577109375,18.0229,5.3300437109375,17.8645L7.4527737109375,16.348300000000002L9.5755037109375,17.8645C9.8283837109375,18.0451,10.168073710937499,18.0451,10.4209437109375,17.8645L12.5436737109375,16.348300000000002L14.6664537109375,17.8645C14.8881537109375,18.0229,15.1796537109375,18.0441,15.4219537109375,17.9194C15.6641537109375,17.7947,15.8163537109375,17.545099999999998,15.8163537109375,17.2727L15.8163537109375,3.4545399999999997C15.8163537109375,2.651228,15.1651537109375,2,14.3618537109375,2L5.6345937109375,2ZM7.8163837109375,7.0909C7.4147237109374995,7.0909,7.0891137109375,6.76528,7.0891137109375,6.36362C7.0891137109375,5.96197,7.4147237109374995,5.63635,7.8163837109375,5.63635L12.1800137109375,5.63635C12.5816837109375,5.63635,12.9072837109375,5.96197,12.9072837109375,6.36362C12.9072837109375,6.76528,12.5816837109375,7.0909,12.1800137109375,7.0909L7.8163837109375,7.0909ZM7.8163837109375,9.99998C7.4147237109374995,9.99998,7.0891137109375,9.67438,7.0891137109375,9.27271C7.0891137109375,8.87105,7.4147237109374995,8.54544,7.8163837109375,8.54544L12.1800137109375,8.54544C12.5816837109375,8.54544,12.9072837109375,8.87105,12.9072837109375,9.27271C12.9072837109375,9.67438,12.5816837109375,9.99998,12.1800137109375,9.99998L7.8163837109375,9.99998ZM7.8163837109375,12.9091C7.4147237109374995,12.9091,7.0891137109375,12.5835,7.0891137109375,12.1818C7.0891137109375,11.78013,7.4147237109374995,11.45453,7.8163837109375,11.45453L12.1800137109375,11.45453C12.5816837109375,11.45453,12.9072837109375,11.78013,12.9072837109375,12.1818C12.9072837109375,12.5835,12.5816837109375,12.9091,12.1800137109375,12.9091L7.8163837109375,12.9091Z" fill-rule="evenodd" fill="#FFFFFF" fill-opacity="0.6000000238418579"/></g></g></svg>