<svg xmlns="http://www.w3.org/2000/svg" xmlns:xlink="http://www.w3.org/1999/xlink" fill="none" version="1.1" width="20" height="20" viewBox="0 0 20 20"><g><g><path d="M3.458251953125,3.4545500000000002C3.458251953125,2.6512219999999997,4.109096953125,2,4.9119519531249995,2C4.9119519531249995,2,15.087851953125,2,15.087851953125,2C15.890751953125,2,16.541551953125,2.651223,16.541551953125,3.4545500000000002C16.541551953125,3.4545500000000002,16.541551953125,16.5455,16.541551953125,16.5455C16.541551953125,17.3488,15.890751953125,18,15.087851953125,18C15.087851953125,18,4.9119519531249995,18,4.9119519531249995,18C4.109096953125,18,3.458251953125,17.3488,3.458251953125,16.5455C3.458251953125,16.5455,3.458251953125,3.4545500000000002,3.458251953125,3.4545500000000002C3.458251953125,3.4545500000000002,3.458251953125,3.4545500000000002,3.458251953125,3.4545500000000002ZM6.729081953125,7.09091C7.130521953125,7.09091,7.455931953125,6.76531,7.455931953125,6.36364C7.455931953125,5.9619599999999995,7.130521953125,5.63636,6.729081953125,5.63636C6.327641953125,5.63636,6.0022319531249995,5.9619599999999995,6.0022319531249995,6.36364C6.0022319531249995,6.76531,6.327641953125,7.09091,6.729081953125,7.09091C6.729081953125,7.09091,6.729081953125,7.09091,6.729081953125,7.09091ZM8.182791953125001,6.36364C8.182791953125001,5.9619800000000005,8.508211953124999,5.63636,8.909641953125,5.63636C8.909641953125,5.63636,13.270751953125,5.63636,13.270751953125,5.63636C13.672151953125,5.63636,13.997651953125,5.9619800000000005,13.997651953125,6.36364C13.997651953125,6.76529,13.672151953125,7.09091,13.270751953125,7.09091C13.270751953125,7.09091,8.909641953125,7.09091,8.909641953125,7.09091C8.508211953124999,7.09091,8.182791953125001,6.76529,8.182791953125001,6.36364C8.182791953125001,6.36364,8.182791953125001,6.36364,8.182791953125001,6.36364ZM8.909641953125,9.27273C8.508211953124999,9.27273,8.182791953125001,9.59833,8.182791953125001,10C8.182791953125001,10.40167,8.508211953124999,10.72727,8.909641953125,10.72727C8.909641953125,10.72727,13.270751953125,10.72727,13.270751953125,10.72727C13.672151953125,10.72727,13.997651953125,10.40167,13.997651953125,10C13.997651953125,9.59833,13.672151953125,9.27273,13.270751953125,9.27273C13.270751953125,9.27273,8.909641953125,9.27273,8.909641953125,9.27273C8.909641953125,9.27273,8.909641953125,9.27273,8.909641953125,9.27273ZM8.909641953125,12.9091C8.508211953124999,12.9091,8.182791953125001,13.2347,8.182791953125001,13.6364C8.182791953125001,14.038,8.508211953124999,14.3636,8.909641953125,14.3636C8.909641953125,14.3636,13.270751953125,14.3636,13.270751953125,14.3636C13.672151953125,14.3636,13.997651953125,14.038,13.997651953125,13.6364C13.997651953125,13.2347,13.672151953125,12.9091,13.270751953125,12.9091C13.270751953125,12.9091,8.909641953125,12.9091,8.909641953125,12.9091C8.909641953125,12.9091,8.909641953125,12.9091,8.909641953125,12.9091ZM6.729081953125,10.72727C7.130521953125,10.72727,7.455931953125,10.40167,7.455931953125,10C7.455931953125,9.59833,7.130521953125,9.27273,6.729081953125,9.27273C6.327641953125,9.27273,6.0022319531249995,9.59833,6.0022319531249995,10C6.0022319531249995,10.40167,6.327641953125,10.72727,6.729081953125,10.72727C6.729081953125,10.72727,6.729081953125,10.72727,6.729081953125,10.72727ZM6.729081953125,14.3636C7.130521953125,14.3636,7.455931953125,14.038,7.455931953125,13.6364C7.455931953125,13.2347,7.130521953125,12.9091,6.729081953125,12.9091C6.327641953125,12.9091,6.0022319531249995,13.2347,6.0022319531249995,13.6364C6.0022319531249995,14.038,6.327641953125,14.3636,6.729081953125,14.3636C6.729081953125,14.3636,6.729081953125,14.3636,6.729081953125,14.3636Z" fill-rule="evenodd" fill="#FFFFFF" fill-opacity="1"/></g></g></svg>