<svg xmlns="http://www.w3.org/2000/svg" xmlns:xlink="http://www.w3.org/1999/xlink" fill="none" version="1.1" width="20" height="20" viewBox="0 0 20 20"><g><g><path d="M4.9119519531249995,2C4.109096953125,2,3.458251953125,2.6512219999999997,3.458251953125,3.4545500000000002L3.458251953125,16.5455C3.458251953125,17.3488,4.109096953125,18,4.9119519531249995,18L15.087851953125,18C15.890751953125,18,16.541551953125,17.3488,16.541551953125,16.5455L16.541551953125,3.4545500000000002C16.541551953125,2.651223,15.890751953125,2,15.087851953125,2L4.9119519531249995,2ZM6.729111953125,7.09091C6.327671953125,7.09091,6.002261953125,6.76531,6.002261953125,6.36364C6.002261953125,5.96197,6.327671953125,5.636369999999999,6.729111953125,5.636369999999999C7.130551953125,5.636369999999999,7.455961953125,5.96197,7.455961953125,6.36364C7.455961953125,6.76531,7.130551953125,7.09091,6.729111953125,7.09091ZM8.909661953125,7.09091C8.508241953125001,7.09091,8.182811953125,6.7653,8.182811953125,6.36364C8.182811953125,5.9619800000000005,8.508241953125001,5.636369999999999,8.909661953125,5.636369999999999L13.270771953125,5.636369999999999C13.672251953125,5.636369999999999,13.997651953125,5.9619800000000005,13.997651953125,6.36364C13.997651953125,6.7653,13.672251953125,7.09091,13.270771953125,7.09091L8.909661953125,7.09091ZM6.729111953125,10.72728C6.327671953125,10.72728,6.002261953125,10.40168,6.002261953125,10C6.002261953125,9.59833,6.327671953125,9.27273,6.729111953125,9.27273C7.130551953125,9.27273,7.455961953125,9.59833,7.455961953125,10C7.455961953125,10.40168,7.130551953125,10.72728,6.729111953125,10.72728ZM8.909661953125,10.72728C8.508241953125001,10.72728,8.182811953125,10.40168,8.182811953125,10C8.182811953125,9.59833,8.508241953125001,9.27273,8.909661953125,9.27273L13.270771953125,9.27273C13.672251953125,9.27273,13.997651953125,9.59833,13.997651953125,10C13.997651953125,10.40168,13.672251953125,10.72728,13.270771953125,10.72728L8.909661953125,10.72728ZM6.729111953125,14.3636C6.327671953125,14.3636,6.002261953125,14.038,6.002261953125,13.6364C6.002261953125,13.2347,6.327671953125,12.9091,6.729111953125,12.9091C7.130551953125,12.9091,7.455961953125,13.2347,7.455961953125,13.6364C7.455961953125,14.038,7.130551953125,14.3636,6.729111953125,14.3636ZM8.909661953125,14.3636C8.508241953125001,14.3636,8.182811953125,14.038,8.182811953125,13.6364C8.182811953125,13.2347,8.508241953125001,12.9091,8.909661953125,12.9091L13.270771953125,12.9091C13.672251953125,12.9091,13.997651953125,13.2347,13.997651953125,13.6364C13.997651953125,14.038,13.672251953125,14.3636,13.270771953125,14.3636L8.909661953125,14.3636Z" fill-rule="evenodd" fill="#FFFFFF" fill-opacity="0.6000000238418579"/></g></g></svg>