<svg xmlns="http://www.w3.org/2000/svg" xmlns:xlink="http://www.w3.org/1999/xlink" fill="none" version="1.1" width="20" height="20" viewBox="0 0 20 20"><defs><clipPath id="master_svg0_1282_22602"><rect x="0" y="0" width="20" height="20" rx="0"/></clipPath></defs><g clip-path="url(#master_svg0_1282_22602)"><g><path d="M1.9998779296875,3.71429C1.9998779296875002,3.25963,2.1804899296875,2.823596,2.5019809296875,2.502103C2.8234739296875,2.180612,3.2595079296875,2.0000000000000004,3.7141679296875,2C3.7141679296875,2,7.1427379296875,2,7.1427379296875,2C7.5973979296875,2.0000000000000004,8.0334279296875,2.180612,8.354917929687499,2.502103C8.6764079296875,2.823596,8.857017929687501,3.25963,8.857017929687501,3.71429C8.857017929687501,3.71429,8.857017929687501,7.14286,8.857017929687501,7.14286C8.857017929687501,7.59752,8.6764079296875,8.03355,8.354917929687499,8.355039999999999C8.0334279296875,8.67653,7.5973979296875,8.857140000000001,7.1427379296875,8.857140000000001C7.1427379296875,8.857140000000001,3.7141679296875,8.857140000000001,3.7141679296875,8.857140000000001C3.2595079296875,8.857140000000001,2.8234739296875,8.67653,2.5019809296875,8.355039999999999C2.1804899296875,8.03355,1.9998779296875004,7.59752,1.9998779296875,7.14286C1.9998779296875,7.14286,1.9998779296875,3.71429,1.9998779296875,3.71429C1.9998779296875,3.71429,1.9998779296875,3.71429,1.9998779296875,3.71429ZM11.1427379296875,3.71429C11.1427379296875,3.25963,11.3233779296875,2.823596,11.6448279296875,2.502103C11.9663579296875,2.180612,12.4023779296875,2.0000000000000004,12.8569779296875,2C12.8569779296875,2,16.2855779296875,2,16.2855779296875,2C16.740177929687498,2.0000000000000004,17.1762779296875,2.180612,17.4977779296875,2.502103C17.8192779296875,2.823596,17.9998779296875,3.25963,17.9998779296875,3.71429C17.9998779296875,3.71429,17.9998779296875,7.14286,17.9998779296875,7.14286C17.9998779296875,7.59752,17.8192779296875,8.03355,17.4977779296875,8.355039999999999C17.1762779296875,8.67653,16.740177929687498,8.857140000000001,16.2855779296875,8.857140000000001C16.2855779296875,8.857140000000001,12.8569779296875,8.857140000000001,12.8569779296875,8.857140000000001C12.4023779296875,8.857140000000001,11.9663579296875,8.67653,11.6448279296875,8.355039999999999C11.3233779296875,8.03355,11.1427379296875,7.59752,11.1427379296875,7.14286C11.1427379296875,7.14286,11.1427379296875,3.71429,11.1427379296875,3.71429C11.1427379296875,3.71429,11.1427379296875,3.71429,11.1427379296875,3.71429ZM1.9998779296875,12.8571C1.9998779296875002,12.4025,2.1804899296875,11.96648,2.5019809296875,11.64495C2.8234739296875,11.3235,3.2595079296875,11.14286,3.7141679296875,11.14286C3.7141679296875,11.14286,7.1427379296875,11.14286,7.1427379296875,11.14286C7.5973979296875,11.14286,8.0334279296875,11.3235,8.354917929687499,11.64495C8.6764079296875,11.96648,8.857017929687501,12.4025,8.857017929687501,12.8571C8.857017929687501,12.8571,8.857017929687501,16.2857,8.857017929687501,16.2857C8.857017929687501,16.740299999999998,8.6764079296875,17.1764,8.354917929687499,17.4979C8.0334279296875,17.8194,7.5973979296875,18,7.1427379296875,18C7.1427379296875,18,3.7141679296875,18,3.7141679296875,18C3.2595079296875,18,2.8234739296875,17.8194,2.5019809296875,17.4979C2.1804899296875,17.1764,1.9998779296875004,16.740299999999998,1.9998779296875,16.2857C1.9998779296875,16.2857,1.9998779296875,12.8571,1.9998779296875,12.8571C1.9998779296875,12.8571,1.9998779296875,12.8571,1.9998779296875,12.8571ZM11.1427379296875,12.8571C11.1427379296875,12.4025,11.3233779296875,11.96648,11.6448279296875,11.64495C11.9663579296875,11.3235,12.4023779296875,11.14286,12.8569779296875,11.14286C12.8569779296875,11.14286,16.2855779296875,11.14286,16.2855779296875,11.14286C16.740177929687498,11.14286,17.1762779296875,11.3235,17.4977779296875,11.64495C17.8192779296875,11.96648,17.9998779296875,12.4025,17.9998779296875,12.8571C17.9998779296875,12.8571,17.9998779296875,16.2857,17.9998779296875,16.2857C17.9998779296875,16.740299999999998,17.8192779296875,17.1764,17.4977779296875,17.4979C17.1762779296875,17.8194,16.740177929687498,18,16.2855779296875,18C16.2855779296875,18,12.8569779296875,18,12.8569779296875,18C12.4023779296875,18,11.9663579296875,17.8194,11.6448279296875,17.4979C11.3233779296875,17.1764,11.1427379296875,16.740299999999998,11.1427379296875,16.2857C11.1427379296875,16.2857,11.1427379296875,12.8571,11.1427379296875,12.8571C11.1427379296875,12.8571,11.1427379296875,12.8571,11.1427379296875,12.8571Z" fill="#FFFFFF" fill-opacity="1"/></g></g></svg>