<?xml version="1.0" standalone="no"?>
<!DOCTYPE svg PUBLIC "-//W3C//DTD SVG 1.1//EN" "http://www.w3.org/Graphics/SVG/1.1/DTD/svg11.dtd" >
<svg xmlns="http://www.w3.org/2000/svg">
<metadata>Generated by IcoMoon</metadata>
<defs>
<font id="spacehpc_iconfont" horiz-adv-x="1024">
<font-face units-per-em="1024" ascent="960" descent="-64" />
<missing-glyph horiz-adv-x="1024" />
<glyph unicode="&#x20;" horiz-adv-x="512" d="" />
<glyph unicode="&#xe900;" glyph-name="basic_icon_adjust" d="M512 9.142c242.372 0 438.858 196.486 438.858 438.858 0 242.374-196.486 438.857-438.858 438.857-242.374 0-438.857-196.483-438.857-438.857 0-242.372 196.483-438.858 438.857-438.858zM770.595 706.6q107.117-107.116 107.117-258.599t-107.11-258.596q-107.118-107.117-258.602-107.117t-258.599 107.11q-107.115 107.118-107.115 258.602t107.115 258.599 258.599 107.115 258.596-107.115zM804.573 448c0-161.583-130.991-292.573-292.573-292.573v585.145c161.583 0 292.573-130.989 292.573-292.572z" />
<glyph unicode="&#xe901;" glyph-name="basic_icon_arrow_left" d="M142.059 414.059c-18.745 18.746-18.745 49.137 0 67.882l336 336c18.746 18.744 49.137 18.744 67.882 0s18.745-49.138 0-67.881l-254.059-254.060h556.118c26.509 0 48-21.491 48-48s-21.491-48-48-48h-556.118l254.059-254.061c18.745-18.746 18.745-49.133 0-67.878s-49.137-18.746-67.882 0l-336 335.998z" />
<glyph unicode="&#xe902;" glyph-name="basic_icon_close_circle_filled" d="M512.008-21.345c-259.206 0-469.333 210.131-469.333 469.336s210.127 469.333 469.333 469.333c259.204 0 469.336-210.127 469.336-469.333 0-259.204-210.131-469.336-469.336-469.336zM361.159 236.799l150.849 150.852 150.849-150.852 60.342 60.342-150.852 150.849 150.852 150.849-60.342 60.34-150.849-150.849-150.849 150.849-60.34-60.34 150.849-150.849-150.849-150.85 60.34-60.342z" />
<glyph unicode="&#xe903;" glyph-name="basic_icon_close" d="M225.829 734.169c16.662 16.662 43.677 16.662 60.34 0l225.83-225.83 225.83 225.83c16.661 16.662 43.677 16.662 60.339 0s16.661-43.677 0-60.34l-225.83-225.83 225.83-225.83c16.661-16.661 16.661-43.677 0-60.339s-43.678-16.661-60.339 0l-225.83 225.83-225.83-225.83c-16.662-16.661-43.677-16.661-60.34 0s-16.662 43.678 0 60.339l225.83 225.83-225.83 225.83c-16.662 16.662-16.662 43.677 0 60.34z" />
<glyph unicode="&#xe904;" glyph-name="basic_icon_delete" d="M686.195 727.273c0 27.775-11.035 54.413-30.675 74.053s-46.279 30.674-74.053 30.674h-139.636c-27.775 0-54.413-11.034-74.054-30.674s-30.674-46.278-30.674-74.053v-34.909h-139.636c-19.28 0-34.909-15.629-34.909-34.909s15.629-34.909 34.909-34.909h34.909v-453.816c0-27.782 11.034-54.413 30.674-74.054s46.278-30.675 74.053-30.675h349.091c27.777 0 54.413 11.034 74.052 30.675s30.675 46.272 30.675 74.054v453.816h34.907c19.283 0 34.912 15.629 34.912 34.909s-15.629 34.909-34.912 34.909h-139.634v34.909zM616.377 692.364h-209.455v34.909c0 9.258 3.678 18.138 10.225 24.684s15.426 10.225 24.685 10.225h139.636c9.258 0 18.139-3.678 24.685-10.225s10.225-15.426 10.225-24.684v-34.909zM302.195 168.73v453.816h418.909v-453.816c0-9.261-3.679-18.144-10.225-24.685-6.545-6.547-15.427-10.227-24.684-10.227h-349.091c-9.258 0-18.138 3.68-24.684 10.227-6.547 6.541-10.225 15.424-10.225 24.685zM476.74 482.909c0 19.28-15.629 34.909-34.909 34.909s-34.909-15.629-34.909-34.909v-209.454c0-19.281 15.629-34.909 34.909-34.909s34.909 15.629 34.909 34.909v209.454zM581.467 517.818c-19.28 0-34.909-15.629-34.909-34.909v-209.454c0-19.281 15.629-34.909 34.909-34.909s34.909 15.629 34.909 34.909v209.454c0 19.28-15.629 34.909-34.909 34.909z" />
<glyph unicode="&#xe905;" glyph-name="basic_icon_desktop" d="M232.727 726.983h558.543c19.283 0 34.912-15.629 34.912-34.909v-349.091c0-19.28-15.629-34.909-34.912-34.909h-558.543c-19.279 0-34.909 15.629-34.909 34.909v349.091c0 19.279 15.629 34.909 34.909 34.909zM546.909 238.256h244.362c57.843 0 104.73 46.886 104.73 104.727v349.091c0 57.839-46.886 104.727-104.73 104.727h-558.543c-57.839 0-104.727-46.888-104.727-104.727v-349.091c0-57.841 46.888-104.727 104.727-104.727h244.364v-69.818h-104.728c-19.279 0-34.909-15.63-34.909-34.907 0-19.283 15.629-34.912 34.909-34.912h279.273c19.28 0 34.909 15.629 34.909 34.912 0 19.277-15.629 34.907-34.909 34.907h-104.728v69.818z" />
<glyph unicode="&#xe906;" glyph-name="basic_icon_direction_left" d="M689.941 769.941c18.745-18.745 18.745-49.137 0-67.882l-254.059-254.059 254.059-254.060c18.745-18.744 18.745-49.137 0-67.88-18.745-18.746-49.137-18.746-67.882 0l-288 287.998c-18.745 18.746-18.745 49.137 0 67.882l288 288c18.745 18.745 49.137 18.745 67.882 0z" />
<glyph unicode="&#xe907;" glyph-name="basic_icon_download" d="M512 832c21.208 0 38.4-17.192 38.4-38.4v-368.095l126.447 126.448c14.995 14.996 39.31 14.996 54.305 0s14.995-39.31 0-54.307l-192-191.999c-14.995-14.995-39.309-14.995-54.306 0l-192 191.999c-14.996 14.996-14.996 39.31 0 54.307s39.31 14.996 54.307 0l126.447-126.448v368.095c0 21.208 17.192 38.4 38.4 38.4zM166.4 371.2c21.208 0 38.4-17.192 38.4-38.4v-153.6c0-10.182 4.046-19.955 11.247-27.155s16.969-11.245 27.153-11.245h537.6c10.182 0 19.955 4.045 27.155 11.245s11.245 16.973 11.245 27.155v153.6c0 21.208 17.19 38.4 38.4 38.4s38.4-17.192 38.4-38.4v-153.6c0-30.554-12.141-59.853-33.741-81.459-21.606-21.6-50.906-33.741-81.459-33.741h-537.6c-30.553 0-59.854 12.141-81.459 33.741-21.604 21.606-33.741 50.906-33.741 81.459v153.6c0 21.208 17.192 38.4 38.4 38.4z" />
<glyph unicode="&#xe908;" glyph-name="basic_icon_exit" d="M204.8 799.086c-11.639 0-22.801-4.624-31.032-12.854s-12.854-19.393-12.854-31.032v-614.397c0-11.642 4.624-22.803 12.854-31.034s19.393-12.858 31.032-12.858h175.543c24.237 0 43.885-19.648 43.885-43.885s-19.648-43.885-43.885-43.885h-175.543c-34.918 0-68.405 13.875-93.095 38.566-24.69 24.685-38.561 58.17-38.561 93.094v614.397c0 34.918 13.871 68.405 38.561 93.095s58.178 38.561 93.095 38.561h175.543c24.237 0 43.885-19.648 43.885-43.886s-19.648-43.886-43.885-43.886h-175.543zM656.511 698.461c17.137 17.139 44.926 17.139 62.065 0l219.424-219.428c17.139-17.139 17.139-44.926 0-62.063l-219.424-219.43c-17.139-17.139-44.928-17.139-62.065 0s-17.137 44.928 0 62.064l144.51 144.511h-420.678c-24.237 0-43.885 19.648-43.885 43.886s19.648 43.885 43.885 43.885h420.678l-144.51 144.511c-17.137 17.139-17.137 44.925 0 62.064z" />
<glyph unicode="&#xe909;" glyph-name="basic_icon_export" d="M651.598 832h209.445c9.651 0 17.875-3.415 24.678-10.342 6.842-6.722 10.259-14.935 10.259-24.642v-209.391c0-9.708-3.418-17.92-10.253-24.75-6.81-6.825-15.034-10.24-24.685-10.24-9.645 0-17.869 3.415-24.678 10.24-6.842 6.83-10.24 15.043-10.24 24.75v125.121l-289.659-289.596c-6.707-6.723-14.889-10.138-24.545-10.138-10.004 0-18.314 3.313-24.96 9.923-6.646 6.723-9.943 15.043-9.943 24.96 0 9.708 3.343 17.818 10.071 24.643l289.66 289.596h-125.181c-9.646 0-17.848 3.415-24.699 10.24-6.794 6.83-10.23 15.042-10.23 24.642 0 9.707 3.436 17.92 10.23 24.745 6.851 6.825 15.053 10.24 24.694 10.24h0.035zM232.683 832h244.36c9.641 0 17.843-3.415 24.694-10.342 6.804-6.722 10.23-14.935 10.23-24.642 0-9.6-3.43-17.817-10.23-24.642-6.851-6.825-15.053-10.24-24.694-10.24h-244.36c-9.636 0-17.869-3.41-24.663-10.24-6.861-6.825-10.25-15.037-10.25-24.745v-558.508c0-9.6 3.389-17.811 10.25-24.634 6.794-6.829 15.027-10.24 24.663-10.24h558.536c9.638 0 17.843 3.411 24.691 10.24 6.81 6.822 10.234 15.040 10.234 24.64v244.366c0 9.6 3.43 17.812 10.227 24.637 6.848 6.83 15.059 10.24 24.704 10.24s17.843-3.41 24.698-10.24c6.79-6.825 10.227-15.037 10.227-24.637v-244.379c0-28.896-10.227-53.542-30.682-74.022s-45.152-30.611-74.035-30.611h-558.554c-28.918 0-53.57 10.138-74.040 30.618-20.459 20.48-30.689 45.12-30.689 74.022v558.503c0 28.908 10.23 53.545 30.689 74.025 20.47 20.48 45.122 30.72 74.040 30.72l-0.046 0.113z" />
<glyph unicode="&#xe90a;" glyph-name="basic_icon_filter" d="M355.472 98.323c0-18.982 13.633-34.323 30.529-34.323h251.914c16.897 0 30.529 15.341 30.529 34.323v210.236h-312.972v-210.236zM865.344 832h-706.775c-23.521 0-38.209-28.639-26.401-51.486l212.456-403.308h334.86l212.458 403.308c11.616 22.847-3.072 51.486-26.598 51.486z" />
<glyph unicode="&#xe90b;" glyph-name="basic_icon_globe" d="M512 9.142c242.372 0 438.858 196.486 438.858 438.858 0 242.374-196.486 438.857-438.858 438.857-242.374 0-438.857-196.483-438.857-438.857 0-242.372 196.483-438.858 438.857-438.858zM314.516 487.897h-159.391c16.481 149.082 124.232 270.657 266.138 307.606-60.906-91.545-97.802-197.365-106.747-307.606zM709.48 487.897c-8.945 110.241-45.841 216.061-106.746 307.606 141.91-36.949 249.66-158.524 266.14-307.606h-159.394zM629.388 487.897h-234.781c10.022 108.245 50.777 211.372 117.391 297.194 66.614-85.822 107.368-188.949 117.39-297.194zM421.263 100.496c-141.907 36.954-249.658 158.525-266.138 307.609h159.391c8.945-110.241 45.841-216.063 106.747-307.609zM511.998 110.909c-66.614 85.824-107.369 188.95-117.391 297.196h234.781c-10.022-108.246-50.776-211.372-117.39-297.196zM868.874 408.105c-16.48-149.084-124.23-270.655-266.14-307.609 60.906 91.546 97.802 197.368 106.746 307.609h159.394z" />
<glyph unicode="&#xe90c;" glyph-name="basic_icon_info_circle" d="M102.4 448c0-226.216 183.384-409.6 409.6-409.6s409.6 183.384 409.6 409.6c0 226.216-183.384 409.6-409.6 409.6s-409.6-183.384-409.6-409.6zM157.014 448c0 196.054 158.933 354.987 354.987 354.987s354.989-158.933 354.989-354.987c0-196.054-158.935-354.989-354.989-354.989s-354.987 158.935-354.987 354.989zM539.314 639.145c0 15.082-12.225 27.307-27.307 27.307s-27.306-12.225-27.306-27.307v-232.106c0-15.081 12.225-27.307 27.306-27.307s27.307 12.226 27.307 27.307v232.106zM512.007 284.159c-15.081 0-27.306-12.226-27.306-27.307s12.225-27.307 27.306-27.307c15.082 0 27.307 12.226 27.307 27.307s-12.225 27.307-27.307 27.307z" />
<glyph unicode="&#xe90d;" glyph-name="basic_icon_info_filled" d="M512 38.4c226.216 0 409.6 183.384 409.6 409.6s-183.384 409.6-409.6 409.6c-226.216 0-409.6-183.384-409.6-409.6s183.384-409.6 409.6-409.6zM512.011 565.027c-24.237 0-43.886 19.648-43.886 43.885s19.649 43.886 43.886 43.886c24.237 0 43.885-19.649 43.885-43.886s-19.648-43.885-43.885-43.885zM490.077 243.198c-4.023 0-7.315 3.292-7.315 7.315v248.685c0 4.023 3.292 7.315 7.315 7.315h43.885c4.023 0 7.315-3.292 7.315-7.315v-248.685c0-4.023-3.292-7.315-7.315-7.315h-43.885z" />
<glyph unicode="&#xe90e;" glyph-name="basic_icon_Invisible" d="M179.613 825.289c0 0 3.015-2.662 3.015-2.662s703.996-703.997 703.996-703.997c12.499-12.499 12.499-32.762 0-45.254-11.533-11.539-29.683-12.422-42.24-2.669 0 0-3.014 2.669-3.014 2.669s-142.96 142.918-142.96 142.918c-55.357-35.616-119.773-55.206-186.41-56.294-108.154 0-202.838 52.24-283.345 138.115-27.659 29.501-51.679 61.002-72.036 92.525 0 0-7.627 12.077-7.627 12.077s-9.286 15.587-9.286 15.587c0 0-4.745 8.518-4.745 8.518s-3.582 6.867-3.582 6.867c-4.65 9.299-4.492 20.278 0.425 29.44 36.206 67.473 84.5 127.592 142.375 177.413 0 0-136.805 136.83-136.805 136.83-12.497 12.497-12.497 32.758 0 45.255 11.535 11.535 29.687 12.423 42.24 2.662 0 0 0 0 0 0zM319.552 595.168c0 0-2.925-2.532-2.925-2.532-44.196-37.92-82.191-82.524-112.602-132.185 0 0-7.448-12.547-7.448-12.547s4.852-8.227 4.852-8.227c0 0 4.308-7.008 4.308-7.008s4.644-7.309 4.644-7.309c18.393-28.477 40.123-56.976 64.964-83.475 69.492-74.125 148.808-117.885 236.133-117.888 47.366 0.771 93.594 13.12 134.758 35.683 0 0 5.539 3.264 5.539 3.264s-74.211 74.192-74.211 74.192c-5.072-3.178-10.371-6.003-15.859-8.448-15.702-6.998-32.656-10.762-49.843-11.062-17.184-0.304-34.256 2.858-50.198 9.296-15.935 6.438-30.413 16.019-42.569 28.173-12.153 12.154-21.735 26.634-28.174 42.573-6.437 15.939-9.599 33.011-9.296 50.195 0.303 17.187 4.065 34.138 11.062 49.843 2.447 5.491 5.273 10.79 8.451 15.862 0 0-81.587 81.6-81.587 81.6s0 0 0 0zM512 736.004c108.154 0 202.838-52.243 283.341-138.118 27.667-29.503 51.68-61.005 72.038-92.527 0 0 7.629-12.077 7.629-12.077s6.477-10.749 6.477-10.749c0 0 5.325-9.296 5.325-9.296s4.166-7.709 4.166-7.709c0.595-1.146 1.146-2.221 1.645-3.219 4.64-9.283 4.493-20.24-0.397-29.395-20.48-38.304-44.896-74.365-72.858-107.6-11.379-13.52-31.571-15.258-45.094-3.882-13.517 11.379-15.254 31.568-3.878 45.091 17.926 21.302 34.234 43.901 48.774 67.6 0 0 8.256 13.939 8.256 13.939s-0.883 1.578-0.883 1.578c-2.534 4.342-5.293 8.915-8.282 13.69 0 0-4.64 7.309-4.64 7.309-18.394 28.48-40.122 56.977-64.963 83.475-69.494 74.126-148.81 117.886-236.73 117.887-20.144 0.046-40.224-2.249-59.834-6.839-17.208-4.028-34.422 6.657-38.451 23.864s6.656 34.423 23.864 38.451c24.439 5.721 49.466 8.581 74.493 8.527 0 0 0 0 0 0zM445.615 446.736c-0.152-8.595 1.429-17.13 4.647-25.098 3.219-7.971 8.013-15.213 14.086-21.286 6.077-6.077 13.318-10.87 21.286-14.090 7.971-3.219 16.506-4.8 25.101-4.65 6.502 0.115 12.938 1.222 19.088 3.27 0 0-80.941 80.941-80.941 80.941-2.048-6.147-3.153-12.586-3.268-19.088 0 0 0 0 0 0z" />
<glyph unicode="&#xe90f;" glyph-name="basic_icon_loading_circle" d="M512 21.335c-57.583 0-113.5 11.245-166.084 33.498-50.833 21.498-96.417 52.333-135.583 91.501s-70 84.749-91.5 135.583c-22.25 52.584-33.5 108.5-33.5 166.083 0 16.584 13.417 30 30 30s30-13.416 30-30c0-49.5 9.667-97.5 28.833-142.749 18.5-43.667 44.916-82.916 78.584-116.587 33.667-33.664 72.916-60.166 116.583-78.579 45.167-19.085 93.167-28.749 142.667-28.749s97.5 9.664 142.75 28.832c43.667 18.502 82.916 44.915 116.586 78.586 33.664 33.664 60.166 72.914 78.579 116.58 19.085 45.167 28.749 93.167 28.749 142.666s-9.664 97.5-28.832 142.75c-18.438 43.562-45.12 83.149-78.586 116.584-33.395 33.507-72.991 60.197-116.58 78.583-45.167 19.084-93.167 28.75-142.666 28.75-16.584 0-30 13.417-30 30s13.416 30 30 30c57.583 0 113.5-11.25 166.083-33.5 50.834-21.5 96.415-52.334 135.583-91.5s69.92-84.834 91.418-135.583c22.246-52.584 33.498-108.5 33.498-166.084s-11.251-113.5-33.498-166.083c-21.414-50.834-52.25-96.415-91.418-135.583s-84.832-69.92-135.583-91.418c-52.584-22.336-108.5-33.581-166.083-33.581z" />
<glyph unicode="&#xe910;" glyph-name="basic_icon_more" d="M128 448.001c0 47.128 38.205 85.333 85.333 85.333s85.334-38.205 85.334-85.333c0-47.128-38.205-85.334-85.334-85.334s-85.333 38.205-85.333 85.334zM426.667 448.001c0 47.128 38.205 85.333 85.333 85.333 47.13 0 85.333-38.205 85.333-85.333s-38.204-85.334-85.333-85.334c-47.128 0-85.333 38.205-85.333 85.334zM725.333 448.001c0 47.128 38.204 85.333 85.336 85.333 47.13 0 85.331-38.205 85.331-85.333s-38.202-85.334-85.331-85.334c-47.132 0-85.336 38.205-85.336 85.334z" />
<glyph unicode="&#xe911;" glyph-name="basic_icon_ok_circle_filled" d="M981.345 447.991c0 259.206-210.131 469.333-469.336 469.333s-469.333-210.127-469.333-469.333c0-259.204 210.127-469.336 469.333-469.336 259.204 0 469.336 210.131 469.336 469.336zM247.172 396.488l60.34 60.34 119.164-119.164 311.162 311.164 60.339-60.34-341.331-341.333c-16.662-16.666-43.677-16.666-60.34 0l-149.333 149.333z" />
<glyph unicode="&#xe912;" glyph-name="basic_icon_ok_circle" d="M960 448c0 247.423-200.576 448-448 448s-448-200.577-448-448c0-247.424 200.577-448 448-448s448 200.576 448 448zM884 448c0-205.453-166.547-372-372-372-205.45 0-372 166.547-372 372 0 205.45 166.55 372 372 372 205.453 0 372-166.55 372-372zM652.102 607h46.9c6.502 0 10.297-7.4 6.399-12.7l-210.599-292c-12.7-17.7-39-17.7-51.7 0l-124.6 172.8c-3.8 5.3 0 12.7 6.5 12.7h46.9c10.3 0 19.9-5 25.9-13.3l71.2-98.8 157.2 218c6 8.4 15.7 13.3 25.9 13.3z" />
<glyph unicode="&#xe913;" glyph-name="basic_icon_page_double_left" d="M538.305 787.1l-265.4-339.1 265.4-339.098c4.1-5.203 0.4-12.902-6.3-12.902h-77.3c-4.9 0-9.6 2.202-12.6 6.099l-255.3 326.1c-9.1 11.6-9.1 27.9 0 39.5l255.3 326.2c3 3.8 7.7 6.1 12.6 6.1h77.3c6.7 0 10.4-7.7 6.3-12.9zM842.303 787.1l-265.398-339.1 265.398-339.098c4.102-5.203 0.403-12.902-6.298-12.902h-77.3c-4.9 0-9.6 2.202-12.6 6.099l-255.3 326.1c-9.1 11.6-9.1 27.9 0 39.5l255.3 326.2c3 3.8 7.7 6.1 12.6 6.1h77.3c6.701 0 10.4-7.7 6.298-12.9z" />
<glyph unicode="&#xe914;" glyph-name="basic_icon_page_left" d="M724 741.7v77.3c0 6.7-7.7 10.4-12.9 6.3l-450.8-352.1c-16.4-12.8-16.4-37.5 0-50.3l450.8-352.101c5.3-4.096 12.9-0.397 12.9 6.304v77.299c0 4.896-2.3 9.6-6.1 12.595l-360 281.003 360 281.1c3.8 3 6.1 7.7 6.1 12.6z" />
<glyph unicode="&#xe915;" glyph-name="basic_icon_plus" d="M512 832c26.509 0 48-21.49 48-48v-288h288c26.509 0 48-21.491 48-48s-21.491-48-48-48h-288v-288c0-26.509-21.491-48-48-48s-48 21.491-48 48v288h-288c-26.51 0-48 21.491-48 48s21.49 48 48 48h288v288c0 26.51 21.491 48 48 48z" />
<glyph unicode="&#xe916;" glyph-name="basic_icon_question_circle" d="M921.6 448c0 226.216-183.384 409.6-409.6 409.6s-409.6-183.384-409.6-409.6c0-226.216 183.384-409.6 409.6-409.6s409.6 183.384 409.6 409.6zM870.4 448c0-197.939-160.461-358.4-358.4-358.4s-358.4 160.461-358.4 358.4c0 197.939 160.461 358.4 358.4 358.4s358.4-160.461 358.4-358.4zM511.998 663.772c38.4 0 74.606-13.166 102.035-37.212 28.525-24.96 44.252-58.515 44.16-94.446 0-52.845-34.835-100.388-88.778-121.142-16.914-6.492-28.251-22.949-28.251-40.96v-20.755c0-4.023-3.292-7.315-7.315-7.315h-43.885c-4.023 0-7.315 3.292-7.315 7.315v19.657c0 21.12 6.217 41.966 18.195 59.338 11.794 17.005 28.252 29.988 47.634 37.394 31.178 11.977 51.292 38.035 51.292 66.468 0 40.32-39.405 73.143-87.772 73.143s-87.772-32.823-87.772-73.143v-6.948c0-4.023-3.291-7.314-7.314-7.314h-43.886c-4.022 0-7.314 3.291-7.314 7.314v6.948c0 35.932 15.725 69.486 44.252 94.446 27.428 23.954 63.634 37.212 102.034 37.212zM512.003 210.284c20.198 0 36.572 16.374 36.572 36.572s-16.374 36.571-36.572 36.571c-20.198 0-36.572-16.373-36.572-36.571s16.374-36.572 36.572-36.572z" />
<glyph unicode="&#xe917;" glyph-name="basic_icon_refresh_big" d="M517.161 785.869c-73.274 10.394-147.941-3.309-212.75-39.044s-116.247-91.565-146.564-159.077c-30.318-67.513-37.871-143.050-21.523-215.229s55.713-137.092 112.162-184.954c56.449-47.859 126.924-76.077 200.805-80.397 73.882-4.326 147.166 15.488 208.811 56.435 61.647 40.954 108.309 100.832 132.962 170.613 7.853 22.217 32.224 33.865 54.445 26.014 22.214-7.851 33.862-32.222 26.016-54.443-30.816-87.221-89.146-162.076-166.202-213.263-77.058-51.187-168.664-75.949-261.016-70.541-92.351 5.402-180.445 40.672-251.007 100.493-70.561 59.827-119.767 140.968-140.202 231.192s-10.993 184.644 26.904 269.036c37.897 84.39 102.195 154.179 183.206 198.847s174.344 61.797 265.938 48.806c91.371-12.961 176.075-55.198 241.406-120.366l125.171-117.87v157.215c0 23.564 19.098 42.667 42.662 42.667s42.669-19.103 42.669-42.667v-256c0-23.564-19.104-42.667-42.669-42.667h-255.998c-23.565 0-42.666 19.103-42.666 42.667s19.101 42.667 42.666 42.667h148.452l-119.251 112.298c-0.314 0.296-0.621 0.596-0.928 0.902-52.316 52.348-120.224 86.275-193.5 96.668z" />
<glyph unicode="&#xe918;" glyph-name="basic_icon_refresh_bt" d="M649.373 822.627c12.496 12.497 32.758 12.497 45.254 0l128-128c12.496-12.497 12.496-32.758 0-45.256l-128-128c-12.496-12.495-32.758-12.495-45.254 0-12.496 12.497-12.496 32.758 0 45.255l73.373 73.373h-370.746c-25.46 0-49.878-10.115-67.882-28.118s-28.118-42.422-28.118-67.882v-64c0-17.674-14.327-32-32-32s-32 14.326-32 32v64c0 42.435 16.857 83.131 46.863 113.137s70.702 46.863 113.137 46.863h370.746l-73.373 73.372c-12.496 12.497-12.496 32.758 0 45.255zM768 352v64c0 17.674 14.326 32 32 32s32-14.326 32-32v-64c0-42.435-16.858-83.133-46.864-113.136-30.003-30.006-70.701-46.864-113.136-46.864h-370.745l73.373-73.376c12.497-12.493 12.497-32.755 0-45.248-12.497-12.499-32.758-12.499-45.255 0l-128 127.997c-12.497 12.496-12.497 32.758 0 45.254l128 128c12.497 12.496 32.758 12.496 45.255 0s12.497-32.758 0-45.254l-73.373-73.373h370.745c25.459 0 49.878 10.115 67.882 28.118s28.118 42.422 28.118 67.882z" />
<glyph unicode="&#xe919;" glyph-name="basic_icon_refresh_small" d="M299.584 292.61c52.834-87.682 148.836-146.146 258.443-146.146 166.504 0 301.48 134.98 301.48 301.483s-134.976 301.48-301.48 301.48c-128.867 0-238.849-80.853-281.985-194.598l53.128 35.418 55.743-83.615-150.74-100.493c-23.090-15.393-54.286-9.154-69.679 13.936l-100.493 150.74 83.615 55.744 30.771-46.157c54.746 156.928 204.045 269.519 379.64 269.519 222.005 0 401.973-179.969 401.973-401.973s-179.968-401.976-401.973-401.976c-146.282 0-274.257 78.17-344.518 194.774l86.075 51.865z" />
<glyph unicode="&#xe91a;" glyph-name="basic_icon_search" d="M804.961 185.154l-101.603 108.599c41.295 49.473 63.885 111.865 63.823 176.282 0 152.539-124.21 276.631-276.931 276.631-152.685 0-276.895-124.092-276.895-276.631s124.21-276.63 276.895-276.63c40.020 0 78.584 8.362 114.681 24.788 7.184 2.982 12.17 9.639 13.005 17.366s-2.612 15.294-8.993 19.74c-6.381 4.445-14.68 5.062-21.649 1.608-72.535-32.826-156.787-26.643-223.743 16.418s-107.472 117.119-107.595 196.674c0.124 129.229 104.943 233.966 234.296 234.11 129.344-0.144 234.168-104.851 234.332-234.072 0-60.702-23.168-118.305-65.281-162.058-3.92-4.065-6.063-9.518-5.958-15.161s2.45-11.013 6.518-14.929c0.636-0.635 1.495-0.859 2.167-1.382 0.598-0.858 0.897-1.866 1.607-2.613l110.16-117.745c3.838-4.163 9.187-6.613 14.848-6.803s11.162 1.898 15.27 5.795c4.132 3.844 6.566 9.172 6.762 14.81s-1.86 11.121-5.715 15.243v-0.038z" />
<glyph unicode="&#xe91b;" glyph-name="basic_icon_sort_up_filled" d="M542.582 604c-16.781 19.554-44.349 19.554-61.131 0l-250.517-291.175c-16.781-19.555-9.589-35.492 16.115-35.492h529.801c25.704 0 33.030 15.938 16.115 35.492l-250.384 291.175z" />
<glyph unicode="&#xe91c;" glyph-name="basic_icon_sort" d="M542.57 860c-16.781 19.554-44.349 19.554-61.131 0l-250.517-291.175c-16.781-19.555-9.589-35.492 16.115-35.492h529.801c25.704 0 33.030 15.938 16.115 35.492l-250.384 291.175zM542.57 35.997c-16.781-19.552-44.349-19.552-61.131 0l-250.517 291.176c-16.781 19.554-9.589 35.492 16.115 35.492h529.801c25.704 0 33.030-15.939 16.115-35.492l-250.384-291.176z" />
<glyph unicode="&#xe91d;" glyph-name="basic_icon_user" d="M512.008 799.086c-72.712 0-131.657-58.945-131.657-131.657s58.945-131.657 131.657-131.657c72.714 0 131.657 58.945 131.657 131.657s-58.943 131.657-131.657 131.657zM292.579 667.429c0 121.187 98.241 219.428 219.428 219.428 121.186 0 219.428-98.242 219.428-219.428s-98.243-219.428-219.428-219.428c-121.187 0-219.428 98.241-219.428 219.428zM181.306 295.958c41.151 41.151 96.963 64.271 155.159 64.271h351.086c58.196 0 114.010-23.119 155.156-64.271 41.152-41.147 64.275-96.96 64.275-155.155v-87.776c0-24.237-19.648-43.885-43.891-43.885-24.237 0-43.885 19.648-43.885 43.885v87.776c0 34.912-13.869 68.403-38.56 93.094-24.691 24.688-58.18 38.56-93.095 38.56h-351.086c-34.918 0-68.405-13.872-93.096-38.56-24.691-24.691-38.561-58.176-38.561-93.094v-87.776c0-24.237-19.649-43.885-43.886-43.885s-43.886 19.648-43.886 43.885v87.776c0 58.195 23.118 114.008 64.269 155.155z" />
<glyph unicode="&#xe91e;" glyph-name="basic_icon_visible" d="M512 736c108.154 0 202.838-52.24 283.341-138.114 27.667-29.503 51.68-61.004 72.038-92.525 0 0 7.629-12.077 7.629-12.077s9.286-15.588 9.286-15.588c0 0 4.742-8.518 4.742-8.518s3.584-6.867 3.584-6.867c4.506-9.009 4.506-19.613 0-28.622-0.499-1-1.043-2.074-1.645-3.219 0 0-4.166-7.708-4.166-7.708s-5.325-9.297-5.325-9.297c0 0-6.477-10.749-6.477-10.749s-7.629-12.077-7.629-12.077c-20.358-31.523-44.371-63.024-72.038-92.525-80.502-85.875-175.187-138.115-283.341-138.115s-202.838 52.24-283.345 138.115c-27.659 29.501-51.679 61.002-72.036 92.525 0 0-7.627 12.077-7.627 12.077s-9.286 15.588-9.286 15.588c0 0-4.745 8.518-4.745 8.518s-3.582 6.867-3.582 6.867c-4.504 9.009-4.504 19.613 0 28.622 0.5 0.999 1.048 2.073 1.645 3.219 0 0 4.164 7.708 4.164 7.708s5.324 9.295 5.324 9.295c0 0 6.479 10.751 6.479 10.751s7.627 12.077 7.627 12.077c20.357 31.521 44.377 63.022 72.036 92.525 80.507 85.874 175.192 138.114 283.345 138.114 0 0 0 0 0 0zM512 672c-87.846 0-167.162-43.761-236.655-117.886-24.842-26.497-46.572-54.996-64.964-83.475-3.208-4.968-6.193-9.75-8.954-14.316 0 0-4.915-8.323-4.915-8.323s4.915-8.324 4.915-8.324c0 0 4.309-7.006 4.309-7.006s4.644-7.309 4.644-7.309c18.393-28.478 40.123-56.977 64.964-83.476 69.493-74.125 148.808-117.885 236.655-117.885s167.162 43.76 236.656 117.885c24.842 26.499 46.57 54.998 64.963 83.476 3.206 4.967 6.195 9.75 8.954 14.315 0 0 4.883 8.324 4.883 8.324s-4.883 8.323-4.883 8.323c0 0-4.314 7.007-4.314 7.007s-4.64 7.309-4.64 7.309c-18.394 28.479-40.122 56.978-64.963 83.475-69.494 74.125-148.81 117.886-236.656 117.886 0 0 0 0 0 0zM512 576c70.694 0 128-57.308 128-128 0-70.694-57.306-128-128-128s-128 57.306-128 128c0 70.692 57.306 128 128 128 0 0 0 0 0 0zM512 512c-35.347 0-64-28.653-64-64s28.653-64 64-64c35.347 0 64 28.653 64 64s-28.653 64-64 64c0 0 0 0 0 0z" />
<glyph unicode="&#xe91f;" glyph-name="header_icon_help" d="M858.533 832h-220.486c-51.426 0-97.19-24.848-125.97-63.064-28.78 38.216-74.545 63.064-125.971 63.064h-220.644c-34.756 0-63.064-28.308-63.064-63.064v-582.831c0-34.752 28.308-63.059 63.064-63.059h231.653c30.982-30.195 72.028-47.181 114.962-47.181s83.98 16.986 114.961 47.181h231.494c34.758 0 63.066 28.307 63.066 63.059v582.831c0 34.756-28.307 63.064-63.066 63.064zM858.533 186.106h-245.176c-9.121 0-17.928-3.93-23.905-11.008-19.658-22.957-47.966-36.173-77.375-36.173s-57.717 13.216-77.375 36.173c-5.976 7.078-14.783 11.008-23.904 11.008h-245.336v582.831h220.488c52.055 0 94.516-42.462 94.516-94.517v-267.825c0-17.457 14.154-31.453 31.453-31.453 17.457 0 31.453 14.154 31.453 31.453v267.825c0 52.055 42.462 94.517 94.517 94.517h220.643v-582.831z" />
<glyph unicode="&#xe920;" glyph-name="header_icon_notice" d="M534.926 857.6h-46.545c-11.64 0-22.397-6.21-28.217-16.291s-5.82-22.501 0-32.582c5.82-10.081 16.577-16.291 28.217-16.291h46.545c11.64 0 22.397 6.21 28.217 16.291s5.82 22.501 0 32.582c-5.82 10.081-16.577 16.291-28.217 16.291zM511.657 764.506c-143.956 0-260.654-116.699-260.654-260.655v-214.109l-51.461-54.891c-33.443-35.671-8.15-94.052 40.751-94.052h542.734c48.895 0 74.188 58.381 40.746 94.052l-51.46 54.891v214.109c0 143.956-116.699 260.655-260.655 260.655zM511.66 699.344c107.795 0 195.491-87.697 195.491-195.491v-239.876l54.388-58.012h-499.759l54.388 58.012v239.876c0 107.795 87.697 195.491 195.491 195.491zM576.821 103.565h-130.327c-17.995 0-32.582-14.592-32.582-32.582 0-17.997 14.587-32.582 32.582-32.582h130.327c17.994 0 32.582 14.586 32.582 32.582 0 17.99-14.588 32.582-32.582 32.582z" />
<glyph unicode="&#xe921;" glyph-name="header_icon_ssh_outline" d="M921.797 703.975c0 56.568-45.856 102.425-102.426 102.425h-614.548c-56.568 0-102.425-45.857-102.425-102.425v-512.125c0-56.567 45.857-102.423 102.425-102.423h614.548c56.57 0 102.426 45.856 102.426 102.423v512.125zM203.902 734.805h616.289c16.973 0 30.733-13.757 30.733-30.728v-511.818c0-16.97-13.76-30.73-30.733-30.73h-616.289c-16.97 0-30.728 13.76-30.728 30.73v511.818c0 16.97 13.757 30.728 30.728 30.728zM311.447 286.643l154.969 154.969c5.997 5.997 5.998 15.722 0.001 21.721l-158.031 158.076c-6 6.002-15.732 6-21.73-0.005l-23.249-23.276c-5.994-6.001-5.99-15.725 0.010-21.72l113.112-113.027c6.002-5.997 6.004-15.724 0.006-21.724l-110.045-110.088c-5.999-6.001-5.995-15.73 0.008-21.727l23.232-23.205c5.999-5.993 15.72-5.99 21.716 0.006zM752.805 345.488h-276.557c-8.483 0-15.36-6.877-15.36-15.36v-30.735c0-8.483 6.877-15.36 15.36-15.36h276.557c8.48 0 15.36 6.877 15.36 15.36v30.735c0 8.483-6.88 15.36-15.36 15.36z" />
<glyph unicode="&#xe922;" glyph-name="header_icon_tmp_circle" d="M511.998 38.4c226.216 0 409.6 183.384 409.6 409.6s-183.384 409.6-409.6 409.6c-226.216 0-409.6-183.384-409.6-409.6s183.384-409.6 409.6-409.6zM758.187 694.186q101.971-101.974 101.971-246.186t-101.971-246.189q-101.976-101.971-246.189-101.971t-246.186 101.971q-101.974 101.976-101.974 246.189t101.974 246.186 246.186 101.974 246.189-101.974zM630.924 644.95l0.25-0.036 1.336-0.125 1.411-0.332 1.136-0.216 0.625-0.234 0.845-0.192 1.484-0.631 1.435-0.431 0.559-0.399 0.37-0.156 1.926-1.204 0.918-0.54 0.342-0.172 3.116-2.671 70.104-70.104q7.709-7.727 7.696-18.633t-7.734-18.609-18.627-7.69-18.609 7.734l-24.937 24.916v-278.138q-0.004-22.355-22.064-25.969l-0.303-0.050-3.635-0.3h-0.316q-10.902 0-18.611 7.709t-7.709 18.61v278.189l-24.975-24.975q-15.496-15.514-33.553-3.068l-0.307 0.212-3.115 2.627-0.232 0.232q-7.697 7.707-7.697 18.598t7.697 18.599l70.108 70.108 2.836 2.431 0.643 0.401 0.71 0.474 2.041 1.225 1.062 0.5 1.027 0.419 1.796 0.745 0.854 0.203 0.66 0.233 1.054 0.211 1.466 0.335 1.068 0.104 1.103 0.22 0.886-0.063 1.195 0.097 1.429-0.119h0.692l0.541-0.077zM391.623 644.847l3.329 0.275h0.316q10.902 0 18.61-7.709t7.709-18.611v-278.148l24.979 24.939q15.491 15.508 33.549 3.063l0.308-0.212 3.115-2.627 0.232-0.232q7.697-7.706 7.697-18.598t-7.697-18.598l-69.9-69.899q-1.433-1.433-3.067-2.63l-0.388-0.284-0.428-0.238-0.488-0.325-2.109-1.318-1.158-0.488-0.922-0.376-1.768-0.753-0.846-0.193-0.625-0.234-1.135-0.216-1.411-0.332-1.071-0.1-1.043-0.223-0.963 0.064-1.173-0.098-1.469 0.12h-0.634l-0.834 0.111-1.316 0.127-1.466 0.335-1.053 0.211-0.701 0.247-0.791 0.198-1.522 0.616-1.232 0.389-0.618 0.387-0.527 0.234-1.952 1.196-0.936 0.584-0.156 0.125-0.11 0.068-0.227 0.166q-1.634 1.196-3.066 2.628l-70.085 70.092q-7.247 7.777-7.060 18.406t7.705 18.146 18.146 7.705 18.406-7.060l0.097-0.090 25.073-25.032v278.148q0.004 22.356 22.064 25.969l0.303 0.050 0.307 0.026z" />
<glyph unicode="&#xe923;" glyph-name="login_icon_phone" d="M323.208 823.461h376.657c38.952 0.057 70.571-31.481 70.614-70.433v-610.092c-0.057-38.944-31.672-70.464-70.614-70.406h-376.657c-38.952-0.058-70.571 31.482-70.614 70.432v610.093c0.057 38.942 31.672 70.464 70.614 70.406zM695.67 124.319c12.719 0.083 22.992 10.4 23.020 23.123l-0.207 601.107c0.086 12.776-10.269 23.167-23.046 23.123h-69.034c-0.573-23.418-19.637-42.151-43.062-42.311h-143.843c-23.357 0.104-42.415 18.851-43.037 42.311h-69.060c-12.738-0.029-23.037-10.386-22.994-23.123v-601.107c-0.086-12.768 10.254-23.155 23.020-23.123h368.242zM615.113 227.894h-207.155v-51.786h207.155v51.786z" />
<glyph unicode="&#xe924;" glyph-name="login_icon_scanner" d="M887.334 419.118h-750.932c-15.943 0-28.882 12.94-28.882 28.882s12.939 28.883 28.882 28.883h750.932c15.974 0 28.883-12.94 28.883-28.883s-12.909-28.882-28.883-28.882zM800.691 72.535h-173.294c-15.972 0-28.882 12.909-28.882 28.877 0 15.974 12.91 28.883 28.882 28.883h173.294c15.942 0 28.883 12.941 28.883 28.883v144.411c0 15.972 12.909 28.882 28.877 28.882 15.974 0 28.883-12.91 28.883-28.882v-144.411c0-47.77-38.874-86.643-86.643-86.643zM367.458 72.535h-144.41c-47.771 0-86.646 38.874-86.646 86.643v144.411c0 15.972 12.939 28.882 28.882 28.882s28.882-12.91 28.882-28.882v-144.411c0-15.942 12.968-28.883 28.882-28.883h144.41c15.943 0 28.882-12.909 28.882-28.883 0-15.968-12.939-28.877-28.882-28.877zM165.284 563.528c-15.943 0-28.882 12.94-28.882 28.882v144.41c0 47.771 38.875 86.646 86.646 86.646h144.41c15.943 0 28.882-12.939 28.882-28.882s-12.939-28.882-28.882-28.882h-144.41c-15.914 0-28.882-12.968-28.882-28.882v-144.41c0-15.942-12.94-28.882-28.882-28.882zM858.451 563.528c-15.968 0-28.877 12.94-28.877 28.882v144.41c0 15.914-12.941 28.882-28.883 28.882h-173.294c-15.972 0-28.882 12.939-28.882 28.882s12.91 28.882 28.882 28.882h173.294c47.77 0 86.643-38.875 86.643-86.646v-144.41c0-15.942-12.909-28.882-28.883-28.882z" />
<glyph unicode="&#xe925;" glyph-name="netdisk_icon_close_circle" d="M512.001 831.999c-212.077 0-384-171.923-384-384 0-212.081 171.923-383.998 384-383.998 212.081 0 383.998 171.917 383.998 383.998 0 212.077-171.917 384-383.998 384zM42.668 447.999c0 259.205 210.128 469.333 469.333 469.333s469.336-210.128 469.336-469.333c0-259.204-210.131-469.336-469.336-469.336s-469.333 210.131-469.333 469.336zM353.831 606.169c16.662 16.662 43.677 16.662 60.34 0l97.83-97.83 97.83 97.83c16.662 16.662 43.678 16.662 60.339 0 16.664-16.662 16.664-43.677 0-60.34l-97.83-97.83 97.83-97.83c16.664-16.662 16.664-43.678 0-60.339-16.661-16.664-43.677-16.664-60.339 0l-97.83 97.83-97.83-97.83c-16.662-16.664-43.677-16.664-60.34 0-16.662 16.661-16.662 43.677 0 60.339l97.83 97.83-97.83 97.83c-16.662 16.662-16.662 43.677 0 60.34z" />
<glyph unicode="&#xe926;" glyph-name="netdisk_icon_copypath" d="M170.668 831.999c-11.316 0-22.168-4.495-30.17-12.497s-12.497-18.854-12.497-30.17v-384c0-11.315 4.495-22.17 12.497-30.17s18.854-12.497 30.17-12.497h42.667c23.564 0 42.666-19.101 42.666-42.666s-19.103-42.667-42.666-42.667h-42.667c-33.948 0-66.505 13.487-90.51 37.491s-37.49 56.563-37.49 90.509v384c0 33.948 13.486 66.505 37.49 90.51s56.562 37.49 90.51 37.49h384c33.946 0 66.504-13.486 90.509-37.49s37.491-56.562 37.491-90.51v-42.667c0-23.564-19.102-42.666-42.667-42.666s-42.666 19.103-42.666 42.666v42.667c0 11.316-4.497 22.168-12.497 30.17s-18.854 12.497-30.17 12.497h-384zM469.335 533.332c-23.565 0-42.667-19.102-42.667-42.667v-384.002c0-23.565 19.102-42.662 42.667-42.662h384.002c23.565 0 42.662 19.098 42.662 42.662v384.002c0 23.565-19.098 42.667-42.662 42.667h-384.002zM341.335 490.665c0 70.692 57.308 128 128 128h384.002c70.694 0 128-57.308 128-128v-384.002c0-70.694-57.306-128-128-128h-384.002c-70.692 0-128 57.306-128 128v384.002z" />
<glyph unicode="&#xe927;" glyph-name="netdisk_icon_css" d="M588.801 832h-307.2c-20.369 0-39.903-8.091-54.306-22.494s-22.494-33.937-22.494-54.306v-614.4c0-20.365 8.091-39.904 22.494-54.304 14.403-14.406 33.937-22.496 54.306-22.496h460.8c20.367 0 39.901 8.090 54.305 22.496 14.404 14.4 22.495 33.939 22.495 54.304v460.8l-230.4 230.4zM413.927 240.179c10.56 0 22.31 2.342 29.261 5.069l5.299-27.379c-6.451-3.226-20.966-6.682-39.821-6.682-53.645 0-81.293 33.37-81.293 77.606-0.038 52.915 37.747 82.406 84.71 82.406 18.202 0 31.987-3.686 38.208-6.912l-7.142-27.878c-9.352 3.852-19.378 5.795-29.491 5.722-27.878 0-49.536-16.819-49.536-51.341 0.038-31.027 18.509-50.611 49.805-50.611zM509.582 211.187c-17.702 0-35.213 4.57-43.968 9.408l7.142 29.030c9.446-4.838 23.962-9.677 38.938-9.677 16.128 0 24.653 6.682 24.653 16.819 0 9.677-7.373 15.206-26.035 21.888-25.805 8.986-42.586 23.232-42.586 45.811 0 26.458 22.080 46.733 58.714 46.733 17.472 0 30.374-3.686 39.59-7.795l-7.834-28.339c-10.124 4.904-21.236 7.427-32.486 7.373-15.206 0-22.541-6.95-22.541-14.976 0-9.907 8.755-14.285 28.762-21.888 27.418-10.138 40.32-24.422 40.32-46.272-0.038-26.035-20.083-48.115-62.669-48.115zM633.998 211.187c-17.702 0-35.213 4.57-43.968 9.408l7.142 29.030c9.446-4.838 23.962-9.677 38.938-9.677 16.128 0 24.653 6.682 24.653 16.819 0 9.677-7.373 15.206-26.035 21.888-25.805 8.986-42.586 23.232-42.586 45.811 0 26.458 22.080 46.733 58.714 46.733 17.472 0 30.374-3.686 39.59-7.795l-7.834-28.339c-10.122 4.904-21.235 7.427-32.486 7.373-15.206 0-22.541-6.95-22.541-14.976 0-9.907 8.755-14.285 28.762-21.888 27.418-10.138 40.32-24.422 40.32-46.272 0-26.035-20.083-48.115-62.669-48.115zM588.801 563.2q-15.729 0-27.053 0c-6.362 0-11.347 5.302-11.347 11.664 0 29.866 0 109.741 0 152.467 0 10.264 12.481 15.389 19.738 8.131 36.844-36.844 115.68-115.68 152.524-152.524 7.257-7.257 2.456-19.738-7.807-19.738q-44.201 0-126.054 0z" />
<glyph unicode="&#xe928;" glyph-name="netdisk_icon_delete" d="M725.332 789.334c0 33.948-13.487 66.505-37.491 90.51s-56.563 37.49-90.509 37.49h-170.667c-33.948 0-66.505-13.486-90.509-37.49s-37.491-56.562-37.491-90.51v-42.667h-170.666c-23.564 0-42.667-19.103-42.667-42.666s19.103-42.667 42.667-42.667h42.666v-554.669c0-33.946 13.486-66.502 37.491-90.509 24.004-24 56.562-37.491 90.509-37.491h426.667c33.952 0 66.502 13.491 90.509 37.491 24.006 24.006 37.491 56.563 37.491 90.509v554.669h42.669c23.565 0 42.662 19.103 42.662 42.667s-19.098 42.666-42.662 42.666h-170.669v42.667zM639.999 746.667h-256v42.667c0 11.316 4.495 22.168 12.497 30.17s18.854 12.497 30.17 12.497h170.667c11.315 0 22.17-4.495 30.17-12.497s12.497-18.854 12.497-30.17v-42.667zM255.999 106.665v554.669h512.002v-554.669c0-11.315-4.499-22.17-12.499-30.17s-18.854-12.493-30.17-12.493h-426.667c-11.316 0-22.168 4.493-30.17 12.493s-12.497 18.854-12.497 30.17zM469.332 490.667c0 23.565-19.103 42.667-42.667 42.667s-42.666-19.102-42.666-42.667v-256.002c0-23.565 19.103-42.662 42.666-42.662s42.667 19.098 42.667 42.662v256.002zM597.332 533.334c-23.565 0-42.667-19.102-42.667-42.667v-256.002c0-23.565 19.102-42.662 42.667-42.662s42.667 19.098 42.667 42.662v256.002c0 23.565-19.102 42.667-42.667 42.667z" />
<glyph unicode="&#xe929;" glyph-name="netdisk_icon_doc" d="M281.603 832h307.2l230.4-230.4v-460.8c0-20.365-8.091-39.904-22.495-54.304-14.404-14.406-33.938-22.496-54.305-22.496h-460.8c-20.369 0-39.903 8.090-54.306 22.496-14.403 14.4-22.494 33.939-22.494 54.304v614.4c0 20.369 8.091 39.903 22.494 54.306s33.937 22.494 54.306 22.494zM569.603 563.2h126.447c17.105 0 25.672 20.681 13.576 32.776l-126.447 126.447c-12.095 12.095-32.776 3.529-32.776-13.576v-126.447c0-10.604 8.596-19.2 19.2-19.2zM444.572 296.627c0-44.237 26.918-79.027 72.998-79.027 45.312 0 76.186 30.874 76.224 81.754 0 42.854-26.035 78.528-73.69 78.528-45.85 0-75.533-34.752-75.533-81.254zM725.584 251.93c-6.95-2.726-18.701-5.069-29.261-5.069-31.334 0-49.766 19.546-49.766 50.611 0 34.56 21.658 51.379 49.536 51.379 10.115 0.061 20.141-1.897 29.491-5.76l7.142 27.878c-6.221 3.226-20.006 6.912-38.208 6.912-47.002 0-84.749-29.453-84.749-82.406 0-44.237 27.648-77.606 81.293-77.606 18.854 0 33.37 3.456 39.821 6.682l-5.299 27.379zM331.177 218.56c30.374 0 55.219 6.413 71.578 20.006 14.976 12.672 25.805 33.178 25.805 62.938 0 27.341-10.138 46.464-26.266 58.445-14.938 11.29-34.061 16.589-63.552 16.589-15.866 0.138-31.72-0.925-47.424-3.187v-152.486c8.755-1.152 21.619-2.304 39.859-2.304zM481.628 297.29c0 30.182 13.824 52.723 37.517 52.723 24.154 0 37.517-23.923 37.517-51.802 0-30.182-13.594-52.761-37.286-52.761-23.501 0-37.747 21.466-37.747 51.84zM326.565 348.199c2.995 0.691 8.064 1.382 15.859 1.382 30.182 0 49.037-17.050 48.806-49.306 0-37.094-20.698-54.566-52.493-54.336-4.339 0-9.178 0-12.173 0.691v101.568z" />
<glyph unicode="&#xe92a;" glyph-name="netdisk_icon_download" d="M511.999 874.668c23.565 0 42.666-19.103 42.666-42.667v-408.994l140.497 140.497c16.661 16.662 43.68 16.662 60.339 0s16.659-43.677 0-60.34l-213.333-213.333c-16.662-16.661-43.677-16.661-60.34 0l-213.333 213.333c-16.662 16.662-16.662 43.677 0 60.34s43.677 16.662 60.34 0l140.497-140.497v408.994c0 23.564 19.102 42.667 42.667 42.667zM127.999 362.668c23.564 0 42.666-19.102 42.666-42.667v-170.664c0-11.315 4.495-22.17 12.497-30.17s18.854-12.499 30.17-12.499h597.331c11.315 0 22.17 4.499 30.17 12.499s12.499 18.854 12.499 30.17v170.664c0 23.565 19.104 42.667 42.669 42.667s42.662-19.102 42.662-42.667v-170.664c0-33.952-13.485-66.509-37.491-90.509-24-24.006-56.557-37.491-90.509-37.491h-597.331c-33.948 0-66.505 13.485-90.51 37.491-24.005 24-37.49 56.557-37.49 90.509v170.664c0 23.565 19.103 42.667 42.667 42.667z" />
<glyph unicode="&#xe92b;" glyph-name="netdisk_icon_fIle" d="M742.401 64c20.367 0 39.901 8.090 54.305 22.496 14.404 14.4 22.495 33.939 22.495 54.304v460.8l-230.4 230.4h-307.2c-20.369 0-39.903-8.091-54.306-22.494s-22.494-33.937-22.494-54.306v-614.4c0-20.365 8.091-39.904 22.494-54.304 14.403-14.406 33.937-22.496 54.306-22.496h460.8zM570.139 735.462c36.844-36.844 115.68-115.68 152.524-152.524 7.257-7.257 2.132-19.738-8.131-19.738-42.725 0-122.601 0-152.467 0-6.362 0-11.664 5.302-11.664 11.664 0 29.866 0 109.741 0 152.467 0 10.264 12.481 15.389 19.738 8.131zM331.434 601.6c22.062 0 70.272 0 92.334 0 6.362 0 11.433-5.102 11.433-11.464 0-14.511 0-39.36 0-53.871 0-6.362-5.071-11.464-11.433-11.464-22.062 0-70.272 0-92.334 0-6.362 0-11.433 5.102-11.433 11.464 0 14.511 0 39.36 0 53.871 0 6.362 5.071 11.464 11.433 11.464zM331.41 448c56.381 0 304.8 0 361.181 0 6.363 0 11.409-5.102 11.409-11.464 0-14.511 0-39.36 0-53.871 0-6.362-5.046-11.464-11.409-11.464-56.382 0-304.801 0-361.182 0-6.363 0-11.409 5.102-11.409 11.464 0 14.511 0 39.36 0 53.871 0 6.362 5.046 11.464 11.409 11.464zM331.41 294.4c56.381 0 304.8 0 361.181 0 6.363 0 11.409-5.102 11.409-11.464 0-14.511 0-39.36 0-53.871 0-6.362-5.046-11.464-11.409-11.464-56.382 0-304.801 0-361.182 0-6.363 0-11.409 5.102-11.409 11.464 0 14.511 0 39.36 0 53.871 0 6.362 5.046 11.464 11.409 11.464z" />
<glyph unicode="&#xe92c;" glyph-name="netdisk_icon_folder" d="M105.072 57.251h818.579l0.659 1.792q36.192 0 50.912 17.779 13.6 16.429 8.87 48.038v546.882c2.413 16.445-3.731 32.974-16.614 44.705-12.877 11.732-31.027 17.325-49.082 15.129h-369.873c-12.312-0.712-24.411 3.177-33.505 10.77l-43.36 64.621q-25.622 38.294-63.725 31.712h-287.094c-21.247 0.646-41.879-6.55-57.217-19.956s-24.081-31.885-24.247-51.246v-640.223q0-46.035 21.985-62.24 16.019-11.802 43.711-7.763zM818.62 596.023c5.408-5.39 8.442-12.7 8.442-20.323 0.16-7.779-2.79-15.3-8.198-20.911-5.402-5.61-12.826-8.849-20.627-9.003h-571.306c-8.007-0.161-15.734 2.938-21.396 8.584s-8.772 13.348-8.611 21.33c0.155 7.779 3.404 15.178 9.031 20.568s13.173 8.33 20.976 8.173h571.306c7.642 0 14.976-3.028 20.384-8.418z" />
<glyph unicode="&#xe92d;" glyph-name="netdisk_icon_gif" d="M588.801 832h-307.2c-20.369 0-39.903-8.091-54.306-22.494s-22.494-33.937-22.494-54.306v-614.4c0-20.365 8.091-39.904 22.494-54.304 14.403-14.406 33.937-22.496 54.306-22.496h460.8c20.367 0 39.901 8.090 54.305 22.496 14.404 14.4 22.495 33.939 22.495 54.304v460.8l-230.4 230.4zM486.388 226.355c-16.722-5.533-34.19-8.486-51.802-8.755-28.301 0-48.806 7.142-63.13 20.966-14.246 13.363-22.080 33.6-21.85 56.41 0.23 51.61 37.747 81.062 88.666 81.062 20.006 0 35.482-3.955 43.046-7.603l-7.334-28.070c-8.525 3.686-19.123 6.682-36.134 6.682-29.261 0-51.379-16.589-51.379-50.227 0-31.987 20.045-50.88 48.806-50.88 8.064 0 14.515 0.922 17.28 2.342v32.486h-23.962v27.379h57.792v-81.792zM549.134 219.213h-35.251v155.213h35.251v-155.213zM674.394 345.626h-59.635v-35.443h55.718v-28.57h-55.718v-62.4h-35.251v155.213h94.886v-28.8zM588.801 563.2h-19.2c-10.604 0-19.2 8.596-19.2 19.2v126.447c0 17.105 20.681 25.672 32.776 13.576l126.447-126.447c12.095-12.095 3.529-32.776-13.576-32.776h-107.247z" />
<glyph unicode="&#xe92e;" glyph-name="netdisk_icon_html" d="M588.801 832h-307.2c-20.369 0-39.903-8.091-54.306-22.494s-22.494-33.937-22.494-54.306v-614.4c0-20.365 8.091-39.904 22.494-54.304 14.403-14.406 33.937-22.496 54.306-22.496h460.8c20.367 0 39.901 8.090 54.305 22.496 14.404 14.4 22.495 33.939 22.495 54.304v460.8l-230.4 230.4zM583.177 722.424l126.447-126.447c12.095-12.095 3.529-32.776-13.576-32.776h-126.447c-10.604 0-19.2 8.596-19.2 19.2v126.447c0 17.105 20.681 25.672 32.776 13.576zM378.791 217.6h-29.184v54.182h-48.23v-54.182h-29.453v129.523h29.453v-49.766h48.269v49.766h29.184l-0.038-129.523zM493.991 322.509h-35.366v-104.909h-29.414v104.909h-34.752v24.614h99.533v-24.614zM620.212 217.6l-1.92 49.574c-0.653 15.552-1.152 34.406-1.152 53.261h-0.614c-3.994-16.55-9.408-34.982-14.4-50.189l-15.744-50.534h-22.925l-13.786 50.189c-4.666 16.662-8.587 33.523-11.75 50.534h-0.422c-0.806-17.51-1.306-37.478-2.266-53.606l-2.304-49.229h-27.072l8.294 129.523h38.976l12.71-43.238c3.994-15.014 8.064-31.142 10.906-46.31h0.653c3.648 15.014 8.026 32.102 12.288 46.502l13.786 43.046h38.246l7.104-129.523h-28.608zM752.078 217.6h-80.947v129.523h29.453v-104.909h51.533v-24.614h-0.038z" />
<glyph unicode="&#xe92f;" glyph-name="netdisk_icon_image" d="M281.601 64h460.8c20.367 0 39.901 8.090 54.305 22.496 14.404 14.4 22.495 33.939 22.495 54.304v460.8l-230.4 230.4h-307.2c-20.369 0-39.903-8.091-54.306-22.494s-22.494-33.937-22.494-54.306v-614.4c0-20.365 8.091-39.904 22.494-54.304 14.403-14.406 33.937-22.496 54.306-22.496zM583.177 722.424l126.447-126.447c12.095-12.095 3.529-32.776-13.576-32.776h-126.447c-10.604 0-19.2 8.596-19.2 19.2v126.447c0 17.105 20.681 25.672 32.776 13.576zM377.601 486.4c7.567-0.003 15.059-1.495 22.049-4.394s13.34-7.144 18.689-12.496c5.349-5.352 9.591-11.706 12.484-18.698s4.381-14.486 4.379-22.051-1.495-15.060-4.394-22.049c-2.898-6.989-7.144-13.34-12.496-18.689s-11.706-9.588-18.698-12.484c-6.991-2.892-14.484-4.381-22.051-4.378-15.282 0.004-29.935 6.079-40.737 16.888s-16.868 25.467-16.863 40.75c0.005 15.283 6.081 29.935 16.89 40.737s25.467 16.868 40.749 16.863zM396.801 294.4l61.325-52.339 92.275 167.539 153.6-230.4h-384l76.8 115.2z" />
<glyph unicode="&#xe930;" glyph-name="netdisk_icon_jpg" d="M281.601 832h307.2l230.4-230.4v-460.8c0-20.365-8.091-39.904-22.495-54.304-14.404-14.406-33.938-22.496-54.305-22.496h-460.8c-20.369 0-39.903 8.090-54.306 22.496-14.403 14.4-22.494 33.939-22.494 54.304v614.4c0 20.369 8.091 39.903 22.494 54.306s33.937 22.494 54.306 22.494zM569.601 563.2h126.447c17.105 0 25.672 20.681 13.576 32.776l-126.447 126.447c-12.095 12.095-32.776 3.529-32.776-13.576v-126.447c0-10.604 8.596-19.2 19.2-19.2zM646.977 218.522c20.506 0 41.050 5.069 51.802 8.755v81.792h-57.754v-27.379h23.962v-32.486c-2.803-1.421-9.216-2.342-17.318-2.342-28.723 0-48.806 18.893-48.806 50.88 0 33.638 22.157 50.227 51.379 50.227 17.050 0 27.61-2.995 36.134-6.682l7.334 28.070c-7.565 3.648-23.040 7.603-43.046 7.603-50.918 0-88.397-29.453-88.666-81.062-0.192-22.81 7.642-43.046 21.888-56.41 14.285-13.824 34.79-20.966 63.091-20.966zM482.049 274.931c20.736 0 38.4 5.107 50.419 16.358 9.178 8.755 14.285 21.658 14.285 36.864s-6.682 28.109-16.627 35.942c-10.33 8.294-25.766 12.403-47.386 12.403-15.882 0.242-31.756-0.822-47.462-3.187v-153.139h34.79v55.488c3.226-0.461 7.373-0.73 11.981-0.73zM350.759 217.6c34.061 0 55.219 15.437 55.219 59.674l0.038 98.112h-34.982v-97.651c0-24.192-9.178-30.874-23.923-30.874-6.912 0-13.133 1.152-18.010 2.765l-3.878-28.301c6.874-2.342 17.472-3.725 25.536-3.725zM470.067 348.63c2.496 0.692 7.334 1.383 14.477 1.383 17.549 0 27.418-8.486 27.418-22.772 0-15.859-11.52-25.306-30.106-25.306-5.107 0-8.832 0.193-11.789 0.884v45.811z" />
<glyph unicode="&#xe931;" glyph-name="netdisk_icon_js" d="M588.801 832h-307.2c-20.369 0-39.903-8.091-54.306-22.494s-22.494-33.937-22.494-54.306v-614.4c0-20.365 8.091-39.904 22.494-54.304 14.403-14.406 33.937-22.496 54.306-22.496h460.8c20.367 0 39.901 8.090 54.305 22.496 14.404 14.4 22.495 33.939 22.495 54.304v460.8l-230.4 230.4zM483.393 287.258c0-51.648-24.73-69.658-64.55-69.658-9.408 0-21.773 1.613-29.837 4.301l4.57 33.062c5.645-1.882 12.902-3.226 20.966-3.226 17.203 0 27.994 7.795 27.994 36.019v114.048h40.858v-114.547zM561.844 217.869c-20.698 0-41.126 5.414-51.341 11.021l8.333 33.907c11.021-5.645 27.994-11.29 45.466-11.29 18.854 0 28.762 7.795 28.762 19.622 0 11.328-8.602 17.779-30.374 25.574-30.106 10.445-49.728 27.149-49.728 53.53 0 30.95 25.805 54.605 68.582 54.605 20.467 0 35.52-4.301 46.272-9.139l-9.139-33.062c-7.258 3.494-20.16 8.602-37.901 8.602s-26.381-8.064-26.381-17.472c0-11.558 10.253-16.704 33.6-25.536 32.026-11.866 47.078-28.493 47.078-54.067-0.077-30.451-23.424-56.294-73.229-56.294zM588.801 563.2q-11.040 0-19.033 0c-10.604 0-19.367 8.596-19.367 19.2v126.447c0 17.105 20.681 25.672 32.776 13.576l126.447-126.447c12.095-12.095 3.201-32.776-13.905-32.776q-70.259 0-106.919 0z" />
<glyph unicode="&#xe932;" glyph-name="netdisk_icon_json" d="M281.601 832h307.2l230.4-230.4v-460.8c0-20.365-8.091-39.904-22.495-54.304-14.404-14.406-33.938-22.496-54.305-22.496h-460.8c-20.369 0-39.903 8.090-54.306 22.496-14.403 14.4-22.494 33.939-22.494 54.304v614.4c0 20.369 8.091 39.903 22.494 54.306s33.937 22.494 54.306 22.494zM569.601 563.2h126.447c17.105 0 25.672 20.681 13.576 32.776l-126.447 126.447c-12.095 12.095-32.776 3.529-32.776-13.576v-126.447c0-10.604 8.596-19.2 19.2-19.2zM378.599 225.664c7.258-4.032 21.888-7.872 36.672-7.872 35.558 0 52.339 18.432 52.301 40.166 0 18.278-10.752 30.182-33.638 38.63-16.781 6.336-24.077 10.022-24.077 18.278 0 6.72 6.182 12.48 18.854 12.48s21.888-3.648 27.072-6.144l6.605 23.616c-7.757 3.494-18.47 6.566-33.062 6.566-30.566 0-49.037-16.934-49.037-39.053 0-18.816 14.016-30.758 35.597-38.246 15.552-5.568 21.658-10.176 21.658-18.278 0-8.41-7.066-14.016-20.506-14.016-12.48 0-24.653 4.070-32.486 8.102l-5.952-24.23zM481.319 283.494c0-36.902 22.464-65.894 60.902-65.894 37.862 0 63.59 25.728 63.629 68.237 0 35.75-21.734 65.549-61.478 65.549-38.246 0-63.053-29.030-63.053-67.891zM313.166 217.6c28.378 0 46.080 12.864 46.080 49.766l0.038 81.83h-29.222v-81.485c0-20.16-7.718-25.728-19.968-25.728-5.837 0-11.021 0.96-15.014 2.304l-3.302-23.616c5.798-1.958 14.63-3.072 21.389-3.072zM701.39 219.712h30.835v129.485h-26.957v-37.824c0-19.43 0.576-36.902 2.496-53.99h-0.538c-5.837 14.592-13.517 30.758-21.197 44.352l-26.918 47.462h-34.214v-129.523h26.918v39.014c0 21.158-0.384 39.437-1.19 56.525l0.614 0.192c6.682-15.613 14.181-30.866 22.464-45.696l27.686-49.997zM512.27 284.106c0 25.152 11.482 44.006 31.334 44.006 20.16 0 31.334-20.045 31.334-43.238 0-25.19-11.328-44.006-31.181-44.006-19.546 0-31.488 17.856-31.488 43.238z" />
<glyph unicode="&#xe933;" glyph-name="netdisk_icon_md" d="M281.601 832h307.2l230.4-230.4v-460.8c0-20.365-8.091-39.904-22.495-54.304-14.404-14.406-33.938-22.496-54.305-22.496h-460.8c-20.369 0-39.903 8.090-54.306 22.496-14.403 14.4-22.494 33.939-22.494 54.304v614.4c0 20.369 8.091 39.903 22.494 54.306s33.937 22.494 54.306 22.494zM569.601 563.2h126.447c17.105 0 25.672 20.681 13.576 32.776l-126.447 126.447c-12.095 12.095-32.776 3.529-32.776-13.576v-126.447c0-10.604 8.596-19.2 19.2-19.2zM594.1 217.6c35.52 0 64.512 7.526 83.635 23.386 17.472 14.784 30.144 38.746 30.144 73.459 0 31.987-11.866 54.298-30.682 68.275-17.472 13.21-39.821 19.392-74.227 19.392-18.54 0.138-37.064-1.133-55.411-3.802v-178.022c15.438-1.912 30.985-2.811 46.541-2.688zM473.447 288.87l2.688-69.389 40.090-0.038-9.984 181.286h-53.53l-19.354-60.25c-6.211-21.554-11.946-43.242-17.203-65.050h-0.806c-3.994 21.235-9.677 43.853-15.322 64.819l-17.741 60.518h-54.605l-11.558-181.286h37.939l3.226 68.851c1.344 22.579 2.15 50.534 3.226 75.034h0.499c4.461-23.804 9.945-47.401 16.435-70.733l19.354-70.195h32.026l22.042 70.733c7.571 23.148 14.295 46.56 20.16 70.195h0.806c0.084-24.841 0.621-49.674 1.613-74.496zM588.726 369.006c3.456 0.806 9.408 1.613 18.547 1.613 35.213 0 57.293-19.891 57.024-57.562 0-43.315-24.23-63.744-61.325-63.475-5.146 0-10.752 0-14.246 0.806v118.618z" />
<glyph unicode="&#xe934;" glyph-name="netdisk_icon_more" d="M128 448.001c0 47.128 38.205 85.333 85.333 85.333s85.334-38.205 85.334-85.333c0-47.128-38.205-85.334-85.334-85.334s-85.333 38.205-85.333 85.334zM426.667 448.001c0 47.128 38.205 85.333 85.333 85.333 47.13 0 85.333-38.205 85.333-85.333s-38.204-85.334-85.333-85.334c-47.128 0-85.333 38.205-85.333 85.334zM725.333 448.001c0 47.128 38.204 85.333 85.336 85.333 47.13 0 85.331-38.205 85.331-85.333s-38.202-85.334-85.331-85.334c-47.132 0-85.336 38.205-85.336 85.334z" />
<glyph unicode="&#xe935;" glyph-name="netdisk_icon_moveto" d="M481.831 904.835c16.662 16.662 43.678 16.662 60.339 0l128-128c16.664-16.662 16.664-43.677 0-60.34-16.661-16.662-43.677-16.662-60.339 0l-55.164 55.164v-280.994h280.992l-55.162 55.164c-16.659 16.662-16.659 43.677 0 60.34s43.68 16.662 60.339 0l128-128c16.659-16.662 16.659-43.678 0-60.339l-128-128c-16.659-16.664-43.68-16.664-60.339 0-16.659 16.661-16.659 43.677 0 60.339l55.162 55.164h-280.992v-280.992l55.164 55.162c16.662 16.659 43.678 16.659 60.339 0 16.664-16.659 16.664-43.68 0-60.339l-128-128c-16.661-16.659-43.677-16.659-60.339 0l-128 128c-16.662 16.659-16.662 43.68 0 60.339s43.677 16.659 60.34 0l55.164-55.162v280.992h-280.994l55.164-55.164c16.662-16.662 16.662-43.678 0-60.339-16.662-16.664-43.677-16.664-60.34 0l-128 128c-16.662 16.661-16.662 43.677 0 60.339l128 128c16.662 16.662 43.677 16.662 60.34 0s16.662-43.677 0-60.34l-55.164-55.164h280.994v280.994l-55.164-55.164c-16.662-16.662-43.677-16.662-60.34 0s-16.662 43.677 0 60.34l128 128z" />
<glyph unicode="&#xe936;" glyph-name="netdisk_icon_newfolder_filled" d="M128.001 853.334c-47.128 0-85.333-38.205-85.333-85.333v-639.998c0-47.13 38.205-85.338 85.333-85.338h767.998c47.13 0 85.338 38.208 85.338 85.338v511.998c0 47.128-38.208 85.333-85.338 85.333h-364.013l-93.875 112.648c-8.106 9.728-20.115 15.352-32.777 15.352h-277.334zM510.93 544.001c23.56 0 42.667-19.103 42.667-42.667v-85.333h85.333c23.56 0 42.667-19.102 42.667-42.667s-19.107-42.667-42.667-42.667h-85.333v-85.333c0-23.565-19.107-42.669-42.667-42.669-23.565 0-42.669 19.104-42.669 42.669v85.333h-85.333c-23.564 0-42.667 19.102-42.667 42.667s19.103 42.667 42.667 42.667h85.333v85.333c0 23.564 19.104 42.667 42.669 42.667z" />
<glyph unicode="&#xe937;" glyph-name="netdisk_icon_pdf" d="M281.601 832h307.2l230.4-230.4v-460.8c0-20.365-8.091-39.904-22.495-54.304-14.404-14.406-33.938-22.496-54.305-22.496h-460.8c-20.369 0-39.903 8.090-54.306 22.496-14.403 14.4-22.494 33.939-22.494 54.304v614.4c0 20.369 8.091 39.903 22.494 54.306s33.937 22.494 54.306 22.494zM569.601 563.2h126.447c17.105 0 25.672 20.681 13.576 32.776l-126.447 126.447c-12.095 12.095-32.776 3.529-32.776-13.576v-126.447c0-10.604 8.596-19.2 19.2-19.2zM366.158 270.976c20.39 0 37.901 4.992 49.766 16.128 9.062 8.64 14.054 21.35 14.093 36.403 0 14.976-6.605 27.686-16.358 35.443-10.253 8.179-25.459 12.25-46.848 12.25-15.663 0.215-31.317-0.837-46.81-3.149v-151.142h34.33v54.758c3.922-0.503 7.873-0.733 11.827-0.691zM491.457 215.296c29.99 0 54.528 6.374 70.656 19.776 14.746 12.48 25.459 32.717 25.459 62.016 0 27.072-9.984 45.926-25.92 57.754-14.746 11.136-33.638 16.358-62.707 16.358-15.662 0.142-31.311-0.925-46.81-3.187v-150.413c8.64-1.152 21.35-2.304 39.322-2.304zM645.172 341.632h58.829v28.416h-93.619v-153.178h34.79v61.594h54.989v28.186h-54.989v34.982zM354.369 343.699c2.458 0.691 7.219 1.382 14.285 1.382 17.28 0 27.034-8.447 27.034-22.502 0-15.706-11.328-24.999-29.722-24.999-5.030 0-8.678 0.192-11.597 0.883v45.236zM486.926 343.238c2.957 0.691 7.949 1.382 15.629 1.382 29.798 0 48.422-16.819 48.192-48.691 0-36.557-20.429-53.837-51.802-53.606-4.301 0-9.062 0-12.019 0.691v100.224z" />
<glyph unicode="&#xe938;" glyph-name="netdisk_icon_rename" d="M768.001 794.515c-12.691 0-24.858-5.041-33.83-14.013l-524.977-524.978-22.554-90.216 90.213 22.554 524.979 524.981c4.442 4.442 7.962 9.716 10.368 15.521s3.642 12.026 3.642 18.308c0 6.283-1.235 12.504-3.642 18.308s-5.926 11.079-10.368 15.521c-4.442 4.443-9.715 7.967-15.526 10.371-5.798 2.404-12.019 3.642-18.304 3.642zM673.829 840.841c24.977 24.975 58.85 39.006 94.172 39.006 17.485 0 34.803-3.445 50.963-10.137s30.842-16.502 43.206-28.869c12.365-12.366 22.176-27.048 28.864-43.205 6.694-16.158 10.138-33.475 10.138-50.964s-3.443-34.806-10.138-50.964c-6.688-16.157-16.499-30.839-28.864-43.206l-533.334-533.332c-5.468-5.472-12.319-9.35-19.821-11.226l-170.667-42.669c-14.54-3.635-29.921 0.627-40.518 11.226s-14.858 25.978-11.223 40.518l42.667 170.667c1.876 7.501 5.755 14.353 11.223 19.823l533.333 533.333zM469.333 106.67c0 23.565 19.103 42.669 42.666 42.669h384.002c23.565 0 42.662-19.104 42.662-42.669s-19.098-42.662-42.662-42.662h-384.002c-23.564 0-42.666 19.098-42.666 42.662z" />
<glyph unicode="&#xe939;" glyph-name="netdisk_icon_txt" d="M588.801 832h-307.2c-20.369 0-39.903-8.091-54.306-22.494s-22.494-33.937-22.494-54.306v-614.4c0-20.365 8.091-39.904 22.494-54.304 14.403-14.406 33.937-22.496 54.306-22.496h460.8c20.367 0 39.901 8.090 54.305 22.496 14.404 14.4 22.495 33.939 22.495 54.304v460.8l-230.4 230.4zM435.124 341.709h-42.355v-125.722h-35.213v125.722h-41.664v29.491h119.232v-29.491zM539.764 215.987l-14.016 28.070c-5.76 10.829-9.446 18.893-13.786 27.878h-0.499c-3.187-8.947-7.104-17.011-11.981-27.878l-12.864-28.070h-40.128l44.966 78.528-43.354 76.685h40.32l13.594-28.339c4.646-9.408 8.064-17.011 11.75-25.766h0.499c3.686 9.907 6.682 16.819 10.598 25.766l13.094 28.339h40.051l-43.738-75.763 46.003-79.45h-40.512zM708.11 341.709h-42.394v-125.722h-35.213v125.722h-41.664v29.491h119.232v-29.491h0.038zM588.801 563.2h-19.2c-10.604 0-19.2 8.596-19.2 19.2v126.447c0 17.105 20.681 25.672 32.776 13.576l126.447-126.447c12.095-12.095 3.529-32.776-13.576-32.776h-107.247z" />
<glyph unicode="&#xe93a;" glyph-name="netdisk_icon_uploadfiles_filled" d="M896 106.665v469.336h-256c-70.692 0-128 57.308-128 128v213.333h-256c-70.692 0-128-57.308-128-128v-682.669c0-70.688 57.308-128 128-128h512c70.694 0 128 57.312 128 128zM851.302 676.604c5.478-4.696 10.509-9.808 15.053-15.27h-226.355c-23.564 0-42.667 19.103-42.667 42.667v189.609c3.117-2.219 6.143-4.584 9.068-7.091l244.901-209.914zM542.17 563.504l128.001-128-60.34-60.34-55.164 55.164v-152.993h-85.334v152.993l-55.164-55.164-60.339 60.34 128 128c16.662 16.662 43.677 16.662 60.339 0zM682.667 234.665v-85.331h-341.334v85.331h341.334z" />
<glyph unicode="&#xe93b;" glyph-name="netdisk_icon_uploadfolder_filled" d="M405.335 853.334h-277.334c-47.128 0-85.333-38.205-85.333-85.333v-639.998c0-47.13 38.205-85.338 85.333-85.338h767.998c47.13 0 85.338 38.208 85.338 85.338v511.998l-0.237 6.368c-3.258 44.155-40.109 78.965-85.101 78.965h-363.987l-93.9 112.648c-8.106 9.728-20.115 15.352-32.777 15.352zM489.127 569.358l0.491 0.312c0.657 0.404 1.318 0.788 1.988 1.155 0.81 0.439 1.655 0.863 2.509 1.258 0.589 0.272 1.169 0.525 1.754 0.763 0.9 0.367 1.818 0.706 2.748 1.013 0.742 0.243 1.498 0.469 2.261 0.674 0.785 0.215 1.583 0.405 2.39 0.573 0.832 0.17 1.66 0.316 2.487 0.438 0.764 0.115 1.562 0.21 2.364 0.282 1.041 0.093 2.065 0.148 3.089 0.167l0.794 0.008 3.776-0.166c-0.981 0.086-1.962 0.14-2.944 0.158l-0.832 0.008c2.159 0 4.284-0.161 6.358-0.47 0.712-0.109 1.45-0.24 2.189-0.39 0.956-0.191 1.882-0.413 2.794-0.664 0.653-0.182 1.31-0.38 1.963-0.593 0.853-0.277 1.698-0.584 2.53-0.916 0.742-0.298 1.485-0.618 2.214-0.959 0.892-0.419 1.763-0.863 2.616-1.336 0.508-0.278 1.032-0.581 1.549-0.897 1.096-0.675 2.155-1.391 3.183-2.151 0.252-0.185 0.504-0.375 0.751-0.569l0.538-0.428 3.485-3.123 149.336-149.334c16.659-16.662 16.659-43.678 0-60.339-15.384-15.382-39.584-16.563-56.322-3.55l-4.019 3.55-76.497 76.463v-195.627c0-23.567-19.102-42.664-42.667-42.664-21.879 0-39.914 16.467-42.381 37.69l-0.285 4.975v195.584l-76.463-76.719c-15.364-15.398-39.564-16.61-56.316-3.614l-4.024 3.546c-15.398 15.364-16.607 39.565-3.612 56.316l3.545 4.023 149.005 149.335c1.331 1.364 2.756 2.639 4.258 3.816l0.090 0.072 3.311 2.331z" />
<glyph unicode="&#xe93c;" glyph-name="netdisk_icon_zip" d="M227.296 809.506c14.403 14.403 33.937 22.494 54.306 22.494h115.2v-76.8h-76.8v-76.8h76.8v-76.8h-76.8v-76.8h76.8v-76.8h-76.8v-230.4h153.6v307.2h-76.8v76.8h76.8v76.8h-76.8v76.8h76.8v76.8h98.003c11.316 0 21.898-4.701 29.899-12.702l204.996-204.996c8.001-8.001 12.702-19.156 12.702-30.472v-443.030c0-20.365-8.091-39.904-22.495-54.304-14.404-14.406-33.938-22.496-54.305-22.496h-460.8c-20.369 0-39.903 8.090-54.306 22.496-14.403 14.4-22.494 33.939-22.494 54.304v614.4c0 20.369 8.091 39.903 22.494 54.306zM721.268 584.333l-149.733 149.733c-8.063 8.063-21.133 1.45-21.133-9.954v-148.125c0-7.069 5.719-12.788 12.788-12.788h148.125c11.404 0 18.017 13.070 9.954 21.133zM435.2 332.802h-76.8v-76.8h76.8v76.8z" />
<glyph unicode="&#xe93d;" glyph-name="recharge_icon_check_circle_filled" d="M512 0c-247.423 0-448 200.576-448 448s200.577 448 448 448c247.424 0 448-200.577 448-448s-200.576-448-448-448zM494.9 302.3l210.597 292c3.802 5.3 0 12.7-6.497 12.7h-46.9c-10.3 0-19.9-5-25.9-13.3l-157.2-218-71.2 98.8c-6 8.4-15.7 13.3-25.9 13.3h-46.9c-6.5 0-10.3-7.4-6.5-12.7l124.7-172.8c12.7-17.7 39-17.7 51.7 0z" />
<glyph unicode="&#xe93e;" glyph-name="recharge_icon_money_filled" d="M564.511 709.391h-414.75c-30.825 0-55.862 24.822-55.862 55.807v42.969c0 30.838 25.064 55.833 55.862 55.833h414.75c30.861 0 55.846-24.848 55.846-55.833v-42.943c0-30.838-25.027-55.833-55.846-55.833zM558.458 565.702c-24.287-16.013-46.183-35.303-65.050-57.309l-405.589-0.031c-30.814 0-55.82 24.838-55.82 55.823v42.969c0 30.838 25.059 55.833 55.82 55.833h414.814c30.813 0 55.825-24.833 55.825-55.833v-41.451zM992.026 307.345c0-145.169-117.862-262.858-263.245-262.858s-263.242 117.69-263.242 262.858c0 145.172 117.857 262.856 263.242 262.856 145.382 0 263.245-117.684 263.245-262.856zM854.458 244.773c0 10.775-9.248 19.476-20.698 19.476h-74.272v28.137h74.323c11.45 0 20.698 8.701 20.698 19.455 0 10.76-9.248 19.461-20.698 19.461h-74.323v21.853l74.778 71.582c9.325 8.9 9.171 23.283-0.307 32.063-9.523 8.749-24.723 8.65-34.074-0.304l-68.064-65.121-68.083 65.121c-9.325 8.959-24.555 9.053-34.055 0.304-9.527-8.78-9.66-23.11-0.302-32.063l74.748-71.582v-21.853h-74.297c-11.452 0-20.698-8.701-20.698-19.461 0-10.754 9.246-19.455 20.698-19.455h74.297v-28.137h-74.297c-11.452 0-20.698-8.701-20.698-19.476 0-10.759 9.246-19.466 20.698-19.466h74.297v-42.241c0-14.374 12.416-26.035 27.667-26.035s27.642 11.661 27.642 26.035v42.241h74.323c11.45 0 20.698 8.707 20.698 19.466zM93.898 406.152v-42.97c0-30.984 25.011-55.838 55.83-55.838h269.311c0 56.341 15.075 109.142 41.428 154.598h-310.707c-30.798 0.058-55.862-24.953-55.862-55.791zM62.951 205.158c0 30.809 25.032 55.814 55.83 55.814h303.737c8.585-57.050 33.138-110.605 70.895-154.624h-374.632c-30.825 0-55.83 24.826-55.83 55.84v42.97z" />
<glyph unicode="&#xe93f;" glyph-name="sidebar_icon_bill" d="M288.492 857.6c-41.131 0-74.472-33.343-74.472-74.472v-707.492c0-13.946 7.795-26.726 20.198-33.107s27.332-5.299 38.682 2.81l108.684 77.632 108.684-77.632c12.947-9.248 30.34-9.248 43.286 0l108.684 77.632 108.685-77.632c11.35-8.109 26.278-9.19 38.681-2.81s20.197 19.162 20.197 33.107v707.492c0 41.129-33.341 74.472-74.473 74.472h-446.836zM400.199 596.946c-20.564 0-37.236 16.671-37.236 37.236s16.671 37.236 37.236 37.236h223.418c20.566 0 37.236-16.671 37.236-37.236s-16.671-37.236-37.236-37.236h-223.418zM400.199 448c-20.564 0-37.236 16.671-37.236 37.236s16.671 37.236 37.236 37.236h223.418c20.566 0 37.236-16.671 37.236-37.236s-16.671-37.236-37.236-37.236h-223.418zM400.199 299.055c-20.564 0-37.236 16.671-37.236 37.236s16.671 37.236 37.236 37.236h223.418c20.566 0 37.236-16.671 37.236-37.236s-16.671-37.236-37.236-37.236h-223.418z" />
<glyph unicode="&#xe940;" glyph-name="sidebar_icon_desktop" d="M409.595 256c0-34.15-4.25-59.75-12.8-76.8h-38.4c-6.79 0-13.301-2.696-18.102-7.499-4.801-4.799-7.498-11.312-7.498-18.101s2.697-13.302 7.498-18.101c4.801-4.803 11.312-7.499 18.102-7.499h307.2c6.789 0 13.302 2.696 18.101 7.499 4.803 4.799 7.499 11.312 7.499 18.101s-2.696 13.302-7.499 18.101c-4.799 4.803-11.312 7.499-18.101 7.499h-38.4c-8.55 17.050-12.8 42.65-12.8 76.8h204.8q102.4 0 102.4 102.4v307.2q0 102.4-102.4 102.4h-614.4q-102.4 0-102.4-102.4v-307.2q0-102.4 102.4-102.4h204.8zM337.584 390.872l-81.583 236.325h55.504l57.119-179.552h2.193l57.235 179.552h55.389l-81.468-236.325h-64.39zM511.827 390.872v236.325h61.62l65.082-158.781h2.769l65.082 158.781h61.62v-236.325h-48.465v153.819h-1.962l-61.158-152.665h-33.003l-61.158 153.242h-1.962v-154.396h-48.465z" />
<glyph unicode="&#xe941;" glyph-name="sidebar_icon_gpu" d="M109.893 798.902c-4.801-4.801-7.498-11.312-7.498-18.102s2.697-13.301 7.498-18.102c4.801-4.801 11.312-7.498 18.102-7.498h25.6v-640c0-6.79 2.697-13.299 7.498-18.099 4.801-4.806 11.312-7.501 18.102-7.501s13.301 2.694 18.102 7.501c4.801 4.8 7.498 11.309 7.498 18.099v128h691.2c6.79 0 13.299 2.696 18.099 7.499 4.806 4.799 7.501 11.312 7.501 18.101v358.4c0 6.79-2.694 13.301-7.501 18.102-4.8 4.801-11.309 7.498-18.099 7.498h-691.2v128c0 6.79-2.697 13.301-7.498 18.102s-11.312 7.498-18.102 7.498h-51.2c-6.79 0-13.301-2.697-18.102-7.498zM293.485 357.489c-24.005 24.006-37.491 56.563-37.491 90.511s13.485 66.505 37.491 90.509 56.562 37.491 90.509 37.491c33.948 0 66.506-13.485 90.511-37.491 24.003-24.004 37.489-56.562 37.489-90.509 0-33.949-13.486-66.506-37.489-90.511-24.006-24.003-56.564-37.489-90.511-37.489s-66.505 13.486-90.509 37.489zM600.683 357.489c-24.003 24.006-37.489 56.563-37.489 90.511s13.486 66.505 37.489 90.509c24.006 24.005 56.563 37.491 90.511 37.491s66.502-13.485 90.509-37.491c24.006-24.004 37.491-56.562 37.491-90.509 0-33.949-13.485-66.506-37.491-90.511-24.006-24.003-56.56-37.489-90.509-37.489s-66.506 13.486-90.511 37.489zM520.519 217.598h-179.187v-51.198c0-6.79 2.699-13.299 7.5-18.099s11.315-7.501 18.104-7.501h128c6.79 0 13.283 2.701 18.084 7.501s7.5 11.309 7.5 18.099v51.198zM546.124 217.598v-51.198c0-6.79 2.698-13.299 7.5-18.099 4.799-4.8 11.315-7.501 18.104-7.501h153.604c6.789 0 13.305 2.701 18.106 7.501s7.501 11.309 7.501 18.099v51.198h-204.815z" />
<glyph unicode="&#xe942;" glyph-name="sidebar_icon_gui" d="M405.677 221.114h-209.939c-61.33 0-93.343 31.003-93.343 93.68v388.538c0 62.678 32.013 93.681 93.343 93.681h632.513c61.331 0 93.344-31.002 93.344-93.681v-388.538c0-62.677-32.013-93.68-93.344-93.68h-209.937l9.098-60.995h35.718c16.85 0 30.668-13.82 30.668-31.004 0-16.512-13.818-30.662-30.668-30.662h-302.271c-16.849 0-30.666 14.15-30.666 30.662 0 17.184 13.817 31.004 30.666 31.004h35.72l9.098 60.995zM168.106 391.962c0-10.446 4.38-14.153 14.153-14.153h659.47c9.773 0 14.157 3.707 14.157 14.153v307.327c0 22.915-9.773 32.013-32.013 32.013h-623.754c-22.241 0-32.013-9.098-32.013-32.013v-307.327zM640 669.367c0 3.821-1.644 7.457-4.511 9.981-2.868 2.525-6.684 3.694-10.474 3.21l-108.966-13.928c-6.639-0.849-11.613-6.499-11.613-13.192v-83.568c0-7.345 5.954-13.299 13.298-13.299h108.967c7.345 0 13.299 5.954 13.299 13.299v97.496zM496.624 652.162c0 3.834-1.654 7.48-4.538 10.006s-6.718 3.683-10.518 3.176l-86.026-11.471c-6.607-0.881-11.541-6.516-11.541-13.182v-68.82c0-7.345 5.954-13.299 13.299-13.299h86.026c7.345 0 13.299 5.954 13.299 13.299v80.291zM397.619 550.755c-3.581 0.086-7.046-1.276-9.61-3.779s-4.009-5.934-4.009-9.517v-60.058c0-6.492 4.687-12.035 11.089-13.114l86.026-14.497c3.859-0.65 7.809 0.432 10.797 2.959s4.712 6.241 4.712 10.155v72.484c0 7.22-5.761 13.121-12.979 13.295l-86.026 2.071zM518.046 545.020c-3.58 0.084-7.042-1.279-9.604-3.782s-4.006-5.932-4.006-9.513v-73.919c0-6.515 4.72-12.070 11.15-13.123l108.966-17.843c3.851-0.63 7.785 0.463 10.76 2.989s4.688 6.232 4.688 10.135v89.212c0 7.224-5.766 13.127-12.988 13.296l-108.966 2.548zM478.802 288.17c0-18.196 15.165-33.020 33.361-33.020 17.86 0 33.025 14.824 33.025 33.020s-15.165 33.365-33.025 33.365c-18.196 0-33.361-15.168-33.361-33.365z" />
<glyph unicode="&#xe943;" glyph-name="sidebar_Icon_home" d="M590.025 827.796c-45.089 39.738-110.964 39.738-156.054 0l-331.573-292.226 52.018-64.648 34.554 30.454v-336.198c0-70.016 54.234-126.778 121.134-126.778h403.78c66.901 0 121.135 56.762 121.135 126.778v336.205l34.56-30.461 52.019 64.648-331.573 292.226zM612.94 122.918h-201.89c-22.3 0-40.378 18.918-40.378 42.259v169.034c0 70.017 54.234 126.777 121.134 126.777h40.378c66.901 0 121.134-56.76 121.134-126.777v-169.034c0-23.341-18.077-42.259-40.378-42.259z" />
<glyph unicode="&#xe944;" glyph-name="sidebar_icon_mirror" d="M801.627 158.368c-76.815-76.813-181-119.968-289.632-119.968s-212.816 43.155-289.631 119.968c-76.815 76.815-119.969 181-119.969 289.632s43.154 212.816 119.969 289.631c76.815 76.815 180.998 119.969 289.631 119.969s212.817-43.154 289.632-119.969c76.813-76.815 119.968-180.998 119.968-289.631s-43.155-212.817-119.968-289.632zM280.29 216.294c61.452-61.453 144.799-95.974 231.705-95.974s170.252 34.522 231.706 95.974c61.453 61.454 95.974 144.799 95.974 231.706s-34.522 170.253-95.974 231.705c-61.454 61.452-144.799 95.975-231.706 95.975s-170.253-34.524-231.705-95.975c-61.452-61.452-95.975-144.799-95.975-231.705s34.524-170.252 95.975-231.706zM627.847 332.148c30.726 30.726 47.988 72.399 47.988 115.852s-17.261 85.126-47.988 115.852c-30.726 30.726-72.399 47.988-115.852 47.988s-85.126-17.261-115.852-47.988c-30.726-30.726-47.988-72.399-47.988-115.852s17.261-85.126 47.988-115.852c30.726-30.726 72.399-47.988 115.852-47.988s85.126 17.261 115.852 47.988z" />
<glyph unicode="&#xe945;" glyph-name="sidebar_icon_netdisk" d="M204.795 755.197c-27.158 0-53.204-10.789-72.408-29.992s-29.992-45.249-29.992-72.408v-51.2c0-27.158 10.789-53.204 29.992-72.408s45.249-29.992 72.408-29.992h281.6v-153.6c-20.367 0-39.902-8.093-54.306-22.494-14.403-14.404-22.494-33.939-22.494-54.306h-281.6c-6.79 0-13.301-2.696-18.102-7.499-4.801-4.799-7.498-11.312-7.498-18.101s2.697-13.302 7.498-18.101c4.801-4.803 11.312-7.499 18.102-7.499h281.6c0-20.367 8.092-39.902 22.494-54.306 14.404-14.401 33.939-22.494 54.306-22.494h51.2c20.367 0 39.902 8.093 54.306 22.494 14.401 14.404 22.494 33.939 22.494 54.306h281.6c6.79 0 13.299 2.696 18.099 7.499 4.806 4.799 7.501 11.312 7.501 18.101s-2.694 13.302-7.501 18.101c-4.8 4.803-11.309 7.499-18.099 7.499h-281.6c0 20.367-8.093 39.902-22.494 54.306-14.404 14.401-33.939 22.494-54.306 22.494v153.6h281.6c27.155 0 53.203 10.788 72.41 29.992 19.2 19.204 29.99 45.249 29.99 72.408v51.2c0 27.158-10.79 53.204-29.99 72.408-19.206 19.204-45.254 29.992-72.41 29.992h-614.4zM230.395 601.597c-6.79 0-13.301 2.697-18.102 7.498s-7.498 11.312-7.498 18.102c0 6.79 2.697 13.301 7.498 18.102s11.312 7.498 18.102 7.498c6.79 0 13.301-2.697 18.102-7.498s7.498-11.312 7.498-18.102c0-6.79-2.697-13.301-7.498-18.102s-11.312-7.498-18.102-7.498zM332.795 601.597c-6.79 0-13.301 2.697-18.102 7.498s-7.498 11.312-7.498 18.102c0 6.79 2.697 13.301 7.498 18.102s11.312 7.498 18.102 7.498c6.79 0 13.301-2.697 18.102-7.498s7.498-11.312 7.498-18.102c0-6.79-2.697-13.301-7.498-18.102s-11.312-7.498-18.102-7.498z" />
<glyph unicode="&#xe946;" glyph-name="sidebar_icon_recharge" d="M102.395 448c0-226.214 183.384-409.6 409.6-409.6 226.214 0 409.6 183.386 409.6 409.6 0 226.216-183.386 409.6-409.6 409.6-226.216 0-409.6-183.384-409.6-409.6zM373.955 641.894c14.541 14.541 38.118 14.541 52.66 0l85.379-85.379 85.379 85.379c14.541 14.541 38.119 14.541 52.66 0s14.541-38.118 0-52.66l-66.761-66.76h40.431c20.566 0 37.236-16.671 37.236-37.236s-16.671-37.236-37.236-37.236h-74.316v-37.236h74.316c20.566 0 37.236-16.671 37.236-37.236s-16.671-37.236-37.236-37.236h-74.316v-74.473c0-20.566-16.675-37.236-37.236-37.236-20.566 0-37.236 16.671-37.236 37.236v74.473h-74.628c-20.565 0-37.236 16.671-37.236 37.236s16.671 37.236 37.236 37.236h74.628v37.236h-74.628c-20.565 0-37.236 16.671-37.236 37.236s16.671 37.236 37.236 37.236h40.431l-66.761 66.76c-14.542 14.542-14.542 38.118 0 52.66z" />
<glyph unicode="&#xe947;" glyph-name="sidebar_icon_secretkey" d="M511.995 38.402c-226.216 0-409.6 183.384-409.6 409.6s183.384 409.6 409.6 409.6c226.216 0 409.6-183.384 409.6-409.6s-183.384-409.6-409.6-409.6zM489.677 612.722c-43.497-43.663-50.266-110.081-20.314-160.826-0.956-1.001-1.845-2.088-2.657-3.261l-118.538-118.538c-2.47-1.468-4.533-3.532-6.002-6.002-9.703-12.697-7.236-30.863 5.502-40.513 1.3-2.3 3.202-4.201 5.501-5.501 12.974-9.976 31.585-7.51 41.513 5.501l35.012 35.012 23.007-23.007c1.469-2.47 3.532-4.533 6.002-6.002 12.873-10.181 31.676-7.689 41.477 5.537 1.93 1.766 3.613 3.785 5.002 6.002 9.976 12.975 7.51 31.585-5.501 41.514l-22.972 22.972 36.511 36.511c1.271 0.787 2.445 1.711 3.504 2.751 50.643-29.404 116.586-22.47 160.013 20.792 51.516 51.713 51.516 135.347 0 187.059-51.713 51.516-135.347 51.516-187.060 0zM536.228 472.142c23.78-27.852 65.613-31.207 93.53-7.503 27.851 23.78 31.206 65.614 7.502 93.53-2.142 3.146-4.857 5.86-8.003 8.003-27.508 23.508-70.022 20.006-93.53-7.502-20.104-25.405-19.896-61.356 0.5-86.527z" />
<glyph unicode="&#xe948;" glyph-name="sidebar_icon_security" d="M844.831 744.253l-323.25 111.758c-6.432 2.12-13.374 2.12-19.805 0l-323.251-111.758c-11.949-4.257-19.896-15.609-19.805-28.293v-344.47c9.195-202.298 328.909-325.37 342.349-331.034 6.807-2.739 14.412-2.739 21.22 0 13.439 4.954 333.858 129.446 342.351 332.448v344.47c-0.16 12.278-8.128 23.090-19.808 26.879zM372.714 277.336c-19.219 0-34.796 15.629-34.796 34.909 0 62.198 32.422 116.796 81.251 147.708-18.116 21.33-29.053 48.985-29.053 79.202 0 67.479 54.532 122.182 121.798 122.182s121.798-54.703 121.798-122.182c0-30.217-10.928-57.872-29.043-79.202 48.819-30.911 81.251-85.509 81.251-147.708 0-19.28-15.587-34.909-34.805-34.909s-34.796 15.629-34.796 34.909c0 57.841-46.739 104.728-104.406 104.728-57.657 0-104.396-46.886-104.396-104.728 0-19.28-15.587-34.909-34.805-34.909z" />
<glyph unicode="&#xe949;" glyph-name="sidebar_icon_ssh_fillde" d="M102.395 708.886v-521.309c0-41.132 33.343-74.471 74.473-74.471h670.257c41.126 0 74.47 33.34 74.47 74.471v521.309c0 41.13-33.344 74.473-74.47 74.473h-670.257c-41.13 0-74.473-33.343-74.473-74.473zM260.305 584.175c13.384 15.614 36.891 17.422 52.505 4.039l130.328-111.709c8.253-7.074 13.003-17.402 13.003-28.272s-4.749-21.197-13.003-28.271l-130.328-111.708c-15.614-13.386-39.121-11.576-52.505 4.036s-11.575 39.121 4.039 52.508l97.343 83.436-97.343 83.437c-15.614 13.384-17.423 36.891-4.039 52.505zM456.14 299.286c0 20.566 16.671 37.236 37.236 37.236h242.036c20.563 0 37.235-16.671 37.235-37.236s-16.672-37.236-37.235-37.236h-242.036c-20.565 0-37.236 16.671-37.236 37.236z" />
<glyph unicode="&#xe94a;" glyph-name="sidebar_icon_tasklist" d="M251.492 857.6c-41.106 0-74.429-33.343-74.429-74.473v-670.257c0-41.126 33.323-74.47 74.429-74.47h521.007c41.108 0 74.432 33.344 74.432 74.47v670.257c0 41.13-33.324 74.473-74.432 74.473h-521.007zM344.531 596.945c-20.554 0-37.215 16.671-37.215 37.236s16.66 37.236 37.215 37.236c20.554 0 37.215-16.671 37.215-37.236s-16.661-37.236-37.215-37.236zM456.175 596.945c-20.553 0-37.215 16.671-37.215 37.236s16.662 37.236 37.215 37.236h223.289c20.554 0 37.215-16.672 37.215-37.236s-16.661-37.236-37.215-37.236h-223.289zM344.531 410.763c-20.554 0-37.215 16.671-37.215 37.236s16.66 37.236 37.215 37.236c20.554 0 37.215-16.671 37.215-37.236s-16.661-37.236-37.215-37.236zM456.175 410.763c-20.553 0-37.215 16.671-37.215 37.236s16.662 37.236 37.215 37.236h223.289c20.554 0 37.215-16.671 37.215-37.236s-16.661-37.236-37.215-37.236h-223.289zM344.531 224.581c-20.554 0-37.215 16.671-37.215 37.236s16.66 37.236 37.215 37.236c20.554 0 37.215-16.671 37.215-37.236s-16.661-37.236-37.215-37.236zM456.175 224.581c-20.553 0-37.215 16.671-37.215 37.236s16.662 37.236 37.215 37.236h223.289c20.554 0 37.215-16.671 37.215-37.236s-16.661-37.236-37.215-37.236h-223.289z" />
<glyph unicode="&#xe94b;" glyph-name="sidebar_icon_ts" d="M102.395 769.829c0 23.279 9.247 45.603 25.708 62.064s38.785 25.708 62.064 25.708h175.543c23.278 0 45.603-9.247 62.063-25.708s25.708-38.785 25.708-62.064v-175.543c0-23.278-9.247-45.603-25.708-62.063s-38.785-25.708-62.063-25.708h-175.543c-23.279 0-45.603 9.247-62.064 25.708s-25.708 38.785-25.708 62.063v175.543zM570.509 769.829c0 23.279 9.249 45.603 25.707 62.064 16.462 16.46 38.787 25.708 62.064 25.708h175.545c23.277 0 45.6-9.247 62.061-25.708s25.709-38.785 25.709-62.064v-175.543c0-23.278-9.248-45.603-25.709-62.063s-38.784-25.708-62.061-25.708h-175.545c-23.277 0-45.602 9.247-62.064 25.708-16.458 16.46-25.707 38.785-25.707 62.063v175.543zM102.395 301.715c0 23.277 9.247 45.602 25.708 62.064 16.46 16.458 38.785 25.707 62.064 25.707h175.543c23.278 0 45.603-9.249 62.063-25.707 16.461-16.462 25.708-38.787 25.708-62.064v-175.545c0-23.277-9.247-45.6-25.708-62.061s-38.785-25.709-62.063-25.709h-175.543c-23.279 0-45.603 9.248-62.064 25.709s-25.708 38.784-25.708 62.061v175.545zM570.509 301.715c0 23.277 9.249 45.602 25.707 62.064 16.462 16.458 38.787 25.707 62.064 25.707h175.545c23.277 0 45.6-9.249 62.061-25.707 16.461-16.462 25.709-38.787 25.709-62.064v-175.545c0-23.277-9.248-45.6-25.709-62.061s-38.784-25.709-62.061-25.709h-175.545c-23.277 0-45.602 9.248-62.064 25.709-16.458 16.461-25.707 38.784-25.707 62.061v175.545z" />
<glyph unicode="&#xe94c;" glyph-name="sidebar_icon_user" d="M511.994 38.4c-226.216 0-409.6 183.384-409.6 409.6s183.384 409.6 409.6 409.6c226.216 0 409.6-183.384 409.6-409.6s-183.384-409.6-409.6-409.6zM511.994 407.040c90.486 0 163.84 73.354 163.84 163.84s-73.354 163.84-163.84 163.84c-90.486 0-163.84-73.354-163.84-163.84s73.354-163.84 163.84-163.84zM284.111 161.28h455.764c14.64 0 28.163 7.814 35.478 20.493 7.315 12.685 7.309 28.307-0.026 40.977-54.655 94.487-138.607 163.811-263.335 163.811s-208.68-69.324-263.337-163.811c-7.331-12.669-7.34-28.292-0.026-40.977 7.315-12.678 20.841-20.493 35.481-20.493z" />
<glyph unicode="&#xe94d;" glyph-name="ssh_icon_copy" d="M691.835 299.901c29.212 0 52.893 23.681 52.893 52.892v275.042c0 29.211-23.681 52.893-52.893 52.893h-275.041c-29.213 0-52.893-23.681-52.893-52.893v-31.735h-31.735c-29.212 0-52.893-23.681-52.893-52.893v-275.041c0-29.212 23.681-52.893 52.893-52.893h275.042c29.212 0 52.892 23.681 52.892 52.893v31.736h31.736zM406.217 596.101v31.736c0 5.842 4.736 10.578 10.579 10.578h275.041c5.843 0 10.579-4.736 10.579-10.578v-275.041c0-5.844-4.735-10.579-10.579-10.579h-31.736v200.991c0 29.212-23.681 52.893-52.893 52.893h-200.991zM321.587 543.207c0 5.843 4.736 10.579 10.578 10.579h275.042c5.841 0 10.579-4.736 10.579-10.579v-275.041c0-5.841-4.737-10.579-10.579-10.579h-275.042c-5.842 0-10.578 4.737-10.578 10.579v275.041z" />
<glyph unicode="&#xe94e;" glyph-name="ssh_icon_exitfullscreen" d="M297.466 746.667h429.071c46.464 0 84.131-37.667 84.131-84.131v-429.071c0-46.655-37.859-84.131-84.131-84.131h-429.071c-46.465 0-84.131 37.667-84.131 84.131v429.071c0 46.654 37.476 84.131 84.131 84.131zM263.814 242.643c0-21.033 17.209-38.242 38.241-38.242h419.128c21.033 0 38.242 17.209 38.242 38.242v411.862c0 21.032-17.209 38.241-38.242 38.241h-419.128c-21.032 0-38.241-17.209-38.241-38.241v-411.862zM558.656 471.71c-3.059 0-5.736 0.382-8.413 1.53h-0.383c-5.75 2.312-10.307 6.87-12.62 12.62v0.383c-1.093 2.666-1.614 5.532-1.53 8.413v122.756c0.45 12.659 11.048 22.574 23.709 22.18 12.136-0.269 21.91-10.044 22.18-22.18v-67.306l75.718 75.718c8.967 8.998 23.538 8.998 32.505 0 8.792-9.052 8.792-23.453 0-32.505l-75.718-75.718h67.306c12.659-0.45 22.574-11.048 22.18-23.71-0.548-12.015-10.164-21.632-22.18-22.18h-122.756zM465.346 256.792c-12.62 0-22.945 10.325-22.945 22.945v66.923l-75.718-75.718c-8.796-9.178-23.327-9.56-32.506-1.147-9.118 8.738-9.627 23.146-1.147 32.505l76.865 76.866h-67.305c-12.66 0.45-22.574 11.048-22.18 23.709 0.269 12.136 10.044 21.91 22.18 22.18h122.755c2.881 0.084 5.747-0.436 8.413-1.53h0.382c5.75-2.313 10.307-6.87 12.62-12.62v-0.382c1.093-2.666 1.614-5.533 1.53-8.413v-122.373c0-12.62-10.325-22.945-22.945-22.945z" />
<glyph unicode="&#xe94f;" glyph-name="ssh_icon_fullscreen" d="M222.026 737.866c2.855 2.87 6.15 5.039 9.67 6.506 3.54 1.479 7.436 2.295 11.513 2.295h134.39c16.495 0 29.866-13.372 29.866-29.867s-13.372-29.867-29.866-29.867h-61.778l97.723-96.74c11.723-11.605 11.818-30.515 0.214-42.237s-30.515-11.818-42.237-0.214l-98.455 97.466v-62.808c0-16.495-13.372-29.866-29.867-29.866s-29.867 13.372-29.867 29.866v134.4c0 8.127 3.246 15.495 8.512 20.88 0.061 0.062 0.122 0.124 0.183 0.185zM750.932 646.197l-98.348-98.348c-11.663-11.664-30.574-11.664-42.237 0s-11.663 30.574 0 42.237l96.846 96.847h-60.794c-16.495 0-29.867 13.372-29.867 29.867s13.372 29.867 29.867 29.867h134.4c16.495 0 29.866-13.372 29.866-29.867v-134.4c0-16.495-13.371-29.866-29.866-29.866s-29.867 13.372-29.867 29.866v63.796zM413.758 349.545c11.604-11.723 11.509-30.632-0.214-42.237l-99.238-98.241h63.293c16.495 0 29.866-13.372 29.866-29.867s-13.372-29.866-29.866-29.866h-134.4c-16.495 0-29.867 13.371-29.867 29.866v134.4c0 16.495 13.372 29.867 29.867 29.867s29.867-13.372 29.867-29.867v-61.307l98.455 97.467c11.722 11.603 30.632 11.507 42.237-0.215zM654.087 349.653c-11.663 11.663-30.575 11.663-42.237 0s-11.663-30.575 0-42.237l98.348-98.348h-63.798c-16.495 0-29.867-13.372-29.867-29.867s13.372-29.866 29.867-29.866h134.4c16.495 0 29.866 13.371 29.866 29.866v134.4c0 16.495-13.371 29.867-29.866 29.867s-29.867-13.372-29.867-29.867v-60.794l-96.845 96.846z" />
<glyph unicode="&#xe950;" glyph-name="ssh_icon_help" d="M785.493 746.667h-174.18c-40.626 0-76.779-19.63-99.514-49.819-22.735 30.19-58.888 49.819-99.514 49.819h-174.305c-27.456 0-49.819-22.363-49.819-49.819v-460.424c0-27.456 22.363-49.819 49.819-49.819h183.002c24.474-23.853 56.9-37.271 90.817-37.271s66.343 13.418 90.817 37.271h182.877c27.457 0 49.822 22.363 49.822 49.819v460.424c0 27.456-22.365 49.819-49.822 49.819zM785.493 236.424h-193.686c-7.206 0-14.163-3.107-18.884-8.697-15.53-18.139-37.892-28.575-61.124-28.575s-45.595 10.436-61.125 28.575c-4.721 5.59-11.678 8.697-18.884 8.697h-193.81v460.423h174.181c41.123 0 74.667-33.544 74.667-74.667v-211.576c0-13.79 11.181-24.847 24.847-24.847 13.79 0 24.847 11.181 24.847 24.847v211.576c0 41.123 33.544 74.667 74.667 74.667h174.305v-460.423z" />
<glyph unicode="&#xe951;" glyph-name="ssh_icon_invisible" d="M270.263 722.393l2.193-1.936 512-512c9.088-9.088 9.088-23.824 0-32.912-8.39-8.39-21.59-9.035-30.72-1.937l-2.192 1.937-103.973 103.943c-40.26-25.903-87.108-40.153-135.571-40.941-78.657 0-147.519 37.992-206.070 100.447-20.115 21.455-37.584 44.365-52.39 67.291l-5.547 8.783-6.753 11.336-3.451 6.195-2.605 4.995c-3.382 6.763-3.267 14.748 0.309 21.411 26.331 49.071 61.454 92.794 103.545 129.028l-99.495 99.513c-9.089 9.089-9.089 23.824 0 32.913 8.389 8.389 21.59 9.035 30.72 1.936zM372.037 555.032l-2.127-1.842c-32.143-27.578-59.776-60.017-81.893-96.134l-5.417-9.125 3.528-5.983 3.133-5.096 3.378-5.316c13.377-20.71 29.18-41.437 47.247-60.709 50.54-53.909 108.224-85.734 171.733-85.737 34.448 0.561 68.068 9.542 98.006 25.951l4.029 2.374-53.972 53.958c-3.689-2.311-7.542-4.366-11.534-6.144-11.42-5.090-23.75-7.827-36.25-8.045-12.497-0.221-24.913 2.078-36.508 6.76-11.589 4.683-22.119 11.651-30.959 20.49-8.839 8.839-15.807 19.37-20.49 30.962s-6.981 24.008-6.76 36.506c0.22 12.5 2.956 24.828 8.045 36.25 1.78 3.994 3.835 7.848 6.146 11.536l-59.335 59.346zM512 657.458c78.657 0 147.519-37.995 206.068-100.449 20.117-21.457 37.586-44.367 52.392-67.292l5.546-8.783 4.712-7.818 3.873-6.761 3.028-5.606c0.435-0.833 0.833-1.615 1.196-2.341 3.377-6.751 3.268-14.72-0.291-21.378-14.89-27.858-32.647-54.084-52.985-78.255-8.276-9.833-22.959-11.096-32.794-2.823-9.833 8.276-11.097 22.959-2.821 32.794 13.036 15.492 24.893 31.928 35.473 49.164l6.002 10.138-0.64 1.148c-1.843 3.158-3.852 6.484-6.023 9.956l-3.377 5.316c-13.377 20.712-29.18 41.437-47.246 60.708-50.541 53.91-108.225 85.736-172.167 85.736-14.65 0.034-29.254-1.635-43.516-4.973-12.515-2.93-25.034 4.841-27.964 17.356s4.841 25.035 17.356 27.965c17.774 4.16 35.976 6.241 54.177 6.201zM463.72 447.081c-0.111-6.251 1.039-12.458 3.379-18.253 2.341-5.797 5.828-11.064 10.245-15.481 4.419-4.419 9.686-7.906 15.481-10.247 5.797-2.341 12.004-3.491 18.255-3.382 4.729 0.084 9.409 0.889 13.882 2.379l-58.866 58.866c-1.489-4.471-2.293-9.153-2.376-13.882z" />
<glyph unicode="&#xe952;" glyph-name="ssh_icon_tm" d="M197.934 732.203c17.458 17.458 41.136 27.266 65.825 27.266h155.151c10.375 0 20.063-5.185 25.819-13.818l52.849-79.273h262.665c24.691 0 48.367-9.807 65.823-27.265 17.459-17.458 27.27-41.136 27.27-65.825v-341.333c0-24.691-9.811-48.367-27.27-65.825-17.455-17.458-41.132-27.267-65.823-27.267h-496.484c-24.689 0-48.368 9.809-65.825 27.267s-27.266 41.133-27.266 65.825v434.424c0 24.689 9.808 48.368 27.266 65.825zM263.759 697.408c-8.23 0-16.123-3.269-21.942-9.088s-9.088-13.712-9.088-21.942v-434.424c0-8.23 3.269-16.124 9.088-21.942s13.712-9.089 21.942-9.089h496.484c8.229 0 16.124 3.27 21.942 9.089s9.089 13.712 9.089 21.942v341.333c0 8.23-3.27 16.122-9.089 21.942s-13.713 9.089-21.942 9.089h-279.273c-10.374 0-20.063 5.185-25.818 13.818l-52.849 79.273h-138.545zM592.781 539.565l1.184-0.113 1.206-0.284 1.112-0.212 0.513-0.192 0.687-0.156 1.174-0.5 1.551-0.465 0.62-0.444 0.093-0.039 1.611-1.007 0.396-0.233 0.668-0.334 0.22-0.188 0.122-0.072 0.232-0.231 2.204-1.889 47.503-47.503q6.815-6.831 6.803-16.467t-6.833-16.442-16.458-6.794q-9.636 0.011-16.442 6.833l-7.487 7.48v-174.657q-0.004-19.755-19.497-22.948l-0.422-0.069-2.899-0.239h-0.439q-9.633 0-16.445 6.812t-6.812 16.445v174.684l-7.517-7.517q-13.692-13.707-29.648-2.709l-0.427 0.294-2.486 2.097-0.322 0.323q-6.802 6.81-6.802 16.435t6.802 16.435l47.507 47.507 2.388 2.047 0.715 0.447 0.521 0.348 1.727 1.037 1.098 0.516 0.828 0.337 1.586 0.658 0.721 0.172 0.541 0.191 1.020 0.204 1.26 0.288 0.796 0.077 1.201 0.24 0.92-0.065 0.84 0.068 1.187-0.099h0.629l0.751-0.107zM429.912 539.531l2.473 0.204h0.44q9.633 0 16.445-6.812t6.812-16.445v-174.671l7.523 7.51q13.685 13.701 29.642 2.703l0.427-0.294 2.486-2.097 0.322-0.323q6.801-6.81 6.801-16.435t-6.801-16.435l-47.218-47.218q-1.267-1.265-2.708-2.322l-0.538-0.394-0.396-0.22-0.212-0.141-1.866-1.166-1.187-0.5-0.682-0.278-1.569-0.668-0.688-0.157-0.513-0.192-1.111-0.212-1.206-0.284-0.778-0.073-1.138-0.244-1.004 0.067-0.832-0.070-1.22 0.099h-0.57l-0.826 0.11-1.141 0.11-1.26 0.288-1.020 0.204-0.597 0.211-0.655 0.164-1.183 0.479-1.29 0.407-0.681 0.426-0.333 0.148-1.626 0.995-0.945 0.59-0.145 0.116-0.251 0.184q-1.443 1.056-2.707 2.321l-47.476 47.485q-6.404 6.872-6.238 16.265t6.808 16.035 16.035 6.808q9.392 0.166 16.265-6.238l0.134-0.125 7.653-7.64v174.671q0.003 19.755 19.497 22.948l0.422 0.069 0.426 0.035z" />
<glyph unicode="&#xe953;" glyph-name="ssh_icon_visible" d="M512 657.455c78.657 0 147.519-37.993 206.068-100.447 20.117-21.456 37.586-44.367 52.392-67.291l5.546-8.783 6.753-11.337 3.452-6.195 2.605-4.995c3.276-6.552 3.276-14.264 0-20.815-0.364-0.727-0.762-1.508-1.197-2.341l-3.028-5.606-3.873-6.761-4.712-7.818-5.546-8.783c-14.806-22.925-32.275-45.836-52.392-67.29-58.549-62.455-127.411-100.448-206.068-100.448s-147.519 37.993-206.070 100.448c-20.115 21.455-37.584 44.365-52.39 67.29l-5.547 8.783-6.753 11.337-3.451 6.195-2.605 4.994c-3.276 6.552-3.276 14.264 0 20.815 0.363 0.727 0.762 1.508 1.197 2.341l3.029 5.606 3.872 6.76 4.712 7.819 5.547 8.783c14.805 22.924 32.274 45.835 52.39 67.291 58.551 62.454 127.412 100.447 206.070 100.447zM512 610.91c-63.889 0-121.572-31.826-172.113-85.735-18.067-19.27-33.87-39.997-47.247-60.709-2.333-3.613-4.505-7.091-6.512-10.411l-3.575-6.054 3.575-6.053 3.133-5.096 3.378-5.316c13.377-20.711 29.18-41.437 47.247-60.71 50.54-53.909 108.224-85.734 172.113-85.734s121.572 31.825 172.113 85.734c18.067 19.272 33.869 39.999 47.246 60.71 2.334 3.613 4.503 7.091 6.511 10.412l3.551 6.053-3.551 6.054-3.135 5.096-3.377 5.315c-13.377 20.712-29.18 41.439-47.246 60.709-50.541 53.91-108.225 85.735-172.113 85.735zM512 541.092c51.414 0 93.091-41.678 93.091-93.091s-41.677-93.091-93.091-93.091c-51.414 0-93.091 41.677-93.091 93.091s41.677 93.091 93.091 93.091zM512 494.546c-25.708 0-46.546-20.839-46.546-46.546s20.838-46.545 46.546-46.545c25.707 0 46.545 20.838 46.545 46.545s-20.838 46.546-46.545 46.546z" />
<glyph unicode="&#xe954;" glyph-name="gpu_icon_copy" d="M691.834 299.9c29.212 0 52.893 23.681 52.893 52.892v275.042c0 29.211-23.681 52.893-52.893 52.893h-275.041c-29.213 0-52.893-23.681-52.893-52.893v-31.735h-31.735c-29.212 0-52.893-23.681-52.893-52.893v-275.041c0-29.212 23.681-52.893 52.893-52.893h275.042c29.212 0 52.892 23.681 52.892 52.893v31.736h31.736zM406.216 596.1v31.736c0 5.842 4.736 10.578 10.579 10.578h275.041c5.843 0 10.579-4.736 10.579-10.578v-275.041c0-5.844-4.735-10.579-10.579-10.579h-31.736v200.991c0 29.212-23.681 52.893-52.893 52.893h-200.991zM321.587 543.206c0 5.843 4.736 10.579 10.578 10.579h275.042c5.841 0 10.579-4.736 10.579-10.579v-275.041c0-5.841-4.737-10.579-10.579-10.579h-275.042c-5.842 0-10.578 4.737-10.578 10.579v275.041z" />
<glyph unicode="&#xe955;" glyph-name="gpu_icon_edit" d="M521.968 361.758c-19.939-18.172-44.988-29.774-71.75-33.234l-46.35-3.871c-22.458-1.828-34.799-2.868-37.13-2.868-4.769 0.006-9.343 1.885-12.736 5.235-1.194 1.186-2.153 2.139-2.895 3.238-3.027 4.481-2.454 11.393 0.456 46.487l3.874 46.248c3.475 26.748 15.098 51.78 33.292 71.701l170.477 170.184c21.19 20.081 54.399 20.081 75.588 0l57.651-57.577c20.763-20.806 20.763-54.479 0-75.286l-170.477-170.255zM665.257 581.469l-56.247 56.226c-6.801 6.672-17.684 6.672-24.485 0l-166.152-166.157c-12.034-13.573-19.819-30.386-22.387-48.349l-3.812-45.128-0.302-3.713c-0.465-5.723 4.311-10.499 10.034-10.033l3.7 0.301 45.194 3.781c17.944 2.584 34.737 10.374 48.307 22.406l166.187 166.157c6.646 6.826 6.615 17.72-0.035 24.508zM725.669 215.269c6.647-0.086 12.866 3.849 16.467 10.419 3.471 6.428 3.457 14.639-0.036 21.050-3.596 6.577-9.818 10.513-16.467 10.419h-427.34c-6.677 0.058-12.905-3.947-16.467-10.588-3.404-6.385-3.404-14.495 0-20.881 3.601-6.57 9.819-10.505 16.467-10.419h427.376z" />
<glyph unicode="&#xe956;" glyph-name="basic_icon_check" d="M883.501 734.171c16.666-16.662 16.666-43.677 0-60.34 0 0-469.331-469.333-469.331-469.333-16.663-16.661-43.677-16.661-60.34 0 0 0-213.333 213.333-213.333 213.333-16.662 16.662-16.662 43.677 0 60.34s43.677 16.662 60.34 0c0 0 183.164-183.164 183.164-183.164s439.162 439.164 439.162 439.164c16.666 16.662 43.68 16.662 60.339 0 0 0 0 0 0 0z" />
</font>
</defs>
</svg>
