<svg xmlns="http://www.w3.org/2000/svg" xmlns:xlink="http://www.w3.org/1999/xlink" fill="none" version="1.1" width="42" height="42" viewBox="0 0 42 42"><defs><clipPath id="master_svg0_649_1625"><rect x="0" y="0" width="42" height="42" rx="0"/></clipPath></defs><g clip-path="url(#master_svg0_649_1625)"><g><path d="M19.1035,36.4638046875L19.1035,5.5498046875L26.6898,5.5498046875L26.6898,36.4638046875L19.1035,36.4638046875ZM29.9137,11.6188646875L29.9137,5.549850282L37.5,5.549850282L37.5,11.6188646875L29.9137,11.6188646875ZM29.9137,36.4638046875L29.9137,14.0843546875L37.5,14.0843546875L37.5,36.4638046875L29.9137,36.4638046875ZM9.582799999999999,8.9446546875L7.91383,12.1498546875L7.91383,20.9310046875L7.91383,29.6931046875L6.98451,31.4190046875C5.73277,33.751704687499995,4.5,36.1983046875,4.5,36.350004687500004C4.5,36.4069046875,6.18793,36.4638046875,8.25521,36.4638046875L12.0104,36.4638046875L12.97765,34.7000046875C13.50869,33.751704687499995,14.32422,32.2155046875,14.8173,31.3241046875L15.6897,29.6931046875L15.6897,17.7068046875L15.6897,5.7394596875L13.47075,5.7394596875L11.232800000000001,5.7394596875L9.582799999999999,8.9446546875Z" fill-rule="evenodd" fill="#E06739" fill-opacity="1"/></g></g></svg>