<svg xmlns="http://www.w3.org/2000/svg" xmlns:xlink="http://www.w3.org/1999/xlink" fill="none" version="1.1" width="42" height="42" viewBox="0 0 42 42"><defs><clipPath id="master_svg0_649_1661"><rect x="0" y="0" width="42" height="42" rx="0"/></clipPath><clipPath id="master_svg1_649_1661/694_3035"><rect x="4.5" y="4.5" width="32.999794006347656" height="33" rx="0"/></clipPath></defs><g clip-path="url(#master_svg0_649_1661)"><g clip-path="url(#master_svg1_649_1661/694_3035)"><g><path d="M37.4998,21Q37.4998,21.4051,37.4799,21.8096Q37.46,22.2142,37.4203,22.6173Q37.3806,23.0204,37.3212,23.4211Q37.2618,23.8217,37.1828,24.219Q37.1037,24.6163,37.0053,25.0092Q36.9069,25.4021,36.7893,25.7897Q36.6717,26.1773,36.5353,26.5587Q36.3988,26.9401,36.2438,27.3143Q36.0888,27.6885,35.9156,28.0547Q35.7424,28.4208,35.551500000000004,28.778Q35.360600000000005,29.1353,35.1523,29.4827Q34.9441,29.8301,34.7191,30.1669Q34.494,30.5037,34.252700000000004,30.829Q34.011399999999995,31.1544,33.7545,31.4675Q33.4975,31.7806,33.2255,32.0807Q32.9535,32.3808,32.667100000000005,32.6673Q32.380700000000004,32.9537,32.0805,33.2257Q31.7804,33.497699999999995,31.4673,33.7547Q31.1542,34.0116,30.8289,34.2529Q30.5035,34.4942,30.1667,34.7192Q29.83,34.9443,29.4825,35.1525Q29.1351,35.3608,28.7779,35.5517Q28.4207,35.742599999999996,28.0545,35.915800000000004Q27.6883,36.089,27.3141,36.244Q26.9399,36.399,26.5585,36.5355Q26.1772,36.6719,25.7896,36.7895Q25.402,36.9071,25.009,37.0055Q24.6161,37.1039,24.2189,37.183Q23.8216,37.262,23.4209,37.3214Q23.0203,37.3808,22.6172,37.4205Q22.2141,37.4603,21.8095,37.4801Q21.4049,37.5,20.9999,37.5Q20.5948,37.5,20.1903,37.4801Q19.7857,37.4603,19.3826,37.4205Q18.9795,37.3808,18.5789,37.3214Q18.1782,37.262,17.780900000000003,37.183Q17.383699999999997,37.1039,16.9907,37.0055Q16.5978,36.9071,16.2102,36.7895Q15.8226,36.6719,15.4412,36.5355Q15.0599,36.399,14.6857,36.244Q14.31144,36.089,13.94528,35.915800000000004Q13.57912,35.742599999999996,13.2219,35.5517Q12.86468,35.3608,12.51725,35.1525Q12.169830000000001,34.9443,11.83305,34.7192Q11.49626,34.4942,11.170919999999999,34.2529Q10.84558,34.0116,10.53247,33.7547Q10.21936,33.497699999999995,9.91924,33.2257Q9.619119999999999,32.9537,9.332709999999999,32.6673Q9.046289999999999,32.3808,8.774280000000001,32.0807Q8.50226,31.7806,8.2453,31.4675Q7.98834,31.1544,7.747059999999999,30.829Q7.50577,30.5037,7.28073,30.1669Q7.0557,29.8301,6.84746,29.4827Q6.6392299999999995,29.1353,6.44829,28.778Q6.25735,28.4208,6.08417,28.0547Q5.91099,27.6885,5.75598,27.3143Q5.60097,26.9401,5.464517,26.5587Q5.32806,26.1773,5.2104800000000004,25.7897Q5.0929,25.4021,4.994481,25.0092Q4.896062,24.6163,4.817041,24.219Q4.73802,23.8217,4.678586,23.4211Q4.619153,23.0204,4.5794515,22.6173Q4.5397497,22.2142,4.5198748,21.8096Q4.5,21.4051,4.5,21Q4.5,20.5949,4.5198748,20.1904Q4.5397497,19.785800000000002,4.5794515,19.3827Q4.619153,18.979599999999998,4.678586,18.5789Q4.73802,18.1783,4.817041,17.781Q4.896062,17.383699999999997,4.994481,16.9908Q5.0929,16.5979,5.2104800000000004,16.2103Q5.32806,15.8227,5.464517,15.4413Q5.60097,15.0599,5.75598,14.6857Q5.91099,14.3115,6.08417,13.94534Q6.25735,13.57918,6.44829,13.22195Q6.6392299999999995,12.86473,6.84746,12.5173Q7.0557,12.16988,7.28073,11.83309Q7.50577,11.4963,7.747059999999999,11.170960000000001Q7.98834,10.84562,8.2453,10.53251Q8.50226,10.2194,8.774280000000001,9.91928Q9.046289999999999,9.619150000000001,9.332709999999999,9.332740000000001Q9.619119999999999,9.04632,9.91924,8.77431Q10.21936,8.50229,10.53247,8.24533Q10.84558,7.98836,11.170919999999999,7.74708Q11.49626,7.50579,11.83304,7.280749999999999Q12.169830000000001,7.05572,12.51725,6.84748Q12.86468,6.63924,13.2219,6.4483Q13.57912,6.25736,13.94528,6.08418Q14.31144,5.91099,14.6857,5.75599Q15.0599,5.60098,15.4412,5.464523Q15.8226,5.3280650000000005,16.2102,5.210484Q16.5978,5.092904,16.9907,4.994484Q17.383699999999997,4.896065,17.780900000000003,4.817043Q18.1782,4.738021,18.5789,4.678588Q18.9795,4.619154,19.3826,4.579452Q19.7857,4.5397499,20.1903,4.519875Q20.5948,4.5,20.9999,4.5Q21.4049,4.5,21.8095,4.519875Q22.2141,4.5397499,22.6172,4.579452Q23.0203,4.619154,23.4209,4.678588Q23.8216,4.738021,24.2189,4.817043Q24.6161,4.896065,25.009,4.994484Q25.402,5.092904,25.7896,5.210484Q26.1772,5.3280650000000005,26.5585,5.464523Q26.9399,5.60098,27.3141,5.75599Q27.6883,5.91099,28.0545,6.08418Q28.4207,6.25736,28.7779,6.4483Q29.1351,6.63924,29.4825,6.84748Q29.83,7.05572,30.1667,7.280749999999999Q30.5035,7.50579,30.8289,7.74708Q31.1542,7.98836,31.4673,8.24533Q31.7804,8.50229,32.0805,8.77431Q32.380700000000004,9.04632,32.667100000000005,9.332740000000001Q32.9535,9.619150000000001,33.2255,9.91928Q33.4975,10.2194,33.7545,10.53251Q34.011399999999995,10.84562,34.252700000000004,11.170960000000001Q34.494,11.4963,34.7191,11.83309Q34.9441,12.16988,35.1523,12.5173Q35.360600000000005,12.86473,35.551500000000004,13.22195Q35.7424,13.57918,35.9156,13.94534Q36.0888,14.3115,36.2438,14.6857Q36.3988,15.0599,36.5353,15.4413Q36.6717,15.8227,36.7893,16.2103Q36.9069,16.5979,37.0053,16.9908Q37.1037,17.383699999999997,37.1828,17.781Q37.2618,18.1783,37.3212,18.5789Q37.3806,18.979599999999998,37.4203,19.3827Q37.46,19.785800000000002,37.4799,20.1904Q37.4998,20.5949,37.4998,21Z" fill="#A14F8C" fill-opacity="1"/></g><g><path d="M21.000227734375002,8.5133056640625L17.342747734375,12.1707256640625L12.170967734375001,12.1702956640625L12.170547734374999,17.3424256640625L8.513427734375,20.9998056640625L12.170547734374999,24.6569056640625L12.170727734375,29.8291056640625L17.342747734375,29.8290056640625L21.000227734375002,33.4864056640625L24.657327734375,29.8290056640625L29.829727734375,29.8287056640625L29.829527734375,24.6569056640625L33.487027734375005,20.9998056640625L29.829127734375,17.3427956640625L24.657127734375,12.170895664062499L21.000227734375002,8.5133056640625ZM22.110327734374998,12.1703456640625L22.110327734374998,16.116115664062498L21.000227734375002,17.226175664062502L19.890127734375,16.116115664062498L19.890127734375,12.1707256640625L22.110327734374998,12.1703456640625ZM15.541557734375,13.971485664062499L18.331667734375,16.761925664062503L18.332097734374997,18.331275664062503L16.761857734375,18.3317056640625L13.971737734375,15.5412656640625L15.541557734375,13.971485664062499ZM12.170547734374999,19.8898056640625L16.116417734375,19.8898056640625L17.226507734374998,20.9998056640625L16.116417734375,22.109905664062502L12.170547734374999,22.109905664062502L12.170547734374999,19.8898056640625ZM25.795027734375,19.8898056640625L29.740827734375,19.8898056640625L29.740827734375,22.109905664062502L25.795027734375,22.109905664062502L24.684927734375,20.9998056640625L25.795027734375,19.8898056640625ZM16.824867734374997,23.6053056640625L18.394707734375,23.6053056640625L18.394707734375,25.1751056640625L15.604597734375,27.9652056640625L14.034787734375,26.3954056640625L16.824867734374997,23.6053056640625ZM23.606027734374997,23.6051056640625L25.175627734375,23.6053056640625L27.965727734375,26.3954056640625L26.395927734375,27.9652056640625L23.605827734374998,25.1751056640625L23.606027734374997,23.6051056640625ZM21.000227734375002,24.6844056640625L22.110327734374998,25.7945056640625L22.110327734374998,29.7403056640625L19.890127734375,29.7403056640625L19.890127734375,25.7945056640625L21.000227734375002,24.6844056640625Z" fill="#FFFFFF" fill-opacity="1"/></g><g><path d="M22.11038875,18.449309941375L21.00032875,19.430232609375L19.89025875,18.448974609375L19.89025875,19.889954609375L18.449432148,19.889954609375L19.43051175,21.000014609375L18.44921875,22.110064609375L19.89025875,22.110064609375L19.89025875,23.550774609375L21.00032875,22.569774609375L22.11038875,23.550894609375L22.11038875,22.110054609375L23.55103875,22.110054609375L22.570138749999998,21.000024609375L23.55139875,19.889944609375L22.11038875,19.889944609375L22.11038875,18.449309941375Z" fill="#EFA724" fill-opacity="1"/></g><g><path d="M24.66054203125,12.173946646875L26.45856703125,13.971934296875L23.66845703125,16.761994296875L23.66851800195,18.331724296875L25.23826703125,18.331774296875L28.02838703125,15.541734296875L29.83265703125,17.345954296875L29.829827031249998,12.170654296875L24.66054203125,12.173946646875Z" fill="#EFA724" fill-opacity="1"/></g></g></g></svg>