<svg xmlns="http://www.w3.org/2000/svg" xmlns:xlink="http://www.w3.org/1999/xlink" fill="none" version="1.1" width="42" height="42" viewBox="0 0 42 42"><defs><clipPath id="master_svg0_649_1643"><rect x="0" y="0" width="42" height="42" rx="0"/></clipPath><clipPath id="master_svg1_649_1643/694_3066"><rect x="7.739990234375" y="4.5" width="26.51172637939453" height="33.00128173828125" rx="0"/></clipPath></defs><g clip-path="url(#master_svg0_649_1643)"><g clip-path="url(#master_svg1_649_1643/694_3066)"><g><path d="M23.584534375,21.935651896875C23.037704375,21.943259896875,23.687997375,22.217434796875,24.401889375,22.327287796875C24.599079375,22.173310796875,24.778009375,22.017507796875,24.937459375,21.865966796875C24.492879375,21.974905796875,24.040378375,21.977340796875,23.584534375,21.935651896875Z" fill="#A80030" fill-opacity="1"/></g><g><path d="M26.519401093749998,21.203962109375C26.84500409375,20.754512109375,27.08235909375,20.262454109375,27.16604209375,19.753662109375C27.09300909375,20.116390109375,26.89612609375,20.429516109375,26.71080709375,20.759992109375C25.68865709375,21.403582109375,26.61464709375,20.377784109375,26.71019909375,19.987974109375C25.61106009375,21.371332109375,26.55926509375,20.817502109375,26.519401093749998,21.203962109375Z" fill="#A80030" fill-opacity="1"/></g><g><path d="M27.6024650625,18.38509121875C27.6684990625,17.40037021875,27.4086244625,17.71167081875,27.3212890625,18.08748321875C27.4232300625,18.14043221875,27.5038700625,18.78159421875,27.6024650625,18.38509121875Z" fill="#A80030" fill-opacity="1"/></g><g><path d="M21.510986328125,4.92578125C21.802811328125,4.97812115,22.141499328125,5.01828895,22.094028328125,5.08797425C22.413241328125,5.01798465,22.485664328125,4.95347265,21.510986328125,4.92578125Z" fill="#A80030" fill-opacity="1"/></g><g><path d="M22.093768171875,5.0877685546875L21.887451171875,5.1303707546875L22.079466171875,5.1133298546875L22.093768171875,5.0877685546875Z" fill="#A80030" fill-opacity="1"/></g><g><path d="M31.193190234375,18.7584515625C31.225690234375,19.642751562500003,30.934490234375,20.0718515625,30.671890234375,20.8313515625L30.199290234375,21.0675515625C29.812590234375,21.8185515625,30.236790234375,21.5443515625,29.959890234375,22.1417515625C29.356090234375,22.6784515625,28.127690234375,23.8214515625,27.734490234375,23.9258515625C27.447490234375,23.9194515625,27.928890234375,23.5871515625,27.991890234375,23.4569515625C27.183690234375,24.0119515625,27.343490234375,24.2900515625,26.107390234375,24.6272515625L26.071190234375,24.5469515625C23.022690234375,25.9810515625,18.787990234375002,23.1389515625,18.843690234375,19.2608515625C18.811090234375,19.5070515625,18.751190234375002,19.4455515625,18.683590234375,19.5451515625C18.526290234375,17.5497515625,19.605090234374998,15.5456515625,21.424490234375,14.7274015625C23.203990234375,13.8464515625,25.290290234375,14.2079515625,26.565090234375,15.3959515625C25.864890234375,14.4787815625,24.471190234375,13.5065415625,22.819390234375,13.5975315625C21.201390234374998,13.6230915625,19.687790234375,14.6513215625,19.182690234375002,15.7675515625C18.353790234374998,16.289351562500002,18.257590234375,17.7792515625,17.896410234375,18.051851562499998C17.410440234375002,21.6234515625,18.810490234375,23.1666515625,21.178890234375,24.9817515625C21.551690234375002,25.2331515625,21.283890234375,25.2711515625,21.334390234375,25.4625515625C20.547490234374997,25.0940515625,19.826890234375,24.5377515625,19.234390234375,23.8567515625C19.548790234374998,24.3168515625,19.888090234375,24.7641515625,20.326590234375,25.1156515625C19.584690234375,24.8643515625,18.593590234375,23.3178515625,18.304190234375,23.2548515625C19.583190234375,25.5447515625,23.493090234375,27.2707515625,25.540490234375,26.4144515625C24.593190234375,26.4494515625,23.389690234375,26.4338515625,22.325190234375,26.0404515625C21.878190234374998,25.8103515625,21.270190234375,25.3338515625,21.378790234375,25.2446515625C24.172890234375,26.2884515625,27.059190234375,26.0352515625,29.476890234375,24.0971515625C30.091890234375,23.6181515625,30.763790234375,22.8032515625,30.957990234375,22.7920515625C30.665490234375,23.2317515625,31.007890234375,23.0034515625,30.783290234375,23.3917515625C31.396190234375,22.4034515625,30.516990234375,22.9894515625,31.416790234375,21.6849515625L31.749090234375,22.1426515625C31.625590234375,21.3222515625,32.767890234375,20.325951562500002,32.651990234375,19.028451562500003C32.913990234375,18.6315515625,32.944390234375,19.4553515625,32.666290234375,20.3682515625C33.052190234375004,19.3555515625,32.767890234375,19.1927515625,32.867190234375,18.3571515625C32.974290234375005,18.6379515625,33.114890234375,18.9365515625,33.186990234375,19.232851562500002C32.935590234375,18.254251562500002,33.444990234375,17.5847515625,33.570990234375,17.0160515625C33.446790234375,16.9609515625,33.182990234375,17.4487515625,33.122790234375,16.2927515625C33.131590234375,15.7906515625,33.262390234375005,16.0295515625,33.312990234375,15.9059515625C33.214390234375,15.8493515625,32.955690234375,15.4644515625,32.798390234375,14.7261915625C32.912490234375,14.5527315625,33.103290234374995,15.1759515625,33.258490234375,15.2015515625C33.158690234375,14.6145115625,32.986690234375004,14.1668815625,32.979690234375,13.7165115625C32.526290234375,12.7689215625,32.819390234375,13.8428015625,32.451490234375,13.3096615625C31.968890234375,11.8042815625,32.851890234375,12.9603215625,32.911590234375,12.2762515625C33.643090234374995,13.3361315625,34.060290234375,14.9787515625,34.251690234375005,15.6591515625C34.105690234375004,14.8296515625,33.869490234375,14.0259915625,33.581290234375004,13.2485015625C33.803490234375005,13.3419215625,33.223490234375,11.5416715625,33.870090234375,12.7339215625C33.179390234375,10.1923915625,30.913790234375,7.817621562499999,28.829690234375,6.7032715624999994C29.084690234375,6.9366715625,29.406590234375,7.2297115625,29.290990234375,7.2756615625C28.254490234375,6.6585415625,28.436790234375,6.6104615625,28.288290234375,6.3496715625C27.443890234375,6.0061115625,27.388490234375,6.3773615625,26.829190234375,6.3502815625C25.237690234375,5.5061475625,24.930990234375,5.5959165625,23.466390234374998,5.0670405625L23.532990234375,5.3783415625C22.478590234374998,5.0271765625,22.304490234375002,5.5116255625,21.164890234375,5.3795585625C21.095490234375,5.3253925625,21.530090234375002,5.1835875625,21.887590234375,5.1315525625C20.868190234375,5.2660535625,20.915990234375002,4.9307135625,19.918490234375,5.1686775625C20.164390234375,4.9961385625,20.424290234375,4.8820245625,20.686590234375,4.7353515625C19.855190234375,4.7858656625,18.701890234375,5.2191915625,19.057890234375,4.8251205625C17.701970234375,5.4300725625,15.293720234375,6.2793815625,13.942320234375,7.5464915625L13.899710234375,7.262581562499999C13.280460234375,8.0059815625,11.199340234375,9.4827615625,11.033500234375,10.4455715625L10.867960234375,10.4842215625C10.545700234375,11.0298315625,10.337260234375,11.6481715625,10.081640234375,12.209611562500001C9.660180234375,12.9277615625,9.463910234375,12.4859115625,9.523860234375,12.5985115625C8.694939234375,14.2791715625,8.283219234375,15.6914515625,7.927490234375,16.8496515625C8.180973234375,17.2284515625,7.933576264375,19.1303515625,8.029431234375,20.652451562499998C7.613146234375,28.1699515625,13.305410234375,35.468951562499996,19.527490234375,37.1541515625C20.439490234375,37.4803515625,21.795690234375,37.4678515625,22.949390234375002,37.5013515625C21.588190234375,37.1121515625,21.412290234375,37.2950515625,20.086490234375,36.8327515625C19.130090234375,36.382451562499995,18.920390234375,35.8681515625,18.242990234375,35.2802515625L18.511090234375,35.754051562499995C17.182520234374998,35.283851562500004,17.738480234375,35.1722515625,16.657600234375,34.8298515625L16.943950234375002,34.4558515625C16.513360234375,34.4233515625,15.803430234375,33.7301515625,15.609280234375,33.3464515625L15.138220234375,33.364951562499996C14.572220234375,32.666551562500004,14.270660234375,32.1632515625,14.292570234374999,31.7734515625L14.140420234375,32.044551562500004C13.967880234375,31.7485515625,12.058080234375,29.4254515625,13.048890234375001,29.9662515625C12.864780234375,29.7979515625,12.620130234375,29.6923515625,12.354780234375,29.2103515625L12.556530234375,28.9796515625C12.079690234375,28.3661515625,11.678920234375,27.5798515625,11.709350234375,27.3178515625C11.963750234375,27.6614515625,12.140240234375,27.7256515625,12.314910234374999,27.7843515625C11.110790234375,24.7967515625,11.043230234375,27.6197515625,10.131240234375,24.7431515625L10.324170234375,24.7276515625C10.176280234375,24.5049515625,10.086510234375,24.2629515625,9.967530234375,24.0256515625L10.051520234375,23.1888515625C9.184560234375,22.1864515625,9.808980234375,18.9267515625,9.934050234375,17.1389515625C10.020780234375,16.4120515625,10.657680234375,15.6381515625,11.142130234375,14.4246215625L10.846960234375,14.3738015625C11.411130234375,13.3896915625,14.068300234375,10.4215315625,15.298890234375001,10.574291562500001C15.895020234375,9.8254015625,15.180520234374999,10.5715515625,15.063970234374999,10.3828815625C16.373380234375,9.027831562500001,16.785100234375,9.4255515625,17.668790234375003,9.1818115625C18.621890234375,8.6161115625,16.850830234375,9.402421562499999,17.302720234375002,8.9660615625C18.950190234375,8.5452115625,18.470290234375,8.0093315625,20.619590234375,7.7957115625C20.846290234374997,7.9247315625,20.093490234375,7.9950315624999995,19.904490234375,8.1623915625C21.277190234375,7.4908015625,24.248390234375,7.6435615625,26.178290234375,8.5351615625C28.417690234375,9.581661562499999,30.933590234375,12.6751915625,31.032790234375,15.5858515625L31.145690234375,15.6162515625C31.088490234375,16.7732515625,31.322790234375,18.1112515625,30.916890234375,19.3403515625L31.193190234375,18.7584515625Z" fill="#A80030" fill-opacity="1"/></g><g><path d="M17.6157462,22.686279296875L17.5390625,23.069699296875C17.8984425,23.557799296875,18.1835735,24.086679296875,18.6424625,24.468269296875C18.3122925,23.823759296875,18.0670255,23.557494296875,17.6157462,22.686279296875Z" fill="#A80030" fill-opacity="1"/></g><g><path d="M18.465137953125,22.6528517890625C18.274949953125,22.4425787890625,18.162357953125,22.1894007890625,18.036376953125,21.9371337890625C18.156879953125,22.3805017890625,18.403668953125,22.7614867890625,18.633417953125,23.1488637890625L18.465137953125,22.6528517890625Z" fill="#A80030" fill-opacity="1"/></g><g><path d="M33.4989203125,19.38525390625L33.4185883125,19.58670090625C33.2713053125,20.63289390625,32.9533113125,21.66812390625,32.4658203125,22.62789390625C33.0044333125,21.61517390625,33.3528573125,20.50751390625,33.4989203125,19.38525390625Z" fill="#A80030" fill-opacity="1"/></g><g><path d="M21.619420359375,4.66341C21.989146359375,4.5279958,22.528373359375,4.5891604,22.920613359375,4.5C22.409383359375,4.5429065,21.900594359375,4.5684679,21.398193359375,4.633284L21.619420359375,4.66341Z" fill="#A80030" fill-opacity="1"/></g><g><path d="M8.639153859375,11.565673828125C8.724358859375,12.354423828125,8.045765859375,12.660553828125,8.789478859375,12.140499828125C9.188113859375001,11.242504828125,8.633676859375,11.892493828125,8.639153859375,11.565673828125Z" fill="#A80030" fill-opacity="1"/></g><g><path d="M7.764976234375,15.216068359375C7.936298234375,14.690235359375,7.967337234375,14.374370359375,8.032761234375,14.070068359375C7.559268234375,14.675324359375,7.814881634375,14.804348359375,7.764976234375,15.216068359375Z" fill="#A80030" fill-opacity="1"/></g></g></g></svg>