<svg xmlns="http://www.w3.org/2000/svg" xmlns:xlink="http://www.w3.org/1999/xlink" fill="none" version="1.1" width="42" height="42" viewBox="0 0 42 42"><defs><clipPath id="master_svg0_702_7224"><rect x="0" y="0" width="42" height="42" rx="0"/></clipPath><clipPath id="master_svg1_702_7224/674_1571"><rect x="4.5" y="7.97998046875" width="33" height="26.04620361328125" rx="0"/></clipPath></defs><g clip-path="url(#master_svg0_702_7224)"><g clip-path="url(#master_svg1_702_7224/674_1571)"><g><path d="M36.9633,18.681680468750002C36.1543,18.13708046875,34.0283,17.90450046875,32.4828,18.32078046875C32.3994,16.78132046875,31.6057,15.48403046875,30.1535,14.35211046875L29.6159,13.99125046875L29.2576,14.53233046875C28.5534,15.60141046875,28.2566,17.02568046875,28.3618,18.320380468750002C28.4447,19.117980468749998,28.7222,20.01468046875,29.2576,20.66538046875C27.246,21.83218046875,25.3919,21.56728046875,17.1806,21.56728046875L4.50261815,21.56728046875C4.4655277,23.42138046875,4.76356,26.98818046875,7.031750000000001,29.89168046875C7.282220000000001,30.21238046875,7.557119999999999,30.52268046875,7.85516,30.82158046875C9.699200000000001,32.66828046875,12.48535,34.02228046875,16.651699999999998,34.02618046875C23.0077,34.03188046875,28.4534,30.59638046875,31.7658,22.28948046875C32.8558,22.30738046875,35.7332,22.484980468750003,37.1413,19.76378046875Q37.1758,19.71798046875,37.4996,19.04208046875L36.9628,18.68118046875L36.9633,18.681680468750002ZM12.7764,16.98597046875L9.211359999999999,16.98597046875L9.211359999999999,20.550980468749998L12.7764,20.550980468749998L12.7764,16.98597046875ZM17.382199999999997,16.98597046875L13.81711,16.98597046875L13.81711,20.550980468749998L17.382199999999997,20.550980468749998L17.382199999999997,16.98597046875ZM21.9879,16.98597046875L18.4229,16.98597046875L18.4229,20.550980468749998L21.9879,20.550980468749998L21.9879,16.98597046875ZM26.5937,16.98597046875L23.0286,16.98597046875L23.0286,20.550980468749998L26.5937,20.550980468749998L26.5937,16.98597046875ZM8.17064,16.98597046875L4.605599,16.98597046875L4.605599,20.550980468749998L8.17064,20.550980468749998L8.17064,16.98597046875ZM12.7764,12.48319046875L9.211359999999999,12.48319046875L9.211359999999999,16.048240468750002L12.7764,16.048240468750002L12.7764,12.48319046875ZM17.382199999999997,12.48319046875L13.81711,12.48319046875L13.81711,16.048240468750002L17.382199999999997,16.048240468750002L17.382199999999997,12.48319046875ZM21.9879,12.48319046875L18.4229,12.48319046875L18.4229,16.048240468750002L21.9879,16.048240468750002L21.9879,12.48319046875ZM21.9879,7.97998046875L18.4229,7.97998046875L18.4229,11.54502046875L21.9879,11.54502046875L21.9879,7.97998046875Z" fill="#2696FF" fill-opacity="1"/></g></g></g></svg>