<svg xmlns="http://www.w3.org/2000/svg" xmlns:xlink="http://www.w3.org/1999/xlink" fill="none" version="1.1" width="42" height="42" viewBox="0 0 42 42"><defs><clipPath id="master_svg0_702_7236"><rect x="0" y="0" width="42" height="42" rx="0"/></clipPath><clipPath id="master_svg1_702_7236/674_1549"><rect x="4.5" y="4.5" width="33" height="33" rx="0"/></clipPath><linearGradient x1="0.888408362865448" y1="0.5" x2="0.20471936464309692" y2="0.5" id="master_svg2_649_1680"><stop offset="0%" stop-color="#0081FB" stop-opacity="1"/><stop offset="99.50000047683716%" stop-color="#0064E1" stop-opacity="1"/></linearGradient><linearGradient x1="0.5" y1="0.8715921640396118" x2="0.5" y2="0.1309812366962433" id="master_svg3_649_1683"><stop offset="0%" stop-color="#0081FB" stop-opacity="1"/><stop offset="99.50000047683716%" stop-color="#0064E1" stop-opacity="1"/></linearGradient></defs><g clip-path="url(#master_svg0_702_7236)"><g clip-path="url(#master_svg1_702_7236/674_1549)"><g><path d="M36.8125,24.68505L35.3048,25.82835L33.8012,24.78125C33.8012,24.67125,33.8012,24.55435,33.794399999999996,24.43745C33.794399999999996,24.327550000000002,33.794399999999996,24.21065,33.7875,24.09375C33.6913,21.38495,33.0038,18.48375,31.6288,16.35937C30.57,14.73,29.2156,13.95313,27.7031,13.95313C26.115,13.95313,24.8225,14.90188,23.3925,16.96438C23.3513,17.02625,23.3031,17.08813,23.2619,17.15688C23.2344,17.19125,23.2138,17.22563,23.1863,17.26688C23.1175,17.37,23.0488,17.47313,22.98,17.58313C22.3613,18.54563,21.715,19.666249999999998,21.0138,20.903750000000002C20.951900000000002,21.02063,20.8831,21.137549999999997,20.8213,21.254350000000002C20.8006,21.28185,20.78,21.31625,20.7663,21.34375L20.6219,21.59815L19.769399999999997,23.103749999999998C17.7688,26.64435,17.259999999999998,27.45565,16.2631,28.78245C14.51,31.11315,13.01125,32.00005,11.038129999999999,32.00005C8.70063,32.00005,7.21563,30.98935,6.30125,29.46315C5.551875,28.22565,5.1875,26.596249999999998,5.1875,24.73995L8.60437,24.85685C8.60437,26.066850000000002,8.86562,26.988149999999997,9.216249999999999,27.55185C9.67,28.28065,10.336870000000001,28.56245,11.03125,28.56245C11.91813,28.56245,12.743120000000001,28.37685,14.31063,26.204349999999998C15.5688,24.465049999999998,17.053800000000003,22.03125,18.0506,20.49813L18.9925,19.06125L19.1919,18.745L19.3981,18.43563L19.7419,17.90625C20.264400000000002,17.10875,20.8281,16.26313,21.4331,15.45188C21.5019,15.35563,21.5706,15.25938,21.6463,15.163129999999999C21.715,15.06687,21.7906,14.97063,21.8594,14.88125C22.4781,14.09063,23.1313,13.355,23.8325,12.75C25.1044,11.643125,26.4725,11.03125,27.8544,11.03125C30.1712,11.03125,32.3781,12.37187,34.0694,14.88813C35.795,17.45938,36.6956,20.663130000000002,36.7988,23.99755C36.8056,24.10755,36.8056,24.22435,36.8056,24.341250000000002C36.8125,24.45815,36.8125,24.56815,36.8125,24.68505Z" fill="#0081FB" fill-opacity="1"/></g><g><path d="M7.881103515625,15.126000000000001C9.446543515625,12.71631,11.707043515625,11.03125,14.298913515625,11.03125C15.800413515625,11.03125,17.292293515624998,11.474688,18.850903515625,12.745190000000001C20.555203515625,14.133939999999999,22.372203515625,16.420560000000002,24.638903515625,20.189439999999998L25.451503515625,21.54175C27.413703515625,24.804650000000002,28.529503515625,26.48285,29.183303515625,27.27485C30.023403515625,28.29165,30.548003515625,28.56245,31.312503515625,28.56245C33.251203515625,28.56245,33.799203515624995,26.81625,33.799203515624995,24.780549999999998L36.812503515625,24.686349999999997C36.812503515625,26.814149999999998,36.392403515625,28.37755,35.677403515625,29.61235C34.987203515625,30.80645,33.641003515625,32.00005,31.376403515625,32.00005C29.968403515625,32.00005,28.721303515625,31.69475,27.342203515625,30.39605C26.282003515625,29.39915,25.042503515625,27.62815,24.088903515625,26.03665L21.252303515625,21.30735C19.829203515625,18.93406,18.523603515625,17.16375,17.768043515625,16.36281C16.955413515625,15.500689999999999,15.951663515625,14.46944,14.284473515624999,14.46944C12.934913515625,14.46944,11.748293515625,15.405809999999999,10.789233515625,16.85163L7.881103515625,15.126000000000001Z" fill="url(#master_svg2_649_1680)" fill-opacity="1"/></g><g><path d="M14.29688,14.46875C12.95006,14.46875,11.76481,15.40512,10.80781,16.85094C9.45412,18.894190000000002,8.625,21.93705,8.625,24.859650000000002C8.625,26.06485,8.62294,26.97165,8.96875,27.53125L6.32875,29.46515C5.582125,28.22355,5.1875,26.63745,5.1875,24.78125C5.1875,21.40565,6.119062,17.84369,7.88112,15.126000000000001C9.4445,12.71631,11.723559999999999,11.03125,14.31063,11.03125L14.29688,14.46875Z" fill="url(#master_svg3_649_1683)" fill-opacity="1"/></g><g style="opacity:0.05000000074505806;"><path d="M19.398056640625,18.435473515625L19.191807640625,18.744853515625L18.992431640625,19.061103515625C19.480555640625,19.769233515625,20.037431640625,20.621723515625,20.621811640625,21.597983515625L20.766181640625,21.343603515625C20.779931640625,21.316103515625,20.800551640625,21.281723515625,20.821181640625,21.254233515625C20.883061640625,21.137353515625,20.951811640625,21.020473515625,21.013681640625002,20.903603515625C20.443061640625,19.968603515625,19.893056640625,19.136723515625,19.398056640625,18.435473515625ZM21.646181640625,15.162977515625C21.570551640625,15.259228515625,21.501811640625,15.355477515625,21.433061640625,15.451727515625C21.934931640625,16.077353515625,22.443681640625,16.785473515625,22.979931640625,17.582973515625C23.048681640625,17.472973515625,23.117431640625,17.369853515625,23.186181640625,17.266733515625C23.213681640625,17.225483515625,23.234311640625002,17.191103515625,23.261811640624998,17.156733515625C23.303061640625,17.087983515624998,23.351181640625,17.026103515625,23.392431640625,16.964223515625C22.869931640625,16.194223515625,22.361181640625,15.499852515625,21.859311640625002,14.881103515625C21.790551640625,14.970477315625,21.714931640625,15.066727515625,21.646181640625,15.162977515625Z" fill="#000000" fill-opacity="1"/></g><g style="opacity:0.07000000029802322;"><path d="M19.39814353125,18.4355859375L19.19189453125,18.7449559375C19.68001853125,19.4462059375,20.23002453125,20.2849559375,20.82127453125,21.2543359375C20.88314453125,21.1374559375,20.95189453125,21.0205859375,21.01377453125,20.9037059375C20.44314453125,19.9687059375,19.89314353125,19.1368359375,19.39814353125,18.4355859375ZM21.43314453125,15.4518349375C21.93501453125,16.0774599375,22.44376453125,16.7855859375,22.98001453125,17.5830859375C23.04876453125,17.4730859375,23.11751453125,17.3699559375,23.18626453125,17.266835937499998C22.65689453125,16.4830859375,22.141264531250002,15.7818359375,21.64626453125,15.1630859375C21.57064453125,15.2593342375,21.50189453125,15.3555849375,21.43314453125,15.4518349375Z" fill="#000000" fill-opacity="1"/></g></g></g></svg>