<svg xmlns="http://www.w3.org/2000/svg" xmlns:xlink="http://www.w3.org/1999/xlink" fill="none" version="1.1" width="42" height="42" viewBox="0 0 42 42"><g><g><path d="M21.5358,37.5L20.406599999999997,37.5C17.3873,37.3893,14.5889,36.5279,12.036,34.891400000000004C11.82735,34.756,11.69234,34.6084,11.66779,34.3377C11.5205,33.2179,11.41004,32.0982,11.37322,30.9662C11.360949999999999,30.757,11.42232,30.6832,11.643239999999999,30.6955C12.73559,30.7324,13.81567,30.7201,14.8958,30.5847C15.0588,30.5614,15.1777,30.6267,15.3047,30.6965C15.3116,30.7002,15.3184,30.704,15.3253,30.7078C17.0927,31.7414,18.9951,32.233599999999996,21.0448,32.233599999999996C26.2243,32.233599999999996,30.8515,28.456,31.9193,23.3618C33.1589,17.418599999999998,29.6486,11.69689,23.8064,10.109580000000001C22.5299,9.765039999999999,21.2289,9.6543,19.903399999999998,9.801960000000001C19.8788,9.801960000000001,19.854300000000002,9.78965,19.7929,9.765039999999999C20.5293,8.82988,21.3762,8.017759999999999,22.2108,7.19334C21.2412,6.24588,20.2225,5.396848,19.142400000000002,4.5847338C24.6656,4.092543,29.4523,5.72908,33.1344,9.90039C37.6388,14.9946,38.6575,20.9009,36.1905,27.2255C33.8094,33.353300000000004,28.0776,37.2416,21.5358,37.5ZM15.6445,5.335333C14.33119,5.79061,13.15292,6.35663,11.9992,7.11952C12.84608,7.27949,13.61932,7.46406,14.36801,7.67324C14.47847,7.7101500000000005,14.5276,7.68554,14.5767,7.5748C14.8835,6.82421,15.2394,6.11053,15.6445,5.335333ZM19.8052,7.23027C19.7684,7.27949,19.7316,7.32871,19.694699999999997,7.36562C19.2038,7.89473,18.712899999999998,8.43613,18.271,9.00216C18.1851,9.1252,18.0992,9.1129,17.9887,9.05137C17.4118,8.75606,16.8104,8.50996,16.1968,8.27617C16.024900000000002,8.214649999999999,15.9758,8.15313,16.061700000000002,7.9685500000000005C16.4177,7.15644,16.7982,6.38124,17.240000000000002,5.60604L17.2424,5.60211C17.314700000000002,5.481174,17.3645,5.398039,17.5223,5.5076C18.271,5.99979,18.9951,6.5289,19.682499999999997,7.10722C19.7193,7.15644,19.7561,7.193350000000001,19.8052,7.23027ZM10.77183,10.34337C10.73218,9.993500000000001,10.748899999999999,9.648769999999999,10.765699999999999,9.30253C10.77489,9.11298,10.78411,8.922979999999999,10.78411,8.731449999999999C10.78411,8.55918,10.84548,8.49766,11.02958,8.52226C11.97465,8.65762,12.89517,8.85449,13.81569,9.10059C13.96298,9.1375,13.97525,9.21133,13.92616,9.34668Q13.59477,10.34337,13.37384,11.37697C13.33702,11.52463,13.27565,11.57385,13.12837,11.57385C12.42877,11.57385,11.72918,11.62307,11.02958,11.6969C10.84548,11.72151,10.77183,11.67229,10.77183,11.47541L10.77183,10.34337ZM9.36979,9.99127C9.37119,9.75103,9.372620000000001,9.504660000000001,9.372620000000001,9.24824C8.34164,10.26954,7.51931,11.32775,6.79516,12.55823C7.50703,12.349039999999999,8.15753,12.18908,8.80804,12.05373C9.09656,11.99219,9.240770000000001,11.96142,9.31132,11.872150000000001C9.38183,11.78293,9.37876,11.63528,9.372620000000001,11.34005C9.36454,10.89451,9.3671,10.4543,9.36979,9.99127L9.36979,9.99127ZM15.3744,9.81426C15.2272,10.35567,15.0676,10.88477,14.908,11.413879999999999C14.9203,11.43849,14.9449,11.4631,14.9449,11.4754C15.6567,11.044740000000001,16.3932,10.67559,17.2155,10.36797C16.6632,10.09727,16.1477,9.90039,15.6322,9.69121C15.4849,9.62969,15.4235,9.6543,15.3744,9.81426ZM11.2996,15.2776C11.115490000000001,14.5885,11.02958,13.93637,10.91911,13.28422C10.89457,13.14886,10.95593,13.09964,11.078669999999999,13.08734C11.716899999999999,13.02582,12.3674,12.9766,13.09155,12.96429C12.39195,13.69027,11.81509,14.42856,11.2996,15.2776ZM10.072230000000001,16.1266C10.11344,16.2196,10.059529999999999,16.2518,9.9976,16.288899999999998C9.98574,16.296,9.973600000000001,16.3033,9.96177,16.3112C9.225349999999999,16.7295,8.5012,17.1725,7.81388,17.677C7.71569,17.750799999999998,7.6666,17.738500000000002,7.605230000000001,17.6278C6.99155,16.6188,6.46378,15.5606,6.02193,14.46547C5.97284,14.34242,5.98511,14.2809,6.12012,14.23168C7.18793,13.85023,8.29255,13.56722,9.40945,13.33343C9.495370000000001,13.32113,9.54446,13.34574,9.55674,13.43187C9.67947,14.34242,9.839030000000001,15.2407,10.072230000000001,16.1266ZM6.00966,17.3202C5.77646,16.8649,5.54326,16.409599999999998,5.285512,15.9051C4.806841,17.418599999999998,4.5368213,18.919800000000002,4.5,20.5317C5.199596,19.8057,5.86237,19.1782,6.58652,18.599899999999998C6.698259999999999,18.510199999999998,6.6574,18.441000000000003,6.6121300000000005,18.3643C6.60768,18.3568,6.60319,18.3492,6.59879,18.3415C6.40241,17.9969,6.19376,17.6647,6.00966,17.3202ZM8.47664,18.9444C8.869399999999999,19.4735,9.26215,20.0026,9.76537,20.5686C9.78992,19.5104,9.9863,18.5753,10.256319999999999,17.5663C9.60582,17.9354,9.0535,18.3046,8.501190000000001,18.686C8.39073,18.772100000000002,8.403,18.846,8.47664,18.9444ZM9.09033,21.7007C9.05351,21.7622,9.028970000000001,21.8114,8.992149999999999,21.8606C8.53802,22.4882,8.12072,23.128,7.75251,23.7925C7.65432,23.9771,7.5684000000000005,23.9524,7.42112,23.854C6.59879,23.3126,5.81328,22.722,5.064584,22.0821C4.941848,21.9714,4.9050270000000005,21.9099,5.027763,21.7745C5.71509,21.0239,6.4515,20.3348,7.224740000000001,19.6704C7.33521,19.572,7.3965700000000005,19.5473,7.50704,19.695C7.96116,20.3472,8.46438,20.9747,8.99214,21.5653C9.028970000000001,21.6145,9.05351,21.6638,9.09033,21.7007ZM8.75896,24.6538C9.384920000000001,25.0107,10.01087,25.3183,10.74729,25.6259C10.29316,24.6169,10.02314,23.6325,9.85131,22.5497C9.384920000000001,23.1896,9.00443,23.8048,8.6485,24.4323C8.57483,24.5589,8.64554,24.5951,8.721350000000001,24.6338C8.73396,24.6403,8.74671,24.6468,8.75896,24.6538ZM6.31649,24.4446C5.7519,24.0632,5.199591,23.6325,4.647278,23.1896C4.708646,24.3093,5.46961,26.9794,5.9482800000000005,27.7054C6.27967,26.8072,6.62333,25.9335,7.05291,25.0968C7.102,24.9861,7.05291,24.9368,6.96699,24.8753C6.74607,24.74,6.52514,24.5923,6.31649,24.4446ZM10.61226,26.9302C10.51407,27.8038,10.41588,28.6406,10.41588,29.4896C10.41588,29.6249,10.34224,29.6373,10.24405,29.6249C9.11488,29.4896,7.99798,29.2927,6.89335,28.9974C6.74607,28.9605,6.72152,28.8867,6.77062,28.7513C7.102,27.7054,7.50703,26.6841,7.98571,25.6997C8.05935,25.5398,8.13299,25.5521,8.25572,25.6259C8.95532,26.0196,9.69174,26.3642,10.42816,26.6841C10.4315,26.6856,10.43486,26.6871,10.438220000000001,26.6886C10.54589,26.7364,10.65987,26.787,10.61226,26.9302ZM13.87705,29.6988C13.06699,29.7603,12.33057,29.7726,11.60642,29.7234C11.41005,29.7111,11.360949999999999,29.6496,11.37323,29.465C11.41005,28.7144,11.44687,27.9638,11.569600000000001,27.1394C12.23238,28.0992,12.95652,28.9359,13.87705,29.6988ZM10.2195,30.5847C9.22534,30.4986,8.24345,30.3017,7.224740000000001,30.0802C7.87524,31.2123,9.69174,33.2179,10.63681,33.8209C10.51407,32.775,10.41588,31.766,10.40361,30.7447C10.40361,30.6216,10.32997,30.597,10.2195,30.5847Z" fill-rule="evenodd" fill="#44A748" fill-opacity="1" style="mix-blend-mode:passthrough"/></g></g></svg>