<svg xmlns="http://www.w3.org/2000/svg" xmlns:xlink="http://www.w3.org/1999/xlink" fill="none" version="1.1" width="42" height="42" viewBox="0 0 42 42"><defs><clipPath id="master_svg0_702_7239"><rect x="0" y="0" width="42" height="42" rx="0"/></clipPath><linearGradient x1="0.000041012681322172284" y1="0.5006193518638611" x2="0.9998816847801208" y2="0.5006193518638611" id="master_svg1_665_2173"><stop offset="0%" stop-color="#0EF6A4" stop-opacity="1"/><stop offset="53.00999879837036%" stop-color="#0FADCE" stop-opacity="1"/><stop offset="100%" stop-color="#1659FF" stop-opacity="1"/></linearGradient></defs><g clip-path="url(#master_svg0_702_7239)"><g><path d="M35.673978125000005,13.539349999999999C35.658078125,12.26827,35.125878125,11.17991,34.196378124999995,10.27427C32.242078125,8.375602,28.857878125,8.685427,27.284878125,10.91775C26.625578125,11.855170000000001,26.363378125,12.90381,26.363378125,14.02395C26.355478125,17.70212,26.363378125,21.3803,26.363378125,25.0585C26.363378125,25.2094,26.371278125,25.3604,26.355478125,25.5113C26.323678125,25.9403,25.982078125,26.2898,25.521278125,26.3613C25.139978125,26.4169,24.726878125,26.1786,24.567978125,25.8132C24.472678125,25.5987,24.464678125,25.3762,24.464678125,25.1459C24.464678125,23.072400000000002,24.464678125,20.999000000000002,24.464678125,18.925539999999998C24.464678125,18.18672,24.250178125,17.50352,23.813278125,16.89976C22.899678125,15.63663,21.374378125,15.144079999999999,19.912678125,15.62074C18.490678125000002,16.08945,17.553278125,17.40024,17.553278125,18.93348C17.553278125,22.3098,17.553278125,25.6861,17.553278125,29.0624C17.553278125,29.2054,17.561178124999998,29.3404,17.545278125,29.4834C17.505578125,30.1031,17.100378125,30.5003,16.528378125,30.4764C15.972328125,30.4605,15.654558125,30.0951,15.654558125,29.4516C15.646618125,26.5202,15.646618125,23.5888,15.591008125,20.657400000000003C15.551278125,18.26616,15.591008125,15.87495,15.575118125,13.491679999999999C15.567168125,12.05378,14.947518125,10.88598,13.843278125000001,10.02006C11.769838125,8.399437,8.981408125,8.748983,7.313124125,10.79065C5.764000125,12.68932,6.089713125,15.65251,7.980438125,17.19369C9.021128125,18.04373,10.204818125,18.34561,11.515618125,18.27411C11.761888124999999,18.25822,11.857218125,18.15495,11.849278125,17.92456C11.841328125,17.5353,11.849278125,17.13809,11.849278125,16.748820000000002C11.849278125,15.64457,11.944608125,15.779620000000001,10.880078125,15.763729999999999C10.030048125,15.755790000000001,9.275348125,15.22353,8.973468125,14.43705C8.639808125,13.57113,8.846358125,12.705210000000001,9.537508125,12.04584C10.117438125,11.48974,11.062798125,11.338799999999999,11.801608125,11.672460000000001C12.778748125,12.11734,13.144188125,12.9197,13.136238125,13.93656C13.136238125,16.5661,13.136238125,19.1956,13.136238125,21.825200000000002C13.136238125,24.4388,13.128298125,27.0604,13.136238125,29.6741C13.144188125,31.7237,15.185848125,33.3602,17.195778125,32.931200000000004C18.935478125,32.5578,20.047678124999997,31.1914,20.047678124999997,29.4119C20.047678124999997,26.0277,20.047678124999997,22.6355,20.047678124999997,19.2512C20.047678124999997,19.084400000000002,20.039778124999998,18.91759,20.055678125,18.75871C20.103278125,18.305889999999998,20.429078125,18.00401,20.881878125,17.964280000000002C21.549178124999997,17.90868,21.938478125,18.29794,21.938478125,19.0447C21.946378125000003,21.1023,21.946378125000003,23.1678,21.938478125,25.2253C21.938478125,25.5669,21.978178125,25.9085,22.057578125,26.2422C22.494578125,27.974,24.123078125,29.0147,25.680178125,28.8638C27.547078125,28.681,28.857878125,27.2352,28.857878125,25.4557C28.857878125,21.6345,28.857878125,17.821289999999998,28.857878125,14.000119999999999C28.857878125,13.690290000000001,28.881678125,13.39636,28.953178125,13.09448C29.199478125,12.06967,30.152778125,11.42619,31.272878125,11.513580000000001C32.250078125,11.59302,33.092178125000004,12.46688,33.171578124999996,13.483740000000001C33.243078125,14.49266,32.512178125,15.51747,31.542978125,15.71607C31.225278125,15.779620000000001,30.891578125,15.76374,30.557878125,15.755790000000001C30.279878125,15.755790000000001,30.136878125,15.85907,30.136878125,16.153C30.144778125,16.73293,30.144778125,17.31286,30.136878125,17.90073C30.136878125,18.15495,30.240178125,18.25822,30.494378125,18.266170000000002C31.487378125,18.31383,32.440678125000005,18.18673,33.306578125,17.66241C34.887478125,16.74881,35.689878125,15.342690000000001,35.673978125000005,13.539349999999999Z" fill="url(#master_svg1_665_2173)" fill-opacity="1"/></g></g></svg>