<svg xmlns="http://www.w3.org/2000/svg" xmlns:xlink="http://www.w3.org/1999/xlink" fill="none" version="1.1" width="42" height="42" viewBox="0 0 42 42"><g><g><path d="M28.170109375,16.567700000000002L30.628409375,14.1095C35.991809375,19.4729,35.991809375,28.0768,30.628409375,33.4774C25.376709375,38.8409,16.735609375,38.8409,11.372179375,33.4774C6.008749375,28.114,6.008749375,19.4729,11.372179375,14.10948L20.981709375,4.5L20.981709375,9.30475L20.087709375,10.19866L13.718679375,16.567700000000002C9.696109374999999,20.5158,9.696109374999999,26.9966,13.718679375,31.0192C17.666809375,35.041799999999995,24.147609375,35.041799999999995,28.170109375,31.0192C32.192709375,27.0711,32.192709375,20.5903,28.170109375,16.567700000000002ZM25.823709375,13.51358C26.811009375,13.51358,27.611509375,12.71315,27.611509375,11.72577C27.611509375,10.738389999999999,26.811009375,9.93796,25.823709375,9.93796C24.836309375,9.93796,24.035809375,10.738389999999999,24.035809375,11.72577C24.035809375,12.71315,24.836309375,13.51358,25.823709375,13.51358Z" fill-rule="evenodd" fill="#E6502C" fill-opacity="1" style="mix-blend-mode:passthrough"/></g></g></svg>