<svg xmlns="http://www.w3.org/2000/svg" xmlns:xlink="http://www.w3.org/1999/xlink" fill="none" version="1.1" width="42" height="42" viewBox="0 0 42 42"><defs><clipPath id="master_svg0_649_1607"><rect x="0" y="0" width="42" height="42" rx="0"/></clipPath><clipPath id="master_svg1_649_1607/694_3092"><rect x="4.5" y="8.5198974609375" width="33" height="24.971099853515625" rx="0"/></clipPath></defs><g clip-path="url(#master_svg0_649_1607)"><g clip-path="url(#master_svg1_649_1607/694_3092)"><g><path d="M26.5231,22.9129974609375C28.6908,22.9129974609375,31.8295,22.4620974609375,31.8295,19.8782974609375C31.8294,19.6805974609375,31.812,19.4832974609375,31.7775,19.2886974609375L30.4942,13.6701874609375C30.1994,12.438977460937501,29.9393,11.866717460937501,27.7717,10.7915774609375C26.0896,9.9245174609375,22.4306,8.5198974609375,21.3382,8.5198974609375C20.314999999999998,8.5198974609375,20.020200000000003,9.8204774609375,18.823700000000002,9.8204774609375C17.6618,9.8204774609375,16.8121,8.8493774609375,15.7197,8.8493774609375C14.6792,8.8493774609375,14.00289,9.5603574609375,13.48266,11.0170074609375Q12.02601,15.1268374609375,11.83526,15.7337674609375C11.80661,15.8411174609375,11.7949,15.9522874609375,11.80058,16.0632474609375C11.78324,17.658627460937502,18.078,22.895597460937502,26.5231,22.9129974609375ZM32.159,20.9360974609375C32.4538,22.3579974609375,32.4538,22.5140974609375,32.4538,22.6874974609375C32.4538,25.1152974609375,29.7312,26.4678974609375,26.1416,26.4678974609375C18.026,26.4678974609375,10.933530000000001,21.7163974609375,10.933530000000001,18.5776974609375C10.93273,18.1423874609375,11.02126,17.7115374609375,11.19364,17.3118074609375C8.28035,17.4505374609375,4.5,17.970767460937502,4.5,21.3001974609375C4.5,26.7626974609375,17.4364,33.4909974609375,27.6676,33.4909974609375C35.5231,33.4909974609375,37.5,29.9360974609375,37.5,27.1267974609375C37.5,24.9244974609375,35.5925,22.4273974609375,32.159,20.9360974609375Z" fill="#EE0000" fill-opacity="1"/></g><g><path d="M32.15850546875,20.93619671875C32.45330546875,22.35816671875,32.45330546875,22.51423671875,32.45330546875,22.68764671875C32.45330546875,25.115386718750003,29.73080546875,26.467986718749998,26.14120546875,26.467986718749998C18.025595468749998,26.467986718749998,10.93311076082,21.71654671875,10.93311076082,18.57781671875C10.93231364375,18.14250671875,11.02084456875,17.71165671875,11.19322646875,17.31191671875L11.83484546875,15.73388671875C11.80619146875,15.84123671875,11.79448946875,15.95240371875,11.800162468749999,16.06336671875C11.800162468749999,17.65874671875,18.09495546875,22.89573671875,26.52270546875,22.89573671875C28.69030546875,22.89573671875,31.82910546875,22.44486671875,31.82910546875,19.86105671875C31.82900546875,19.66337671875,31.81160546875,19.46609671875,31.77700546875,19.27145671875L32.15850546875,20.93619671875Z" fill="#000000" fill-opacity="1"/></g></g></g></svg>