<svg xmlns="http://www.w3.org/2000/svg" xmlns:xlink="http://www.w3.org/1999/xlink" fill="none" version="1.1" width="42" height="42" viewBox="0 0 42 42"><defs><clipPath id="master_svg0_694_3136"><rect x="0" y="0" width="42" height="42" rx="0"/></clipPath><clipPath id="master_svg1_694_3136/674_1580"><rect x="4.5" y="7.2900390625" width="33" height="27.408241271972656" rx="0"/></clipPath><linearGradient x1="0.5" y1="1" x2="0.5" y2="0" id="master_svg2_649_1596"><stop offset="0%" stop-color="#A381FF" stop-opacity="1"/><stop offset="100%" stop-color="#9D38FF" stop-opacity="1"/></linearGradient></defs><g clip-path="url(#master_svg0_694_3136)"><g clip-path="url(#master_svg1_694_3136/674_1580)"><g><path d="M22.8725,9.4025490625L22.8725,15.131939062499999C21.016,13.7556090625,17.9753,12.6993490625,14.9985,12.6993490625C12.341899999999999,12.6993490625,10.86955,13.6915890625,10.86955,15.2599690625C10.86955,16.9243790625,12.56596,17.5965390625,15.7667,18.4287390625C19.959699999999998,19.5170390625,24.5049,20.957339062499997,24.5049,26.3666390625C24.5049,31.3918390625,20.5679,34.6886390625,13.81426,34.6886390625C10.16537,34.6886390625,6.932589999999999,33.696439062500005,4.5960243,32.032039062500004L4.5960243,25.8225390625C6.74054,27.7109390625,9.71727,29.2473390625,13.52619,29.2473390625C16.4709,29.2473390625,18.1353,28.1591390625,18.1353,26.4306390625C18.1353,24.5742390625,16.0868,23.9660390625,12.56596,22.909839062499998C8.34093,21.725539062499998,4.5,20.0931390625,4.5,15.4200090625C4.5,10.7468790625,8.34093,7.2900390625,14.7425,7.2900390625C17.8152,7.2900390625,20.952,8.1222410625,22.8725,9.4025490625Z" fill="url(#master_svg2_649_1596)" fill-opacity="1"/></g><g><path d="M29.81787109375,30.46348859375C29.81787109375,28.28695859375,31.48227109375,26.62255859375,33.65880109375,26.62255859375C35.83533109375,26.62255859375,37.49973109375,28.28695859375,37.49973109375,30.46348859375C37.49973109375,32.64001859375,35.80332109375,34.30441859375,33.65880109375,34.30441859375C31.48227109375,34.33642859375,29.81787109375,32.60800859375,29.81787109375,30.46348859375Z" fill="#E80000" fill-opacity="1"/></g></g></g></svg>