<svg xmlns="http://www.w3.org/2000/svg" xmlns:xlink="http://www.w3.org/1999/xlink" fill="none" version="1.1" width="42" height="42" viewBox="0 0 42 42"><defs><clipPath id="master_svg0_649_1650"><rect x="0" y="0" width="42" height="42" rx="0"/></clipPath><clipPath id="master_svg1_649_1650/694_3057"><rect x="4.5" y="4.5" width="32.99999237060547" height="33" rx="0"/></clipPath></defs><g clip-path="url(#master_svg0_649_1650)"><g clip-path="url(#master_svg1_649_1650/694_3057)"><g><path d="M37.5,21Q37.5,21.4051,37.4801,21.8096Q37.4603,22.2142,37.4206,22.6173Q37.3809,23.0204,37.3214,23.4211Q37.262,23.8217,37.183,24.219Q37.1039,24.6163,37.0055,25.0092Q36.9071,25.4021,36.7895,25.7897Q36.6719,26.1773,36.5355,26.5587Q36.399,26.9401,36.244,27.3143Q36.089,27.6885,35.915800000000004,28.0547Q35.742599999999996,28.4208,35.5517,28.778Q35.3608,29.1353,35.1525,29.4827Q34.9443,29.8301,34.719300000000004,30.1669Q34.4942,30.5037,34.2529,30.829Q34.0116,31.1544,33.7547,31.4675Q33.497699999999995,31.7806,33.2257,32.0807Q32.9537,32.3808,32.6673,32.6673Q32.3809,32.9537,32.0807,33.2257Q31.7806,33.497699999999995,31.4675,33.7547Q31.1544,34.0116,30.829,34.2529Q30.5037,34.4942,30.1669,34.7192Q29.8301,34.9443,29.4827,35.1525Q29.1353,35.3608,28.7781,35.5517Q28.4208,35.742599999999996,28.0547,35.915800000000004Q27.6885,36.089,27.3143,36.244Q26.9401,36.399,26.5587,36.5355Q26.1773,36.6719,25.7897,36.7895Q25.4021,36.9071,25.0092,37.0055Q24.6163,37.1039,24.219,37.183Q23.8217,37.262,23.4211,37.3214Q23.0204,37.3808,22.6173,37.4205Q22.2142,37.4603,21.8096,37.4801Q21.4051,37.5,21,37.5Q20.595,37.5,20.1904,37.4801Q19.785800000000002,37.4603,19.3827,37.4205Q18.979599999999998,37.3808,18.579,37.3214Q18.1783,37.262,17.781,37.183Q17.383699999999997,37.1039,16.9908,37.0055Q16.5979,36.9071,16.2103,36.7895Q15.8227,36.6719,15.4413,36.5355Q15.0599,36.399,14.6857,36.244Q14.31151,36.089,13.94534,35.915800000000004Q13.57918,35.742599999999996,13.22196,35.5517Q12.86473,35.3608,12.51731,35.1525Q12.16988,34.9443,11.83309,34.7192Q11.4963,34.4942,11.170960000000001,34.2529Q10.84562,34.0116,10.53251,33.7547Q10.2194,33.497699999999995,9.91928,33.2257Q9.619150000000001,32.9537,9.332740000000001,32.6673Q9.04632,32.3808,8.77431,32.0807Q8.50229,31.7806,8.24533,31.4675Q7.98837,31.1544,7.74708,30.829Q7.50579,30.5037,7.280749999999999,30.1669Q7.05572,29.8301,6.84748,29.4827Q6.63924,29.1353,6.4483,28.778Q6.25736,28.4208,6.08418,28.0547Q5.91099,27.6885,5.75599,27.3143Q5.60098,26.9401,5.464523,26.5587Q5.3280650000000005,26.1773,5.210485,25.7897Q5.092904,25.4021,4.994484,25.0092Q4.896065,24.6163,4.817043,24.219Q4.738021,23.8217,4.678588,23.4211Q4.619154,23.0204,4.579452,22.6173Q4.53975,22.2142,4.519875,21.8096Q4.5,21.4051,4.5,21Q4.5,20.5949,4.519875,20.1904Q4.53975,19.785800000000002,4.579452,19.3827Q4.619154,18.979599999999998,4.678588,18.5789Q4.738021,18.1783,4.817043,17.781Q4.896065,17.383699999999997,4.994484,16.9908Q5.092904,16.5979,5.210485,16.2103Q5.3280650000000005,15.8227,5.464523,15.4413Q5.60098,15.0599,5.75599,14.6857Q5.91099,14.3115,6.08418,13.94534Q6.25736,13.57918,6.4483,13.22195Q6.63924,12.86473,6.84748,12.5173Q7.05572,12.16988,7.280749999999999,11.83309Q7.50579,11.4963,7.74708,11.170960000000001Q7.98837,10.84562,8.24533,10.53251Q8.50229,10.2194,8.77431,9.91928Q9.04632,9.619150000000001,9.332740000000001,9.332740000000001Q9.619150000000001,9.04632,9.91928,8.77431Q10.2194,8.50229,10.53251,8.24533Q10.84562,7.98836,11.170960000000001,7.74708Q11.4963,7.50579,11.83309,7.280749999999999Q12.16988,7.05572,12.51731,6.84748Q12.86473,6.63924,13.22196,6.4483Q13.57918,6.25736,13.94534,6.08418Q14.31151,5.91099,14.6857,5.75599Q15.0599,5.60098,15.4413,5.464523Q15.8227,5.3280650000000005,16.2103,5.210484Q16.5979,5.092904,16.9908,4.994484Q17.383699999999997,4.896065,17.781,4.817043Q18.1783,4.738021,18.579,4.678588Q18.979599999999998,4.619154,19.3827,4.579452Q19.785800000000002,4.5397499,20.1904,4.519875Q20.595,4.5,21,4.5Q21.4051,4.5,21.8096,4.519875Q22.2142,4.5397499,22.6173,4.579452Q23.0204,4.619154,23.4211,4.678588Q23.8217,4.738021,24.219,4.817043Q24.6163,4.896065,25.0092,4.994484Q25.4021,5.092904,25.7897,5.210484Q26.1773,5.3280650000000005,26.5587,5.464523Q26.9401,5.60098,27.3143,5.75599Q27.6885,5.91099,28.0547,6.08418Q28.4208,6.25736,28.7781,6.4483Q29.1353,6.63924,29.4827,6.84748Q29.8301,7.05572,30.1669,7.280749999999999Q30.5037,7.50579,30.829,7.74708Q31.1544,7.98836,31.4675,8.24533Q31.7806,8.50229,32.0807,8.77431Q32.3809,9.04632,32.6673,9.332740000000001Q32.9537,9.619150000000001,33.2257,9.91928Q33.497699999999995,10.2194,33.7547,10.53251Q34.0116,10.84562,34.2529,11.170960000000001Q34.4942,11.4963,34.719300000000004,11.83309Q34.9443,12.16988,35.1525,12.5173Q35.3608,12.86473,35.5517,13.22195Q35.7427,13.57918,35.915800000000004,13.94534Q36.089,14.3115,36.244,14.6857Q36.399,15.0599,36.5355,15.4413Q36.6719,15.8227,36.7895,16.2103Q36.9071,16.5979,37.0055,16.9908Q37.1039,17.383699999999997,37.183,17.781Q37.262,18.1783,37.3214,18.5789Q37.3809,18.979599999999998,37.4206,19.3827Q37.4603,19.785800000000002,37.4801,20.1904Q37.5,20.5949,37.5,21Z" fill="#DD4814" fill-opacity="1"/></g><g><path d="M10.68160515625,19.053075742187502C9.56213415625,19.053075742187502,8.68603515625,19.9291857421875,8.68603515625,21.0486857421875C8.68603515625,22.1194857421875,9.56213415625,23.0441857421875,10.68160515625,23.0441857421875C11.80108515625,23.0441857421875,12.67717515625,22.1680857421875,12.67717515625,21.0486857421875C12.67717515625,19.9291857421875,11.80108515625,19.053075742187502,10.68160515625,19.053075742187502ZM24.84533515625,28.0574857421875C23.87183515625,28.5928857421875,23.57983515625,29.8096857421875,24.11523515625,30.7831857421875C24.65063515625,31.7565857421875,25.86743515625,32.0486857421875,26.84093515625,31.5132857421875C27.81433515625,30.9778857421875,28.10633515625,29.7610857421875,27.57093515625,28.7875857421875C27.03553515625,27.8141857421875,25.81873515625,27.5220857421875,24.84533515625,28.0574857421875ZM15.01344515625,20.999985742187498C15.01344515625,19.053075742187502,15.98690515625,17.3008657421875,17.49575515625,16.2787457421875L16.03558515625,13.8451157421875C14.28336515625,15.0132557421875,13.01787515625,16.7654657421875,12.48247515625,18.8583857421875C13.115215156249999,19.345115742187502,13.504605156250001,20.1238757421875,13.504605156250001,20.999985742187498C13.504605156250001,21.8760857421875,13.115215156249999,22.6548857421875,12.48247515625,23.1415857421875C13.01787515625,25.234485742187502,14.33203515625,26.9866857421875,16.03558515625,28.1548857421875L17.49575515625,25.7211857421875C15.98690515625,24.6990857421875,15.01344515625,22.9955857421875,15.01344515625,20.999985742187498ZM20.805535156250002,15.207945742187501C23.82323515625,15.207945742187501,26.30553515625,17.5442257421875,26.59753515625,20.5132857421875L29.42053515625,20.464585742187502C29.27453515625,18.2743157421875,28.34973515625,16.3274157421875,26.84093515625,14.8672357421875C26.11083515625,15.1592757421875,25.23463515625,15.1106057421875,24.45593515625,14.6725457421875C23.72583515625,14.2344957421875,23.23913515625,13.504405742187501,23.09313515625,12.725645742187499C22.36303515625,12.5309557421875,21.58423515625,12.433605742187499,20.80543515625,12.433605742187499C19.44263515625,12.433605742187499,18.12849515625,12.7743157421875,17.00902515625,13.3097157421875L18.37184515625,15.7920157421875C19.10193515625,15.402635742187499,19.929335156249998,15.207945742187501,20.805535156250002,15.207945742187501ZM20.805535156250002,26.7919857421875C19.92943515625,26.7919857421875,19.10193515625,26.5972857421875,18.37186515625,26.2565857421875L17.00903515625,28.7388857421875C18.177185156249998,29.3229857421875,19.44263515625,29.6149857421875,20.805535156250002,29.6149857421875C21.58423515625,29.6149857421875,22.36303515625,29.5176857421875,23.09313515625,29.3229857421875C23.23913515625,28.5441857421875,23.67723515625,27.8141857421875,24.45593515625,27.3760857421875C25.18603515625,26.9379857421875,26.06213515625,26.8893857421875,26.84093515625,27.1813857421875C28.30103515625,25.7211857421875,29.27453515625,23.7742857421875,29.42053515625,21.5840857421875L26.59753515625,21.5353857421875C26.30553515625,24.5043857421875,23.82323515625,26.7919857421875,20.805535156250002,26.7919857421875ZM24.84533515625,13.991135742187499C25.81873515625,14.5265357421875,26.98693515625,14.2344957421875,27.57093515625,13.2610457421875C28.10633515625,12.3362657421875,27.81433515625,11.1194507421875,26.84093515625,10.5353807421875C25.86743515625,9.9999827421875,24.69933515625,10.2920179421875,24.11523515625,11.2654687421875C23.57983515625,12.2389157421875,23.92053515625,13.4557357421875,24.84533515625,13.991135742187499Z" fill="#FFFFFF" fill-opacity="1"/></g></g></g></svg>