<svg xmlns="http://www.w3.org/2000/svg" xmlns:xlink="http://www.w3.org/1999/xlink" fill="none" version="1.1" width="42" height="42" viewBox="0 0 42 42"><defs><clipPath id="master_svg0_702_7227"><rect x="0" y="0" width="42" height="42" rx="0"/></clipPath><clipPath id="master_svg1_702_7227/676_1361"><rect x="4.5" y="4.5" width="33" height="33" rx="0"/></clipPath></defs><g clip-path="url(#master_svg0_702_7227)"><g clip-path="url(#master_svg1_702_7227/676_1361)"><g><path d="M30.8039,23.3774C30.0603,26.422,28.0037,28.8766,25.2831,30.1467L25.2213,30.1726L23.6002,28.3508L20.8667,31.1007C17.6022,31.0554,14.718,29.4667,12.90528,27.0328L12.8862,27.0059C13.14808,27.0911,13.45242,27.1512,13.76707,27.1743L13.77997,27.1751C13.81762,27.1813,13.86101,27.1847,13.90527,27.1847C14.35461,27.1847,14.7188,26.8205,14.7188,26.3712C14.7188,26.3346,14.7164,26.2986,14.7118,26.2634L14.7122,26.2675L14.7122,18.8509C14.7126,18.8388,14.7129,18.8247,14.7129,18.8106C14.7129,18.134700000000002,14.16494,17.5868,13.48911,17.5868C13.37839,17.5868,13.2711,17.6015,13.16909,17.6291L13.17768,17.6271Q11.912659999999999,17.918599999999998,10.900649999999999,21.077C10.9003,21.0481,10.90016,21.0141,10.90016,20.98C10.90016,17.9498,12.2421,15.233,14.3642,13.39166L14.37658,13.3811C15.7726,12.168099999999999,17.5205,11.32488,19.4478,11.02216L19.5054,11.01466C18.3136,11.61908,17.4809,12.78067,17.3478,14.1473L17.346600000000002,14.16339C17.346600000000002,15.8987,18.3915,15.6883,18.6995,15.4325L18.6995,25.4425C18.7564,25.577,18.8247,25.6929,18.905900000000003,25.7984L18.903100000000002,25.7946C19.174799999999998,26.1672,19.6098,26.4065,20.1007,26.4065C20.1051,26.4065,20.1094,26.4065,20.113799999999998,26.4064L20.1131,26.4064C21.0485,26.2281,21.8649,25.8061,22.5191,25.2095L22.5152,25.2129L22.5152,17.1114C22.459,16.2085,21.9826,15.4277,21.2809,14.9562L21.2709,14.9499C21.3957,14.9306,21.5396,14.9196,21.6862,14.9196C22.2938,14.9196,22.8572,15.1089,23.3207,15.4318L23.3113,15.4256C23.4857,15.2136,23.6597,15.0231,23.8428,14.8419L23.8434,14.8413C25.3193,13.33355,27.2635,12.28955,29.4404,11.94467L29.4974,11.937280000000001C27.8655,13.2513,26.7666,15.1701,26.5426,17.3482L26.5398,17.382199999999997Q26.5398,19.7018,26.5989,25.3586C27.6975,26.4187,29.3296,24.8884,30.805,23.3772L30.8039,23.3774ZM21.0001,36.84C12.25187,36.84,5.159983,29.7482,5.159983,20.9999C5.159983,12.251660000000001,12.2518,5.159915,21.0001,5.159915C29.7483,5.159915,36.8401,12.25173,36.8401,21C36.8401,25.3741,35.067099999999996,29.3341,32.2006,32.2006L32.2007,32.2006C29.3342,35.067099999999996,25.3743,36.84,21.0002,36.84L21.0001,36.84ZM21.0001,4.5C11.88728,4.5,4.5,11.887319999999999,4.5,21C4.5,30.1127,11.88739,37.5,21.0001,37.5C30.1128,37.5,37.5,30.1127,37.5,21C37.5,16.4437,35.6532,12.31864,32.6673,9.33273C29.6814,6.34681,25.5564,4.5,21.0001,4.5Z" fill="#FFFFFF" fill-opacity="1"/></g></g></g></svg>