<svg width="80" height="80" viewBox="0 0 80 80" fill="none" xmlns="http://www.w3.org/2000/svg">
<g id="Group">
<g id="Clip path group">
<mask id="mask0_7_846" style="mask-type:luminance" maskUnits="userSpaceOnUse" x="0" y="0" width="80" height="80">
<g id="master_svg1_702_7227/676_1361">
<path id="Vector" d="M80 0H0V80H80V0Z" fill="white"/>
</g>
</mask>
<g mask="url(#mask0_7_846)">
<g id="Group_2">
<g id="Group_3">
<path id="Vector_2" d="M63.767 45.7634C61.9644 53.1442 56.9787 59.0948 50.3833 62.1738L50.2335 62.2366L46.3035 57.8201L39.6768 64.4865C31.7629 64.3767 24.7709 60.5253 20.3764 54.625L20.3302 54.5598C20.965 54.7663 21.7028 54.912 22.4656 54.968L22.4969 54.9699C22.5882 54.985 22.6934 54.9932 22.8007 54.9932C23.89 54.9932 24.7728 54.1103 24.7728 53.0211C24.7728 52.9324 24.767 52.8451 24.7559 52.7598L24.7568 52.7697V34.7901C24.7578 34.7607 24.7585 34.7265 24.7585 34.6924C24.7585 33.0538 23.4302 31.7256 21.7918 31.7256C21.5234 31.7256 21.2633 31.7612 21.016 31.8281L21.0368 31.8233C18.9923 32.2944 17.1523 35.0822 15.5167 40.1867C15.5159 40.1166 15.5155 40.0342 15.5155 39.9515C15.5155 32.6056 18.7687 26.0194 23.9132 21.5555L23.9432 21.5299C27.3275 18.5893 31.5648 16.5452 36.2371 15.8113L36.3767 15.7931C33.4875 17.2584 31.4688 20.0744 31.1462 23.3874L31.1433 23.4264C31.1433 27.6332 33.6764 27.1232 34.423 26.503V50.7697C34.561 51.0958 34.7265 51.3767 34.9234 51.6325L34.9166 51.6233C35.5753 52.5265 36.6298 53.1067 37.8199 53.1067C37.8305 53.1067 37.841 53.1067 37.8516 53.1064C40.1193 52.6742 42.0967 51.6511 43.6827 50.2048L43.6732 50.2131V30.5731C43.537 28.3842 42.3821 26.4914 40.681 25.3484L40.6567 25.3331C40.9593 25.2863 41.3081 25.2596 41.6635 25.2596C43.1365 25.2596 44.5023 25.7185 45.6259 26.5013L45.6032 26.4863C46.0259 25.9724 46.4478 25.5105 46.8916 25.0713C50.4696 21.4161 55.1842 18.8838 60.4616 18.0477L60.5998 18.0298C56.6436 21.2153 53.9796 25.8669 53.4366 31.1472L53.4298 31.2296C53.4298 34.9784 53.4776 41.424 53.5731 50.5663C56.2364 53.1362 60.193 49.4264 63.7697 45.7629L63.767 45.7634ZM40.0002 78.4C18.7924 78.4 1.59996 61.2078 1.59996 39.9998C1.59996 18.7919 18.7922 1.59979 40.0002 1.59979C61.208 1.59979 78.4002 18.7921 78.4002 40C78.4002 50.6039 74.1021 60.2039 67.153 67.153C60.2039 74.1021 50.6041 78.4 40.0002 78.4ZM40.0002 0C17.9086 0 0 17.9087 0 40C0 62.0914 17.9088 80 40.0002 80C62.0916 80 80 62.0914 80 40C80 28.9544 75.5229 18.9543 68.2844 11.7157C61.0458 4.47712 51.0458 0 40.0002 0Z" fill="#404040"/>
</g>
</g>
</g>
</g>
</g>
</svg>
