<svg width="659" height="200" viewBox="0 0 659 200" fill="none" xmlns="http://www.w3.org/2000/svg">
<rect x="123.347" y="73.2461" width="84.74" height="65.6116" rx="32.8058" fill="#F58E08"/>
<path fill-rule="evenodd" clip-rule="evenodd" d="M113.387 79.8375C97.1479 79.8906 84 93.0713 84 109.323C84 125.574 97.1479 138.755 113.387 138.808V138.858H164.033C168.658 138.858 172.408 135.108 172.408 130.483V79.8373H172.406C172.406 79.8286 172.406 79.8198 172.406 79.8111C172.406 63.513 159.205 50.3008 142.921 50.3008C126.636 50.3008 113.435 63.513 113.435 79.8111L113.435 79.8373H113.387V79.8375Z" fill="url(#paint0_linear_2184_1992)"/>
<path d="M140.863 113.731L134.065 119.787C133.932 119.905 133.866 120.084 133.884 120.261C135.057 131.838 125.855 137.337 121.365 138.856C140.48 134.504 142.884 121.175 141.732 114.023C141.665 113.612 141.175 113.454 140.863 113.731Z" fill="#FFE0C1"/>
<path d="M162.293 94.6695L146.87 108.415C146.754 108.519 146.688 108.671 146.687 108.827C146.559 130.244 129.879 137.032 121.39 138.856C157.515 134.893 164.047 108.205 163.179 95.0183C163.15 94.5742 162.626 94.3734 162.293 94.6695Z" fill="#FFF8F1"/>
<path fill-rule="evenodd" clip-rule="evenodd" d="M442.521 81.2793C442.521 82.3644 441.641 83.2441 440.556 83.2441H415.21C414.125 83.2441 413.245 82.3644 413.245 81.2793V81.2793C413.245 80.1941 414.125 79.3145 415.21 79.3145H440.556C441.641 79.3145 442.521 80.1941 442.521 81.2793V81.2793Z" fill="white"/>
<path fill-rule="evenodd" clip-rule="evenodd" d="M548.72 64.4218C548.72 65.5835 547.778 66.5252 546.617 66.5252H504.801C503.639 66.5252 502.697 65.5835 502.697 64.4218V64.4218C502.697 63.2601 503.639 62.3184 504.801 62.3184H546.617C547.778 62.3184 548.72 63.2601 548.72 64.4218V64.4218Z" fill="white"/>
<path fill-rule="evenodd" clip-rule="evenodd" d="M554.526 90.0819C554.526 91.2436 553.585 92.1854 552.423 92.1854H498.912C497.75 92.1854 496.809 91.2436 496.809 90.0819V90.0819C496.809 88.9202 497.75 87.9785 498.912 87.9785H552.423C553.585 87.9785 554.526 88.9202 554.526 90.0819V90.0819Z" fill="white"/>
<path fill-rule="evenodd" clip-rule="evenodd" d="M345.259 82.8026C344.716 83.7424 343.515 84.0644 342.575 83.5218L332.376 77.6336C331.437 77.091 331.115 75.8894 331.657 74.9496V74.9496C332.2 74.0099 333.401 73.6879 334.341 74.2305L344.54 80.1186C345.48 80.6612 345.802 81.8629 345.259 82.8026V82.8026Z" fill="white"/>
<path fill-rule="evenodd" clip-rule="evenodd" d="M376.546 82.8026C376.004 83.7424 374.802 84.0644 373.862 83.5218L363.664 77.6336C362.724 77.091 362.402 75.8894 362.944 74.9496V74.9496C363.487 74.0099 364.689 73.6879 365.628 74.2305L375.827 80.1186C376.767 80.6612 377.089 81.8629 376.546 82.8026V82.8026Z" fill="white"/>
<path fill-rule="evenodd" clip-rule="evenodd" d="M352.438 96.0049C353.055 96.8979 352.831 98.1216 351.938 98.7381L332.658 112.049C331.765 112.666 330.541 112.442 329.925 111.549V111.549C329.308 110.656 329.532 109.432 330.425 108.815L349.705 95.5043C350.598 94.8878 351.822 95.1119 352.438 96.0049V96.0049Z" fill="white"/>
<path fill-rule="evenodd" clip-rule="evenodd" d="M383.725 96.0049C384.342 96.8979 384.118 98.1216 383.225 98.7381L363.945 112.049C363.052 112.666 361.829 112.442 361.212 111.549V111.549C360.595 110.656 360.82 109.432 361.713 108.815L380.992 95.5043C381.885 94.8878 383.109 95.1119 383.725 96.0049V96.0049Z" fill="white"/>
<path fill-rule="evenodd" clip-rule="evenodd" d="M459.537 116.293C459.537 117.378 458.657 118.258 457.572 118.258L428.571 118.258C427.486 118.258 426.606 117.378 426.606 116.293V116.293C426.606 115.208 427.486 114.328 428.571 114.328L457.572 114.328C458.657 114.328 459.537 115.208 459.537 116.293V116.293Z" fill="white"/>
<path fill-rule="evenodd" clip-rule="evenodd" d="M295.732 72.6718C295.732 73.757 294.852 74.6367 293.767 74.6367H260.68C259.595 74.6367 258.715 73.757 258.715 72.6718V72.6718C258.715 71.5867 259.595 70.707 260.68 70.707H293.767C294.852 70.707 295.732 71.5867 295.732 72.6718V72.6718Z" fill="white"/>
<path fill-rule="evenodd" clip-rule="evenodd" d="M297.461 101.359C297.461 102.444 296.581 103.324 295.496 103.324H265.316C264.231 103.324 263.352 102.444 263.352 101.359V101.359C263.352 100.274 264.231 99.3945 265.316 99.3945H295.496C296.581 99.3945 297.461 100.274 297.461 101.359V101.359Z" fill="white"/>
<path fill-rule="evenodd" clip-rule="evenodd" d="M303.512 110.793C303.512 111.878 302.632 112.758 301.547 112.758H258.714C257.629 112.758 256.749 111.878 256.749 110.793V110.793C256.749 109.708 257.629 108.828 258.714 108.828H301.547C302.632 108.828 303.512 109.708 303.512 110.793V110.793Z" fill="white"/>
<path fill-rule="evenodd" clip-rule="evenodd" d="M425.477 84.2539C427.359 79.1607 427.95 73.8025 427.908 69.8663C427.897 68.7812 428.706 67.8399 429.788 67.7606V67.7606C430.871 67.6814 431.816 68.4934 431.834 69.5784C431.908 73.9515 431.273 79.9057 429.163 85.6162C426.901 91.735 422.87 97.7505 416.033 101.069C415.057 101.543 413.913 101.034 413.52 100.023V100.023C413.127 99.0113 413.635 97.8819 414.603 97.3918C420.085 94.6159 423.475 89.67 425.477 84.2539Z" fill="white"/>
<path fill-rule="evenodd" clip-rule="evenodd" d="M417.921 63.7541C417.921 64.4285 418.2 64.8379 418.627 65.1594C418.95 65.4028 419.337 65.57 419.676 65.6695C419.928 65.7434 420.192 65.7582 420.454 65.7582H440.084C441.169 65.7582 442.049 66.6379 442.049 67.723V67.723C442.049 68.8081 441.169 69.6878 440.084 69.6878H419.925C419.847 69.6878 419.77 69.6832 419.693 69.6741C418.763 69.5636 417.422 69.172 416.262 68.2982C415.035 67.374 413.991 65.8776 413.991 63.7541V61.75C413.991 60.6648 414.871 59.7852 415.956 59.7852V59.7852C417.041 59.7852 417.921 60.6648 417.921 61.75V63.7541Z" fill="white"/>
<path fill-rule="evenodd" clip-rule="evenodd" d="M429.201 81.0036C430.061 80.3425 431.295 80.5042 431.956 81.3648L440.761 92.8274C441.422 93.6879 441.261 94.9214 440.4 95.5825V95.5825C439.54 96.2436 438.306 96.0819 437.645 95.2213L428.84 83.7587C428.178 82.8981 428.34 81.6647 429.201 81.0036V81.0036Z" fill="white"/>
<path fill-rule="evenodd" clip-rule="evenodd" d="M446.962 71.1021C446.962 68.1505 449.355 65.7578 452.306 65.7578H464.331C467.282 65.7578 469.675 68.1505 469.675 71.1021V89.1784C469.675 92.1299 467.282 94.5227 464.331 94.5227H452.306C449.355 94.5227 446.962 92.1299 446.962 89.1784V71.1021ZM452.306 69.6874C451.525 69.6874 450.892 70.3208 450.892 71.1021V89.1784C450.892 89.9597 451.525 90.593 452.306 90.593H464.331C465.112 90.593 465.746 89.9597 465.746 89.1784V71.1021C465.746 70.3208 465.112 69.6874 464.331 69.6874H452.306Z" fill="white"/>
<path fill-rule="evenodd" clip-rule="evenodd" d="M424.877 105.997C424.877 103.045 427.27 100.652 430.221 100.652H456.157C459.108 100.652 461.501 103.045 461.501 105.997V126.588C461.501 129.539 459.108 131.932 456.157 131.932H430.221C427.27 131.932 424.877 129.539 424.877 126.588V105.997ZM430.221 104.582C429.44 104.582 428.807 105.215 428.807 105.997V126.588C428.807 127.369 429.44 128.003 430.221 128.003H456.157C456.938 128.003 457.571 127.369 457.571 126.588V105.997C457.571 105.215 456.938 104.582 456.157 104.582H430.221Z" fill="white"/>
<path fill-rule="evenodd" clip-rule="evenodd" d="M510.27 89.7041C511.425 89.8243 512.264 90.8585 512.144 92.0139L508.907 123.118C508.814 124.011 509.515 124.789 510.413 124.789H542.915C544.076 124.789 545.018 125.731 545.018 126.893V126.893C545.018 128.054 544.076 128.996 542.915 128.996H510.413C507.019 128.996 504.371 126.058 504.723 122.682L507.96 91.5784C508.08 90.423 509.114 89.5838 510.27 89.7041V89.7041Z" fill="white"/>
<path fill-rule="evenodd" clip-rule="evenodd" d="M256.749 65.3658C256.749 62.4142 259.142 60.0215 262.093 60.0215H292.823C295.775 60.0215 298.167 62.4142 298.167 65.3658V79.984C298.167 82.9356 295.775 85.3283 292.823 85.3283H262.093C259.142 85.3283 256.749 82.9356 256.749 79.984V65.3658ZM262.093 63.9511C261.312 63.9511 260.679 64.5845 260.679 65.3658V79.984C260.679 80.7653 261.312 81.3986 262.093 81.3986H292.823C293.604 81.3986 294.238 80.7653 294.238 79.984V65.3658C294.238 64.5845 293.604 63.9511 292.823 63.9511H262.093Z" fill="white"/>
<path fill-rule="evenodd" clip-rule="evenodd" d="M264.059 110.789C265.144 110.789 266.023 111.669 266.023 112.754V126.193C266.023 126.974 266.657 127.608 267.438 127.608H276.908C277.994 127.608 278.873 128.488 278.873 129.573V129.573C278.873 130.658 277.994 131.537 276.908 131.537H267.438C264.486 131.537 262.094 129.145 262.094 126.193V112.754C262.094 111.669 262.973 110.789 264.059 110.789V110.789Z" fill="white"/>
<path fill-rule="evenodd" clip-rule="evenodd" d="M254 95.4654C254 92.5138 256.393 90.1211 259.344 90.1211H299.584C300.669 90.1211 301.548 91.0008 301.548 92.0859V92.0859C301.548 93.171 300.669 94.0507 299.584 94.0507H259.344C258.563 94.0507 257.93 94.6841 257.93 95.4654V129.575C257.93 130.66 257.05 131.539 255.965 131.539V131.539C254.88 131.539 254 130.66 254 129.575V95.4654Z" fill="white"/>
<path fill-rule="evenodd" clip-rule="evenodd" d="M348.922 63.9511H333.795C332.71 63.9511 331.83 63.0714 331.83 61.9863V61.9863C331.83 60.9012 332.71 60.0215 333.795 60.0215H348.922C351.973 60.0215 354.446 62.4946 354.446 65.5454V126.381C354.446 129.432 351.973 131.905 348.922 131.905H342.651C341.566 131.905 340.686 131.026 340.686 129.94V129.94C340.686 128.855 341.566 127.976 342.651 127.976H348.922C349.803 127.976 350.516 127.262 350.516 126.381V65.5454C350.516 64.6649 349.803 63.9511 348.922 63.9511Z" fill="white"/>
<path fill-rule="evenodd" clip-rule="evenodd" d="M380.207 63.9511H365.08C363.995 63.9511 363.115 63.0714 363.115 61.9863V61.9863C363.115 60.9012 363.995 60.0215 365.08 60.0215H380.207C383.258 60.0215 385.731 62.4946 385.731 65.5454V126.381C385.731 129.432 383.258 131.905 380.207 131.905H373.936C372.851 131.905 371.972 131.026 371.972 129.94V129.94C371.972 128.855 372.851 127.976 373.936 127.976H380.207C381.088 127.976 381.802 127.262 381.802 126.381V65.5454C381.802 64.6649 381.088 63.9511 380.207 63.9511Z" fill="white"/>
<path fill-rule="evenodd" clip-rule="evenodd" d="M282.912 124.518C278.791 120.534 276.108 115.824 274.681 112.111C274.292 111.098 274.887 110.002 275.926 109.691V109.691C276.966 109.379 278.057 109.971 278.458 110.979C279.726 114.169 282.077 118.246 285.643 121.693C289.549 125.468 294.881 128.466 301.886 128.774C302.97 128.821 303.875 129.669 303.905 130.753V130.753C303.935 131.838 303.078 132.748 301.993 132.711C293.75 132.425 287.445 128.9 282.912 124.518Z" fill="white"/>
<path fill-rule="evenodd" clip-rule="evenodd" d="M297.463 126.488C295.903 127.826 294.127 128.772 292.573 129.376C291.562 129.77 290.492 129.123 290.23 128.07V128.07C289.969 127.016 290.616 125.954 291.612 125.524C292.689 125.059 293.873 124.39 294.904 123.505C296.079 122.498 296.994 121.273 297.396 119.785C297.678 118.737 298.493 117.81 299.578 117.774V117.774C300.662 117.738 301.592 118.596 301.43 119.669C300.986 122.616 299.341 124.877 297.463 126.488Z" fill="white"/>
<path fill-rule="evenodd" clip-rule="evenodd" d="M542.277 102.201C541.124 102.349 540.31 103.402 540.458 104.555L543.793 130.587C543.941 131.739 544.995 132.554 546.147 132.406V132.406C547.299 132.258 548.114 131.205 547.966 130.052L544.63 104.02C544.483 102.868 543.429 102.053 542.277 102.201V102.201Z" fill="white"/>
<defs>
<linearGradient id="paint0_linear_2184_1992" x1="183.632" y1="151.321" x2="102.31" y2="70.0002" gradientUnits="userSpaceOnUse">
<stop stop-color="#FFB36D"/>
<stop offset="0.922573" stop-color="#F99D15"/>
</linearGradient>
</defs>
</svg>
