<svg xmlns="http://www.w3.org/2000/svg" xmlns:xlink="http://www.w3.org/1999/xlink" fill="none" version="1.1" width="20" height="20" viewBox="0 0 20 20"><defs><clipPath id="master_svg0_698_9229"><rect x="0" y="0" width="20" height="20" rx="0"/></clipPath></defs><g clip-path="url(#master_svg0_698_9229)"><g><path d="M12.18122,4L15.4538,4C15.6046,4,15.7331,4.0533597,15.8394,4.161599C15.9463,4.266638,15.9997,4.394957,15.9997,4.546636L15.9997,7.81837C15.9997,7.9700500000000005,15.9463,8.09837,15.8395,8.20509C15.7331,8.31173,15.6046,8.36509,15.4538,8.36509C15.3031,8.36509,15.1746,8.31173,15.0682,8.20509C14.9613,8.09837,14.9082,7.9700500000000005,14.9082,7.81837L14.9082,5.8633500000000005L10.38228,10.38828C10.27748,10.49332,10.14964,10.54668,9.99876,10.54668C9.84244,10.54668,9.7126,10.49492,9.60876,10.391639999999999C9.50492,10.2866,9.4534,10.156600000000001,9.4534,10.00164C9.4534,9.84996,9.50564,9.72324,9.610759999999999,9.6166L14.1367,5.09167L12.18075,5.09167C12.03003,5.09167,11.901869999999999,5.03831,11.794830000000001,4.931674C11.68867,4.824955,11.63499,4.696636,11.63499,4.5466370000000005C11.63499,4.394958,11.68867,4.266638,11.794830000000001,4.159999C11.901869999999999,4.05336,12.03003,4.000000316047,12.18067,4.000000316047L12.18122,4ZM5.63567,4L9.453800000000001,4C9.60444,4,9.7326,4.0533597,9.83964,4.161599C9.94596,4.266638,9.99948,4.394957,9.99948,4.546636C9.99948,4.696635,9.945879999999999,4.8250340000000005,9.83964,4.931674C9.7326,5.03831,9.60444,5.09167,9.453800000000001,5.09167L5.63567,5.09167C5.48511,5.09167,5.35647,5.14495,5.25031,5.25167C5.14311,5.3583099999999995,5.0901499999999995,5.48663,5.0901499999999995,5.63831L5.0901499999999995,14.365C5.0901499999999995,14.515,5.14311,14.6433,5.25031,14.7499C5.35647,14.8566,5.48511,14.9099,5.63567,14.9099L14.3628,14.9099C14.5134,14.9099,14.6416,14.8566,14.7486,14.7499C14.855,14.6433,14.9085,14.5149,14.9085,14.3649L14.9085,10.54668C14.9085,10.39668,14.9621,10.268360000000001,15.0683,10.161719999999999C15.1753,10.055,15.3036,10.001719999999999,15.4543,10.001719999999999C15.605,10.001719999999999,15.7331,10.055,15.8402,10.161719999999999C15.9463,10.268360000000001,16,10.39668,16,10.54668L16,14.3651C16,14.8166,15.8402,15.2017,15.5206,15.5217C15.201,15.8417,14.8151,16,14.3638,16L5.6363900000000005,16C5.18455,16,4.799355,15.8416,4.479517,15.5216C4.159839,15.2016,4,14.8166,4,14.365L4,5.63839C4,5.18671,4.159839,4.801755,4.479517,4.481757C4.799355,4.161759,5.18455,4.00176007,5.6363900000000005,4.00176007L5.63567,4Z" fill="#FFFFFF" fill-opacity="0.6000000238418579"/></g></g></svg>