<svg xmlns="http://www.w3.org/2000/svg" xmlns:xlink="http://www.w3.org/1999/xlink" fill="none" version="1.1" width="40" height="35.151512145996094" viewBox="0 0 40 35.151512145996094"><g><g><path d="M19.872796321105955,4.64736C18.619296321105956,1.90252,15.890996321105957,0,12.727296321105957,0C8.428166321105957,0,4.933286321105957,3.51298,4.850006321105957,7.87878L0.00009632110595703125,7.87878L0.00009632110595703125,16.9697L3.636566321105957,16.9697L3.636566321105957,35.1515L36.36379632110596,35.1515L36.36379632110596,16.9697L40.00009632110596,16.9697L40.00009632110596,7.87878L35.45149632110596,7.87878C35.32699632110596,3.50651,31.71299632110596,0,27.272996321105957,0C24.004396321105958,0,21.183396321105956,1.9003,19.872796321105955,4.64736ZM33.63239632110596,7.87878C33.50869632110596,4.50228,30.708796321105957,1.80264,27.272996321105957,1.80264C23.837196321105957,1.80264,21.037296321105956,4.50228,20.913596321105956,7.87878L33.63239632110596,7.87878ZM12.727296321105957,1.78628C16.059396321105957,1.78628,18.770296321105956,4.49961,18.853296321105958,7.87878L6.601286321105957,7.87878C6.684216321105957,4.49961,9.395166321105958,1.78628,12.727296321105957,1.78628ZM18.855296321105957,15.1515L18.855196321105957,9.69696L1.818216321105957,9.69696L1.818216321105957,15.1515L18.855296321105957,15.1515ZM20.60609632110596,9.69696L20.60609632110596,15.1515L38.18189632110596,15.1515L38.18189632110596,9.69696L20.60609632110596,9.69696ZM5.454686321105957,33.3489L5.454686321105957,17.1251L34.545596321105954,17.1251L34.545596321105954,33.3489L5.454686321105957,33.3489Z" fill-rule="evenodd" fill="#888888" fill-opacity="1"/></g></g></svg>