<svg xmlns="http://www.w3.org/2000/svg" xmlns:xlink="http://www.w3.org/1999/xlink" fill="none" version="1.1" width="177.0087890625" height="54" viewBox="0 0 177.0087890625 54"><defs><clipPath id="master_svg0_667_0460"><rect x="37.790000915527344" y="0" width="139.21875" height="54" rx="0"/></clipPath><clipPath id="master_svg1_667_0462"><rect x="50.446250915527344" y="21.9375" width="113.90625" height="10.125" rx="0"/></clipPath><clipPath id="master_svg2_667_0470"><rect x="0" y="0" width="37.78881072998047" height="54" rx="0"/></clipPath></defs><g><g clip-path="url(#master_svg0_667_0460)"><g clip-path="url(#master_svg1_667_0462)"><g><path d="M50.44625420265734,31.16306L50.44625420265734,31.82107C50.446796579527344,31.954700000000003,50.555048915527344,32.0625,50.688071915527345,32.0625L61.15295091552734,32.0625C62.22785091552734,32.0625,63.102550915527345,31.18731,63.102550915527345,30.111649999999997L63.102550915527345,27.932850000000002L63.09555091552734,27.92638C63.02875091552734,27.107779999999998,62.314050915527346,26.46648,61.468550915527345,26.46648L52.74431091552734,26.46648C52.435710915527345,26.46648,52.15404091552735,26.35385,51.92838091552734,26.12913C51.702720915527344,25.9044,51.58640091552734,25.5913,51.58640091552734,25.2728L51.58640091552734,24.36528C51.58640091552734,23.65446,52.162120915527346,23.07837,52.872490915527344,23.07837L62.86125091552734,23.07837C62.994250915527346,23.07837,63.10195091552734,22.97005,63.10195091552734,22.836937L63.10195091552734,22.178931C63.10195091552734,22.045282,62.99375091552734,21.9375,62.860650915527344,21.9375L52.403390915527346,21.9375C51.32249491552734,21.9375,50.446250915527344,22.814302,50.446250915527344,23.89589L50.446250915527344,25.776139999999998L50.447329095527344,25.81278C50.46617751552734,26.78012,51.23578791552735,27.56531,52.200350915527345,27.60465L60.68975091552734,27.60465L60.718550915527345,27.60464C61.115850915527346,27.60446,61.56885091552734,27.60424,61.79915091552734,27.91991C61.96505091552734,28.147,61.96355091552734,28.597920000000002,61.962550915527345,28.907C61.96245091552734,28.93019,61.962350915527345,28.95258,61.962350915527345,28.97402L61.962350915527345,29.90202C61.962350915527345,30.46517,61.50615091552734,30.92163,60.94335091552735,30.92163L50.68752991552734,30.92163C50.55396691552735,30.92163,50.44625420265734,31.02995,50.44625420265734,31.16306ZM86.39125091552734,21.9375C87.36695091552734,21.9375,88.41175091552734,22.621358999999998,88.41175091552734,23.63904L88.41505091552735,26.55544C88.41505091552735,27.56394,87.59485091552735,28.38446,86.58615091552734,28.38446L76.89865091552734,28.38446L76.89865091552734,31.78107C76.89865091552734,31.93664,76.77285091552734,32.0625,76.61725091552734,32.0625L76.04005091552735,32.0625C75.88455091552734,32.0625,75.75875091552734,31.93664,75.75875091552734,31.78107L75.75875091552734,22.21893C75.75875091552734,22.06336,75.88455091552734,21.9375,76.04005091552735,21.9375L86.39125091552734,21.9375ZM108.99965091552735,22.823344L113.70265091552734,31.746940000000002L113.70265091552734,31.74801C113.73785091552735,31.81532,113.73565091552734,31.894489999999998,113.69615091552734,31.9591C113.65655091552733,32.0237,113.58775091552735,32.0625,113.51135091552734,32.0625L112.49475091552733,32.0625C112.38645091552735,32.0625,112.28885091552735,32.002700000000004,112.24015091552735,31.90634L108.05895091552733,23.65049C108.01565091552735,23.55948,107.97225091552735,23.48678,107.92405091552735,23.42432C107.70135091552734,23.13622,107.53985091552735,23.09744,107.41085091552733,23.09744C107.28195091552735,23.09744,107.12045091552734,23.13622,106.89775091552735,23.42432C106.85005091552733,23.48571,106.80675091552735,23.55787,106.76555091552734,23.64457L102.55465091552735,31.906869999999998C102.50585091552735,32.0022,102.40835091552734,32.062,102.30045091552734,32.062L101.28775091552734,32.062C101.21135091552733,32.062,101.14245091552735,32.0232,101.10295091552734,31.9586C101.06335091552734,31.89394,101.06065091552735,31.81532,101.09585091552734,31.74801L105.73485091552735,22.845421C106.09575091552735,22.27299,106.71195091552735,21.9375,107.37405091552733,21.9375C108.03625091552735,21.9375,108.64425091552735,22.268683,108.99965091552735,22.823344ZM138.75505091552736,23.34091L130.12185091552735,23.34091C129.02275091552735,23.3409,127.79325091552734,24.47171,127.79325091552734,25.98502L127.79325091552734,28.014969999999998C127.79325091552734,29.52721,129.02225091552734,30.65693,130.12185091552735,30.65693L138.75505091552736,30.65693C138.91215091552735,30.65693,139.04005091552733,30.78408,139.04005091552733,30.94031L139.04005091552733,31.77912C139.04005091552733,31.93536,138.91215091552735,32.0625,138.75505091552736,32.0625L130.21125091552733,32.0625C128.10085091552736,32.0625,126.38375091552734,30.35471,126.38375091552734,28.25579L126.38375091552734,25.74421C126.38375091552734,23.64529,128.10085091552736,21.9375,130.21125091552733,21.9375L138.75505091552736,21.9375C138.91215091552735,21.9375,139.04005091552733,22.064643,139.04005091552733,22.220875L139.04005091552733,23.05753C139.04005091552733,23.21377,138.91215091552735,23.34091,138.75505091552736,23.34091ZM164.06725091552732,21.9375C164.22525091552734,21.9375,164.35225091552735,22.065004,164.35225091552735,22.221021L164.35225091552735,22.219946L164.35225091552735,23.06137C164.35225091552735,23.21792,164.22425091552736,23.34489,164.06725091552732,23.34489L153.51525091552736,23.34489C153.29225091552735,23.34489,153.11125091552736,23.52511,153.11125091552736,23.74677L153.11125091552736,30.25216C153.11125091552736,30.47381,153.29225091552735,30.654040000000002,153.51525091552736,30.654040000000002L164.06725091552732,30.654040000000002C164.22425091552736,30.654040000000002,164.35225091552735,30.78154,164.35225091552735,30.937559999999998L164.35225091552735,31.77898C164.35225091552735,31.93554,164.22425091552736,32.0625,164.06725091552732,32.0625L152.81625091552735,32.0625C152.19825091552735,32.062,151.69625091552734,31.562170000000002,151.69625091552734,30.948320000000002L151.69625091552734,23.05168C151.69625091552734,22.43837,152.19825091552735,21.93857539,152.81525091552734,21.9375L164.06725091552732,21.9375ZM86.13045091552735,27.24902C86.47655091552734,27.24848,86.75245091552733,27.14639,86.95065091552735,26.9449C87.29635091552734,26.59416,87.29025091552734,26.07686,87.28485091552734,25.62022L87.28485091552734,25.61878L87.28485091552734,25.61596C87.28375091552735,25.54022,87.28275091552734,25.46554,87.28375091552735,25.39244L87.28055091552734,24.22999C87.28055091552734,23.59259,86.76055091552735,23.07294,86.12235091552733,23.07294L77.03955091552734,23.06862C76.96235091552734,23.06862,76.89915091552734,23.13128,76.89915091552734,23.20907L76.89915091552734,27.10425C76.89915091552734,27.1815,76.96175091552735,27.2447,77.03955091552734,27.2447L86.13045091552735,27.24902ZM156.82125091552734,26.31404C156.43225091552733,26.31404,156.11725091552734,26.62922,156.11725091552734,27.018C156.11725091552734,27.40679,156.43225091552733,27.72197,156.82125091552734,27.72197L163.64725091552734,27.72197C164.03625091552735,27.72197,164.35125091552734,27.40679,164.35125091552734,27.018C164.35125091552734,26.62922,164.03625091552735,26.31404,163.64725091552734,26.31404L156.82125091552734,26.31404Z" fill-rule="evenodd" fill="#FFFFFF" fill-opacity="1"/></g></g></g><g clip-path="url(#master_svg2_667_0470)"><g><path d="M9.913149,34.527100000000004C9.83327,34.6826,9.97716,34.8585,10.145355,34.811L14.466345,33.5916C14.520605,33.5763,14.565875,33.538799999999995,14.591025,33.488299999999995L18.808125,25.0276C18.881235,24.88091,19.090075,24.87962,19.164994999999998,25.02539L23.516325000000002,33.491C23.541525,33.5399,23.585625,33.5763,23.638424999999998,33.5916L27.819725,34.8063C27.988225,34.855199999999996,28.133625,34.6789,28.053425,34.522800000000004L19.162264999999998,17.221157C19.087865,17.076375,18.880895000000002,17.076375,18.806485000000002,17.221157L9.913149,34.527100000000004ZM15.987974999999999,33.464200000000005C15.956305,33.5282,15.961145,33.6042,16.000664999999998,33.6636L18.242575000000002,37.0357C18.279654999999998,37.091499999999996,18.342165,37.125,18.409125,37.125L19.559625,37.125C19.626585,37.125,19.689095000000002,37.091499999999996,19.726125,37.0357L21.968125,33.6636C22.007625,33.6042,22.012425,33.5282,21.980825,33.464200000000005L19.163625,27.7726C19.090184999999998,27.624200000000002,18.878574999999998,27.624200000000002,18.805135,27.7726L15.987974999999999,33.464200000000005Z" fill="#2696FF" fill-opacity="1"/></g></g></g></svg>