<svg xmlns="http://www.w3.org/2000/svg" xmlns:xlink="http://www.w3.org/1999/xlink" fill="none" version="1.1" width="37.78881072998047" height="54" viewBox="0 0 37.78881072998047 54"><defs><clipPath id="master_svg0_729_10300/667_0470"><rect x="0" y="0" width="37.78881072998047" height="54" rx="0"/></clipPath></defs><g clip-path="url(#master_svg0_729_10300/667_0470)"><g><path d="M9.913149,34.527100000000004C9.83327,34.6826,9.97716,34.8585,10.145355,34.811L14.466345,33.5916C14.520605,33.5763,14.565875,33.538799999999995,14.591025,33.488299999999995L18.808125,25.0276C18.881235,24.88091,19.090075,24.87962,19.164994999999998,25.02539L23.516325000000002,33.491C23.541525,33.5399,23.585625,33.5763,23.638424999999998,33.5916L27.819725,34.8063C27.988225,34.855199999999996,28.133625,34.6789,28.053425,34.522800000000004L19.162264999999998,17.221157C19.087865,17.076375,18.880895000000002,17.076375,18.806485000000002,17.221157L9.913149,34.527100000000004ZM15.987974999999999,33.464200000000005C15.956305,33.5282,15.961145,33.6042,16.000664999999998,33.6636L18.242575000000002,37.0357C18.279654999999998,37.091499999999996,18.342165,37.125,18.409125,37.125L19.559625,37.125C19.626585,37.125,19.689095000000002,37.091499999999996,19.726125,37.0357L21.968125,33.6636C22.007625,33.6042,22.012425,33.5282,21.980825,33.464200000000005L19.163625,27.7726C19.090184999999998,27.624200000000002,18.878574999999998,27.624200000000002,18.805135,27.7726L15.987974999999999,33.464200000000005Z" fill="#2696FF" fill-opacity="1"/></g></g></svg>