<svg xmlns="http://www.w3.org/2000/svg" xmlns:xlink="http://www.w3.org/1999/xlink" fill="none" version="1.1" width="32" height="32" viewBox="0 0 32 32"><g><g><path d="M9,20C9,19.44771,9.447715,19,10,19L22,19C22.552300000000002,19,23,19.44771,23,20C23,20.55228,22.552300000000002,21,22,21L10,21C9.447715,21,9,20.55228,9,20ZM9,12C9,11.447715,9.447715,11,10,11L22,11C22.552300000000002,11,23,11.447715,23,12C23,12.55228,22.552300000000002,13,22,13L10,13C9.447715,13,9,12.55228,9,12ZM9,16C9,15.44772,9.447715,15,10,15L22,15C22.552300000000002,15,23,15.44772,23,16C23,16.55228,22.552300000000002,17,22,17L10,17C9.447715,17,9,16.55228,9,16Z" fill="#FFFFFF" fill-opacity="0.6000000238418579"/></g></g></svg>