<svg xmlns="http://www.w3.org/2000/svg" xmlns:xlink="http://www.w3.org/1999/xlink" fill="none" version="1.1" width="32" height="32" viewBox="0 0 32 32"><defs><clipPath id="master_svg0_28_46"><rect x="0" y="0" width="32" height="32" rx="0"/></clipPath></defs><g clip-path="url(#master_svg0_28_46)"><g><path d="M11.064745,12.24359C11.064745,12.24359,20.935299999999998,12.24359,20.935299999999998,12.24359C21.2476,12.24359,21.5,11.965073,21.5,11.621793C21.5,11.278672,21.247799999999998,11,20.935299999999998,11C20.935299999999998,11,11.064745,11,11.064745,11C10.75294,11,10.5,11.278505,10.5,11.621785C10.5,11.965065,10.75294,12.24358,11.064745,12.24358C11.064745,12.24358,11.064745,12.24359,11.064745,12.24359ZM20.9351,15.352540000000001C20.9351,15.352540000000001,11.064745,15.352540000000001,11.064745,15.352540000000001C10.752224,15.352540000000001,10.5,15.63106,10.5,15.97433C10.5,16.317619999999998,10.752224,16.59613,11.064745,16.59613C11.064745,16.59613,20.935299999999998,16.59613,20.935299999999998,16.59613C21.2476,16.59613,21.5,16.317619999999998,21.5,15.97433C21.4999,15.63106,21.2461,15.35255,20.9351,15.35255C20.9351,15.35255,20.9351,15.352540000000001,20.9351,15.352540000000001ZM20.9351,19.75642C20.9351,19.75642,11.064745,19.75642,11.064745,19.75642C10.753083,19.75642,10.5,20.03493,10.5,20.37821C10.5,20.72149,10.75294,21,11.064745,21C11.064745,21,20.935299999999998,21,20.935299999999998,21C21.2476,21,21.5,20.72149,21.5,20.37821C21.4999,20.03509,21.2476,19.75642,20.9351,19.75642C20.9351,19.75642,20.9351,19.75642,20.9351,19.75642Z" fill="#FFFFFF" fill-opacity="1"/></g></g></svg>