<svg width="105" height="52" viewBox="0 0 105 52" fill="none" xmlns="http://www.w3.org/2000/svg">
<g id="Vector">
<path d="M56 26L29.8081 0L23.8415 5.92299L44.0666 26L23.8415 46.077L29.8081 52L56 26ZM32.1585 26L5.96669 0L0 5.92299L20.2252 26L0 46.077L5.96669 52L32.1585 26Z" fill="url(#paint0_linear_38_53)"/>
<path d="M105 26L78.8082 0L72.8415 5.92299L93.0666 26L72.8415 46.077L78.8082 52L105 26ZM81.1585 26L54.9667 0L49 5.92299L69.2252 26L49 46.077L54.9667 52L81.1585 26Z" fill="url(#paint1_linear_38_53)"/>
</g>
<defs>
<linearGradient id="paint0_linear_38_53" x1="105" y1="26" x2="0" y2="26" gradientUnits="userSpaceOnUse">
<stop stop-color="white"/>
<stop offset="1" stop-color="white" stop-opacity="0.5"/>
</linearGradient>
<linearGradient id="paint1_linear_38_53" x1="105" y1="26" x2="0" y2="26" gradientUnits="userSpaceOnUse">
<stop stop-color="white"/>
<stop offset="1" stop-color="white" stop-opacity="0.5"/>
</linearGradient>
</defs>
</svg>
