<svg xmlns="http://www.w3.org/2000/svg" xmlns:xlink="http://www.w3.org/1999/xlink" fill="none" version="1.1" width="114.77685546875" height="24" viewBox="0 0 114.77685546875 24"><defs><clipPath id="master_svg0_704_8230/781_03358"><rect x="0" y="0" width="114.77685546875" height="24" rx="0"/></clipPath></defs><g clip-path="url(#master_svg0_704_8230/781_03358)"><g><path d="M60.5611,21.2805790625C60.3884,21.2805790625,60.2158,21.2374090625,60.1294,21.1079190625C60.0431,20.9784290625,59.9568,20.8057590625,59.9568,20.6330990625C59.9568,20.4604390625,59.9999,20.2877790625,60.1294,20.1582790625C60.2589,20.0287890625,60.3884,19.9856190625,60.5611,19.9856190625C60.7337,19.9856190625,60.9064,20.0287890625,61.0359,20.1582790625C61.1654,20.2877690625,61.2086,20.4604390625,61.2086,20.6330990625C61.2086,20.8057590625,61.1654,20.9784190625,61.0359,21.1079190625C60.9064,21.2374090625,60.7769,21.2805790625,60.5611,21.2805790625ZM1.94244,23.8705490625C1.81295,23.6115490625,1.68345,23.3525590625,1.51079,23.1367290625C2.15827,23.0072390625,2.76258,22.7914090625,3.23741,22.4892490625C2.97841,22.2302490625,2.71942,21.9280990625,2.5036,21.5395990625C2.02877,22.2734190625,1.42446,22.877729062500002,0.604313,23.3093890625C0.561152,23.2230490625,0.474822,23.0935590625,0.345325,22.964069062500002C0.215827,22.834579062499998,0.129498,22.7050790625,0,22.6619090625C1.1223,22.0575890625,1.89928,21.0647790625,2.3741,19.6403290625L1.51079,19.6403290625C1.1223,19.6403290625,0.863308,19.6834990625,0.82014,19.8129890625C0.733811,19.5108190625,0.647481,19.2949990625,0.561152,19.0791690625C0.647481,19.0359990625,0.776979,18.9496790625,0.863308,18.7770090625C0.906476,18.6906690625,0.992806,18.5180090625,1.07914,18.3021830625C1.16546,18.0431880625,1.25179,17.7841930625,1.33813,17.5252110625C1.55396,17.5683790625,1.76978,17.6115470625,1.94244,17.6978700625C2.15827,17.7842060625,2.2446,17.8705290625,2.20144,17.9136970625C2.20144,17.9568650625,2.15827,18.000033062500002,2.1151,18.0431880625C2.02877,18.0863560625,1.98561,18.1726790625,1.94244,18.3021830625C1.85611,18.4748390625,1.76978,18.6906690625,1.68345,18.8633290625L2.63309,18.8633290625C2.71942,18.4316790625,2.80575,17.9136840625,2.89208,17.3525390625C3.15108,17.3957070625,3.3669,17.4388751625,3.58273,17.5251980625C3.79856,17.6115340625,3.92806,17.6978570625,3.88489,17.7410250625C3.88489,17.7841930625,3.84172,17.8273610625,3.79856,17.8705160625C3.75539,17.9136840625,3.71223,18.0431750625,3.66906,18.1726790625C3.62589,18.4748390625,3.58273,18.6906690625,3.53956,18.8633290625L4.92086,18.8633290625C5.35251,18.8633290625,5.78416,18.8633290625,6.25899,18.8201590625C6.25899,18.8633290625,6.25899,18.9928190625,6.25899,19.2518190625Q6.25899,19.5108090625,6.25899,19.6834690625C6.04316,19.6402990625,5.82733,19.6402990625,5.52518,19.6402990625L4.79136,19.6402990625L3.32374,19.6402990625C3.28057,19.8129590625,3.19424,20.0287890625,3.15108,20.2014490625L5.13668,20.2014490625L5.30935,20.1582790625L5.8705,20.4172690625C5.6115,21.2374090625,5.17985,21.9280590625,4.6187,22.446049062500002C5.17985,22.7482190625,5.78416,22.9640390625,6.51798,23.0935390625C6.34531,23.2661890625,6.17266,23.5251890625,5.99999,23.827349062499998C5.17985,23.6546890625,4.4892,23.3956990625,3.92805,22.9640390625C3.3669,23.3525590625,2.71942,23.6547190625,1.94244,23.8705490625ZM3.92806,22.0144290625C4.23021,21.7122590625,4.53237,21.4101090625,4.7482,21.0216290625L3.92806,21.0216290625L3.10791,21.0216290625C3.28057,21.4101090625,3.58273,21.712279062500002,3.92806,22.0144290625ZM5.17985,18.8201890625C5.13668,18.7338490625,5.05035,18.6043590625,4.87769,18.4316990625C4.83453,18.388529062499998,4.83453,18.388529062499998,4.83453,18.3453650625C4.66187,18.1295380625,4.4892,17.9568780625,4.40287,17.8273740625L5.00719,17.4388883625L5.05035,17.4820560625C5.43885,17.9137100625,5.69783,18.2158740625,5.82733,18.388529062499998L5.17985,18.8201890625ZM12.0431,23.1798690625L11.8705,22.4028990625C12.0863,22.3597290625,12.3885,22.2734090625,12.8201,22.1870690625L12.8201,20.5467890625L12.4748,20.5467890625C12.3453,20.5467890625,12.2158,20.5467890625,12.1295,20.5467890625Q12.1295,20.4172990625,12.1295,20.1583090625Q12.1295,19.8993090625,12.1295,19.769819062499998C12.2158,19.769819062499998,12.3453,19.769819062499998,12.4748,19.769819062499998L12.8201,19.769819062499998L12.8201,18.5611890625L12.3885,18.5611890625C12.259,18.5611890625,12.1295,18.5611890625,11.9568,18.5611890625Q11.9568,18.4316990625,11.9568,18.1727060625C11.9568,17.9137100625,11.9568,17.7842200625,11.9568,17.7410510625C12.1295,17.7410510625,12.3453,17.7842200625,12.5611,17.7842200625L13.1655,17.7842200625L13.7698,17.7842200625C13.8993,17.7842200625,14.1151,17.7842200625,14.3741,17.7410510625Q14.3741,17.8705420625,14.3741,18.1727060625Q14.3741,18.4748690625,14.3741,18.5611890625C14.2878,18.5611890625,14.1583,18.5611890625,13.9856,18.5611890625L13.5971,18.5611890625L13.5971,19.769819062499998L13.8993,19.769819062499998C13.9856,19.769819062499998,14.0719,19.769819062499998,14.2014,19.769819062499998Q14.2014,19.8993090625,14.2014,20.1583090625Q14.2014,20.4172990625,14.2014,20.5467890625C14.1151,20.5467890625,13.9856,20.5467890625,13.8993,20.5467890625L13.5971,20.5467890625L13.5971,21.9712390625C13.7266,21.9280790625,13.8993,21.8849090625,14.1151,21.8417490625C14.2446,21.7985890625,14.3309,21.7985890625,14.3741,21.7554190625L14.4604,22.4892290625C14.1583,22.5755690625,13.7266,22.7050590625,13.1223,22.8777190625C12.6475,23.0072090625,12.3021,23.1366990625,12.0431,23.1798690625ZM14.4604,23.8705190625C14.4172,23.7841790625,14.3309,23.6978590625,14.2446,23.5683590625C14.1151,23.4388690625,14.0288,23.3525290625,13.9856,23.3093590625C14.7626,22.9208790625,15.2806,22.359719062499998,15.5827,21.6690790625C15.7985,21.1942590625,15.8849,20.6331090625,15.8849,19.9424590625L15.8849,19.3813190625C15.8849,19.2086590625,15.8849,19.0359990625,15.8417,18.8201690625C16.0144,18.8201690625,16.187,18.8201690625,16.4029,18.8201690625C16.6187,18.8201690625,16.7482,18.8633390625,16.7482,18.9065090625C16.6619,19.0791690625,16.6187,19.2518290625,16.6187,19.4244990625L16.6187,19.9424890625C16.6187,20.4173090625,16.5755,20.8921390625,16.446,21.3237890625L16.8777,21.3237890625L16.8777,22.1007590625L16.8777,22.877729062500002C16.8777,22.964069062500002,16.8777,23.0503890625,16.9208,23.0503890625C16.964,23.0935590625,17.0072,23.0935590625,17.0935,23.0935590625L17.4388,23.0935590625C17.5252,23.0935590625,17.5683,23.007229062500002,17.6115,22.877729062500002C17.6547,22.748239062499998,17.6547,22.4460790625,17.6547,21.9712590625C17.8273,22.1007490625,18.0431,22.1870890625,18.3021,22.2734190625C18.259,22.8345690625,18.1726,23.2230690625,18.0863,23.3957190625C17.9568,23.5683790625,17.741,23.6978890625,17.3957,23.6978890625L16.9208,23.6978890625C16.6187,23.6978890625,16.446,23.6547190625,16.3165,23.5252290625C16.187,23.4388890625,16.1439,23.2230690625,16.1439,22.9209190625L16.1439,22.1007790625C15.7985,22.8777090625,15.2374,23.4820190625,14.4604,23.8705190625ZM15.0216,21.4100890625C14.7626,21.4100890625,14.5899,21.4100890625,14.5468,21.3669190625C14.5899,20.8920990625,14.6331,20.2877790625,14.6331,19.553969062500002L14.6331,18.6474890625C14.6331,18.2590020625,14.6331,17.9568390625,14.5899,17.7410120625C14.5899,17.6978440625,14.5899,17.6546760625,14.6331,17.6546760625C15.0647,17.6978440625,15.6259,17.7410120625,16.2734,17.7410120625L17.0935,17.7410120625C17.4388,17.7410120625,17.6978,17.7410120625,17.9136,17.6978440625C17.9568,17.6978440625,17.9568,17.6978440625,17.9568,17.7410120625C17.9136,17.9568390625,17.9136,18.2590020625,17.9136,18.6474890625L17.9136,19.553969062500002L17.9136,20.4604390625C17.9136,20.848929062499998,17.9136,21.1510890625,17.9568,21.3669190625Q17.7842,21.4100890625,17.5252,21.4100890625C17.2662,21.4100890625,17.0935,21.4100890625,17.0503,21.3669190625C17.0935,20.9784290625,17.0935,20.5036090625,17.0935,19.8992990625L17.0935,18.4316790625L15.3669,18.4316790625L15.3669,19.8992990625C15.3669,20.5036090625,15.3669,21.0215990625,15.4101,21.3669190625C15.4101,21.4100890625,15.2806,21.4100890625,15.0216,21.4100890625ZM67.7265,23.2662090625L69.3668,18.1726920625L70.5755,18.1726920625L71.3956,20.7194490625L72.2158,23.2662090625L71.1366,23.2662090625L70.7913,21.9712390625L69.151,21.9712390625L68.8057,23.2662090625L67.7265,23.2662090625ZM69.3237,21.151099062500002L69.928,21.151099062500002L70.5323,21.151099062500002L70.3596,20.5899590625C70.3165,20.3741290625,70.187,20.0288090625,70.1006,19.5971590625C70.0143,19.2949990625,69.9711,19.0791690625,69.928,18.9496790625L69.8848,18.9496790625C69.7553,19.5108190625,69.6258,20.0719790625,69.4532,20.6331290625L69.3237,21.151099062500002ZM24.4748,23.8705190625C24.3453,23.6115290625,24.1726,23.3956990625,24,23.2230390625C24.4316,23.0072090625,24.8201,22.6187290625,25.1223,22.1007390625C24.9928,22.0143990625,24.9065,21.9280790625,24.777,21.7985690625L24.7338,22.0143990625L24.0863,21.6690790625C24.2158,21.2374290625,24.3885,20.5036090625,24.5611,19.5108090625L24.3021,19.5108090625C24.259,19.5108090625,24.1295,19.5108090625,24.0432,19.5108090625Q24.0432,19.3813190625,24.0432,19.1223190625Q24.0432,18.8633290625,24.0432,18.7338390625C24.1726,18.7338390625,24.259,18.7338390625,24.3885,18.7338390625L24.7338,18.7338390625C24.8201,18.2158470625,24.9065,17.7410380625,24.9496,17.3525390625C25.1655,17.3525390625,25.3381,17.3957070625,25.5108,17.4820300625C25.6834,17.5251980625,25.8129,17.6115210625,25.7698,17.6546890625C25.7698,17.6978570625,25.7266,17.7410250625,25.6834,17.7841800625C25.6403,17.8273480625,25.5971,17.9568390625,25.5539,18.0431750625C25.5108,18.3453380625,25.4676,18.5611690625,25.4244,18.7338290625L26.0288,18.7338290625L26.1583,18.7338290625L26.6331,18.8201590625C26.5899,19.467639062499998,26.5468,20.0287890625,26.4604,20.5036090625C26.3741,21.0215990625,26.2446,21.4532490625,26.0719,21.8417390625C26.4173,22.1007390625,26.6331,22.3597290625,26.8057,22.575559062499998L26.3309,23.2230390625C26.2014,23.0503790625,26.0288,22.8345490625,25.7266,22.575559062499998C25.4244,23.1366990625,24.9928,23.5251890625,24.4748,23.8705190625ZM25.4244,21.3669190625C25.5108,21.1079190625,25.5971,20.8057690625,25.6834,20.5036090625C25.7698,20.1582890625,25.8129,19.8129590625,25.8561,19.5108090625L25.2518,19.5108090625C25.1655,19.8992990625,25.0791,20.4172890625,24.9065,21.0215990625C25.1655,21.1942590625,25.3381,21.2805990625,25.4244,21.3669190625ZM27.3237,23.827349062499998C27.2806,23.6115290625,27.1942,23.3093590625,27.0216,23.0072090625C27.4532,23.0072090625,27.7122,23.0503790625,27.8417,23.0072090625C27.8849,23.0072090625,27.928,23.0072090625,27.9712,22.9640390625Q28.0144,22.9208790625,28.0144,22.8777090625L28.0144,20.848929062499998L27.3237,20.848929062499998C27.1079,20.848929062499998,26.8921,20.848929062499998,26.6331,20.8920990625Q26.6331,20.7194390625,26.6331,20.4604390625C26.6331,20.2014490625,26.6331,20.0719590625,26.6331,20.0287890625C26.8057,20.0719590625,27.0647,20.0719590625,27.3237,20.0719590625L28.0144,20.0719590625L28.0144,19.2518190625L28.2302,19.2518190625C28.446,19.0359890625,28.6618,18.7338290625,28.8777,18.4316790625L27.8417,18.4316790625C27.5396,18.4316790625,27.1942,18.4316790625,26.8057,18.4748390625C26.8057,18.4316790625,26.8057,18.3021830625,26.8057,18.0431880625C26.8057,17.7841930625,26.8057,17.6547020625,26.8057,17.6115340625C27.0216,17.6115340625,27.2374,17.6547020625,27.4532,17.6547020625L28.1007,17.6547020625L29.4388,17.6547020625L29.6115,17.6115340625L30.1295,18.0000200625C29.6978,18.6474990625,29.223,19.2086490625,28.7913,19.6402990625L28.7913,20.0287890625L29.5252,20.0287890625C29.741,20.0287890625,30,20.0287890625,30.259,19.9856190625Q30.259,20.1582790625,30.259,20.4172690625C30.259,20.6762690625,30.259,20.8057590625,30.259,20.848929062499998C30.0431,20.8057590625,29.7842,20.8057590625,29.5252,20.8057590625L28.7914,20.8057590625L28.7914,22.8345390625C28.7914,23.0503690625,28.7482,23.2230290625,28.705,23.3093590625C28.6619,23.4388490625,28.5755,23.5251890625,28.446,23.5683590625C28.2302,23.7841790625,27.8417,23.827349062499998,27.3237,23.827349062499998ZM36.1726,23.913689062499998C36.0863,23.827349062499998,36,23.7410290625,35.8705,23.6115290625C35.6978,23.4820290625,35.6115,23.3956990625,35.5252,23.3525290625C35.7842,23.0503690625,35.9137,22.6187090625,36.0431,22.1438990625C36.0863,21.8417390625,36.1295,21.4100890625,36.1295,20.9352790625L36.1295,19.9856290625L37.5108,19.9856290625C37.3813,19.6834690625,37.2086,19.4244890625,37.0359,19.1223190625L37.5971,18.8633290625L36.8201,18.8633290625C36.6043,18.8633290625,36.3453,18.8633290625,36.0431,18.9064990625Q36.0431,18.7338390625,36.0431,18.4748390625Q36.0431,18.2158470625,36.0431,18.0431880625C36.3885,18.0863560625,36.777,18.0863560625,37.2086,18.0863560625L38.3741,18.0863560625C38.2877,17.9136970625,38.2014,17.6978700625,38.0719,17.5683660625L38.8921,17.3525390625C39.0647,17.5683660625,39.1942,17.8273610625,39.3237,18.0863560625L40.4028,18.0863560625C40.705,18.0863560625,41.0935,18.0863560625,41.482,18.0431880625C41.482,18.0863560625,41.482,18.2158470625,41.482,18.4748390625C41.482,18.7338390625,41.482,18.9064990625,41.482,18.9496690625C41.0072,18.9064990625,40.3597,18.8633290625,39.5827,18.8633290625L37.6834,18.8633290625C37.9424,19.2518190625,38.1582,19.553979062499998,38.2014,19.7266390625L37.7266,19.9424590625L39.2805,19.9424590625C39.4532,19.6402990625,39.6259,19.2949790625,39.7985,18.8633290625C40.0144,18.9496690625,40.2302,19.0359890625,40.446,19.1223190625C40.6618,19.2086590625,40.7482,19.2949790625,40.705,19.3381490625C40.6618,19.3813190625,40.6618,19.3813190625,40.6187,19.4244890625C40.5755,19.4676590625,40.4892,19.5108190625,40.446,19.5971490625C40.3597,19.7266390625,40.2733,19.8561390625,40.187,19.9856290625L40.8777,19.9856290625C41.0935,19.9856290625,41.3093,19.9856290625,41.5683,19.9424590625Q41.5683,20.1151190625,41.5683,20.3741190625Q41.5683,20.6331090625,41.5683,20.8057690625C41.223,20.7626090625,40.8345,20.7626090625,40.4028,20.7626090625L39.2374,20.7626090625L36.8633,20.7626090625L36.8633,20.935259062500002C36.8633,21.4964090625,36.8201,21.9712290625,36.7338,22.446049062500002C36.6475,23.0503790625,36.4748,23.5683690625,36.1726,23.913689062499998ZM47.741,23.7410390625C47.482,23.7410390625,47.3525,23.7410390625,47.3093,23.6978790625C47.3525,23.4820490625,47.3525,23.2230490625,47.3525,22.9208990625L47.3525,22.1439290625L47.3525,21.3669590625C47.3525,21.0647990625,47.3525,20.8058090625,47.3093,20.5899890625C47.3093,20.5468190625,47.3093,20.5468190625,47.3525,20.5468190625C47.6978,20.5899890625,48.1295,20.5899890625,48.6474,20.5899890625L49.9424,20.5899890625L49.9424,22.1439390625C49.9424,22.7914190625,49.9424,23.309409062500002,49.9856,23.6978990625C49.9424,23.7410690625,49.8129,23.7410690625,49.5107,23.7410690625C49.2518,23.7410690625,49.0791,23.7410690625,49.0791,23.6978990625L49.0791,23.6547290625Q49.0791,23.6115590625,49.0791,23.5683990625L49.0791,23.3957390625L48.0863,23.3957390625L48.0863,23.5683990625C48.0863,23.6115590625,48.0863,23.6115590625,48.0863,23.6547290625C48.0863,23.6978990625,48.0863,23.6978990625,48.0863,23.7410690625C48.1295,23.7410390625,48,23.7410390625,47.741,23.7410390625ZM48.1295,22.5755790625L49.1223,22.5755790625L49.1223,21.9712690625L49.1223,21.3669590625L48.1295,21.3669590625L48.1295,22.5755790625ZM52.2733,20.1151490625C51.7985,20.0719790625,51.1079,20.0288090625,50.2877,20.0288090625L48.3021,20.0288090625L48.3021,18.7770190625C48.3021,18.2590290625,48.3021,17.8705420625,48.2589,17.5252240625C48.2589,17.4820560625,48.2589,17.4820560625,48.3021,17.4820560625C48.5611,17.5252240625,48.8633,17.5252240625,49.2949,17.5252240625L50.2877,17.5252240625L52.2733,17.5252240625L52.2733,18.7770190625C52.2733,19.2950090625,52.2733,19.6834990625,52.3165,20.0288090625C52.3165,20.1151490625,52.3165,20.1151490625,52.2733,20.1151490625ZM49.0791,19.2518390625L50.2446,19.2518390625L51.4532,19.2518390625L51.4532,18.3021960625L49.0791,18.3021960625L49.0791,19.2518390625ZM50.892,23.7410390625C50.633,23.7410390625,50.5036,23.7410390625,50.4604,23.6978790625C50.5036,23.4820490625,50.5036,23.2230490625,50.5036,22.9208990625L50.5036,22.1439290625L50.5036,21.3669590625C50.5036,21.0647990625,50.5036,20.8058090625,50.4604,20.5899890625C50.4604,20.5468190625,50.4604,20.5468190625,50.5036,20.5468190625C50.8489,20.5899890625,51.2805,20.5899890625,51.8417,20.5899890625L52.5323,20.5899890625C52.7482,20.5899890625,52.964,20.5899890625,53.1798,20.5468190625C53.223,20.5468190625,53.223,20.5468190625,53.223,20.5899890625C53.1798,20.8058090625,53.1798,21.0648090625,53.1798,21.3669590625L53.1798,22.1439290625C53.1798,22.7914090625,53.1798,23.3093990625,53.223,23.6978890625C53.1798,23.7410590625,53.0503,23.7410590625,52.7482,23.7410590625C52.4892,23.7410590625,52.3165,23.7410590625,52.3165,23.6978890625L52.3165,23.6547190625Q52.3165,23.6115490625,52.3165,23.5683790625L52.3165,23.3957190625L51.2374,23.3957190625L51.2374,23.5683790625C51.2374,23.6115490625,51.2374,23.6115490625,51.2374,23.6547190625C51.2374,23.6978890625,51.2374,23.6978890625,51.2374,23.7410590625C51.2805,23.7410390625,51.151,23.7410390625,50.892,23.7410390625ZM51.2805,22.5755790625L52.3597,22.5755790625L52.3597,21.3669590625L51.2805,21.3669590625L51.2805,21.9712690625L51.2805,22.5755790625ZM97.856,23.9568790625C97.597,23.9568790625,97.4244,23.9568790625,97.3812,23.9137090625C97.4244,23.5683990625,97.4244,23.093569062500002,97.4244,22.5755790625L97.4244,21.1942990625C97.2517,21.3669590625,97.0359,21.5396190625,96.8632,21.7122890625C96.6042,21.3669690625,96.4316,21.1511390625,96.3021,21.0216390625C96.6474,20.7626390625,96.9927,20.4604890625,97.338,20.1151590625C97.6833,19.7266790625,97.9423,19.3381890625,98.1582,18.9496890625C98.374,19.0360290625,98.5467,19.1223490625,98.7193,19.2518490625C98.892,19.3813490625,98.9783,19.4676790625,98.9352,19.5108490625C98.892,19.5540190625,98.892,19.5971890625,98.8488,19.5971890625C98.7625,19.6403490625,98.6762,19.6835190625,98.633,19.8130090625C98.633,19.8561790625,98.5898,19.8561790625,98.5467,19.9424990625C98.4172,20.1151590625,98.3308,20.2446690625,98.2445,20.3741590625L98.2445,22.1871090625L98.2445,23.0935890625C98.2445,23.4820690625,98.2445,23.7842390625,98.2877,24.0000590625C98.2877,23.9137090625,98.1582,23.9568790625,97.856,23.9568790625ZM96.8632,19.5971690625C96.6906,19.2950090625,96.5179,19.0360290625,96.4316,18.9065190625C96.7337,18.7338690625,96.9927,18.5180390625,97.2949,18.2158740625C97.597,17.9568780625,97.8129,17.6978830625,97.9855,17.4389015625C98.2013,17.5252380625,98.374,17.6115600625,98.5467,17.7410650625C98.7193,17.8705560625,98.7625,17.9568920625,98.7193,18.0000600625C98.6762,18.0432280625,98.633,18.0432280625,98.5898,18.0863960625C98.5035,18.1295640625,98.4172,18.1727320625,98.3308,18.2590550625C98.2013,18.4317090625,98.0287,18.604369062499998,97.856,18.7338790625C97.5107,19.0791990625,97.2085,19.3813490625,96.8632,19.5971690625ZM100.101,23.8705590625C100.057,23.5683990625,99.9711,23.309409062500002,99.8416,23.050419062499998C100.23,23.0935890625,100.575,23.0935890625,100.791,23.050419062499998C100.921,23.050419062499998,100.964,23.0072490625,100.964,22.9209290625L100.964,20.5036590625L99.9711,20.5036590625C99.6258,20.5036590625,99.3236,20.5036590625,98.9783,20.5468290625C98.9783,20.5036590625,98.9783,20.374169062500002,98.9783,20.1151790625C98.9783,19.8561790625,98.9783,19.7266890625,98.9783,19.6835190625C99.1941,19.7266890625,99.5395,19.7266890625,99.9279,19.7266890625L100.878,19.7266890625L101.827,19.7266890625C102.129,19.7266890625,102.432,19.7266890625,102.777,19.6835190625Q102.777,19.8561790625,102.777,20.1151790625C102.777,20.374169062500002,102.777,20.5036590625,102.777,20.5468290625C102.647,20.5468290625,102.518,20.5468290625,102.302,20.5468290625L101.827,20.5468290625L101.827,22.9640990625C101.827,23.179919062499998,101.784,23.3525790625,101.741,23.482089062500002C101.698,23.6115790625,101.568,23.6979090625,101.439,23.7410790625C101.309,23.7842490625,101.137,23.8274190625,100.921,23.8705690625C100.705,23.8705590625,100.446,23.8705590625,100.101,23.8705590625ZM99.2805,18.6907090625C99.2805,18.6475390625,99.2805,18.5180490625,99.2805,18.2158870625Q99.2805,17.9568920625,99.2805,17.7842330625C99.4963,17.8274010625,99.7553,17.8274010625,100.101,17.8274010625L100.921,17.8274010625L101.741,17.8274010625C102,17.8274010625,102.259,17.8274010625,102.561,17.7842330625Q102.561,17.9568920625,102.561,18.2158870625C102.561,18.4748790625,102.561,18.604369062499998,102.561,18.6475390625C102.345,18.604369062499998,102.086,18.604369062499998,101.741,18.604369062499998L100.921,18.604369062499998C100.403,18.604369062499998,99.8848,18.6475390625,99.2805,18.6907090625ZM77.9136,23.2662090625L77.9136,18.1726920625L78.9495,18.1726920625L78.9495,20.7194490625L78.9495,23.2662090625L77.9136,23.2662090625ZM109.554,23.827349062499998C109.295,23.827349062499998,109.165,23.827349062499998,109.122,23.7841790625C109.165,23.4388690625,109.165,23.0072090625,109.165,22.4892190625L109.165,21.1942590625C108.95,21.7985690625,108.777,22.2302290625,108.561,22.575559062499998C108.518,22.4028990625,108.388,22.1438990625,108.216,21.8417390625C108.388,21.5827490625,108.561,21.2374290625,108.734,20.8057690625C108.906,20.3741190625,109.036,19.9856290625,109.122,19.553979062499998L108.734,19.553979062499998C108.604,19.553979062499998,108.475,19.553979062499998,108.345,19.553979062499998Q108.345,19.4244890625,108.345,19.1654890625Q108.345,18.9064990625,108.345,18.7770090625C108.432,18.7770090625,108.561,18.7770090625,108.734,18.7770090625L109.122,18.7770090625L109.122,18.0863560625C109.122,17.8273610625,109.122,17.5683660625,109.079,17.3525390625C109.252,17.3525390625,109.468,17.3525390625,109.64,17.3525390625C109.899,17.3525390625,109.986,17.3957070625,109.986,17.4388751625C109.856,17.6547020625,109.813,17.8705290625,109.813,18.0863560625L109.813,18.7770090625L110.158,18.7770090625C110.244,18.7770090625,110.331,18.7770090625,110.503,18.7770090625Q110.503,18.9064990625,110.503,19.1654890625Q110.503,19.4244890625,110.503,19.553979062499998C110.374,19.553979062499998,110.288,19.553979062499998,110.158,19.553979062499998L109.813,19.553979062499998L109.813,19.8992990625C110.029,20.2014590625,110.288,20.6331090625,110.633,21.1510890625L110.201,21.7553990625C110.115,21.5395790625,109.986,21.2805790625,109.813,20.8920990625L109.813,22.359719062499998L109.813,23.0935390625C109.813,23.3956990625,109.813,23.6115290625,109.856,23.827349062499998C109.942,23.827349062499998,109.77,23.827349062499998,109.554,23.827349062499998ZM110.892,23.827349062499998C110.806,23.6115290625,110.676,23.3956990625,110.46,23.2230390625C110.935,23.0503790625,111.237,22.791389062500002,111.453,22.4892190625C111.626,22.2302290625,111.712,21.8417390625,111.755,21.3669190625L111.28,21.3669190625C111.108,21.3669190625,110.978,21.3669190625,110.806,21.3669190625Q110.806,21.2374290625,110.806,21.0215990625C110.806,20.8057690625,110.806,20.6762790625,110.806,20.6331090625C110.978,20.6762790625,111.237,20.6762790625,111.496,20.6762790625L112.187,20.6762790625L112.187,20.3741190625C112.187,20.2877790625,112.187,20.2014590625,112.187,20.0719590625C112.36,20.0719590625,112.532,20.0719590625,112.748,20.0719590625C112.964,20.0719590625,113.093,20.1151190625,113.093,20.1582890625C113.007,20.2446290625,112.964,20.3309490625,112.964,20.4172890625L112.964,20.6762790625L113.698,20.6762790625C113.914,20.6762790625,114.173,20.6762790625,114.432,20.6331090625Q114.432,20.7626090625,114.432,21.0215990625Q114.432,21.2805990625,114.432,21.3669190625C114.302,21.3669190625,114.173,21.3669190625,113.957,21.3669190625L113.482,21.3669190625L112.489,21.3669190625C112.489,21.4532490625,112.446,21.5827490625,112.446,21.7553990625L114.129,21.7553990625C114.129,21.8417390625,114.129,21.9280590625,114.129,22.0575690625C114.086,22.575559062499998,114.043,22.9208790625,114,23.1366990625C113.957,23.3956990625,113.87,23.5251890625,113.827,23.6115290625C113.698,23.7410190625,113.568,23.827349062499998,113.352,23.827349062499998C113.18,23.8705190625,112.878,23.8705190625,112.575,23.827349062499998C112.575,23.6115290625,112.489,23.3525290625,112.36,23.1366990625C112.575,23.1366990625,112.791,23.1798690625,112.964,23.1798690625C113.05,23.1798690625,113.137,23.1798690625,113.18,23.1366990625C113.266,23.0503690625,113.309,22.8345390625,113.352,22.446049062500002L112.36,22.446049062500002C112.23,22.7913690625,112.101,23.0503690625,111.885,23.3093590625C111.583,23.4820190625,111.28,23.697849062499998,110.892,23.827349062499998ZM111.021,20.5036090625C110.762,20.5036090625,110.676,20.5036090625,110.633,20.4604390625C110.633,20.2877790625,110.676,20.0719590625,110.676,19.8992990625L110.676,19.3381490625L111.453,19.3381490625C111.41,19.1654890625,111.367,18.9496690625,111.28,18.6906690625L111.496,18.6474990625L111.108,18.6474990625C110.978,18.6474990625,110.849,18.6474990625,110.762,18.6474990625Q110.762,18.5180090625,110.762,18.3021830625Q110.762,18.0863560625,110.762,17.9568650625C110.935,18.000033062500002,111.194,18.000033062500002,111.453,18.000033062500002L112.144,18.000033062500002L112.144,17.6978700625C112.144,17.6115340625,112.144,17.4820430625,112.144,17.3525522355C112.316,17.3525522355,112.489,17.3525522355,112.705,17.3525522355C112.921,17.3525522355,113.05,17.3957202625,113.05,17.4388883625C112.964,17.5252240625,112.921,17.6115470625,112.921,17.6978830625L112.921,17.9568780625L113.655,17.9568780625C113.87,17.9568780625,114.129,17.9568780625,114.388,17.9137100625Q114.388,18.0432020625,114.388,18.2590290625Q114.388,18.4748590625,114.388,18.6043490625C114.302,18.6043490625,114.216,18.6043490625,114.129,18.6043490625L113.87,18.6043490625C113.827,18.6906790625,113.784,18.7770090625,113.741,18.9065090625C113.698,19.0791690625,113.611,19.2086690625,113.611,19.2949990625L114.475,19.2949990625L114.475,19.8561390625C114.475,20.0719690625,114.475,20.2446290625,114.518,20.4172890625Q114.388,20.4604590625,114.129,20.4604590625C113.87,20.4604590625,113.741,20.4604590625,113.741,20.4172890625C113.741,20.3309490625,113.741,20.2446290625,113.741,20.1582890625L113.741,19.8992990625L112.532,19.8992990625L111.324,19.8992990625L111.324,20.1582890625C111.324,20.2446290625,111.324,20.3309490625,111.324,20.4172890625C111.367,20.4604390625,111.28,20.5036090625,111.021,20.5036090625ZM112.101,19.2949790625L112.921,19.2949790625C113.007,19.0791590625,113.05,18.8201590625,113.093,18.6043290625L112.532,18.6043290625L111.971,18.6043290625C112.057,18.8201590625,112.144,19.0359890625,112.144,19.2518190625L112.101,19.2949790625ZM85.1222,18.604369062499998L85.7265,18.604369062499998L85.7265,17.4820700625L86.4603,17.4820700625L86.4603,18.604369062499998L86.892,18.604369062499998L86.892,19.3813490625L86.4603,19.3813490625L86.4603,20.2014890625C86.5898,20.1583190625,86.7193,20.0719990625,86.8488,20.0288290625C86.892,20.3741490625,86.892,20.6331390625,86.9351,20.8921390625L86.4603,21.1079590625L86.4603,22.8777490625C86.4603,23.093569062500002,86.4172,23.3093990625,86.3308,23.4388890625C86.2445,23.5683790625,86.115,23.6547190625,85.9423,23.6547190625C85.7697,23.6547190625,85.5538,23.6978890625,85.2085,23.6978890625C85.1654,23.4388890625,85.1222,23.1798990625,85.079,22.8777490625L85.5538,22.8777490625C85.6402,22.8777490625,85.6833,22.7914090625,85.6833,22.6187490625L85.6833,21.453279062500002L85.2517,21.6691090625L85.079,20.7626290625L85.6833,20.5036390625L85.6833,19.3813290625L85.079,19.3813290625L85.079,18.604369062499998L85.1222,18.604369062499998ZM86.7625,21.5396190625L87.7985,21.5396190625L87.7985,20.8489690625L87.0646,20.8489690625L87.0646,20.0288290625L87.7985,20.0288290625L87.7985,19.3813490625L87.0646,19.3813490625L87.0646,18.5612090625L87.7985,18.5612090625L87.7985,17.4389015625L88.5754,17.4389015625L88.5754,23.7410590625L87.7985,23.7410590625L87.7985,22.3597590625L86.7625,22.3597590625L86.7625,21.5396190625ZM89.0934,17.4389015625L89.8272,17.4389015625L89.8272,18.5612090625L90.8632,18.5612090625L90.8632,19.3813490625L89.8272,19.3813490625L89.8272,20.0288290625L90.7337,20.0288290625L90.7337,20.8489690625L89.8272,20.8489690625L89.8272,21.5396190625L90.9495,21.5396190625L90.9495,22.3597590625L89.8272,22.3597590625L89.8272,23.7410590625L89.0934,23.7410590625L89.0934,17.4389015625Z" fill="#FFFFFF" fill-opacity="1" style="mix-blend-mode:passthrough"/></g><g><path d="M65.39574609375,13.2517C65.13674609375,13.5539,64.74824609375,13.8561,64.18704609375,14.1151C63.62594609375,14.3741,63.06474609375,14.5035,62.37414609375,14.5035C61.98564609375,14.5035,61.59714609375,14.4604,61.16544609375,14.3309C60.73384609375,14.2014,60.43164609375,14.0287,60.08634609375,13.7697C59.74104609375,13.5107,59.48204609375,13.1654,59.30934609375,12.7769C59.09354609375,12.3885,59.00724609375,11.9136,59.00724609375,11.3525C59.00724609375,10.7913,59.09354609375,10.3165,59.30934609375,9.88486C59.52514609375,9.45321,59.82734609375,9.06472,60.17264609375,8.80573C60.56114609375,8.50357,60.99284609375,8.28774,61.51084609375,8.11508C62.02874609375,7.94242,62.63314609375,7.89925,63.23744609375,7.89925C63.41004609375,7.89925,63.62594609375,7.89925,63.88494609375,7.89925C64.10074609374999,7.89925,64.35974609375,7.89925,64.57554609375,7.94242C64.83454609375,7.94242,65.09354609375,7.98559,65.35254609375,7.98559L65.35254609375,7.76976C65.35254609375,7.29494,65.17984609375,6.90645,64.79134609375,6.64746C64.40284609375,6.38846,63.88494609375,6.2158,63.28054609375,6.2158C62.58994609375,6.2158,62.02884609375,6.30214,61.64034609375,6.4748C61.20864609375,6.64746,60.86334609375,6.86329,60.56114609375,7.03594L59.43884609375,5.39566C59.61154609375,5.26617,59.87054609375,5.13667,60.08634609375,4.96401C60.30214609375,4.79135,60.60434609375,4.70501,60.94964609375,4.57552C61.29494609375,4.44603,61.68344609375,4.3597,62.11514609375,4.27336C62.54674609375,4.18702,63.06474609375,4.14387,63.62594609375,4.14387C64.23024609375,4.14387,64.79134609375,4.23021,65.30934609375,4.40286C65.82734609375,4.57552,66.25894609375,4.83452,66.60434609375,5.13668C66.94964609375,5.43885,67.25184609375,5.82733,67.42444609375,6.25899C67.59714609375,6.69064,67.72664609375,7.16546,67.72664609375,7.68344L67.72664609375,14.2014L65.43884609375,14.2014L65.39574609375,13.2517ZM65.39574609375,9.79852C65.13674609375,9.79852,64.92084609375,9.75535,64.66184609375,9.75535C64.48924609375,9.75535,64.27344609375001,9.71218,64.05754609375,9.71218C63.84174609375,9.71218,63.66904609375,9.71218,63.49644609375,9.71218C62.71944609375,9.71218,62.15824609375,9.88484,61.85614609375,10.187C61.55394609375,10.4892,61.38134609375,10.8345,61.38134609375,11.2661C61.38134609375,11.6978,61.51084609375,12,61.81294609375,12.2589C62.11514609375,12.4748,62.54674609375,12.6043,63.10794609375,12.6043C63.41004609375,12.6043,63.66904609375,12.5611,63.92804609375,12.4748C64.18704609375,12.3884,64.44604609375,12.2589,64.66184609375,12.0863C64.87774609375,11.9136,65.05034609375,11.741,65.17984609375,11.5251C65.30934609375,11.3093,65.39564609375,11.0503,65.39564609375,10.8345L65.39574609375,9.79852ZM5.52526609375,0.345292L8.20151609375,0.345292L13.42454609375,14.1582L10.53244609375,14.1582L9.32381609375,10.6618L4.23030609375,10.6618L3.02166609375,14.1582L0.30224609375,14.1582L5.52526609375,0.345292ZM8.63317609375,8.50356L6.82022609375,3.15105L4.96411609375,8.50356L8.63317609375,8.50356ZM14.67634609375,0.345292L17.26624609375,0.345292L17.26624609375,14.1582L14.67634609375,14.1582L14.67634609375,0.345292ZM27.06484609375,6.86329L32.028846093750005,6.86329L32.028846093750005,12.5611C31.51084609375,13.0791,30.77704609375,13.5108,29.91374609375,13.8993C29.05044609375,14.2877,27.88494609375,14.4604,26.50364609375,14.4604C25.38134609375,14.4604,24.34534609375,14.2877,23.48204609375,13.8993C22.61874609375,13.5108,21.84184609375,13.036,21.19434609375,12.3885C20.59004609375,11.741,20.11514609375,11.0072,19.76984609375,10.1007C19.42454609375,9.19425,19.25184609375,8.28776,19.25184609375,7.29496C19.25184609375,6.30216,19.42454609375,5.35252,19.76984609375,4.44604C20.11514609375,3.58273,20.59004609375,2.80576,21.23744609375,2.11511C21.88494609375,1.46763,22.61874609375,0.906476,23.48204609375,0.561152C24.34534609375,0.172666,25.29504609375,0,26.37414609375,0C27.06484609375,0,27.66914609375,0.0863295,28.23024609375,0.215827C28.79144609375,0.345325,29.30944609375,0.561152,29.78424609375,0.82014C30.25904609375,1.07914,30.64754609375,1.38129,31.03604609375,1.68344C31.38134609375,2.02876,31.72664609375,2.37409,31.98564609375,2.76258L30.12954609375,4.40286C29.69794609375,3.75538,29.17994609375,3.23739,28.57564609375,2.8489C27.97124609375,2.46041,27.23744609375,2.28776,26.37414609375,2.28776C25.68354609375,2.28776,25.07924609375,2.41725,24.56124609375,2.67624C24.04324609375,2.93524,23.56844609375,3.32372,23.17994609375,3.75538C22.79144609375,4.18703,22.48924609375,4.74818,22.31664609375,5.30933C22.10074609375,5.91365,22.01444609375,6.56113,22.01444609375,7.20861C22.01444609375,7.94243,22.14394609375,8.63306,22.35974609375,9.23739C22.61874609375,9.8417,22.92094609375,10.3597,23.35254609375,10.7913C23.78424609375,11.223,24.25904609375,11.5683,24.82024609375,11.7841C25.38134609375,12,25.98564609375,12.1295,26.59004609375,12.1295C27.84184609375,12.1295,28.83464609375,11.8273,29.52524609375,11.223L29.52524609375,9.06472L27.06484609375,9.06472L27.06484609375,6.86329ZM44.80574609375,11.6978C44.63314609375,12,44.33094609375,12.3453,43.98564609375,12.6475C43.64034609375,12.9928,43.25184609375,13.2518,42.77704609375,13.554C42.30224609375,13.8561,41.82734609375,14.0719,41.26624609375,14.2446C40.70504609375,14.4173,40.14394609375,14.5036,39.49644609375,14.5036C38.54684609375,14.5036,37.64034609375,14.3309,36.86334609375,13.9856C36.08634609375,13.6403,35.39574609375,13.1655,34.79144609375,12.518C34.23024609375,11.8705,33.75544609375,11.1367,33.45334609375,10.3166C33.15114609375,9.45324,32.97844609375,8.54677,32.97844609375,7.5108C32.97844609375,6.518,33.15114609375,5.61152,33.45334609375,4.74822C33.75544609375,3.88491,34.23024609375,3.10793,34.79144609375,2.46045C35.39574609375,1.81297,36.08634609375,1.29499,36.86334609375,0.906496C37.68354609375,0.51801,38.54684609375,0.345344,39.53964609375,0.345344C40.18704609375,0.345344,40.74824609375,0.431674,41.26624609375,0.561171C41.78424609375,0.690669,42.25904609375,0.906496,42.69064609375,1.12232C43.12234609375,1.38132,43.51084609375,1.64031,43.85614609375,1.98563C44.20144609375,2.33095,44.50364609375,2.67628,44.76264609375,3.06477L43.03604609375,4.66189C42.60434609375,4.05758,42.12954609375,3.53959,41.61154609375,3.1511C41.05044609375,2.76262,40.40294609375,2.58996,39.58274609375,2.58996C38.93524609375,2.58996,38.37414609375,2.71945,37.89934609375,2.97844C37.42454609375,3.23744,36.99284609375,3.58276,36.60434609375,4.01441C36.25904609375,4.44607,36.00004609375,4.96406,35.78424609375,5.56837C35.61154609375,6.17268,35.52524609375,6.777,35.52524609375,7.42448C35.52524609375,8.07196,35.61154609375,8.67627,35.78424609375,9.23743C35.95684609375,9.79857,36.21584609375,10.3166,36.60434609375,10.7051C36.94964609375,11.1367,37.38134609375,11.4389,37.85614609375,11.6979C38.33094609375,11.9568,38.89214609375,12.0432,39.49644609375,12.0432C40.05764609375,12.0432,40.53244609375,11.9568,40.92094609375,11.8273C41.30934609375,11.6979,41.65474609375,11.5252,41.91374609375,11.3094C42.17274609375,11.0935,42.43174609375,10.8777,42.60434609375,10.6619C42.77704609375,10.446,42.94964609375,10.2302,43.12234609375,10.1007L44.80574609375,11.6978ZM46.57554609375,0.345292L51.45324609375,0.345292C52.40294609375,0.345292,53.17984609375,0.474789,53.82734609375,0.733778C54.47484609375,0.992773,54.99284609375,1.33809,55.38134609375,1.72658C55.76984609375,2.11507,56.07194609375,2.58989,56.24464609375,3.06471C56.41734609375,3.53954,56.50364609375,4.01436,56.50364609375,4.44601C56.50364609375,5.30932,56.28784609375,6.08629,55.89934609375,6.77694C55.51084609375,7.46759,54.86334609375,7.98557,54.04324609375,8.37407L57.45324609375,14.1582L54.30214609375,14.1582L51.32374609375,8.71939L49.20864609375,8.71939L49.20864609375,14.1582L46.53244609375,14.1582L46.53244609375,0.345292L46.57554609375,0.345292ZM51.45324609375,6.56112C52.14394609375,6.56112,52.70504609375,6.38846,53.09354609375,5.99997C53.48204609375,5.61148,53.69784609375,5.13666,53.69784609375,4.57552C53.69784609375,3.9712,53.48204609375,3.49638,53.09354609375,3.1079C52.66194609375,2.71941,52.14394609375,2.54675,51.49644609375,2.54675L49.25184609375,2.54675L49.25184609375,6.56113L51.45324609375,6.56112ZM104.54624609375,12.9064C104.07224609375,13.3813,103.55424609375,13.7697,102.94924609375,14.0719C102.34524609375,14.3741,101.61124609375,14.5036,100.79124609375,14.5036C99.97124609375,14.5036,99.23734609375,14.3741,98.58994609375,14.1151C97.94244609375,13.8561,97.38124609375,13.5108,96.94964609375,13.0791C96.51794609375,12.6043,96.17264609375,12.0863,95.91364609375,11.4388C95.69784609375,10.7913,95.56834609375,10.1007,95.56834609375,9.32372C95.56834609375,8.63307,95.69784609375,7.94242,95.95684609375,7.33811C96.21584609375,6.69063,96.56114609375,6.17264,97.03594609375,5.69783C97.51074609375,5.22301,98.02874609375,4.83452,98.67624609375,4.57552C99.32374609375,4.31653,100.01434609375,4.14387,100.79124609375,4.14387C101.56824609375,4.14387,102.30224609375,4.27336,102.94924609375,4.57552C103.59724609375,4.87769,104.15824609375,5.22301,104.59024609375,5.741L103.03624609375,7.29495C102.77724609375,6.99279,102.43124609375,6.73381,102.04324609375,6.56114C101.65424609375,6.38848,101.22324609375,6.30214,100.74824609375,6.30214C100.27334609375,6.30214,99.88484609375,6.38848,99.53954609375,6.56114C99.19424609375,6.73379,98.89204609375,6.94962,98.67624609375,7.25179C98.46034609375,7.55395,98.28774609375,7.8561,98.15824609375,8.24458C98.02874609375,8.63307,97.98554609375,8.9784,97.98554609375,9.36689C97.98554609375,9.75537,98.02874609375,10.1007,98.15824609375,10.446C98.28774609375,10.7913,98.41724609375,11.1367,98.67624609375,11.4388C98.93524609375,11.741,99.19424609375,11.9568,99.53954609375,12.1295C99.88484609375,12.3021,100.27334609375,12.3885,100.74824609375,12.3885C101.22324609375,12.3885,101.65424609375,12.3021,102.08624609375,12.1295C102.47524609375,11.9568,102.82024609375,11.6978,103.12224609375,11.3525L104.54624609375,12.9064ZM69.71224609375,4.44601L72.04314609375,4.44601L72.08634609375,5.52514C72.21584609375,5.39565,72.34534609375,5.22298,72.51804609375,5.09349C72.69064609375,4.92083,72.90644609375,4.79132,73.12234609375,4.66183C73.38134609375,4.53234,73.64034609375,4.40284,73.94244609375,4.35967C74.24464609375,4.3165,74.58994609375,4.23018,74.97844609375,4.23018C76.18704609375,4.23018,77.13674609375,4.5755,77.74104609375,5.30931C78.38854609375,6.04313,78.69064609375,6.99276,78.69064609375,8.24456L78.69064609375,14.1582L76.23024609375,14.1582L76.23024609375,8.28773C76.23024609375,7.68341,76.05754609375,7.16542,75.71224609375,6.86327C75.36694609375,6.56112,74.93524609375,6.34528,74.41724609375,6.34528C74.07194609375,6.34528,73.76984609375,6.43162,73.46764609375,6.56111C73.16544609375,6.6906,72.94964609375,6.86327,72.73384609375,7.12225C72.51804609375,7.33808,72.34534609375,7.64024,72.25904609375,7.94239C72.12954609375,8.24456,72.08634609375,8.58988,72.08634609375,8.93519L72.08634609375,14.2014L69.62594609375,14.2014L69.62594609375,4.44601L69.71224609375,4.44601ZM80.76254609375,0.345292L83.22304609375,0.345292L83.22304609375,7.89925L86.71944609375,4.44601L89.61154609375,4.44601L85.98564609375,8.02874L90.04314609375,14.1582L87.10794609375,14.1582L84.30214609375,9.66903L83.26614609375,10.705L83.26614609375,14.1582L80.80574609375,14.1582L80.80574609375,0.345292L80.76254609375,0.345292ZM105.79824609375,4.44601L108.12924609375,4.44601L108.17224609375,5.52514C108.30224609375,5.39565,108.43124609375,5.22298,108.60424609375,5.09349C108.77724609375,4.92083,108.99324609375,4.79132,109.20824609375,4.66183C109.46724609375,4.53234,109.72624609375,4.40284,110.02824609375,4.35967C110.33124609375,4.3165,110.67624609375,4.23018,111.06424609375,4.23018C112.27324609375,4.23018,113.22324609375,4.5755,113.82724609375,5.30931C114.47524609375,6.04313,114.77724609375,6.99276,114.77724609375,8.24456L114.77724609375,14.1582L112.40324609375,14.1582L112.40324609375,8.28773C112.40324609375,7.68341,112.23024609375,7.16542,111.88524609375,6.86327C111.53924609375,6.56112,111.10824609375,6.34528,110.59024609375,6.34528C110.24424609375,6.34528,109.94224609375,6.43162,109.64024609375,6.56111C109.33824609375,6.6906,109.12224609375,6.86327,108.90624609375,7.12225C108.69024609375,7.33808,108.51824609375,7.64024,108.43124609375,7.94239C108.30224609375,8.24456,108.25924609375,8.58988,108.25924609375,8.93519L108.25924609375,14.2014L105.79824609375,14.2014L105.79824609375,4.44601ZM94.40284609375,12.9928C94.40284609375,13.8033,93.74574609375,14.4604,92.93524609375,14.4604C92.12464609375,14.4604,91.46764609375,13.8033,91.46764609375,12.9928C91.46764609375,12.1822,92.12464609375,11.5251,92.93524609375,11.5251C93.74574609375,11.5251,94.40284609375,12.1822,94.40284609375,12.9928Z" fill="#FE2B63" fill-opacity="1" style="mix-blend-mode:passthrough"/></g></g></svg>