<svg xmlns="http://www.w3.org/2000/svg" xmlns:xlink="http://www.w3.org/1999/xlink" fill="none" version="1.1" width="54.37443923950195" height="24" viewBox="0 0 54.37443923950195 24"><defs><clipPath id="master_svg0_704_8230/781_03361"><rect x="0" y="0" width="54.37443923950195" height="24" rx="0"/></clipPath><clipPath id="master_svg1_704_8230/781_03362"><rect x="39.018310546875" y="0" width="15.355911254882812" height="15.1602144241333" rx="0"/></clipPath><radialGradient cx="0" cy="0" r="1" gradientUnits="userSpaceOnUse" id="master_svg2_780_03643" gradientTransform="translate(46.68702684365735 7.581669569655617) rotate(0) scale(7.630070275838534 7.630066609009252)"><stop offset="3.6645010113716125%" stop-color="#F66F2D" stop-opacity="1"/><stop offset="12.470000237226486%" stop-color="#F0612B" stop-opacity="1"/><stop offset="36.46999895572662%" stop-color="#E24128" stop-opacity="1"/><stop offset="59.60000157356262%" stop-color="#D72A25" stop-opacity="1"/><stop offset="81.26999735832214%" stop-color="#D11C24" stop-opacity="1"/><stop offset="100%" stop-color="#CF1723" stop-opacity="1"/></radialGradient><radialGradient cx="0" cy="0" r="1" gradientUnits="userSpaceOnUse" id="master_svg3_780_03645" gradientTransform="translate(46.643377119141974 7.579146011754148) rotate(0) scale(5.363590814681743 5.363593529540257)"><stop offset="3.6645010113716125%" stop-color="#F66F2D" stop-opacity="1"/><stop offset="36.239999532699585%" stop-color="#F66F2D" stop-opacity="1"/><stop offset="41.83000028133392%" stop-color="#F66F2D" stop-opacity="1"/><stop offset="58.20000171661377%" stop-color="#F6712F" stop-opacity="1"/><stop offset="67.04000234603882%" stop-color="#F67637" stop-opacity="1"/><stop offset="74.08999800682068%" stop-color="#F77F45" stop-opacity="1"/><stop offset="80.1800012588501%" stop-color="#F88D58" stop-opacity="1"/><stop offset="85.67000031471252%" stop-color="#F99E71" stop-opacity="1"/><stop offset="90.71999788284302%" stop-color="#FAB390" stop-opacity="1"/><stop offset="95.35999894142151%" stop-color="#FCCCB4" stop-opacity="1"/><stop offset="99.6999979019165%" stop-color="#FEE9DE" stop-opacity="1"/><stop offset="100%" stop-color="#FEEBE1" stop-opacity="1"/></radialGradient><clipPath id="master_svg4_704_8230/781_03366"><rect x="0" y="1.838623046875" width="52.20110321044922" height="22.161460876464844" rx="0"/></clipPath></defs><g clip-path="url(#master_svg0_704_8230/781_03361)"><g clip-path="url(#master_svg1_704_8230/781_03362)"><g><path d="M52.018210546875,8.61484L52.200910546875,8.61484C51.723610546875,11.2193,49.437310546875,13.1992,46.697340546875,13.1992C43.609700546875,13.1992,41.099530546875,10.689,41.099530546875,7.60134C40.916860546875,2.3335,48.252950546875,0.000100701,51.187410546875,4.26623L53.620910546875,4.26623C50.327110546875,-2.94612,38.883975546875,-0.4654,39.019500976875,7.60134C39.314122546875,18.4199,55.565510546875004,17.2473,54.304510546875,6.49946L48.806840546875,6.49946C48.412040546875,5.86308,47.693160546875,5.43882,46.880010546875,5.43882C45.630810546875,5.43882,44.617310546875004,6.43465,44.617310546875004,7.66027C44.617310546875004,8.88589,45.630810546875,9.88171,46.880010546875,9.88171C47.781550546874996,9.88171,48.565240546875,9.36318,48.924690546875,8.60895C49.484510546875,8.60895,50.238710546875,8.60895,50.368310546875,8.60895" fill="url(#master_svg2_780_03643)" fill-opacity="1" style="mix-blend-mode:passthrough"/></g><g><path d="M50.362548828125,8.61474609375Q50.374334428125,8.61474609375,50.380225428125,8.61474609375" fill="#BC1762" fill-opacity="1" style="mix-blend-mode:passthrough"/></g><g><path d="M52.018352734375,8.61480734375L50.386172734375,8.61480734375C49.296072734375,12.82202734375,42.832062734375,12.00884734375,42.873312734375,7.60719734375C42.873312734375,5.49770734375,44.588012734375,3.78300734375,46.697502734375,3.78300734375C47.375132734375,3.78300734375,48.017412734375,3.95977734375,48.571302734375,4.27207734375L50.969522734375,4.27207734375C48.070442734375,0.25933734374999995,41.105580734375,2.56916534375,41.282354284375,7.60719734375C41.247001134375,14.08892734375,50.875242734375,14.93152734375,52.018352734375,8.61480734375Z" fill="url(#master_svg3_780_03645)" fill-opacity="1" style="mix-blend-mode:passthrough"/></g></g><g clip-path="url(#master_svg4_704_8230/781_03366)"><g><path d="M46.1555,23.0275615625L46.9686,21.3187515625L46.1555,21.3187515625L47.1749,19.1090915625L48.2414,19.1090915625L47.4518,20.7000515625L47.6109,20.7000515625L48.1412,20.7000515625L47.3693,22.3970715625L48.1412,22.3970715625L48.1412,23.0216715625L46.1555,23.0216715625L46.1555,23.0275615625ZM46.1555,23.3575415625L48.1353,23.3575415625L48.1353,23.9821315625L46.1555,23.9821315625L46.1555,23.3575415625ZM52.2011,20.1933015625L49.7852,20.1933015625L49.414,21.0948515625L51.111,21.0948515625L50.946,20.6057715625L51.7415,20.6057715625L52.1775,21.8490715625L51.3703,21.8490715625L51.3349,21.7548015625L51.223,21.7548015625L51.223,23.0805915625C51.223,23.1454115625,51.2406,23.1984415625,51.2878,23.2396915625C51.329,23.2809315625,51.382,23.3045015625,51.4469,23.3045015625L52.1186,23.3045015625L51.8181,23.988021562500002L50.9814,23.988021562500002C50.8046,23.988021562500002,50.6573,23.9291015625,50.5394,23.8053615625C50.4216,23.6816215625,50.3627,23.5343115625,50.3627,23.3634315625L50.3627,21.7606915625L49.7204,21.7606915625L49.2961,23.988031562499998L48.3887,23.988031562499998L48.813,21.7606915625L48.1117,21.7606915625L48.7776,20.1991915625L48.3357,20.1991915625L48.3357,19.5156705625L49.8382,19.5156705625L49.6084,19.0148137625L50.6985,19.0148137625L50.9165,19.5156705625L52.1952,19.5156705625L52.1952,20.1933015625L52.2011,20.1933015625ZM39.6207,19.3447885625L45.6605,19.0148137625L45.6605,19.7926125625L43.0796,19.9399235625L42.1486,20.5468515625L42.4373,20.5468515625L42.7202,20.5468515625L43.8987,20.5468515625L42.1486,21.6840915625L44.1815,21.6840915625L43.8103,21.1478815625L44.8002,21.1478815625L45.6605,22.3852915625L45.2421,22.3852915625L44.6706,22.3852915625L43.3742,22.3852915625L43.3742,23.2338015625C43.3742,23.3398715625,43.3507,23.4400415625,43.3094,23.5284215625C43.2682,23.622701562499998,43.2151,23.6993115625,43.1444,23.7700115625C43.0737,23.8407215625,42.9971,23.8937515625,42.9028,23.9291115625C42.8086,23.9703515625,42.7143,23.988031562499998,42.6141,23.988031562499998L41.2294,23.988031562499998L41.6065,23.286831562499998L42.0602,23.286831562499998C42.1191,23.286831562499998,42.1722,23.2691515625,42.2134,23.2220115625C42.2547,23.1807715625,42.2782,23.1277415625,42.2782,23.0629215625L42.2782,22.3793915625L41.0644,22.3793915625L39.6325,22.3793915625L39.6149,22.3793915625L41.3649,21.2421515625L41.0703,21.2421515625L39.9507,21.2421515625L39.6208,21.2421515625L41.4887,20.0224215625L39.6149,20.1284815625L39.6149,19.3447885625L39.6207,19.3447885625ZM40.5341,23.9762415625L39.6384,23.9762415625L40.1452,22.6681215625L41.0467,22.6681215625L40.5341,23.9762415625ZM45.1538,22.6681215625L45.6605,23.9762415625L44.759,23.9762415625L44.2522,22.6681215625L45.1538,22.6681215625ZM34.9304,23.9762315625L34.9304,23.1571815625L37.0281,23.1571815625C37.3639,23.1571815625,37.5879,23.1277215625,37.6939,23.0629115625C37.853,22.9686315625,37.9355,22.8213215625,37.9355,22.6268615625C37.9355,22.4029515625,37.8412,22.2379615625,37.6527,22.1377915625C37.5466,22.078861562500002,37.3757,22.0494015625,37.1459,22.0494015625L36.2915,22.0494015625C35.773,22.0494015625,35.4018,21.9551315625,35.172,21.7665615625C35.0305,21.6487115625,34.9186,21.4955115625,34.8361,21.3187415625C34.7536,21.1419715625,34.7182,20.9475115625,34.7182,20.7412815625C34.7182,20.4230815625,34.8125,20.1284615625,35.0011,19.8574135625C35.1837,19.5981445625,35.4784,19.4508335625,35.8849,19.4036985625C36.0205,19.3919165625,36.2267,19.3801275625,36.4977,19.3801275625L38.7781,19.3801275625L38.7781,20.1991815625L36.7158,20.1991815625C36.4094,20.2050715625,36.2031,20.2168615625,36.103,20.2404215625C35.8967,20.2934515625,35.7907,20.4466615625,35.7907,20.7059215625C35.7907,20.9239415625,35.879,21.0712515625,36.0499,21.1478615625C36.1619,21.2008915625,36.3563,21.2303515625,36.6274,21.2303515625L37.3639,21.2303515625C37.7411,21.2303515625,38.018,21.2598215625,38.2007,21.3246315625C38.5247,21.4365915625,38.7487,21.6251415625,38.8724,21.9020915625C38.9667,22.1201115625,39.0197,22.3558115625,39.0197,22.609181562499998C39.0197,22.8920215625,38.9549,23.1395015625,38.8253,23.3575215625C38.6485,23.6698215625,38.3774,23.8583815625,38.018,23.9231915625C37.8412,23.9526615625,37.582,23.9644415625,37.2284,23.9644415625L34.9304,23.9644415625L34.9304,23.9762315625ZM32.9446,21.9374615625C32.9446,21.7017615625,32.8975,21.5426715625,32.8032,21.4601715625C32.7089,21.3776815625,32.5204,21.3364315625,32.2434,21.3364315625L30.6878,21.3364315625L30.6878,20.6234515625L32.2434,20.6234515625C32.5204,20.6234515625,32.7148,20.6293415625,32.8209,20.6411315625C32.9269,20.6529115625,33.033,20.6764815625,33.145,20.7059515625C33.6517,20.9004015625,33.8933,21.3600115625,33.8697,22.0906715625L33.8697,23.9762515625L31.9311,23.9762515625C31.5835,23.9762515625,31.3419,23.9644715625,31.2063,23.9467915625C31.0708,23.9232115625,30.9589,23.8819715625,30.8528,23.8171615625C30.5817,23.6344915625,30.4462,23.3575415625,30.4462,22.9863215625C30.4462,22.7624115625,30.4993,22.5620715625,30.6053,22.3853015625C30.7114,22.2085215625,30.8587,22.0906815625,31.0355,22.0258615625C31.1887,21.9728315625,31.4479,21.9433615625,31.8133,21.9433615625L32.9446,21.9433615625L32.9446,21.9374615625ZM32.9446,22.6563315625L31.884,22.6563315625L31.7249,22.6563315625C31.6188,22.6563315625,31.5363,22.6858015625,31.4715,22.7388315625C31.4067,22.7918615625,31.3772,22.8684615625,31.3772,22.9686415625C31.3772,23.0747015625,31.4126,23.1513015625,31.4892,23.1984415625C31.5658,23.2455815625,31.6954,23.2691515625,31.8781,23.2691515625L32.9387,23.2691515625L32.9387,22.6563315625L32.9446,22.6563315625ZM28.6431,21.9374615625C28.6431,21.7017615625,28.596,21.5426715625,28.5017,21.4601715625C28.4074,21.3776815625,28.2189,21.3364315625,27.9419,21.3364315625L26.3863,21.3364315625L26.3863,20.6234515625L27.9419,20.6234515625C28.2189,20.6234515625,28.4133,20.6293415625,28.5194,20.6411315625C28.6255,20.6529115625,28.7315,20.6764815625,28.8435,20.7059515625C29.3502,20.9004015625,29.5918,21.3600115625,29.5682,22.0906715625L29.5682,23.9762515625L27.6296,23.9762515625C27.282,23.9762515625,27.0404,23.9644715625,26.9049,23.9467915625C26.7693,23.9232115625,26.6574,23.8819715625,26.5513,23.8171615625C26.2803,23.6344915625,26.1447,23.3575415625,26.1447,22.9863215625C26.1447,22.7624115625,26.1978,22.5620715625,26.3038,22.3853015625C26.4099,22.2085215625,26.5572,22.0906815625,26.734,22.0258615625C26.8872,21.9728315625,27.1465,21.9433615625,27.5118,21.9433615625L28.6431,21.9433615625L28.6431,21.9374615625ZM28.6431,22.6563315625L27.5825,22.6563315625L27.4234,22.6563315625C27.3173,22.6563315625,27.2348,22.6858015625,27.17,22.7388315625C27.1052,22.7918615625,27.0757,22.8684615625,27.0757,22.9686415625C27.0757,23.0747015625,27.1111,23.1513015625,27.1877,23.1984415625C27.2643,23.2455815625,27.3939,23.2691515625,27.5766,23.2691515625L28.6372,23.2691515625L28.6372,22.6563315625L28.6431,22.6563315625ZM21.3424,23.9762315625L21.3424,23.1571815625L23.4401,23.1571815625C23.776,23.1571815625,23.9999,23.1277215625,24.106,23.0629115625C24.2651,22.9686315625,24.3475,22.8213215625,24.3475,22.6268615625C24.3475,22.4029515625,24.2533,22.2379615625,24.0647,22.1377915625C23.9586,22.078861562500002,23.7878,22.0494015625,23.558,22.0494015625L22.7036,22.0494015625C22.185,22.0494015625,21.8138,21.9551315625,21.584,21.7665615625C21.4426,21.6487115625,21.3306,21.4955115625,21.2481,21.3187415625C21.1656,21.1419715625,21.1303,20.9475115625,21.1303,20.7412815625C21.1303,20.4230815625,21.2246,20.1284615625,21.4131,19.8574135625C21.5958,19.5981445625,21.8904,19.4508335625,22.297,19.4036985625C22.4325,19.3919165625,22.6387,19.3801275625,22.9098,19.3801275625L25.1902,19.3801275625L25.1902,20.1991815625L23.1337,20.1991815625C22.8273,20.2050715625,22.6211,20.2168615625,22.5209,20.2404215625C22.3147,20.2934515625,22.2086,20.4466615625,22.2086,20.7059215625C22.2086,20.9239415625,22.297,21.0712515625,22.4679,21.1478615625C22.5798,21.2008915625,22.7743,21.2303515625,23.0453,21.2303515625L23.7819,21.2303515625C24.159,21.2303515625,24.4359,21.2598215625,24.6186,21.3246315625C24.9427,21.4365915625,25.1666,21.6251415625,25.2903,21.9020915625C25.3846,22.1201115625,25.4377,22.3558115625,25.4377,22.609181562499998C25.4377,22.8920215625,25.3728,23.1395015625,25.2432,23.3575215625C25.0664,23.6698215625,24.7954,23.8583815625,24.4359,23.9231915625C24.2592,23.9526615625,23.9999,23.9644415625,23.6463,23.9644415625L21.3424,23.9644415625L21.3424,23.9762315625ZM16.4517,23.5519915625C16.4811,23.5519915625,16.4988,23.5461015625,16.5047,23.5284215625C16.5047,23.5225315625,16.5106,23.5166415625,16.5283,23.4989615625L16.5401,23.4636015625L16.5401,23.0982715625L15.0905,23.0982715625L15.0905,23.3339715625L14.9373,23.9998215625L14.189,23.9998215625L14.3186,23.3339715625L14.3186,20.6941615625L16.7699,20.6941615625C16.929,20.6941615625,17.0704,20.7530815625,17.1882,20.8709315625C17.3061,20.9887815625,17.365,21.1243115625,17.365,21.2892915625L17.365,23.451811562499998C17.365,23.5637715625,17.3532,23.6462715625,17.3238,23.7110815625C17.2943,23.7759015625,17.2531,23.8348215625,17.2,23.8878515625C17.1588,23.9350015625,17.1116,23.9644615625,17.0645,23.9821315625C17.0115,23.9939115625,16.9584,23.9998115625,16.9113,23.9998115625L16.1512,23.9998115625L16.3456,23.5461015625L16.4517,23.5461015625L16.4517,23.5519915625ZM14.9314,18.9853515625L15.8212,18.9853515625L15.4146,19.8456455625L16.3928,19.8456455625L16.2396,19.4626375625L17.0881,19.4626375625L17.4652,20.4348915625L16.9643,20.4348915625L16.9643,20.4407815625L14.3009,20.4407815625L14.9314,18.9853515625ZM15.0905,21.3010715625L15.0905,21.6664015625L16.5401,21.6664015625L16.5401,21.5190915625C16.5401,21.4601715625,16.5165,21.4071315625,16.4753,21.3658915625C16.434,21.3246415625,16.381,21.3010715625,16.322,21.3010715625L15.0905,21.3010715625ZM16.546,22.5738515625L16.546,22.1967315625L15.0905,22.1967315625L15.0905,22.5738515625L16.546,22.5738515625ZM20.2994,20.7354015625L19.9871,21.3482215625L18.296,21.3482215625C18.2017,21.3482215625,18.1192,21.3305415625,18.0485,21.3010715625C17.9601,21.2716115625,17.8894,21.2244715625,17.8364,21.1655415625C17.7775,21.1125115625,17.7303,21.041801562499998,17.7009,20.959311562499998C17.6655,20.8709215625,17.6478,20.7884315625,17.6478,20.705931562499998L17.6478,19.0383705625L18.5435,19.0383705625L18.5435,19.9752695625L19.2152,19.1149755625L20.1109,19.1149755625L18.9913,20.5232715625L18.5435,20.5232715625C18.5435,20.5763015625,18.5612,20.6293315625,18.5965,20.6823615625C18.6496,20.7177115625,18.7026,20.7353915625,18.7556,20.7353915625L20.2994,20.7354015625ZM20.2994,23.3045015625L19.9871,23.9114315625L18.296,23.9114315625C18.2017,23.9114315625,18.1192,23.8937515625,18.0485,23.8642815625C18.0073,23.8525015625,17.9719,23.8289315625,17.9366,23.8053615625C17.9012,23.7817915625,17.8718,23.7523315625,17.8364,23.7287515625C17.7775,23.6757215625,17.7303,23.6109115625,17.7009,23.5225215625C17.6655,23.4400215625,17.6478,23.3575315625,17.6478,23.2691415625L17.6478,21.6192615625L18.5435,21.6192615625L18.5435,22.5561615625L19.2152,21.6723015625L20.1109,21.6723015625L18.9913,23.0923815625L18.5435,23.0923815625C18.5435,23.1571915625,18.5612,23.204331562500002,18.5965,23.2455815625C18.6496,23.286821562500002,18.7026,23.3103915625,18.7556,23.3103915625L20.2994,23.3103915625L20.2994,23.3045015625ZM7.42447,21.5780315625L8.23762,20.8768315625L7.41268,20.8768315625L7.41268,20.1933115625L8.59706,20.1933115625L8.59706,19.9458285625L8.36136,19.9458285625L7.85461,19.9458285625L7.41268,19.9458285625L7.73677,19.0207191625L8.68545,19.0207191625L8.60296,19.2623075625L10.406,19.2623075625L10.406,19.9458285625L9.55164,19.9458285625L9.55164,20.1933115625L10.4473,20.1933115625L10.4473,20.8768315625L9.94054,20.8768315625L10.5416,21.5780315625L9.58699,21.5780315625L9.14506,21.0536015625L8.53814,21.5780315625L7.42447,21.5780315625ZM7.49518,23.9762515625L7.49518,23.3811115625L7.49518,23.1041715625L7.49518,22.6386715625L7.49518,22.3617315625L7.49518,21.8255215625L7.49518,21.7548115625L12.3741,21.7548115625L13.3699,21.7548115625L13.3699,22.3676215625L13.3699,22.6445715625L13.3699,23.0865015625L13.3699,23.1159615625C13.364,23.2397015625,13.3464,23.3516615625,13.3051,23.4577315625C13.2639,23.5637915625,13.2108,23.6521815625,13.146,23.7346715625C13.0812,23.8171615625,12.9987,23.8760915625,12.9044,23.9173315625C12.8102,23.9644715625,12.7159,23.9880415625,12.6157,23.9880415625L8.47332,23.9880415625L7.49518,23.9880415625L7.49518,23.9762515625ZM8.47332,22.6327815625L12.3741,22.6327815625L12.3741,22.3558415625L8.47332,22.3558415625L8.47332,22.6327815625ZM8.47332,23.3693315625L12.1561,23.3693315625C12.2209,23.3693315625,12.2739,23.3457615625,12.3152,23.292731562500002C12.3564,23.2455815625,12.38,23.1807715625,12.38,23.1100615625L12.38,23.0982815625L8.47922,23.0982815625L8.47922,23.3693315625L8.47332,23.3693315625ZM10.7183,19.0207119625L13.4524,19.0207119625L13.4524,19.0855275625L13.4524,19.7042335625L13.4524,20.8179015625C13.4524,20.9239715625,13.4348,21.0241415625,13.3935,21.1125315625C13.3523,21.2068015625,13.2992,21.2834115625,13.2344,21.3541115625C13.1696,21.4248215625,13.0871,21.4778515625,12.9928,21.5132115625C12.8985,21.5544515625,12.8043,21.5721315625,12.6982,21.5721315625L10.7242,21.5721315625L10.7242,21.3010815625L10.7242,20.8886115625L10.7242,19.6983425625L10.7242,19.0796362625L10.7242,19.0207119625L10.7183,19.0207119625ZM12.4979,19.7042335625L11.6788,19.7042335625L11.6788,20.8945015625L12.2857,20.8945015625C12.3447,20.8945015625,12.3977,20.8709315625,12.4389,20.8296915625C12.4802,20.7884415625,12.5037,20.7354115625,12.5037,20.6764815625L12.5037,19.7042335625L12.4979,19.7042335625ZM5.62138,23.9762315625L5.62138,19.3860255625L6.59953,19.3860255625L6.59953,23.9762315625L5.62138,23.9762315625ZM0,23.9762315625L1.89737,19.3860255625L3.01693,19.3860255625L4.91429,23.9762315625L3.77705,23.9762315625L3.32923,22.9156015625L1.59096,22.9156015625L1.14313,23.9762315625L0,23.9762315625ZM2.46304,20.4938115625L1.80898,22.0965515625L3.1171,22.0965515625L2.46304,20.4938115625Z" fill="#D11B23" fill-opacity="1" style="mix-blend-mode:passthrough"/></g><g><path d="M17.689395703125,12.716023046875C18.791295703125,13.794423046875,20.211395703125,14.330623046875,21.937795703125,14.330623046875C22.739195703125,14.330623046875,23.487595703125,14.195023046875,24.188795703125,13.924023046875C24.889995703125,13.658823046875,25.467395703125,13.311223046875,25.909395703125,12.875123046875L25.909395703125,7.324483046875L21.507695703125,7.324483046875L21.507695703125,9.540033046875L23.505195703125,9.540033046875L23.505195703125,11.614173046875C23.198795703125,11.855723046875,22.768695703125,11.979523046875,22.214795703125,11.979523046875C21.101095703125,11.979523046875,20.258495703125,11.643633046875,19.686895703125,10.966003046875C19.115395703125,10.288373046875,18.826595703125,9.322013046875,18.826595703125,8.066923046875C18.826595703125,6.876653046875,19.121295703125,5.933863046875,19.704595703125,5.232663046875C20.299795703125,4.531463046875,21.065795703125,4.1838130468750006,22.014495703125,4.1838130468750006C22.803995703125,4.1838130468750006,23.564195703125,4.507893046875,24.288895703125,5.144283046875L25.708995703125,3.406013046875C24.683695703125,2.363051046875,23.422695703125,1.838623046875,21.914295703125,1.838623046875C20.252595703125,1.844514046875,18.856095703125,2.416077046875,17.730695703125,3.5533230468749997C16.605195703125,4.690553046874999,16.039495703125,6.228483046875,16.039495703125,8.161203046875C16.033595703125002,10.117493046875,16.581595703125,11.637743046875,17.689395703125,12.716023046875ZM0.860595703125,2.056640046875L0.860595703125,14.118423046875L3.311845703125,14.118423046875L3.311845703125,9.699133046875C3.305955703125,9.074533046875,3.188105703125,7.707493046875,2.952415703125,5.598003046875L3.023115703125,5.598003046875L3.989475703125,8.467613046875L5.704175703125,13.063723046875L7.206745703125,13.063723046875L8.921445703125,8.467613046875L9.905485703125,5.598003046875L9.976195703125,5.598003046875C9.746395703125,7.701593046875,9.628545703125,9.068643046875,9.628545703125,9.699133046875L9.628545703125,14.118423046875L12.109295703125,14.118423046875L12.109295703125,2.062538046875L9.151255703125,2.062538046875L7.242105703125,7.424653046875C7.159615703125,7.683923046875,7.041765703125,8.066933046875,6.894455703125,8.567793046875C6.747145703125,9.068643046875,6.635185703125,9.428083046874999,6.558585703125,9.640213046875001L6.487875703125,9.640213046875001C6.423055703125,9.463433046875,6.316995703125,9.109893046875001,6.152005703125,8.591353046875C5.992905703125,8.066923046875,5.875055703125,7.678023046875,5.786675703125,7.418753046875L3.842165703125,2.056640046875L0.860595703125,2.056640046875ZM30.057595703125,2.056640046875L30.057595703125,14.112523046875L37.546895703125,14.112523046875L37.546895703125,11.820403046875L32.779895703125,11.820403046875L32.779895703125,2.056640046875L30.057595703125,2.056640046875Z" fill-rule="evenodd" fill="#D11B23" fill-opacity="1" style="mix-blend-mode:passthrough"/></g></g></g></svg>