<svg xmlns="http://www.w3.org/2000/svg" xmlns:xlink="http://www.w3.org/1999/xlink" fill="none" version="1.1" width="84.80130004882812" height="24" viewBox="0 0 84.80130004882812 24"><defs><clipPath id="master_svg0_704_8230/781_03374"><rect x="0" y="0" width="84.80130004882812" height="24" rx="0"/></clipPath></defs><g clip-path="url(#master_svg0_704_8230/781_03374)"><g><g><path d="M40.187352551269534,21.400639488220214L40.187352551269534,17.781339488220215C40.187352551269534,17.723539488220215,40.23415255126953,17.676739488220214,40.29195255126953,17.676739488220214L44.08565255126953,17.676739488220214L44.08565255126953,4.823119488220215L40.29195255126953,4.823119488220215C40.23545255126953,4.823539488220215,40.18895255126953,4.778659488220215,40.187352551269534,4.722139488220215L40.187352551269534,2.598639488220215L37.80235255126953,2.598639488220215L37.80235255126953,4.722139488220215C37.80235255126953,4.779919488220215,37.75545255126953,4.826749488220215,37.69775255126953,4.826759488220215L33.90331255126953,4.826759488220215L33.90331255126953,17.676739488220214L37.69775255126953,17.676739488220214C37.75535255126953,17.677139488220213,37.80195255126953,17.723739488220215,37.80235255126953,17.781339488220215L37.80235255126953,21.400639488220214L40.187352551269534,21.400639488220214ZM40.10165255126953,7.264819488220215C40.10165255126953,7.207049488220215,40.14845255126953,7.1602094882202145,40.20625255126953,7.1602094882202145L41.761652551269535,7.1602094882202145C41.81925255126953,7.1606094882202145,41.86585255126953,7.207209488220215,41.86625255126953,7.264819488220215L41.86625255126953,10.019629488220215C41.86625255126953,10.077409488220216,41.819452551269535,10.124249488220215,41.761652551269535,10.124249488220215L40.20845255126953,10.124249488220215C40.15045255126953,10.124649488220214,40.103452551269534,10.077579488220215,40.10385255126953,10.019629488220215L40.10165255126953,7.264819488220215ZM40.10165255126953,12.488939488220215C40.10125255126953,12.430999488220214,40.14835255126953,12.383919488220215,40.20625255126953,12.384329488220216L41.761652551269535,12.384329488220216C41.819452551269535,12.384329488220216,41.86625255126953,12.431169488220215,41.86625255126953,12.488939488220215L41.86625255126953,15.236539488220215C41.86625255126953,15.294239488220216,41.819452551269535,15.341139488220215,41.761652551269535,15.341139488220215L40.20845255126953,15.341139488220215C40.15045255126953,15.341539488220215,40.103452551269534,15.294439488220215,40.10385255126953,15.236539488220215L40.10165255126953,12.488939488220215ZM36.14232255126953,7.264819488220215C36.14232255126953,7.207049488220215,36.18915255126953,7.1602094882202145,36.24693255126953,7.1602094882202145L37.78125255126953,7.1602094882202145C37.83905255126953,7.1602094882202145,37.88585255126953,7.207049488220215,37.88585255126953,7.264819488220215L37.88585255126953,10.019629488220215C37.886252551269536,10.077579488220215,37.83925255126953,10.124659488220214,37.78125255126953,10.124249488220215L36.24693255126953,10.124249488220215C36.188992551269536,10.124659488220214,36.14191255126953,10.077579488220215,36.14232255126953,10.019629488220215L36.14232255126953,7.264819488220215ZM37.78125255126953,15.341139488220215L36.24693255126953,15.341139488220215C36.188992551269536,15.341539488220215,36.14191255126953,15.294439488220215,36.14232255126953,15.236439488220215L36.14232255126953,12.488219488220215C36.14191255126953,12.430269488220215,36.188992551269536,12.383189488220214,36.24693255126953,12.383599488220215L37.78125255126953,12.383599488220215C37.83925255126953,12.383189488220214,37.886252551269536,12.430269488220215,37.88585255126953,12.488219488220215L37.88585255126953,15.235739488220215C37.886252551269536,15.293739488220215,37.83925255126953,15.340739488220215,37.78125255126953,15.340339488220215L37.78125255126953,15.341139488220215ZM33.185542551269535,14.833339488220215L33.185542551269535,12.325489488220216L31.41801255126953,11.323679488220215C31.37125255126953,11.296989488220214,31.35214255126953,11.239339488220216,31.37370255126953,11.189999488220215C32.20660255126953,9.295969488220216,32.834002551269535,7.3180794882202145,33.24511255126953,5.290259488220215L31.086012551269533,5.290259488220215C31.02807255126953,5.290659488220214,30.98099255126953,5.2435894882202145,30.981402551269532,5.185639488220215L30.981402551269532,2.8986834882202146L28.60290255126953,2.8986834882202146L28.60290255126953,5.185639488220215C28.603312551269532,5.2435894882202145,28.55623255126953,5.290659488220214,28.498292551269532,5.290259488220215L26.378421551269533,5.290259488220215L26.378421551269533,7.6280694882202145L30.01082255126953,7.6280694882202145C30.04462255126953,7.6283494882202145,30.07624255126953,7.644829488220215,30.09582255126953,7.672389488220215C30.115582551269533,7.700019488220215,30.120472551269533,7.735609488220215,30.10890255126953,7.767549488220215C29.25020255126953,10.199809488220215,27.95488255126953,12.587019488220214,26.25855255126953,14.867439488220215L28.841192551269533,14.867439488220215C28.898802551269533,14.867839488220215,28.94540255126953,14.914439488220214,28.94580255126953,14.972039488220215L28.94580255126953,20.995339488220214L31.32357255126953,20.995339488220214L31.32357255126953,13.959339488220214C31.32390255126953,13.922239488220216,31.34377255126953,13.887939488220216,31.37588255126953,13.869239488220215C31.408022551269532,13.850739488220215,31.447622551269532,13.850739488220215,31.47976255126953,13.869239488220215L33.185542551269535,14.833339488220215ZM56.33265255126953,3.2263254882202146L56.33265255126953,9.063589488220215L63.76745255126953,9.063589488220215L63.76745255126953,3.2263254882202146L56.33265255126953,3.2263254882202146ZM61.41005255126953,6.985129488220215C61.41005255126953,7.042909488220215,61.36315255126953,7.089749488220215,61.30545255126953,7.089749488220215L58.79475255126953,7.089749488220215C58.73675255126953,7.090159488220215,58.68965255126953,7.043079488220215,58.69005255126953,6.985129488220215L58.69005255126953,5.262649488220215C58.69005255126953,5.204869488220215,58.73695255126953,5.158039488220215,58.79475255126953,5.158039488220215L61.30545255126953,5.158039488220215C61.36305255126953,5.158429488220214,61.40965255126953,5.205039488220215,61.41005255126953,5.262649488220215L61.41005255126953,6.985129488220215ZM76.99735255126953,20.995339488220214L76.99735255126953,16.937139488220215C76.99735255126953,16.879439488220214,77.04425255126952,16.832539488220213,77.10195255126953,16.832539488220213L78.59415255126953,16.832539488220213C78.63625255126954,16.832639488220217,78.67425255126953,16.857839488220215,78.69085255126953,16.896539488220213C79.56255255126953,18.917539488220214,81.61415255126954,20.310939488220214,84.80125255126953,21.033039488220215L84.80125255126953,18.674239488220216C83.31925255126953,18.341439488220217,82.24115255126952,17.796639488220215,81.50955255126954,17.008339488220216C81.48115255126953,16.977839488220216,81.47365255126954,16.933339488220213,81.49035255126952,16.895239488220213C81.50705255126954,16.857039488220217,81.54485255126953,16.832439488220217,81.58655255126953,16.832539488220213L84.80125255126953,16.832539488220213L84.80125255126953,14.615339488220215L77.13685255126953,14.615339488220215C77.07905255126954,14.615339488220215,77.03225255126952,14.568539488220216,77.03225255126952,14.510739488220215L77.03225255126952,13.499439488220215C77.03185255126954,13.441539488220215,77.07895255126954,13.394439488220215,77.13685255126953,13.394839488220216L84.70755255126953,13.394839488220216L84.70755255126953,11.636779488220215L78.77945255126953,11.636779488220215C78.72145255126952,11.637189488220216,78.67445255126952,11.590109488220214,78.67485255126954,11.532169488220214L78.67485255126954,10.646589488220215C78.67485255126954,10.588809488220214,78.72165255126953,10.541979488220214,78.77945255126953,10.541979488220214L83.89825255126954,10.541979488220214L83.89825255126954,8.931369488220215L78.77945255126953,8.931369488220215C78.72165255126953,8.931369488220215,78.67485255126954,8.884529488220215,78.67485255126954,8.826759488220215L78.67485255126954,7.933909488220215C78.67445255126952,7.875969488220215,78.72145255126952,7.828899488220215,78.77945255126953,7.829299488220215L83.89825255126954,7.829299488220215L83.89825255126954,6.217969488220215L78.77945255126953,6.217969488220215C78.72145255126952,6.218369488220215,78.67445255126952,6.171289488220214,78.67485255126954,6.113349488220215L78.67485255126954,5.241579488220214C78.67485255126954,5.183799488220215,78.72165255126953,5.136959488220215,78.77945255126953,5.136959488220215L84.50485255126952,5.136959488220215L84.50485255126952,3.386872488220215L78.77945255126953,3.386872488220215C78.72165255126953,3.3868714882202147,78.67485255126954,3.340035488220215,78.67485255126954,3.2822594882202147L78.67485255126954,2.6400505882202148L76.22005255126953,2.6400505882202148L76.22005255126953,3.2822594882202147C76.21965255126953,3.339870488220215,76.17305255126954,3.386475488220215,76.11545255126953,3.386872488220215L71.67595255126953,3.386872488220215C71.64395255126954,3.386616488220215,71.61375255126953,3.371934488220215,71.59385255126952,3.346915488220215C71.57385255126954,3.321768488220215,71.56655255126952,3.2887754882202147,71.57425255126952,3.257558488220215L71.72385255126953,2.6400505882202148L69.52915255126953,2.6400505882202148C68.95815255126954,4.555049488220215,67.97445255126954,6.107539488220215,66.60585255126952,7.257559488220215L66.60585255126952,10.254289488220214C67.17515255126953,9.888119488220216,67.71005255126954,9.471109488220215,68.20405255126954,9.008379488220214C68.23395255126954,8.980019488220215,68.27775255126953,8.971869488220214,68.31585255126953,8.987549488220214C68.35395255126953,9.003239488220215,68.37935255126953,9.039829488220214,68.38065255126953,9.081019488220214L68.38065255126953,13.391239488220215L74.46925255126953,13.391239488220215C74.52705255126953,13.391239488220215,74.57385255126954,13.438039488220214,74.57385255126954,13.495839488220215L74.57385255126954,14.507139488220215C74.57345255126953,14.564739488220216,74.52685255126954,14.611339488220215,74.46925255126953,14.611739488220215L66.80775255126953,14.611739488220215L66.80775255126953,16.832539488220213L70.02315255126953,16.832539488220213C70.06405255126953,16.834139488220217,70.10025255126953,16.859339488220215,70.11595255126953,16.897139488220215C70.13155255126952,16.934939488220216,70.12365255126953,16.978439488220214,70.09585255126953,17.008339488220216C69.36785255126952,17.798739488220214,68.28905255126953,18.341439488220217,66.80775255126953,18.674239488220216L66.80775255126953,21.033039488220215C69.99485255126953,20.306639488220213,72.05075255126954,18.917539488220214,72.91895255126954,16.896539488220213C72.93535255126953,16.858039488220214,72.97305255126953,16.832939488220212,73.01485255126954,16.832539488220213L74.50775255126953,16.832539488220213C74.56535255126954,16.832939488220212,74.61195255126952,16.879539488220217,74.61235255126954,16.937139488220215L74.61235255126954,20.995339488220214L76.99735255126953,20.995339488220214ZM70.80415255126954,5.444269488220215C70.80395255126953,5.421449488220215,70.81135255126952,5.399219488220215,70.82525255126953,5.381059488220215C70.84215255126952,5.3550294882202145,70.85625255126953,5.327269488220215,70.86735255126953,5.298239488220215C70.88375255126954,5.258429488220215,70.90345255126954,5.220029488220215,70.92615255126952,5.183459488220215C70.94575255126952,5.154449488220215,70.97835255126952,5.1370294882202145,71.01335255126953,5.136959488220215L76.11185255126952,5.136959488220215C76.16945255126953,5.1373594882202145,76.21605255126954,5.183969488220215,76.21645255126953,5.241579488220214L76.21645255126953,6.113349488220215C76.21645255126953,6.171129488220215,76.16955255126953,6.217969488220215,76.11185255126952,6.217969488220215L70.90875255126953,6.217969488220215C70.85095255126953,6.217969488220215,70.80415255126954,6.171129488220215,70.80415255126954,6.113349488220215L70.80415255126954,5.444269488220215ZM70.80415255126954,7.933909488220215C70.80415255126954,7.876139488220215,70.85095255126953,7.829299488220215,70.90875255126953,7.829299488220215L76.11185255126952,7.829299488220215C76.16955255126953,7.829299488220215,76.21645255126953,7.876139488220215,76.21645255126953,7.933909488220215L76.21645255126953,8.826759488220215C76.21605255126954,8.884369488220216,76.16945255126953,8.930969488220214,76.11185255126952,8.931369488220215L70.90875255126953,8.931369488220215C70.85115255126954,8.930979488220215,70.80455255126952,8.884369488220216,70.80415255126954,8.826759488220215L70.80415255126954,7.933909488220215ZM70.90875255126953,11.638959488220214C70.85095255126953,11.638959488220214,70.80415255126954,11.592129488220214,70.80415255126954,11.534349488220215L70.80415255126954,10.646589488220215C70.80455255126952,10.588979488220215,70.85115255126954,10.542369488220215,70.90875255126953,10.541979488220214L76.11185255126952,10.541979488220214C76.16945255126953,10.542379488220215,76.21605255126954,10.588979488220215,76.21645255126953,10.646589488220215L76.21645255126953,11.532169488220214C76.21645255126953,11.589949488220215,76.16955255126953,11.636779488220215,76.11185255126952,11.636779488220215L70.90875255126953,11.638959488220214ZM63.56695255126953,16.972039488220215C63.56725255126953,16.894239488220215,63.64935255126953,16.843939488220215,63.71875255126953,16.879039488220215C64.09715255126953,17.064239488220217,64.48515255126952,17.229139488220213,64.88115255126954,17.373039488220215L64.88115255126954,14.860939488220215C63.71875255126953,14.408339488220214,62.847052551269535,13.771139488220214,62.21645255126953,12.912439488220215C62.19255255126953,12.880839488220214,62.188852551269534,12.838339488220214,62.20675255126953,12.803039488220215C62.22465255126953,12.767739488220215,62.26105255126953,12.745639488220215,62.30065255126953,12.746139488220216L64.78385255126953,12.746139488220216L64.78385255126953,10.528169488220215L62.72135255126953,10.528169488220215C62.67595255126953,10.527899488220214,62.63585255126953,10.498639488220215,62.62175255126953,10.455519488220215L62.31885255126953,9.570669488220215L59.97235255126953,9.570669488220215L60.24695255126953,10.388679488220216C60.26905255126953,10.456529488220216,60.21875255126953,10.526299488220214,60.14745255126953,10.526709488220215L56.911652551269526,10.526709488220215C56.85375255126953,10.527119488220215,56.806652551269536,10.480049488220214,56.807052551269535,10.422099488220216L56.807052551269535,9.572849488220214L54.35225255126953,9.572849488220214L54.35225255126953,10.423559488220214C54.35225255126953,10.481329488220215,54.30545255126953,10.528169488220215,54.24765255126953,10.528169488220215L46.380652551269534,10.528169488220215L46.380652551269534,12.746139488220216L48.86295255126953,12.746139488220216C48.90265255126953,12.745639488220215,48.939052551269526,12.767739488220215,48.95695255126953,12.803039488220215C48.974852551269535,12.838339488220214,48.97105255126953,12.880839488220214,48.94725255126953,12.912439488220215C48.31525255126953,13.769739488220214,47.442752551269535,14.408339488220214,46.28255255126953,14.860939488220215L46.28255255126953,17.373039488220215C46.67855255126953,17.229239488220216,47.06655255126953,17.064339488220213,47.444852551269534,16.879039488220215C47.47725255126953,16.862639488220214,47.51575255126953,16.864339488220217,47.54665255126953,16.883439488220215C47.577152551269535,16.902539488220214,47.59575255126953,16.936039488220217,47.59605255126953,16.972039488220215L47.59605255126953,20.696739488220214L54.86805255126953,20.696739488220214L54.86805255126953,14.426439488220215L50.78815255126953,14.426439488220215C50.748552551269526,14.426939488220215,50.71215255126953,14.404839488220215,50.69425255126953,14.369539488220214C50.67635255126953,14.334139488220215,50.68005255126953,14.291739488220214,50.703852551269534,14.260139488220215C51.039452551269534,13.803339488220216,51.33265255126953,13.317039488220216,51.58005255126953,12.807139488220216C51.59755255126953,12.771439488220215,51.63395255126953,12.748839488220215,51.67375255126953,12.749039488220214L59.48485255126953,12.749039488220214C59.52465255126953,12.748839488220215,59.56105255126953,12.771439488220215,59.57855255126953,12.807139488220216C59.82635255126953,13.316839488220214,60.11955255126953,13.803139488220214,60.45475255126953,14.260139488220215C60.47855255126953,14.291739488220214,60.48225255126953,14.334139488220215,60.464352551269535,14.369539488220214C60.44645255126953,14.404839488220215,60.41005255126953,14.426939488220215,60.37045255126953,14.426439488220215L56.29055255126953,14.426439488220215L56.29055255126953,20.696739488220214L63.56695255126953,20.696739488220214L63.56695255126953,16.972039488220215ZM52.464152551269535,16.407539488220216C52.52205255126953,16.407139488220217,52.56915255126953,16.454239488220217,52.568752551269526,16.512139488220214L52.568752551269526,18.569539488220215C52.568752551269526,18.627339488220215,52.521952551269536,18.674239488220216,52.464152551269535,18.674239488220216L49.98175255126953,18.674239488220216C49.92415255126953,18.673839488220214,49.87755255126953,18.627139488220216,49.87715255126953,18.569539488220215L49.87715255126953,16.512139488220214C49.87715255126953,16.454439488220217,49.92395255126954,16.407539488220216,49.98175255126953,16.407539488220216L52.464152551269535,16.407539488220216ZM61.28655255126953,18.569539488220215C61.28655255126953,18.627339488220215,61.23965255126953,18.674239488220216,61.18195255126953,18.674239488220216L58.699552551269534,18.674239488220216C58.64195255126953,18.673839488220214,58.59535255126953,18.627139488220216,58.59495255126953,18.569539488220215L58.59495255126953,16.512139488220214C58.59495255126953,16.454439488220217,58.64175255126953,16.407539488220216,58.699552551269534,16.407539488220216L61.182652551269534,16.407539488220216C61.24055255126953,16.407139488220217,61.28765255126953,16.454239488220217,61.28725255126953,16.512139488220214L61.28655255126953,18.569539488220215ZM47.39185255126953,3.2263254882202146L47.39185255126953,9.063589488220215L54.82595255126953,9.063589488220215L54.82595255126953,3.2263254882202146L47.39185255126953,3.2263254882202146ZM52.469252551269534,6.985129488220215C52.469252551269534,7.042909488220215,52.422352551269526,7.089749488220215,52.36465255126953,7.089749488220215L49.85385255126953,7.089749488220215C49.79595255126954,7.090159488220215,49.748852551269536,7.043079488220215,49.749252551269535,6.985129488220215L49.749252551269535,5.262649488220215C49.749252551269535,5.204869488220215,49.79615255126953,5.158039488220215,49.85385255126953,5.158039488220215L52.36465255126953,5.158039488220215C52.42225255126953,5.158429488220214,52.468852551269535,5.205039488220215,52.469252551269534,5.262649488220215L52.469252551269534,6.985129488220215Z" fill="#FFFFFF" fill-opacity="0.8500000238418579"/></g></g><g><path d="M12.0007,0C5.37255,-0.000133518,-0.000725985,5.37249,-0.000725985,12C-0.000859502,18.6274,5.37176,24,11.9993,24C18.6267,24.0001,23.9993,18.6278,23.9993,12.0007C23.9989,5.37279,18.6271,0,12.0007,0ZM20.1816,15.4348C20.1824,15.4374,20.1824,15.4402,20.1816,15.4428C20.1824,15.4447,20.1824,15.4467,20.1816,15.4486C20.1824,15.4505,20.1824,15.4525,20.1816,15.4544L20.1765,15.461L20.1693,15.4646L20.1642,15.4646C20.1597,15.466,20.1549,15.466,20.1504,15.4646L16.9728,15.4435C16.962,15.4436,16.9517,15.4391,16.9444,15.4312L12.0429,9.5692C12.0406,9.56641,12.0379,9.56396,12.0349,9.56193L12.0276,9.5583L11.9935,9.5583L11.9847,9.56484L6.7628,15.4116C6.75569,15.4198,6.74536,15.4246,6.73447,15.4246L3.85616,15.4246C3.85158,15.4253,3.84693,15.4253,3.84235,15.4246L3.838,15.4246L3.83146,15.4246L3.8271,15.4188L3.8271,15.413C3.82637,15.4106,3.82637,15.4081,3.8271,15.4057L3.8271,15.3985C3.82637,15.3961,3.82637,15.3936,3.8271,15.3912L3.8271,15.3861C3.82855,15.3817,3.83076,15.3775,3.83364,15.3738L11.9702,6.11696L11.9746,6.11696L11.9818,6.1126L12.0094,6.1126L12.016,6.11696L12.0211,6.11696L20.1765,15.4159C20.1797,15.4194,20.1819,15.4237,20.1831,15.4283C20.1838,15.4301,20.1838,15.4322,20.1831,15.4341C20.1838,15.4367,20.1838,15.4394,20.1831,15.4421L20.1816,15.4348Z" fill="#01C1A3" fill-opacity="1" style="mix-blend-mode:passthrough"/></g></g></svg>