<svg xmlns="http://www.w3.org/2000/svg" xmlns:xlink="http://www.w3.org/1999/xlink" fill="none" version="1.1" width="103.98600769042969" height="24" viewBox="0 0 103.98600769042969 24"><defs><clipPath id="master_svg0_704_8230/781_03369"><rect x="0" y="0" width="103.98600769042969" height="24" rx="0"/></clipPath></defs><g clip-path="url(#master_svg0_704_8230/781_03369)"><g><path d="M98.80877734375,17.743153984375L98.70397734375,18.613013984375L99.73097734375,18.613023984375L99.45857734375,20.845333984375C99.44807734375,20.960613984375,99.43757734375001,21.044453984375,99.43757734375001,21.086383984375C99.43757734375001,21.484633984375,99.56337734375,21.788563984375,99.80437734375,21.987693984375C100.04547734375001,22.186823984375,100.39127734375,22.291623984375,100.84197734375,22.291623984375C101.16687734375,22.291623984375,101.43927734375,22.281133984375,101.65937734375,22.270663984375L101.76417734374999,21.379833984375C101.36597734375,21.390313984375,101.10397734375,21.400793984375,100.94677734375,21.400793984375C100.59037734374999,21.400793984375,100.41227734374999,21.222623984374998,100.41227734374999,20.855813984375C100.41227734374999,20.792933984375,100.41227734374999,20.740533984375,100.42267734375,20.698603984374998L100.67427734374999,18.613013984375L102.05767734375,18.613013984375L102.16247734375,17.743153984375L100.77907734375,17.743153984375L100.91527734375,16.579833984375L99.97207734375,16.579833984375L99.83587734375,17.743153984375L98.80877734375,17.743153984375ZM96.55547734375,18.109963984375C96.27257734375,17.847963984375,95.84287734375,17.711713984375,95.28737734375,17.711713984375L95.11967734375,17.711713984375C94.46987734375,17.711713984375,93.96687734375,17.879403984375,93.61047734375,18.204293984375C93.25417734375,18.539663984375,93.03408734375,19.032233984375,92.96072734375,19.682023984375L92.87688734375,20.363243984375C92.86639734375,20.499483984375,92.85592734375,20.625253984375,92.85592734375,20.751013984375C92.85592734375,21.264553984375,93.01312734375,21.662803984375,93.31707734375,21.924813984375C93.62097734375,22.186823984375,94.10307734375,22.323063984375,94.76337734375,22.323063984375L95.16157734375,22.323063984375C95.53887734375,22.323063984375,95.96857734375,22.302103984375,96.45067734375,22.249703984375L96.54497734375,21.400803984375C95.96857734375,21.453203984375,95.53887734375,21.474163984375,95.25587734375,21.474163984375L94.85767734375,21.474163984375C94.48037734375,21.474163984375,94.20787734375,21.411273984375,94.05067734375,21.275033984375C93.89347734374999,21.138783984375,93.80967734375,20.929173984374998,93.80967734375,20.656693984375C93.80967734375,20.614773984375,93.82007734375,20.530923984375,93.83057734375001,20.415643984375L93.83057734375001,20.405163984375L96.86987734375,20.405163984375L96.96417734375,19.671543984375C96.97467734375,19.535303984375,96.98517734375,19.399053984375,96.98517734375,19.283763984375C96.98517734375,18.759753984375,96.83847734375,18.371973984375,96.55547734375,18.109963984375ZM87.50047734375,22.281143984375L87.94064734375,18.613023984375L89.05156734375,18.613013984375C89.61749734375,18.613013984375,89.90046734375,18.885513984375,89.90046734375,19.440963984375C89.90046734375,19.482893984375,89.88998734375,19.566733984375,89.87950734375,19.671533984375L89.56509734375,22.281143984375L90.50832734375,22.281143984375L90.82273734375,19.692493984374998C90.83322734375,19.545773984375,90.84369734375,19.409523984375,90.84369734375,19.283763984375C90.84369734375,18.246213984375,90.27776734375,17.732673984375,89.15636734375,17.732673984375L87.11269734375,17.732673984375L86.55724734375,22.281143984375L87.50047734375,22.281143984375ZM96.05247734375,19.336173984375C96.05247734375,19.399053984375,96.04197734375,19.482893984375,96.03147734375,19.608653984375L93.92497734375,19.608653984375C94.00877734375,18.895993984375,94.37557734375,18.539663984375,95.01487734375,18.539663984375L95.18257734375,18.539663984375C95.48647734375,18.539663984375,95.70657734375,18.602543984375,95.84287734375,18.738793984375C95.97907734374999,18.875033984375,96.05247734375,19.074163984375,96.05247734375,19.336173984375ZM83.33977634375,21.275023984375C83.24545634375,21.358863984375,83.19305494375,21.474153984375,83.17209304375,21.610393984375L83.14065325375,21.851443984375C83.11969124375,21.998163984375,83.15113104375,22.113453984375,83.22449474375,22.197293984375C83.29785834375,22.281133984375,83.40266234375,22.323053984375,83.53890534375,22.323053984375L83.77995134375,22.323053984375C83.91619534375,22.323053984375,84.03147634375,22.281133984375,84.12580234375,22.197293984375C84.20964734375,22.113453984375,84.27252734375,21.998163984375,84.29348734375,21.851443984375L84.32492734375,21.610393984375C84.34588734375,21.463663984375,84.32492734375,21.358863984375,84.24108734375,21.275023984375C84.15723734375,21.201663984375,84.05243834375,21.159743984374998,83.91619534375,21.159743984374998L83.67514834375,21.159743984374998C83.53890534375,21.159743984374998,83.43410134375,21.191183984375,83.33977634375,21.275023984375Z" fill-rule="evenodd" fill="#1074EE" fill-opacity="1" style="mix-blend-mode:passthrough"/></g><g><path d="M99.542491015625,1.84473909375C99.762591015625,1.83426109375,99.951291015625,1.87617909375,100.108491015625,1.98098209375C100.276191015625,2.08578609375,100.433391015625,2.25346909375,100.601091015625,2.4735600937499997L103.986191015625,7.48316609375L102.047391015625,7.71373609375L99.270091015625,3.3748660937499997L95.549491015625,3.3748660937499997L91.619391015625,7.67180609375L89.638591015625,7.44124609375L94.207991015625,2.43163609375C94.375691015625,2.21155109375,94.532891015625,2.06482409375,94.700591015625,1.97049809375C94.868291015625,1.87617309375,95.067391015625,1.83425509375,95.308491015625,1.84473309375L99.542491015625,1.84473909375ZM97.456991015625,9.610676093750001L101.502391015625,9.610676093750001L101.345191015625,11.10936609375L97.278791015625,11.10936609375L96.974891015625,13.61419609375L102.728591015625,13.61419609375L102.550391015625,15.14429609375L89.659591015625,15.14429609375L89.827291015625,13.61419609375L95.287491015625,13.61419609375L95.591391015625,11.10936609375L91.472691015625,11.10936609375L91.640391015625,9.610676093750001L95.769591015625,9.610676093750001L96.010691015625,7.56701609375L93.118091015625,7.56701609375L93.285791015625,6.09976609375L100.863091015625,6.09976609375L100.695391015625,7.56701609375L97.708491015625,7.56701609375L97.456991015625,9.610676093750001ZM82.417691015625,1.81329909375L81.89359101562499,5.20893609375L87.699791015625,5.20893609375L87.490191015625,6.80194609375L81.97749101562499,6.80194609375C82.54339101562499,8.53120609375,83.297991015625,10.06133609375,84.24119101562499,11.39233609375C85.027291015625,12.52419609375,86.159091015625,13.72949609375,87.605391015625,15.01849609375L85.83419101562501,15.73119609375C84.84909101562499,14.82989609375,83.95829101562501,13.80279609375,83.172191015625,12.66049609375C82.218491015625,11.31897609375,81.495391015625,9.94604609375,80.992291015625,8.56264609375C80.384491015625,9.98796609375,79.535591015625,11.32945609375,78.435091015625,12.60809609375C77.387091015625,13.85519609375,76.23429101562499,14.88229609375,74.97659101562499,15.69979609375L73.383591015625,14.93469609375C75.039491015625,13.83429609375,76.443891015625,12.55569609375,77.575691015625,11.13032609375C78.71809101562499,9.68404609375,79.472691015625,8.24823609375,79.849991015625,6.80194609375L74.463091015625,6.80194609375L74.630791015625,5.20893609375L80.143391015625,5.20893609375L80.69889101562501,1.81329909375L82.417691015625,1.81329909375ZM65.78539101562501,6.36175609375C65.711991015625,6.55040609375,65.58619101562499,6.80193609375,65.40809101562499,7.12682609375L67.766091015625,7.12682609375L67.273591015625,6.39319609375L68.814191015625,6.39319609375L69.317191015625,7.12682609375L71.622891015625,7.12682609375L71.444691015625,8.45782609375L67.54599101562499,8.45782609375C68.793191015625,9.32769609375,70.302391015625,9.99843609375,72.06309101562499,10.49101609375L71.056991015625,11.54952609375L70.58539101562499,11.40280609375C70.616791015625,11.52856609375,70.637791015625,11.67528609375,70.637791015625,11.82199609375C70.637791015625,11.92679609375,70.62729101562499,12.02119609375,70.616791015625,12.08399609375L70.197591015625,15.43769609375L64.91549101562501,15.43769609375L65.40809101562499,11.72769609375C65.460491015625,11.35040609375,65.596691015625,11.07790609375,65.80629101562499,10.91022609375C66.015891015625,10.74254609375,66.319791015625,10.66917609375,66.728591015625,10.66917609375L68.87699101562501,10.66917609375C67.619391015625,10.06132609375,66.550391015625,9.32769609375,65.67009101562499,8.45782609375L64.37049101562499,8.45782609375C63.930291015625,8.89800609375,63.406291015625,9.29625609375,62.829891015625,9.652596093749999C62.242991015625,10.00892609375,61.551291015625,10.34429609375,60.744291015625,10.66918609375L62.987091015625,10.66918609375C63.469191015625,10.66918609375,63.814991015625,10.78446609375,64.035091015625,11.00455609375C64.255191015625,11.22464609375,64.339091015625,11.59145609375,64.286691015625,12.08399609375L63.867391015625,15.43769609375L58.648191015625,15.43769609375L59.140791015625,11.72769609375C59.151291015625,11.51809609375,59.203691015625,11.35040609375,59.287491015625,11.22464609375L58.585391015625,11.45521609375L57.663091015625,10.31285609375C58.752991015625,10.08228609375,59.696291015625,9.82027609375,60.471791015625,9.52682609375C61.247391015625,9.23337609375,61.907591015625,8.87704609375,62.452591015625,8.45782609375L58.595791015625,8.45782609375L58.794991015625,7.12682609375L63.783591015625,7.12682609375C63.961791015625,6.91721609375,64.118991015625,6.66568609375,64.276191015625,6.36175609375L65.78539101562501,6.36175609375ZM64.464791015625,6.06831609375L59.161791015625,6.06831609375L59.518091015625,3.0814160937499997C59.570491015625,2.70412309375,59.706791015625,2.43163009375,59.916391015625,2.26394709375C60.125991015625,2.09626409375,60.429891015625,2.01241609375,60.838591015625,2.01241609375L63.490191015625,2.01241609375C64.359991015625,2.01241609375,64.78969101562501,2.38970609375,64.78969101562501,3.13381609375C64.78969101562501,3.25957609375,64.779191015625,3.3643860937500003,64.768791015625,3.43774609375L64.464791015625,6.06831609375ZM62.840391015625,11.93729609375L60.566091015625,11.93729609375L60.293591015625,14.12769609375L62.567891015625,14.12769609375L62.840391015625,11.93729609375ZM63.374891015625,3.2910160937499997L60.953891015625,3.2910160937499997L60.786191015625,4.7582660937500005L63.175791015625,4.7582660937500005L63.374891015625,3.2910160937499997ZM70.952191015625,6.08926609375L65.649091015625,6.08926609375L66.00539101562501,3.1023660937499997C66.057791015625,2.7250760937500003,66.19409101562499,2.45258509375,66.403691015625,2.28490209375C66.61329101562501,2.11721909375,66.91719101562501,2.03337109375,67.325991015625,2.03337109375L69.956491015625,2.03337109375C70.43859101562501,2.03337109375,70.78449101562501,2.14865309375,71.00459101562501,2.37922209375C71.22459101562501,2.60979009375,71.30849101562501,2.96611609375,71.256091015625,3.46917609375L70.952191015625,6.08926609375ZM69.159991015625,11.93729609375L66.864791015625,11.93729609375L66.592291015625,14.12769609375L68.887491015625,14.12769609375L69.159991015625,11.93729609375ZM69.851691015625,3.30149609375L67.44119101562501,3.30149609375L67.273591015625,4.76874609375L69.663091015625,4.76874609375L69.851691015625,3.30149609375ZM55.242091015625,12.07359609375L52.066591015625,12.07359609375L51.626391015625,15.72069609375L50.180091015624996,15.72069609375L50.620291015625,12.07359609375L47.444691015625,12.07359609375L47.748691015625,9.48490609375L46.857891015625,10.26045609375C46.375791015625,9.684036093749999,46.008891015625,9.25434609375,45.757391015625004,8.96088609375L44.960891015624995,15.71019609375L43.493691015625004,15.71019609375L44.227291015625,9.52683609375C43.661291015625,10.02988609375,43.063991015625,10.48054609375,42.435091015625005,10.88927609375L41.439491015624995,9.704996093750001C42.351291015625,9.19145609375,43.263091015625,8.478796093749999,44.185391015625,7.55652609375C45.055191015625,6.68665609375,45.652591015625,5.91111609375,45.987991015625,5.2194160937500005C46.029891015625,5.1355660937500005,46.050891015625,5.0622060937499995,46.050891015625,5.00980609375C46.050891015625,4.96788609375,46.019391015625004,4.93644609375,45.966991015625,4.91547609375C45.914591015625,4.89451609375,45.830791015624996,4.88403609375,45.704991015625,4.88403609375L42.906791015625004,4.88403609375L43.074391015625,3.49015609375L44.856091015625,3.49015609375L44.363491015625,1.75041999375L45.925091015625,1.75041999375L46.417691015624996,3.49015609375L46.721591015624995,3.49015609375C47.067391015625,3.47967609375,47.339891015625,3.5635160937499997,47.549591015625,3.75216609375C47.759191015625,3.94080609375,47.853491015624996,4.19233609375,47.853491015624996,4.517226093750001C47.853491015624996,4.71635609375,47.801091015625005,4.93644609375,47.706791015625,5.19844609375C47.381891015625,5.96351609375,46.868291015625005,6.76002609375,46.176591015625,7.58796609375C46.711091015625,8.01765609375,47.245591015624996,8.55216609375,47.801091015625005,9.16001609375L48.304091015625005,5.00980609375C48.356491015625,4.590596093749999,48.524191015625,4.2552160937500005,48.796691015625,4.014176093750001C49.069191015625,3.77312609375,49.435991015625,3.64735609375,49.897091015625,3.64735609375L51.636891015625,3.64735609375L51.877891015624996,1.70849609375L53.313691015625,1.70849609375L53.072691015625,3.64735609375L54.550391015624996,3.64735609375C55.032491015625,3.64735609375,55.399291015624996,3.75216609375,55.661291015625,3.96176609375C55.923291015625,4.17137609375,56.059591015625,4.49626609375,56.059591015625,4.94692609375C56.059591015625,5.08316609375,56.049091015625,5.19845609375,56.038591015625,5.27181609375L55.242091015625,12.07359609375ZM51.070891015625,8.48927609375L49.362591015625,8.48927609375L49.100591015625,10.67966609375L50.808891015625,10.67966609375L51.070891015625,8.48927609375ZM51.490191015625,5.06219609375L49.781891015625,5.06219609375L49.519891015625,7.17923609375L51.228091015625,7.17923609375L51.490191015625,5.06219609375ZM52.234291015625004,10.69014609375L53.942591015625,10.69014609375L54.204591015625,8.499756093750001L52.517191015625,8.499756093750001L52.234291015625004,10.69014609375ZM54.372291015624995,7.17923609375L54.634291015624996,5.06219609375L52.925991015625,5.06219609375L52.663991015625,7.17923609375L54.372291015624995,7.17923609375ZM38.463091015625,2.85084609375L40.380991015625,2.85084609375L38.882291015625,15.06049609375L36.964391015625,15.06049609375L38.463091015625,2.85084609375ZM32.101511015625,2.85084609375C32.709371015625,2.85084609375,33.065701015625,3.14429609375,33.160021015625,3.73119609375L35.015091015625,15.06049609375L32.981861015625,15.06049609375L32.447361015625,11.52856609375L27.196711015625,11.52856609375L25.781861015625,15.06049609375L23.685791015625,15.06049609375L28.370511015625,3.59494609375C28.580111015625,3.09188609375,28.957411015625,2.85084609375,29.512861015625,2.85084609375L32.101511015625,2.85084609375ZM29.974001015625,4.642976093750001L27.909371015625,9.74690609375L32.164391015625,9.74690609375L31.388841015625,4.642976093750001L29.974001015625,4.642976093750001Z" fill="#FFFFFF" fill-opacity="1" style="mix-blend-mode:passthrough"/></g><g><path d="M80.75103203124999,22.291619921875L79.80783203125,22.291619921875L80.37373203125,17.743149921875L81.31693203124999,17.743149921875L80.75103203124999,22.291619921875ZM80.37373203125,17.135289921875L80.49953203125,16.160615921875L81.56853203125,16.160615921875L81.44273203125,17.135289921875L80.37373203125,17.135289921875ZM73.87593203125,19.713439921875C74.03313203125,18.403389921875,74.73533203125001,17.743129921875,75.98243203125,17.743129921875L77.99473203125001,17.743129921875L77.22963203124999,23.999899921875L76.28643203125,23.999899921875L76.49603203125,22.291609921875L75.46893203125,22.291609921875C74.34753203125,22.291609921875,73.78163203125,21.778069921875,73.78163203125,20.740519921875C73.78163203125,20.614749921875,73.79203203125,20.478509921875002,73.80253203125,20.331779921875L73.87593203125,19.713439921875ZM76.60083203125001,21.411249921875L76.94663203125,18.592039921875L75.87763203125,18.592039921875C75.25933203125,18.592039921875,74.91343203125,18.958849921875,74.82963203125,19.681999921875L74.74573203125,20.352739921875C74.73533203125001,20.457539921875,74.72483203125,20.541389921875002,74.72483203125,20.593789921875C74.72483203125,21.138769921875,75.00783203124999,21.421739921875,75.57373203125,21.421739921875L76.60083203125001,21.421739921875L76.60083203125001,21.411249921875ZM68.84533203125,18.613019921875L68.40513203125,22.281139921875L67.46193203125,22.281139921875L68.01743203125,17.732669921875L70.06103203125,17.732669921875C71.18243203125,17.732669921875,71.74843203125,18.246209921875,71.74843203125,19.283759921875C71.74843203125,19.409519921875,71.73793203125,19.545769921875,71.72743203125,19.692489921875L71.41303203125,22.281139921875L70.46983203125001,22.281139921875L70.78423203125,19.671529921875C70.79463203125,19.566729921875,70.80513203125,19.482889921875,70.80513203125,19.440959921875C70.80513203125,18.885509921875,70.52223203125,18.613009921875,69.95623203125,18.613009921875L68.84533203125,18.613019921875ZM64.02443203125,17.711689921875C64.57983203124999,17.711689921875,65.00953203125,17.847929921875,65.29253203125,18.109939921875C65.57543203125,18.371949921875,65.72223203125,18.759719921875,65.72223203125,19.283739921875C65.72223203125,19.399019921875,65.71173203125,19.535269921875,65.70123203125,19.671509921875L65.60693203125,20.405139921874998L62.56763203125,20.405139921874998L62.56763203125,20.415609921875C62.55713203125,20.530899921875,62.54663203125,20.614739921875,62.54663203125,20.656659921875C62.54663203125,20.929149921875002,62.63053203125,21.138749921875,62.78773203125,21.274999921875C62.944932031250005,21.411249921875,63.21743203125,21.474129921875,63.594732031250004,21.474129921875L63.99293203125,21.474129921875C64.27593203125,21.474129921875,64.70563203125,21.453169921875002,65.28203203125,21.400769921875L65.18773203125,22.249669921875C64.70563203125,22.302079921875,64.27593203125,22.323039921875,63.89863203125,22.323039921875L63.510832031250004,22.323039921875C62.85063203125,22.323039921875,62.36853203125,22.186799921875,62.064532031249996,21.924789921875C61.76063203125,21.662779921875,61.60343203125,21.264529921875,61.60343203125,20.750989921875C61.60343203125,20.625219921875,61.61393203125,20.499459921875,61.624432031249995,20.363209921875L61.70823203125,19.681989921875C61.78163203125,19.032209921875,62.00163203125,18.539629921875,62.358032031250005,18.204259921875C62.714332031249995,17.879379921875,63.21743203125,17.711689921875,63.86713203125,17.711689921875L64.02443203125,17.711689921875ZM64.76853203125,19.608629921875C64.77893203125001,19.482859921875,64.78943203125,19.399019921875,64.78943203125,19.336139921875C64.78943203125,19.074129921875,64.71613203125,18.874999921875002,64.57983203124999,18.738759921875C64.44363203125,18.602519921875,64.22353203125,18.539629921875,63.91963203125,18.539629921875L63.75193203125,18.539629921875C63.11263203125,18.539629921875,62.74583203125,18.895959921875,62.661932031250004,19.608629921875L64.76853203125,19.608629921875ZM56.05933203125,15.992919921875L57.00253203125,15.992919921875L56.792932031250004,17.743139921875L57.903832031250005,17.743139921875C59.02523203125,17.743139921875,59.59123203125,18.256679921875,59.59123203125,19.294229921875C59.59123203125,19.419989921875,59.58073203125,19.556239921875,59.57023203125,19.702969921875L59.25583203125,22.291609921875L58.312632031250004,22.291609921875L58.627032031249996,19.681999921875C58.63743203125,19.577199921875,58.64793203125,19.493359921875,58.64793203125,19.451429921875C58.64793203125,18.895979921875,58.365032031249996,18.623479921875,57.79903203125,18.623479921875L56.68813203125,18.623479921875L56.23753203125,22.291609921875L55.294232031250004,22.291609921875L56.05933203125,15.992919921875ZM51.04973203125,22.323049921875C50.54666203125,22.312569921875,50.11696203125,22.291609921875,49.75014203125,22.260169921875L49.875912031249996,21.379819921875C50.410412031250004,21.432219921875,50.84013203125,21.463659921875,51.15453203125,21.474149921875L51.42703203125,21.474149921875C51.77283203125,21.474149921875,52.01393203125,21.432219921875,52.16063203125,21.348379921875C52.29683203125,21.264539921875,52.38073203125,21.138769921875,52.422632031250004,20.971089921875C52.43313203125,20.939649921875,52.43313203125,20.908209921875,52.43313203125,20.855809921875C52.43313203125,20.719569921875,52.412132031249996,20.625239921875,52.37023203125,20.583319921875C52.32833203125,20.520439921875,52.26543203125,20.478519921874998,52.181632031250004,20.457559921875C52.097732031250004,20.436599921875,51.93003203125,20.415629921875002,51.68903203125,20.384189921875L51.50033203125,20.363229921875C51.21743203125,20.342269921875,50.94493203125,20.289869921875,50.69333203125,20.216499921875C50.49425203125,20.143139921875,50.34753203125,20.027859921875,50.24272203125,19.881129921875C50.14840203125,19.734399921875,50.09600203125,19.545759921875,50.09600203125,19.304709921875C50.09600203125,19.252309921875,50.10647203125,19.168469921875,50.11696203125,19.053179921875C50.15888203125,18.717809921875,50.25320203125,18.466289921875,50.39993203125,18.277629921875C50.55713203125,18.088989921875,50.76673203125,17.952749921875,51.03923203125,17.868899921875C51.31173203125,17.785059921875,51.65753203125,17.743129921875,52.08723203125,17.743129921875L52.422632031250004,17.743129921875L53.57543203125,17.753609921875L53.47063203125,18.623479921875L51.98243203125,18.623479921875C51.74143203125,18.623479921875,51.563232031249996,18.633959921875,51.43743203125,18.665399921875C51.31173203125,18.686359921875,51.21743203125,18.728279921875,51.16503203125,18.791169921875C51.11263203125,18.854049921875,51.07063203125,18.927409921875,51.04973203125,19.042699921875C51.03923203125,19.074139921875002,51.03923203125,19.105579921874998,51.03923203125,19.147499921875C51.03923203125,19.231339921875,51.06023203125,19.304709921875,51.11263203125,19.367589921875002C51.16503203125,19.430469921875,51.248832031250004,19.482869921875,51.35363203125,19.503829921875C51.45843203125,19.524789921875,51.65753203125,19.556229921875,51.94053203125,19.587669921875C52.28643203125,19.619109921875,52.55893203125,19.671509921875,52.77893203125,19.744879921875C52.96763203125,19.807759921875,53.11433203125,19.923039921875,53.21913203125,20.080249921875C53.323932031249996,20.237449921875,53.36583203125,20.447059921875,53.36583203125,20.688109921875C53.36583203125,20.803389921875,53.355432031250004,20.897709921875,53.344932031249996,20.960589921875C53.28203203125,21.463649921875,53.09333203125,21.819979921875,52.77893203125,22.029589921875C52.46453203125,22.228719921875,51.98243203125,22.333519921875002,51.322232031249996,22.333519921875002L51.04973203125,22.333519921875002L51.04973203125,22.323049921875ZM47.570242031250004,22.291619921875L46.62701203125,22.291619921875L47.19295203125,17.743149921875L48.13618203125,17.743149921875L47.570242031250004,22.291619921875ZM47.19294203125,17.135289921875L47.31871203125,16.160615921875L48.387712031250004,16.160615921875L48.26194203125,17.135289921875L47.19294203125,17.135289921875ZM41.93181203125,22.291619921875C41.52308203125,22.291619921875,41.19819103125,22.176339921874998,40.95714403125,21.945769921874998C40.71609703125,21.715209921875,40.59033203125,21.411279921875,40.59033203125,21.044469921875C40.59033203125,20.960629921875,40.59033203125,20.897739921875,40.60081303125,20.855819921875C40.65321473125,20.520449921875,40.73705603125,20.247959921875,40.86282203125,20.048829921875C40.98858703125,19.849709921875,41.16675103125,19.702979921875,41.40780103125,19.619139921875C41.64885203125,19.535299921875,41.95278203125,19.482899921875,42.34055203125,19.482899921875L43.70299203125,19.482899921875L43.71347203125,19.420019921875C43.72395203125,19.388579921875,43.72395203125,19.357139921875,43.72395203125,19.304739921875C43.72395203125,19.095129921875,43.65059203125,18.916959921875,43.51435203125,18.791199921875C43.36762203125,18.665429921875,43.14753203125,18.592069921875,42.85409203125,18.592069921875L42.64448203125,18.592069921875C42.16238203125,18.592069921875,41.72221203125,18.602549921875,41.33443703125,18.633989921875L41.46020303125,17.806039921875L41.70125203125,17.785079921875C41.78509203125,17.774599921875,41.94229203125,17.774599921875,42.16238203125,17.764119921875C42.38247203125,17.753639921875,42.57111203125,17.743159921875,42.73880203125,17.743159921875L42.95889203125,17.743159921875C43.51435203125,17.743159921875,43.94404203125,17.879399921875,44.22701203125,18.141409921875C44.52046203125,18.403419921875,44.65671203125,18.759749921875,44.65671203125,19.210409921875C44.65671203125,19.262809921875,44.64622203125,19.346649921875,44.635742031250004,19.461939921875L44.30037203125,22.281149921875L41.93181203125,22.281149921875L41.93181203125,22.291619921875ZM41.52308203125,20.950139921875C41.52308203125,21.107349921875,41.56500303125,21.233109921875,41.65932203125,21.316949921875C41.75365203125,21.400799921875,41.87941203125,21.442719921875,42.04710203125,21.442719921875L43.46194203125,21.442719921875L43.59819203125,20.300359921875L42.24622203125,20.289879921875C42.03662203125,20.279399921875,41.87941203125,20.321319921875002,41.75365203125,20.405159921875C41.62788203125,20.488999921875,41.55452203125,20.635729921875,41.53356003125,20.845339921875002L41.52308203125,20.950139921875Z" fill="#FFFFFF" fill-opacity="1" style="mix-blend-mode:passthrough"/></g><g><path d="M9.1703,0Q3.11266,0,0,3.1441L0,17.9214L9.0655,23.2873L18.3301,17.9214L18.3301,3.1441Q15.186,0,9.1703,0ZM16.2026,17.1144L9.21222,21.1703L2.22183,17.1144L2.22183,14.9869L5.13537,16.5589L9.21222,19.0323L16.2026,14.8821L16.2026,17.1144ZM16.2026,11.5493L9.12838,7.3572L7.0952,8.58341L15.2908,13.1319L9.12838,16.8943L2.2428,12.7651L2.2428,10.3336L9.12838,14.5153L11.2664,13.2157L3.0393,8.64628L9.10742,5.0096L16.2026,9.1179L16.2026,11.5493ZM16.2026,6.78078L9.21222,2.9345L2.22183,6.78078L2.22183,3.94061Q4.75808,1.8131,9.21222,1.8131Q13.6664,1.8131,16.2026,3.94061L16.2026,6.78078Z" fill="#1074EE" fill-opacity="1" style="mix-blend-mode:passthrough"/></g></g></svg>