<svg xmlns="http://www.w3.org/2000/svg" xmlns:xlink="http://www.w3.org/1999/xlink" fill="none" version="1.1" width="20" height="20" viewBox="0 0 20 20"><defs><clipPath id="master_svg0_21219_66412/1141_040382"><rect x="0" y="0" width="20" height="20" rx="0"/></clipPath></defs><g clip-path="url(#master_svg0_21219_66412/1141_040382)"><g><path d="M5.85126,13.035390625C6.88316,14.747890625,8.758189999999999,15.889690625,10.89896,15.889690625C14.151,15.889690625,16.7872,13.253390625,16.7872,10.001430625000001C16.7872,6.749420625,14.151,4.113150625,10.89896,4.113150625C8.38204,4.113150625,6.23395,5.692310625,5.39144,7.913890625L6.42909,7.222130625L7.51783,8.855240625L4.57369,10.818000625C4.12272,11.118650625,3.51341,10.996790625,3.2127600000000003,10.545810625L1.25,7.601670625L2.88312,6.512930625L3.48412,7.414430625C4.553380000000001,4.349440625,7.46936,2.150390625,10.89896,2.150390625C15.235,2.150390625,18.75,5.665420624999999,18.75,10.001430625000001C18.75,14.337490625,15.235,17.852490625,10.89896,17.852490625C8.0419,17.852490625,5.54237,16.325790625,4.1701,14.048390625L5.85126,13.035390625Z" fill-rule="evenodd" fill="#FFFFFF" fill-opacity="0.6000000238418579"/></g></g></svg>