<svg xmlns="http://www.w3.org/2000/svg" xmlns:xlink="http://www.w3.org/1999/xlink" fill="none" version="1.1" width="445" height="112" viewBox="0 0 445 112"><defs><clipPath id="master_svg0_92_3785"><rect x="0" y="0" width="445" height="112" rx="0"/></clipPath><linearGradient x1="0.5" y1="0.20681209862232208" x2="0.5" y2="1.0505496263504028" id="master_svg1_18_768"><stop offset="0%" stop-color="#FFFFFF" stop-opacity="1"/><stop offset="40.99999964237213%" stop-color="#8F8F8F" stop-opacity="0.5600000023841858"/><stop offset="81.99999928474426%" stop-color="#282828" stop-opacity="0.1599999964237213"/><stop offset="100%" stop-color="#000000" stop-opacity="0"/></linearGradient></defs><g clip-path="url(#master_svg0_92_3785)"><g><g><path d="M224.701,64.50784946289062C309.118,64.50784946289062,386.214,82.87984946289063,445,109.72924946289064C387.459,81.53034946289063,309.892,62.154449462890625,224.553,62.154449462890625C139.214,62.154449462890625,57.9297,80.27714946289062,0,109.68444946289063C59.3124,81.61844946289062,138.16,64.50784946289062,224.701,64.50784946289062Z" fill="url(#master_svg1_18_768)" fill-opacity="1"/></g><g><rect x="301.9970703125" y="49.290069580078125" width="20.4547176361084" height="3.5456838607788086" rx="1.7728419303894043" fill="#FFFFFF" fill-opacity="1"/></g><g><path d="M322.45573671875,38.982231994140626C322.45573671875,38.589321994140626,322.13863671875,38.268218994140625,321.74763671875,38.268218994140625L293.79518671875,38.268218994140625C292.26206671875,38.27092723414062,291.01513671875,39.52959899414063,291.01513671875,41.07414899414063L291.01513671875,60.960818994140624C291.01513671875,62.50681899414063,292.26341671875,63.765418994140624,293.79787671875,63.76681899414062L321.74623671875,63.76681899414062C322.13593671875,63.76681899414062,322.45433671875,63.44701899414062,322.45433671875,63.05281899414062L322.45433671875,60.93381899414062C322.45433671875,60.54081899414062,322.13723671875,60.21971899414062,321.74623671875,60.21971899414062L295.53388671875,60.21971899414062C294.98027671875,60.21971899414062,294.53016671875,59.76591899414062,294.53016671875,59.20771899414062L294.53016671875,42.82463899414063C294.53016671875,42.266428994140625,294.98031671875,41.81254899414063,295.53388671875,41.81254899414063L321.74623671875,41.81254899414063C322.13593671875,41.81254899414063,322.45433671875,41.49279899414063,322.45433671875,41.098538994140625L322.45433671875,38.97952399414063L322.45573671875,38.982231994140626Z" fill="#FFFFFF" fill-opacity="1"/></g><g><path d="M258.157435625,41.82480963867187L279.572865625,41.82480963867187C279.962565625,41.82480963867187,280.279665625,41.505059638671874,280.279665625,41.11214963867187L280.279665625,39.00804063867187C280.279665625,38.615129638671874,279.962565625,38.295379638671875,279.572865625,38.295379638671875L258.379155625,38.295379638671875C253.144215625,38.295379638671875,248.884765625,42.590309638671876,248.884765625,47.86885963867188L248.884765625,54.18527963867187C248.884765625,59.46377963867187,253.144195625,63.758779638671875,258.379155625,63.758779638671875L279.572865625,63.758779638671875C279.962565625,63.758779638671875,280.279665625,63.438979638671874,280.279665625,63.04607963867187L280.279665625,60.93657963867187C280.279665625,60.543679638671875,279.962565625,60.223879638671875,279.572865625,60.223879638671875L258.157445625,60.223879638671875C255.429785625,60.223879638671875,252.381005625,57.382679638671874,252.381005625,53.57957963867187L252.381005625,48.47447963867187C252.381005625,44.66866963867187,255.431135625,41.82479963867188,258.157435625,41.82480963867187Z" fill="#FFFFFF" fill-opacity="1"/></g><g><path d="M238.0882015625,62.975457568359374L226.4265015625,40.524017568359376C225.5450015625,39.12850356835938,224.0374015625,38.295257568359375,222.3955015625,38.295257568359375C220.7535015625,38.295257568359375,219.2258015625,39.13934056835937,218.3309015625,40.57955756835938L206.8276999625,62.97815756835938C206.7403579625,63.147557568359375,206.7470828625,63.345357568359375,206.8451683625,63.50795756835937C206.9432535625,63.67055756835937,207.1139025625,63.768057568359374,207.3033645625,63.768057568359374L209.8146815625,63.768057568359374C210.0820715625,63.768057568359374,210.3239315625,63.61765756835938,210.4448515625,63.377857568359374L220.8865015625,42.590187568359376C220.9886015625,42.37204756835938,221.0961015625,42.190497568359376,221.2144015625,42.03604756835937C221.7666015625,41.31118756835937,222.1670015625,41.213637568359374,222.4868015625,41.213637568359374C222.8066015625,41.213637568359374,223.2070015625,41.31118756835937,223.7593015625,42.03604756835937C223.8789015625,42.19320756835938,223.9863015625,42.376117568359376,224.0938015625,42.60508756835937L234.4616015625,63.376557568359374C234.5826015625,63.61905756835937,234.8244015625,63.76945756835937,235.0931015625,63.76945756835937L237.6139015625,63.76945756835937C237.8033015625,63.76945756835937,237.9740015625,63.67185756835937,238.0721015625,63.50935756835938C238.1702015625,63.34675756835938,238.1755015625,63.147557568359375,238.0882015625,62.97815756835938L238.0882015625,62.975457568359374Z" fill="#FFFFFF" fill-opacity="1"/></g><g><path d="M195.9677453125,42.56320963867188C195.9677453125,40.010639638671876,193.3676453125,38.295379638671875,190.9396453125,38.295379638671875L166.7535853125,38.295379638671875L165.1814933125,38.295379638671875C164.7945153125,38.295379638671875,164.4814453125,38.61106163867188,164.4814453125,39.00126363867187L164.4814453125,62.98507963867188C164.4814453125,63.37527963867187,164.7945153125,63.69097963867188,165.1814933125,63.69097963867188L166.6178653125,63.69097963867188C167.0048453125,63.69097963867188,167.3179153125,63.37527963867187,167.3179153125,62.98507963867188L167.3179153125,54.46567963867187L191.4247453125,54.46567963867187C193.9347453125,54.46567963867187,195.9757453125,52.40767963867187,195.9757453125,49.878179638671874L195.9676453125,42.564559638671874L195.9677453125,42.56320963867188ZM192.3317453125,50.85497963867188C191.8385453125,51.36037963867187,191.1519453125,51.61637963867187,190.2906453125,51.61777963867188L167.6686353125,51.60697963867187C167.4751453125,51.60697963867187,167.3192753125,51.448379638671874,167.3192753125,51.254679638671874L167.3192753125,41.484739638671876C167.3192753125,41.289629638671876,167.4764953125,41.13246963867188,167.6686353125,41.13246963867188L190.2705453125,41.14330963867187C191.8587453125,41.14330963867187,193.1526453125,42.44668963867188,193.1526453125,44.04542963867188L193.1607453125,46.961099638671875C193.1580453125,47.146719638671875,193.1607453125,47.33639963867188,193.1634453125,47.528789638671874C193.1768453125,48.67497963867187,193.1930453125,49.974279638671874,192.3330453125,50.85367963867188L192.3317453125,50.85497963867188Z" fill="#FFFFFF" fill-opacity="1"/></g><g><path d="M122.14258632612,63.14357963867187L122.14258632612,61.48937963867188C122.14258632612,61.15467963867188,122.411321125,60.88237963867188,122.744549125,60.88237963867188L148.332078125,60.88237963867188C149.736178125,60.88237963867188,150.874278125,59.734779638671874,150.874278125,58.31897963867188L150.874278125,55.985879638671875C150.874278125,55.213579638671874,150.911978125,53.949479638671875,150.467178125,53.33577963867187C149.878678125,52.52277963867188,148.706978125,52.54317963867187,147.699178125,52.54317963867187C147.67637812499999,52.54317963867187,147.653578125,52.54317963867187,147.629378125,52.54317963867187L126.518918125,52.54317963867187C124.112408125,52.44427963867187,122.192293325,50.47017963867187,122.145268095,48.038219638671876L122.142578125,47.94608963867188L122.142578125,43.218959638671876C122.142578125,40.49974963867187,124.328738125,38.295379638671875,127.025488125,38.295379638671875L153.115578125,38.295379638671875C153.447478125,38.295379638671875,153.717578125,38.56635263867187,153.717578125,38.90236063867187L153.717578125,40.55664963867188C153.717578125,40.891299638671875,153.448778125,41.16362963867188,153.116878125,41.16362963867188L128.195838125,41.16362963867188C126.423528125,41.16362963867188,124.987148125,42.61198963867187,124.987148125,44.399049638671876L124.987148125,46.68064963867187C124.987148125,47.48136963867188,125.277378125,48.26854963867187,125.840378125,48.83357963867188C126.403368125,49.39847963867187,127.106108125,49.68167963867187,127.876038125,49.68167963867187L149.642178125,49.68167963867187C151.751778125,49.68167963867187,153.534778125,51.29397963867187,153.701378125,53.35197963867188L153.718878125,53.36827963867188L153.718878125,58.84597963867188C153.718878125,61.550279638671874,151.536778125,63.75057963867188,148.854778125,63.75057963867188L122.745902125,63.75057963867188C122.414019125,63.75057963867188,122.143939515,63.479679638671875,122.143939515,63.14357963867187L122.14258632612,63.14357963867187Z" fill="#FFFFFF" fill-opacity="1"/></g><g><path d="M275.59376171875,111.99999760742188L275.59376171875,110.42969760742187L275.46576171875,110.30099760742188L266.80876171875,110.30099760742188L266.70376171875,110.35519760742187L265.58206171874997,111.96209760742187L264.62136171875,111.96209760742187L265.60766171875,110.50289760742187L265.50146171874997,110.30239760742188L263.12856171875,110.30239760742188L263.12856171875,109.60869760742187L265.79166171875,109.60869760742187L265.91936171875,109.47999760742188L265.91936171875,108.32969760742188L266.82376171875,108.32969760742188L266.82376171875,109.47999760742188L266.95176171875,109.60869760742187L275.46576171875,109.60869760742187L275.59376171875,109.47999760742188L275.59376171875,108.32969760742188L276.49776171875,108.32969760742188L276.49776171875,109.47999760742188L276.62576171875,109.60869760742187L278.92476171875,109.60869760742187L278.92476171875,110.30239760742188L276.62576171875,110.30239760742188L276.49776171875,110.43109760742188L276.49776171875,112.00139760742188L275.59376171875,112.00139760742188L275.59376171875,111.99999760742188ZM230.55656171875,111.96209760742187L231.36016171875002,108.00859760742188L231.36286171875,107.98289760742188L231.36286171875,104.49271760742188L232.22946171875,104.49271760742188L232.22946171875,107.87179760742188L232.27376171875,107.96929760742188L234.05016171875002,109.50439760742188L234.26106171875,109.40679760742188L234.26106171875,103.08636760742188L234.13346171875,102.95764760742188L230.63726171874998,102.95764760742188L230.63726171874998,102.26395760742187L233.77066171875,102.26395760742187L233.89826171875,102.13524760742187L233.89826171875,99.06782760742188L233.77066171875,98.93911760742188L231.07256171875,98.93911760742188L231.07256171875,98.24541760742187L233.77066171875,98.24541760742187L233.89826171875,98.11670760742187L233.89826171875,96.71035680742187L234.76496171875,96.71035680742187L234.76496171875,98.11670760742187L234.89256171875002,98.24541760742187L237.84466171875,98.24541760742187L237.84466171875,98.93911760742188L234.89256171875002,98.93911760742188L234.76496171875,99.06782760742188L234.76496171875,102.13524760742187L234.89256171875002,102.26395760742187L238.09996171875,102.26395760742187L238.09996171875,102.95764760742188L235.25536171875,102.95764760742188L235.12776171874998,103.08636760742188L235.12776171874998,106.00880760742187L235.25536171875,106.13752760742187L238.09996171875,106.13752760742187L238.09996171875,106.83119760742187L235.25536171875,106.83119760742187L235.12776171874998,106.95989760742188L235.12776171874998,110.24549760742187L235.17746171875,110.34849760742188L236.22816171875002,111.15459760742188L236.30476171875,111.18029760742188L246.74106171875002,111.18029760742188L246.37426171875,111.85509760742187L235.91376171874998,111.85509760742187L232.18376171875002,108.86759760742187L231.97956171875,108.94479760742188L231.41916171875,111.96479760742187L230.55786171875002,111.96479760742187L230.55656171875,111.96209760742187ZM198.39316171875,111.78729760742188L200.06066171875,105.77848760742188L200.98916171874998,105.77848760742188L199.28806171875,111.78729760742188L198.39316171875,111.78729760742188ZM202.89576171875,111.67759760742187L203.42516171875,106.46540760742188L203.29886171875,106.32314760742187L202.41076171875,106.32314760742187L202.41076171875,105.63216760742188L203.40776171875,105.63216760742188L203.53536171875,105.51565760742187L203.95866171875,100.88200760742187L213.96626171875,100.88200760742187L213.89776171875,105.50209760742187L214.02546171875,105.63216760742188L214.91086171875,105.63216760742188L214.91086171875,106.32314760742187L213.98776171875,106.32314760742187L213.86016171875,106.45050760742187L213.78896171875,111.67759760742187L202.89846171875,111.67759760742187L202.89576171875,111.67759760742187ZM204.33086171875,106.43966760742188L203.89416171875,110.89719760742187L204.02046171875,111.03809760742188L212.82416171875,111.03809760742188L212.95186171875,110.91069760742188L212.98946171875,106.45320760742187L212.86176171875002,106.32313760742187L204.45576171875,106.32313760742187L204.32946171875,106.43965760742188L204.33086171875,106.43966760742188ZM204.76346171875,101.65563760742188L204.43836171875,105.49396760742188L204.56596171875,105.63352760742188L212.89946171875,105.63352760742188L213.02706171875,105.50616760742187L213.06196171875,101.66782760742187L212.93436171874998,101.53775760742188L204.89116171875,101.53775760742188L204.76346171875,101.65563760742188ZM166.68383171875,111.65049760742187L166.68383171875,111.01229760742187L173.94906171875,111.01229760742187L174.07670171875,110.88359760742188L174.07670171875,108.74969760742188L173.94906171875,108.62099760742187L168.09736171875,108.62099760742187L168.09736171875,107.96659760742187L173.94906171875,107.96659760742187L174.07670171875,107.83789760742188L174.07670171875,105.97222760742187L173.94906171875,105.84350760742187L167.86222171875,105.84350760742187L167.74263171875,105.92751760742188L167.01167971875,107.92729760742188L166.15576171875,107.92729760742188L167.58946171875,103.79766760742187L168.47897171875,103.79766760742187L168.06780171875,104.97910760742188L168.18874171875,105.14981760742188L173.95040171875,105.14981760742188L174.07804171875,105.02110760742187L174.07804171875,103.54023760742187L174.94471171875,103.54023760742187L174.94471171875,105.02110760742187L175.07235171874999,105.14981760742188L181.75846171875,105.14981760742188L181.75846171875,105.84350760742187L175.07235171874999,105.84350760742187L174.94471171875,105.97222760742187L174.94471171875,107.83789760742188L175.07235171874999,107.96659760742187L181.35936171875,107.96659760742187L181.35936171875,108.62099760742187L175.07235171874999,108.62099760742187L174.94471171875,108.74969760742188L174.94471171875,110.88359760742188L175.07235171874999,111.01229760742187L182.08226171875,111.01229760742187L182.08226171875,111.65049760742187L166.68516071875,111.65049760742187L166.68383171875,111.65049760742187ZM208.95436171875,110.27119760742187L207.38236171875,107.13069760742188L208.29196171875,107.13069760742188L209.93396171875,110.27119760742187L208.95306171875,110.27119760742187L208.95436171875,110.27119760742187ZM239.11446171875,109.42169760742188L239.11446171875,104.19194760742188L246.32196171875,104.19194760742188L246.32196171875,109.42169760742188L239.11446171875,109.42169760742188ZM240.01876171875,104.98318760742188L240.01876171875,108.60199760742188L240.14636171875,108.73079760742188L245.32626171875,108.73079760742188L245.45386171875,108.60199760742188L245.45386171875,104.98318760742188L245.32626171875,104.85446760742187L240.14636171875,104.85446760742187L240.01876171875,104.98318760742188ZM263.96436171875,107.63189760742188L263.96436171875,100.17205760742188L278.12976171875,100.17205760742188L278.12976171875,107.63189760742188L263.96436171875,107.63189760742188ZM264.86856171875,105.44654760742188L264.86856171875,106.84749760742187L264.99626171875,106.97619760742188L277.09776171875,106.97619760742188L277.22476171875,106.84749760742187L277.22476171875,105.44654760742188L277.09776171875,105.31783760742188L264.99626171875,105.31783760742188L264.86856171875,105.44654760742188ZM264.86856171875,103.19340760742188L264.86856171875,104.53472760742187L264.99626171875,104.66343760742187L277.09776171875,104.66343760742187L277.22476171875,104.53472760742187L277.22476171875,103.19340760742188L277.09776171875,103.06468760742187L264.99626171875,103.06468760742187L264.86856171875,103.19340760742188ZM264.86856171875,100.95651760742187L264.86856171875,102.24635760742187L264.99626171875,102.37506760742187L277.09776171875,102.37506760742187L277.22476171875,102.24635760742187L277.22476171875,100.95651760742187L277.09776171875,100.82780760742187L264.99626171875,100.82780760742187L264.86856171875,100.95651760742187ZM208.81466171875002,104.97234760742188L207.55826171875,102.27073760742188L208.43706171875,102.27073760742188L209.72566171875,104.97234760742188L208.81466171875002,104.97234760742188ZM199.82686171875,104.38839760742188L198.03566171875,100.81019760742187L198.94536171875,100.81019760742187L200.80506171874998,104.38839760742188L199.82686171875,104.38839760742188ZM238.83356171875,103.48470760742188L241.38386171874998,98.43240760742188L241.26966171875,98.24543760742188L238.82686171875,98.24543760742188L238.82686171875,97.55174860742187L246.39846171875,97.55174860742187L246.39846171875,102.84792760742188L242.76386171874998,102.84792760742188L242.41986171874998,102.15422760742187L245.40146171875,102.15422760742187L245.52906171875,102.02551760742188L245.52906171875,98.37279760742187L245.40146171875,98.24408760742187L242.46686171875,98.24408760742187L242.35406171875002,98.31317760742188L239.67336171875002,103.48334760742188L238.83496171874998,103.48334760742188L238.83356171875,103.48470760742188ZM167.33816171875,102.88313760742187L167.33816171875,97.20219060742187L181.53806171875,97.20219060742187L181.53806171875,102.88313760742187L167.33816171875,102.88313760742187ZM168.24245171875,100.47148760742188L168.24245171875,102.06344760742188L168.37010171875,102.19216760742188L180.50616171875,102.19216760742188L180.63376171875,102.06344760742188L180.63376171875,100.47148760742188L180.50616171875,100.34276760742188L168.37010171875,100.34276760742188L168.24245171875,100.47148760742188ZM168.24245171875,97.98530760742187L168.24245171875,99.52037760742188L168.37010171875,99.64908760742188L180.50616171875,99.64908760742188L180.63376171875,99.52037760742188L180.63376171875,97.98530760742187L180.50616171875,97.85659760742188L168.37010171875,97.85659760742188L168.24245171875,97.98530760742187ZM201.95516171875,101.61228760742188L203.60786171875,96.67379760742188L204.50416171875,96.67379760742188L204.29986171875,97.34851860742188L204.42216171875,97.51516360742187L214.72946171875,97.51516360742187L214.72946171875,98.20613760742188L204.05936171874998,98.20613760742188L203.93846171875,98.29420760742188L202.84606171875,101.61227760742187L201.95656171875,101.61227760742187L201.95516171875,101.61228760742188ZM200.55236171875,100.40510760742187L198.86476171875,96.82148160742187L199.74346171874998,96.82148160742187L201.53326171875,100.40510760742187L200.55376171875,100.40510760742187L200.55236171875,100.40510760742187ZM275.48876171874997,99.52579760742188L274.29476171875,98.17905760742188L274.19876171875,98.13570760742188L272.93076171875,98.13570760742188L272.82176171875,98.19802760742188L272.02476171875,99.52579760742188L271.12076171875003,99.52579760742188L272.67776171875,96.74832180742187L273.58476171875,96.74832180742187L273.29076171875,97.29026860742188L273.40176171875,97.48130060742187L278.78276171875,97.48130060742187L278.78276171875,98.13705760742188L275.53976171875,98.13705760742188L275.44576171875,98.35248760742188L276.51676171875,99.52715760742187L275.48876171874997,99.52715760742187L275.48876171874997,99.52579760742188ZM267.80576171875,99.52579760742188L266.61376171874997,98.17905760742188L266.51876171875,98.13570760742188L265.25156171875,98.13570760742188L265.14266171875,98.19802760742188L264.34586171875003,99.52579760742188L263.43896171874997,99.52579760742188L264.99896171875,96.74832180742187L265.90316171874997,96.74832180742187L265.60896171875,97.29026860742188L265.72046171875,97.48130060742187L271.10076171875,97.48130060742187L271.10076171875,98.13705760742188L267.85776171875,98.13705760742188L267.76376171875,98.35248760742188L268.83476171875,99.52715760742187L267.80676171875,99.52715760742187L267.80576171875,99.52579760742188Z" fill="#FFFFFF" fill-opacity="1"/></g></g><g><g><path d="M122.11275965720415,0.0568182L122.69770065720415,0.0568182L122.69770065720415,1.76136L124.70622965720415,1.76136L124.70622965720415,0.0568182L125.29116965720415,0.0568182L125.29116965720415,4.03409L124.70622965720415,4.03409L124.70622965720415,2.24609L122.69770065720415,2.24609L122.69770065720415,4.03409L122.11275965720415,4.03409L122.11275965720415,0.0568182ZM127.68308965720415,0.0568182L128.26802965720415,0.0568182L128.26802965720415,4.03409L127.68308965720415,4.03409L127.68308965720415,0.0568182ZM132.37245965720416,0Q133.11595965720414,0,133.53535965720414,0.340909Q133.94935965720416,0.671165,134.05325965720414,1.32457L133.46305965720416,1.32457Q133.38205965720414,0.907315,133.10715965720416,0.699574Q132.83585965720414,0.48473,132.37245965720416,0.48473Q131.81220965720416,0.48473,131.48096965720416,0.887784Q131.13211965720416,1.30682,131.13211965720416,2.06143Q131.13211965720416,2.79652,131.44925965720415,3.18182Q131.79105965720416,3.60618,132.51345965720415,3.60618Q132.77775965720414,3.60618,133.04725965720417,3.53161Q133.27275965720415,3.46768,133.47895965720414,3.33097L133.47895965720414,2.44318L132.41655965720415,2.44318L132.41655965720415,1.95845L134.06385965720415,1.95845L134.06385965720415,3.62571Q133.77315965720416,3.84411,133.36965965720415,3.96839Q132.94865965720416,4.09091,132.44825965720415,4.09091Q131.53206965720415,4.09091,131.02112965720414,3.49432Q130.54717965720414,2.94389,130.54717965720414,2.06321Q130.54717965720414,1.17543,131.02112965720414,0.607244Q131.51620965720414,0,132.37245965720416,0ZM136.34305965720415,0.0568182L136.92795965720416,0.0568182L136.92795965720416,1.76136L138.93645965720415,1.76136L138.93645965720415,0.0568182L139.52145965720416,0.0568182L139.52145965720416,4.03409L138.93645965720415,4.03409L138.93645965720415,2.24609L136.92795965720416,2.24609L136.92795965720416,4.03409L136.34305965720415,4.03409L136.34305965720415,0.0568182Z" fill="#FFFFFF" fill-opacity="1"/></g><g><path d="M122.11275965720415,10.511364174731446L123.69843965720415,10.511364174731446Q125.06564965720415,10.511364174731446,125.06564965720415,11.713425974731445Q125.06564965720415,12.927915974731444,123.68786965720415,12.927915974731444L122.69770065720415,12.927915974731444L122.69770065720415,14.488635974731444L122.11275965720415,14.488635974731444L122.11275965720415,10.511364174731446ZM122.69770065720415,10.996093974731446L122.69770065720415,12.443185974731445L123.65086965720415,12.443185974731445Q124.08428965720415,12.443185974731445,124.28161965720415,12.269175974731445Q124.48070965720414,12.089845974731446,124.48070965720414,11.713425974731445Q124.48070965720414,11.324573974731445,124.27633965720415,11.170099974731446Q124.07723965720415,10.996093974731446,123.65086965720415,10.996093974731446L122.69770065720415,10.996093974731446ZM127.23204965720416,10.511364174731446L129.99465965720415,10.511364174731446L129.99465965720415,10.996093974731446L127.81698965720415,10.996093974731446L127.81698965720415,12.215905974731445L129.88189965720414,12.215905974731445L129.88189965720414,12.700635974731446L127.81698965720415,12.700635974731446L127.81698965720415,14.003905974731445L130.10741965720416,14.003905974731445L130.10741965720416,14.488635974731444L127.23204965720416,14.488635974731444L127.23204965720416,10.511364174731446ZM132.23855965720415,10.511364174731446L133.92295965720416,10.511364174731446Q134.50965965720414,10.511364174731446,134.83905965720416,10.783025974731446Q135.19145965720415,11.081321974731445,135.19145965720415,11.642405974731446Q135.19145965720415,11.951345974731446,135.03115965720414,12.194605974731445Q134.84785965720414,12.459165974731444,134.53255965720416,12.542615974731445L134.53255965720416,12.555045974731446Q135.04345965720415,12.674005974731445,135.10685965720415,13.261715974731445L135.17205965720416,13.900925974731445Q135.20375965720416,14.270245974731445,135.39765965720414,14.488635974731444L134.76155965720415,14.488635974731444Q134.62765965720416,14.307525974731446,134.59775965720416,13.954185974731445L134.54835965720414,13.449925974731446Q134.51845965720415,13.121445974731445,134.34755965720416,12.963425974731445Q134.17665965720414,12.814275974731444,133.84895965720415,12.814275974731444L132.82355965720416,12.814275974731444L132.82355965720416,14.488635974731444L132.23855965720415,14.488635974731444L132.23855965720415,10.511364174731446ZM132.82355965720416,10.996093974731446L132.82355965720416,12.329545974731445L133.84895965720415,12.329545974731445Q134.22415965720415,12.329545974731445,134.42155965720414,12.151985974731446Q134.60655965720414,11.981535974731445,134.60655965720414,11.653055974731446Q134.60655965720414,11.315696974731445,134.42685965720415,11.155894974731446Q134.24005965720414,10.996093974731446,133.84365965720414,10.996093974731446L132.82355965720416,10.996093974731446ZM137.47065965720415,10.511364174731446L140.12045965720415,10.511364174731446L140.12045965720415,10.996093974731446L138.05555965720416,10.996093974731446L138.05555965720416,12.215905974731445L140.00775965720416,12.215905974731445L140.00775965720416,12.700635974731446L138.05555965720416,12.700635974731446L138.05555965720416,14.488635974731444L137.47065965720415,14.488635974731444L137.47065965720415,10.511364174731446ZM144.00825965720415,10.454545974731445Q144.88735965720414,10.454545974731445,145.39475965720416,11.040483974731446Q145.88105965720416,11.590905974731445,145.88105965720416,12.505325974731445Q145.88105965720416,13.403765974731446,145.39475965720416,13.966615974731445Q144.88735965720414,14.545455974731446,144.00825965720415,14.545455974731446Q143.12725965720415,14.545455974731446,142.61805965720416,13.961295974731446Q142.13885965720414,13.403765974731446,142.13885965720414,12.505325974731445Q142.13885965720414,11.601565974731445,142.61805965720416,11.045809974731446Q143.11675965720414,10.454545974731445,144.00825965720415,10.454545974731445ZM144.00995965720415,10.939275974731446Q143.38625965720416,10.939275974731446,143.04975965720416,11.377840974731445Q142.72385965720414,11.789775974731445,142.72385965720414,12.505325974731445Q142.72385965720414,13.210225974731445,143.04975965720416,13.629265974731446Q143.39685965720415,14.060725974731445,144.00995965720415,14.060725974731445Q144.62835965720416,14.060725974731445,144.96315965720416,13.639915974731444Q145.29615965720416,13.226205974731446,145.29615965720416,12.505325974731445Q145.29615965720416,11.784445974731446,144.96315965720416,11.360085974731446Q144.63365965720416,10.939275974731446,144.00995965720415,10.939275974731446ZM148.04745965720414,10.511364174731446L149.73185965720415,10.511364174731446Q150.31855965720416,10.511364174731446,150.64795965720415,10.783025974731446Q151.00035965720414,11.081321974731445,151.00035965720414,11.642405974731446Q151.00035965720414,11.951345974731446,150.84005965720416,12.194605974731445Q150.65685965720417,12.459165974731444,150.34145965720415,12.542615974731445L150.34145965720415,12.555045974731446Q150.85235965720415,12.674005974731445,150.91575965720415,13.261715974731445L150.98095965720415,13.900925974731445Q151.01265965720415,14.270245974731445,151.20655965720414,14.488635974731444L150.57045965720414,14.488635974731444Q150.43655965720416,14.307525974731446,150.40665965720416,13.954185974731445L150.35725965720414,13.449925974731446Q150.32735965720414,13.121445974731445,150.15645965720415,12.963425974731445Q149.98555965720416,12.814275974731444,149.65785965720414,12.814275974731444L148.63245965720415,12.814275974731444L148.63245965720415,14.488635974731444L148.04745965720414,14.488635974731444L148.04745965720414,10.511364174731446ZM148.63245965720415,10.996093974731446L148.63245965720415,12.329545974731445L149.65785965720414,12.329545974731445Q150.03305965720415,12.329545974731445,150.23045965720416,12.151985974731446Q150.41545965720417,11.981535974731445,150.41545965720417,11.653055974731446Q150.41545965720417,11.315696974731445,150.23575965720414,11.155894974731446Q150.04895965720414,10.996093974731446,149.65255965720416,10.996093974731446L148.63245965720415,10.996093974731446ZM153.27955965720415,10.511364174731446L153.96135965720416,10.511364174731446L155.30915965720413,13.698505974731445L155.32505965720415,13.698505974731445L156.66755965720415,10.511364174731446L157.36005965720415,10.511364174731446L157.36005965720415,14.488635974731444L156.77505965720417,14.488635974731444L156.77505965720417,11.647725974731445L156.75215965720415,11.647725974731445L155.56815965720415,14.488635974731444L155.06075965720416,14.488635974731444L153.86445965720415,11.647725974731445L153.86445965720415,14.488635974731444L153.27955965720415,14.488635974731444L153.27955965720415,10.511364174731446ZM160.90245965720416,10.511364174731446L161.57365965720416,10.511364174731446L163.06245965720416,14.488635974731444L162.42825965720414,14.488635974731444L162.06525965720414,13.465905974731445L160.40385965720415,13.465905974731445L160.04085965720415,14.488635974731444L159.41365965720416,14.488635974731444L160.90245965720416,10.511364174731446ZM160.58355965720415,12.981175974731446L161.88735965720414,12.981175974731446L161.24775965720414,11.168323974731445L161.22665965720415,11.168323974731445L160.58355965720415,12.981175974731446ZM164.98395965720414,10.511364174731446L165.56365965720414,10.511364174731446L167.57745965720414,13.469455974731446L167.57745965720414,10.511364174731446L168.16235965720415,10.511364174731446L168.16235965720415,14.488635974731444L167.60385965720417,14.488635974731444L165.56895965720415,11.496805974731446L165.56895965720415,14.488635974731444L164.98395965720414,14.488635974731444L164.98395965720414,10.511364174731446ZM172.27745965720416,10.454545974731445Q172.95925965720414,10.454545974731445,173.39095965720415,10.807883974731446Q173.81375965720414,11.150568974731446,173.90535965720414,11.740055974731446L173.33105965720415,11.740055974731446Q173.23405965720414,11.324573974731445,172.95745965720414,11.132812974731445Q172.68795965720415,10.939275974731446,172.26505965720415,10.939275974731446Q171.63785965720416,10.939275974731446,171.32425965720415,11.388494974731445Q171.02645965720416,11.789775974731445,171.02645965720416,12.505325974731445Q171.02645965720416,13.231535974731445,171.31895965720415,13.634585974731445Q171.62725965720415,14.060725974731445,172.27565965720416,14.060725974731445Q172.70375965720416,14.060725974731445,172.98035965720416,13.840555974731446Q173.27285965720415,13.600855974731445,173.38565965720414,13.124995974731446L173.95995965720414,13.124995974731446Q173.82965965720416,13.805045974731446,173.35565965720414,14.186785974731446Q172.91165965720415,14.545455974731446,172.28265965720414,14.545455974731446Q171.33835965720414,14.545455974731446,170.85735965720414,13.927555974731446Q170.44155965720415,13.403765974731446,170.44155965720415,12.505325974731445Q170.44155965720415,11.624645974731445,170.87495965720416,11.077769974731446Q171.35415965720415,10.454545974731445,172.27745965720416,10.454545974731445ZM176.12465965720415,10.511364174731446L178.88725965720414,10.511364174731446L178.88725965720414,10.996093974731446L176.70955965720415,10.996093974731446L176.70955965720415,12.215905974731445L178.77445965720415,12.215905974731445L178.77445965720415,12.700635974731446L176.70955965720415,12.700635974731446L176.70955965720415,14.003905974731445L178.99995965720416,14.003905974731445L178.99995965720416,14.488635974731444L176.12465965720415,14.488635974731444L176.12465965720415,10.511364174731446Z" fill="#FFFFFF" fill-opacity="1"/></g><g><path d="M123.83587,20.90909194946289Q124.51771,20.90909194946289,124.94937,21.26242994946289Q125.37222,21.60511494946289,125.46384,22.19460194946289L124.88947,22.19460194946289Q124.79256,21.779119949462892,124.51595,21.58735894946289Q124.24638,21.39382194946289,123.82354,21.39382194946289Q123.19631,21.39382194946289,122.882697,21.84304094946289Q122.584941,22.24432194946289,122.584941,22.95987194946289Q122.584941,23.686081949462892,122.877411,24.08913194946289Q123.18574,24.515271949462893,123.83411,24.515271949462893Q124.26224,24.515271949462893,124.53885,24.29510194946289Q124.83132,24.05540194946289,124.94408,23.57954194946289L125.51845,23.57954194946289Q125.38808,24.25959194946289,124.91413,24.64133194946289Q124.47014,25.00000194946289,123.84115,25.00000194946289Q122.896792,25.00000194946289,122.415801,24.38210194946289Q122,23.85831194946289,122,22.95987194946289Q122,22.079191949462892,122.43342,21.53231594946289Q122.912648,20.90909194946289,123.83587,20.90909194946289ZM129.43967,20.90909194946289Q130.31884,20.90909194946289,130.82626,21.49502994946289Q131.31254,22.04545194946289,131.31254,22.95987194946289Q131.31254,23.85831194946289,130.82626,24.421161949462892Q130.31884,25.00000194946289,129.43967,25.00000194946289Q128.55874,25.00000194946289,128.04955999999999,24.41584194946289Q127.57033,23.85831194946289,127.57033,22.95987194946289Q127.57033,22.056111949462892,128.04955999999999,21.50035594946289Q128.54816,20.90909194946289,129.43967,20.90909194946289ZM129.44143,21.39382194946289Q128.81773,21.39382194946289,128.48121,21.83238694946289Q128.15527,22.24432194946289,128.15527,22.95987194946289Q128.15527,23.66477194946289,128.48121,24.08381194946289Q128.8283,24.515271949462893,129.44143,24.515271949462893Q130.05985,24.515271949462893,130.3946,24.09446194946289Q130.7276,23.68075194946289,130.7276,22.95987194946289Q130.7276,22.23899194946289,130.3946,21.81463194946289Q130.06513,21.39382194946289,129.44143,21.39382194946289ZM133.4789,20.96591014946289L134.1608,20.96591014946289L135.5086,24.153051949462892L135.5245,24.153051949462892L136.867,20.96591014946289L137.5594,20.96591014946289L137.5594,24.94318194946289L136.9745,24.94318194946289L136.9745,22.10227194946289L136.95159999999998,22.10227194946289L135.7676,24.94318194946289L135.2602,24.94318194946289L134.0639,22.10227194946289L134.0639,24.94318194946289L133.4789,24.94318194946289L133.4789,20.96591014946289ZM139.9513,20.96591014946289L141.537,20.96591014946289Q142.9042,20.96591014946289,142.9042,22.167971949462892Q142.9042,23.38246194946289,141.5264,23.38246194946289L140.5363,23.38246194946289L140.5363,24.94318194946289L139.9513,24.94318194946289L139.9513,20.96591014946289ZM140.5363,21.45063994946289L140.5363,22.89773194946289L141.4894,22.89773194946289Q141.9229,22.89773194946289,142.1202,22.72372194946289Q142.3193,22.54439194946289,142.3193,22.167971949462892Q142.3193,21.779119949462892,142.1149,21.62464594946289Q141.9158,21.45063994946289,141.4894,21.45063994946289L140.5363,21.45063994946289ZM145.0706,20.96591014946289L145.6556,20.96591014946289L145.6556,23.45703194946289Q145.6556,24.00035194946289,145.89339999999999,24.25248194946289Q146.1366,24.515271949462893,146.6616,24.515271949462893Q147.1813,24.515271949462893,147.4245,24.25248194946289Q147.6641,23.98970194946289,147.6641,23.45703194946289L147.6641,20.96591014946289L148.249,20.96591014946289L148.249,23.416191949462892Q148.249,24.18501194946289,147.835,24.59517194946289Q147.4121,25.00000194946289,146.6616,25.00000194946289Q145.8969,25.00000194946289,145.4917,24.600501949462892Q145.0706,24.18501194946289,145.0706,23.416191949462892L145.0706,20.96591014946289ZM150.4154,20.96591014946289L153.5727,20.96591014946289L153.5727,21.45063994946289L152.3323,21.45063994946289L152.3323,24.94318194946289L151.7474,24.94318194946289L151.7474,21.45063994946289L150.4154,21.45063994946289L150.4154,20.96591014946289ZM155.6475,20.96591014946289L156.23239999999998,20.96591014946289L156.23239999999998,24.94318194946289L155.6475,24.94318194946289L155.6475,20.96591014946289ZM158.6243,20.96591014946289L159.204,20.96591014946289L161.2178,23.92400194946289L161.2178,20.96591014946289L161.80270000000002,20.96591014946289L161.80270000000002,24.94318194946289L161.2442,24.94318194946289L159.20929999999998,21.95135194946289L159.20929999999998,24.94318194946289L158.6243,24.94318194946289L158.6243,20.96591014946289ZM165.9072,20.90909194946289Q166.6507,20.90909194946289,167.07,21.25000094946289Q167.4841,21.58025694946289,167.588,22.233661949462892L166.99779999999998,22.233661949462892Q166.9168,21.81640694946289,166.6419,21.60866594946289Q166.3706,21.39382194946289,165.9072,21.39382194946289Q165.3469,21.39382194946289,165.0157,21.79687594946289Q164.6668,22.215911949462892,164.6668,22.970521949462892Q164.6668,23.70561194946289,164.984,24.090911949462892Q165.32580000000002,24.515271949462893,166.0481,24.515271949462893Q166.3124,24.515271949462893,166.582,24.44070194946289Q166.8075,24.376771949462892,167.0137,24.24006194946289L167.0137,23.35227194946289L165.9512,23.35227194946289L165.9512,22.86754194946289L167.5986,22.86754194946289L167.5986,24.534801949462892Q167.3079,24.75320194946289,166.9044,24.87748194946289Q166.48329999999999,25.00000194946289,165.983,25.00000194946289Q165.0668,25.00000194946289,164.5558,24.403411949462892Q164.0819,23.85298194946289,164.0819,22.972301949462892Q164.0819,22.08452194946289,164.5558,21.516335949462892Q165.0509,20.90909194946289,165.9072,20.90909194946289Z" fill="#FFFFFF" fill-opacity="1"/></g></g></g></svg>