<svg xmlns="http://www.w3.org/2000/svg" xmlns:xlink="http://www.w3.org/1999/xlink" fill="none" version="1.1" width="24" height="24" viewBox="0 0 24 24"><defs><clipPath id="master_svg0_1167_23540"><rect x="0" y="0" width="24" height="24" rx="0"/></clipPath></defs><g clip-path="url(#master_svg0_1167_23540)"><g><path d="M12.70711,4.292893C13.09763,4.683417,13.09763,5.31658,12.70711,5.70711C12.70711,5.70711,7.414210000000001,11,7.414210000000001,11C7.414210000000001,11,19,11,19,11C19.552300000000002,11,20,11.44772,20,12C20,12.55228,19.552300000000002,13,19,13C19,13,7.414210000000001,13,7.414210000000001,13C7.414210000000001,13,12.70711,18.2929,12.70711,18.2929C13.09763,18.6834,13.09763,19.3166,12.70711,19.7071C12.31658,20.0976,11.68342,20.0976,11.29289,19.7071C11.29289,19.7071,4.292893,12.70711,4.292893,12.70711C3.9023689,12.31658,3.9023689,11.68342,4.292893,11.29289C4.292893,11.29289,11.29289,4.292893,11.29289,4.292893C11.68342,3.9023689,12.31658,3.9023689,12.70711,4.292893C12.70711,4.292893,12.70711,4.292893,12.70711,4.292893Z" fill-rule="evenodd" fill="#FFFFFF" fill-opacity="0.6000000238418579"/></g></g></svg>