<svg xmlns="http://www.w3.org/2000/svg" xmlns:xlink="http://www.w3.org/1999/xlink" fill="none" version="1.1" width="80" height="27" viewBox="0 0 80 27"><g><g><path d="M3.8044660185042862,0L22.808926018504287,0C23.819426018504288,-0.00000968638,24.788426018504286,0.402032,25.502226018504285,1.11743C26.215926018504287,1.83283,26.615726018504287,2.80279,26.613326018504285,3.81333L26.613326018504285,22.8533C26.615726018504287,23.8639,26.215926018504287,24.8338,25.502226018504285,25.5492C24.788526018504285,26.2646,23.819426018504288,26.6667,22.808926018504287,26.6667L3.804436018504286,26.6667C2.7938960185042863,26.6667,1.8248860185042861,26.2646,1.1111660185042862,25.5492C0.3974450185042862,24.8338,-0.0023292314957138152,23.8639,0.00003645830428618491,22.8533L0.00003645830428618491,3.81333C-0.0023292314957138152,2.8028,0.3974450185042862,1.83284,1.1111660185042862,1.11745C1.8248860185042861,0.402052,2.7938960185042863,0.00000414815,3.804436018504286,4.22376e-16L3.8044660185042862,0Z" fill="#239FDB" fill-opacity="1"/></g><g><path d="M17.662204000663756,15.635553067779542L17.662204000663756,15.69775306777954L26.604504000663756,18.568853067779543L26.604504000663756,22.59555306777954C26.604504000663756,22.59555306777954,23.12000400066376,21.32445306777954,16.622204000663757,18.15115306777954L16.01780400066376,17.85775306777954L15.653304000663757,18.30225306777954C13.670304000663757,20.92085306777954,10.615844000663758,22.51005306777954,7.333344000663757,22.63115306777954C5.155584000663757,22.63115306777954,1.9822240006637573,21.47555306777954,1.7066771006637573,18.38225306777954C1.4311300006637573,15.288853067779542,3.3333440006637574,13.982213067779542,5.431134000663757,13.30666306777954C6.944464000663757,12.914613067779541,8.525474000663756,12.859993067779541,10.062254000663758,13.14666306777954L15.013404000663757,14.737753067779542L14.951104000663758,14.844453067779542L15.013304000663757,14.844453067779542C15.676404000663757,13.65970306777954,16.212704000663756,12.408333067779541,16.613304000663756,11.111123067779541L6.142254000663757,11.111123067779541L6.142254000663757,10.160003067779542L11.555554000663758,10.160003067779542L11.555554000663758,8.257783067779542L4.871104000663758,8.257783067779542L4.871104000663758,7.297783067779541L11.555554000663758,7.297783067779541L11.555554000663758,4.124453067779541L14.693404000663758,4.124453067779541L14.693404000663758,7.297783067779541L21.031104000663756,7.297783067779541L21.031104000663756,8.257783067779542L14.693304000663757,8.257783067779542L14.693304000663757,10.097783067779542L19.502204000663756,10.097783067779542L19.502204000663756,10.17778306777954L19.85780400066376,10.17778306777954C19.565804000663757,12.135663067779541,18.83330400066376,14.00176306777954,17.715604000663756,15.635553067779542L17.662204000663756,15.635553067779542ZM2.7377740006637574,18.49775306777954C2.8533240006637572,19.24445306777954,4.835564000663757,21.31555306777954,7.448894000663757,20.91555306777954C9.936554000663758,20.43135306777954,12.145904000663757,19.01675306777954,13.626704000663757,16.95995306777954L13.680004000663757,16.95995306777954L13.680004000663757,16.90665306777954C9.279994000663757,14.98665306777954,7.217774000663757,14.74665306777954,5.902234000663757,14.942153067779541C4.080334000663758,15.118353067779541,2.7013740006637574,16.667753067779543,2.7377740006637574,18.49775306777954Z" fill-rule="evenodd" fill="#FFFFFF" fill-opacity="1"/></g><g><path d="M42.48000838256836,12.133353146457672L42.666678382568364,11.982253146457673C45.84894838256836,9.262213146457672,46.76444838256836,7.751123146457672,47.20894838256836,5.760003146457672L46.755548382568364,5.760003146457672L46.755548382568364,5.671123146457672L42.48000838256836,5.671123146457672L42.48000838256836,3.982213146457672L48.062248382568356,3.982213146457672L48.062248382568356,2.880003146457672L42.48000838256836,2.880003146457672L42.48000838256836,0.6044531464576721L39.555578382568356,0.6044531464576721L39.555578382568356,2.880003146457672L33.90224838256836,2.880003146457672L33.90224838256836,3.982213146457672L39.555578382568356,3.982213146457672L39.555578382568356,5.671123146457672L34.88000838256836,5.671123146457672L34.88000838256836,6.782213146457672L44.30224838256836,6.782213146457672C43.56905838256836,8.465463146457672,42.42986838256836,9.940603146457672,40.98667838256836,11.075553146457672C39.72497838256836,10.107073146457672,38.62660838256836,8.942683146457671,37.73333838256836,7.626663146457672L35.457798382568356,7.626663146457672C36.51279838256836,9.375683146457671,37.91679838256836,10.888653146457672,39.58224838256836,12.071153146457672C37.82316838256836,13.178453146457672,35.90877838256836,14.017353146457673,33.90224838256836,14.559953146457673L33.90224838256836,15.857753146457672C36.42507838256836,15.286453146457673,38.85074838256836,14.349053146457672,41.10224838256836,13.075553146457672C43.30799838256836,14.378453146457671,45.70904838256836,15.317853146457672,48.213348382568356,15.857753146457672C48.190248382568356,15.425453146457672,48.190248382568356,14.992253146457672,48.213348382568356,14.559953146457673C46.18214838256836,14.070653146457673,44.24524838256836,13.250853146457672,42.48000838256836,12.133353146457672ZM63.25334838256836,0.889121146457672L60.782248382568355,0.889121146457672L60.782248382568355,3.466903146457672L54.35554838256836,3.466903146457672L54.35554838256836,4.5602431464576725L60.782248382568355,4.5602431464576725L60.782248382568355,13.866953146457671C60.802348382568354,14.044453146457672,60.74044838256836,14.221353146457671,60.61414838256836,14.347653146457672C60.487748382568356,14.473953146457673,60.31084838256836,14.535853146457672,60.13334838256836,14.515753146457673L58.83554838256836,14.515753146457673L58.89774838256836,15.555753146457672L62.59554838256836,15.555753146457672C62.98324838256836,15.383353146457672,63.23614838256836,15.002253146457672,63.24444838256836,14.578053146457671L63.24444838256836,4.5602431464576725L64.22224838256835,4.5602431464576725L64.22224838256835,3.466903146457672L63.24444838256836,3.466903146457672L63.25334838256836,0.889121146457672ZM43.37776838256836,24.462053146457674L47.11114838256836,24.462053146457674L47.11114838256836,23.73315314645767L44.39114838256836,23.73315314645767L44.39114838256836,18.097653146457674L43.37776838256836,18.097653146457674L43.37776838256836,24.462053146457674ZM38.36445838256836,24.60465314645767L37.97333838256836,23.306853146457673L35.555578382568356,23.306853146457673L35.09333838256836,24.60465314645767L34.01778838256836,24.60465314645767L36.44445838256836,18.151353146457673L37.11999838256836,18.151353146457673L39.67999838256836,24.60465314645767L38.36445838256836,24.60465314645767ZM68.55114838256836,24.60465314645767L68.15994838256836,23.306853146457673L65.77774838256836,23.306853146457673L65.31554838256835,24.60465314645767L64.20444838256836,24.60465314645767L66.62224838256836,18.151353146457673L67.29774838256836,18.151353146457673L69.85774838256836,24.60465314645767L68.55114838256836,24.60465314645767ZM52.44444838256836,18.22215314645767L51.351148382568354,18.22215314645767L51.351148382568354,24.444353146457672L52.44444838256836,24.444353146457672L52.44444838256836,18.22215314645767ZM77.40444838256836,18.302253146457673L75.55554838256836,21.58225314645767L75.55554838256836,24.444453146457672L74.40004838256836,24.444453146457672L74.40004838256836,21.53775314645767L72.45334838256835,18.302253146457673L73.43114838256835,18.302253146457673L74.88894838256836,20.84445314645767L76.35554838256836,18.302253146457673L77.40444838256836,18.302253146457673ZM58.16894838256836,22.079753146457673L59.62664838256836,22.079753146457673C60.614848382568354,22.01175314645767,61.38164838256836,21.19025314645767,61.38164838256836,20.199753146457674C61.38164838256836,19.209253146457673,60.614848382568354,18.387853146457672,59.62664838256836,18.31975314645767L57.09334838256836,18.31975314645767L57.09334838256836,24.604253146457673L58.16894838256836,24.604253146457673L58.16894838256836,22.079753146457673ZM59.55554838256836,19.155753146457673L58.16894838256836,19.155753146457673L58.16894838256836,21.27125314645767L59.55554838256836,21.27125314645767C60.13974838256836,21.27125314645767,60.61334838256836,20.797753146457673,60.61334838256836,20.213553146457674C60.61334838256836,19.62935314645767,60.13974838256836,19.155753146457673,59.55554838256836,19.155753146457673ZM36.74669838256836,20.05315314645767L36.986698382568356,20.05315314645767L37.81335838256836,22.657653146457672L35.85781838256836,22.657653146457672L36.74669838256836,20.05315314645767ZM66.93334838256837,20.05315314645767L67.17334838256835,20.05315314645767L68.00004838256837,22.657653146457672L66.04444838256836,22.657653146457672L66.93334838256837,20.05315314645767Z" fill-rule="evenodd" fill="#FFFFFF" fill-opacity="1"/></g><g><path d="M68.74665603027344,2.9866662643051147L76.64895603027344,2.9866662643051147L76.64895603027344,4.568876264305115L79.31565603027343,4.568876264305115L79.31565603027343,2.7911462643051146C79.31565603027343,2.7911462643051146,79.40445603027344,2.0178162643051145,78.66675603027343,2.0178162643051145L74.22225603027344,2.0178162643051145L74.22225603027344,0.48890626430511475L71.23565603027343,0.48890626430511475L71.23565603027343,2.0444762643051146L65.97335603027344,2.0444762643051146L65.97335603027344,4.568906264305115L68.74665603027344,4.568906264305115L68.74665603027344,2.9866662643051147ZM48.83555603027344,7.297816264305115C48.83555603027344,7.297816264305115,50.924466030273436,2.0533662643051147,51.43112603027344,0.7911522643051148L54.026676030273435,0.8000322643051148L52.07112603027344,5.155576264305115L53.18222603027344,5.155576264305115L53.18222603027344,15.431106264305114L50.97779603027344,15.431106264305114L50.97779603027344,7.297816264305115L48.83555603027344,7.297816264305115ZM78.70225603027345,11.982306264305114L79.99995603027344,15.111206264305114L80.00005603027344,15.111306264305115L77.40445603027344,15.111306264305115L77.40445603027344,15.102306264305115L65.98225603027343,15.102306264305115L65.98225603027343,14.124606264305115L71.43105603027344,14.124606264305115L71.43105603027344,9.973466264305115L65.98225603027343,9.973466264305115L65.98225603027343,8.924586264305114L71.43105603027344,8.924586264305114L71.43105603027344,6.782326264305115L65.98225603027343,6.782326264305115L65.98225603027343,5.742326264305115L79.35105603027344,5.742326264305115L79.35105603027344,6.782326264305115L73.96445603027344,6.782326264305115L73.96445603027344,8.924566264305115L79.35105603027344,8.924566264305115L79.35105603027344,9.973446264305116L73.96445603027344,9.973446264305116L73.96445603027344,14.124606264305115L76.99555603027343,14.124606264305115L76.10665603027344,11.982306264305114L78.70225603027345,11.982306264305114ZM55.324446030273435,6.257946264305115L57.59999603027344,6.257946264305115L59.22665603027344,11.137906264305114L56.95111603027344,11.137906264305114L55.324446030273435,6.257946264305115Z" fill-rule="evenodd" fill="#FFFFFF" fill-opacity="1"/></g></g></svg>