<svg xmlns="http://www.w3.org/2000/svg" xmlns:xlink="http://www.w3.org/1999/xlink" fill="none" version="1.1" width="64" height="64" viewBox="0 0 64 64"><defs><clipPath id="master_svg0_1898_17073"><rect x="0" y="0" width="64" height="64" rx="0"/></clipPath></defs><g clip-path="url(#master_svg0_1898_17073)"><g><path d="M35.2819,15.66307L9.360019999999999,15.66307C7.43349,15.66307,5.868650000000001,14.11168,5.868650000000001,12.175139999999999L5.868650000000001,9.48957C5.868650000000001,7.56219,7.43514,6,9.360019999999999,6L35.2819,6C37.2108,6,38.7723,7.55303,38.7723,9.48957L38.7723,12.1735C38.7723,14.10088,37.2081,15.66307,35.2819,15.66307ZM34.9036,24.6436C33.3857,25.6444,32.0172,26.85,30.838,28.2254L5.48872,28.2274C3.56285,28.2274,2,26.675,2,24.7385L2,22.0529C2,20.125500000000002,3.56616,18.5634,5.48872,18.5634L31.4146,18.5634C33.3405,18.5634,34.9036,20.1154,34.9036,22.0529L34.9036,24.6436ZM62.0015,40.791C62.0015,49.8642,54.6354,57.2195,45.5488,57.2195C36.4623,57.2195,29.0962,49.8642,29.0962,40.791C29.0962,31.7177,36.4623,24.3624,45.5488,24.3624C54.6354,24.3624,62.0015,31.7177,62.0015,40.791ZM53.4035,44.7017C53.4035,44.0282,52.8257,43.4844,52.1099,43.4844L47.4681,43.4844L47.4681,41.7259L52.1132,41.7259C52.829,41.7259,53.4068,41.182,53.4068,40.5099C53.4068,39.8374,52.829,39.2936,52.1132,39.2936L47.4681,39.2936L47.4681,37.9277L52.1417,33.4538C52.7242,32.8975,52.7149,31.9986,52.1225,31.4499C51.5271,30.9031,50.5772,30.9093,49.9927,31.4689L45.7388,35.5389L41.4836,31.4689C40.9008,30.909,39.9489,30.9031,39.3552,31.4499C38.7597,31.9986,38.7514,32.8943,39.3363,33.4538L44.0079,37.9277L44.0079,39.2936L39.3644,39.2936C38.6487,39.2936,38.0708,39.8374,38.0708,40.5099C38.0708,41.182,38.6487,41.7259,39.3644,41.7259L44.0079,41.7259L44.0079,43.4844L39.3644,43.4844C38.6487,43.4844,38.0708,44.0282,38.0708,44.7017C38.0708,45.3741,38.6487,45.9183,39.3644,45.9183L44.0079,45.9183L44.0079,48.5584C44.0079,49.457,44.784,50.1857,45.7372,50.1857C46.6903,50.1857,47.4648,49.457,47.4648,48.5584L47.4648,45.9183L52.1099,45.9183C52.8257,45.9183,53.4035,45.3741,53.4035,44.7017ZM5.868650000000001,34.6155L5.868650000000001,37.301100000000005C5.868650000000001,39.2376,7.43183,40.791,9.35803,40.791L26.19,40.791C26.19,37.2697,27.1322,33.9695,28.7792,31.1285L9.360019999999999,31.1285C7.43514,31.1249,5.868650000000001,32.6881,5.868650000000001,34.6155ZM3.93445,47.1778C3.93445,45.2521,5.49895,43.6892,7.42383,43.6892L26.4074,43.6892C26.9439,47.2549,28.4785,50.6019,30.8383,53.3533L7.42383,53.3533C5.49729,53.3533,3.93445,51.8015,3.93445,49.8634L3.93445,47.1778Z" fill-rule="evenodd" fill="#907344" fill-opacity="1"/></g></g></svg>