<svg xmlns="http://www.w3.org/2000/svg" xmlns:xlink="http://www.w3.org/1999/xlink" fill="none" version="1.1" width="86" height="86" viewBox="0 0 86 86"><defs><clipPath id="master_svg0_21182_55900"><rect x="0" y="0" width="86" height="86" rx="0"/></clipPath></defs><g clip-path="url(#master_svg0_21182_55900)"><g><path d="M32.5244,1.29555Q34.471,0.806583,36.4547,0.501069L36.6069,1.48941Q34.6693,1.78783,32.768,2.26543L32.5244,1.29555ZM24.9882,3.95419Q26.8063,3.11549,28.6945,2.44937L29.0272,3.39241Q27.1829,4.04304,25.4071,4.86223L24.9882,3.95419ZM18.0781,7.9586Q19.7079,6.79945,21.4383,5.79658L21.9398,6.66178Q20.2496,7.64133,18.6577,8.77352L18.0781,7.9586ZM12.0205,13.1794Q13.4098,11.736,14.9274,10.4281L15.5802,11.1856Q14.098,12.4631,12.7409,13.8729L12.0205,13.1794ZM7.03733,19.427Q8.13475,17.7528,9.38296,16.1878L10.1648,16.8113Q8.94557,18.3399,7.87367,19.9752L7.03733,19.427ZM3.29635,26.4888Q4.06516,24.6401,5.00244,22.8708L5.8861,23.3389Q4.97062,25.067,4.21969,26.8728L3.29635,26.4888ZM0.926921,34.1199Q1.34034,32.1612,1.93395,30.2493L2.88897,30.5459Q2.30917,32.4132,1.90537,34.3264L0.926921,34.1199ZM0.0101212,42.0671Q0.0535603,40.0654,0.282821,38.0763L1.27624,38.1908Q1.05231,40.1336,1.00989,42.0888L0.0101212,42.0671ZM0.576189,50.0157Q0.249433,48.0398,0.107746,46.0421L1.10524,45.9714Q1.24363,47.9226,1.56279,49.8526L0.576189,50.0157ZM2.60882,57.7497Q1.92214,55.8692,1.41314,53.9331L2.38028,53.6789Q2.87744,55.5699,3.54814,57.4066L2.60882,57.7497ZM6.03559,64.9689Q5.01264,63.2477,4.15407,61.4389L5.05746,61.0101Q5.89606,62.7768,6.89522,64.458L6.03559,64.9689ZM10.7387,71.429Q9.41391,69.9256,8.23468,68.3056L9.04318,67.7171Q10.1949,69.2994,11.489,70.7679L10.7387,71.429ZM16.5601,76.9106Q14.9804,75.679,13.5221,74.3058L14.2076,73.5778Q15.632,74.919,17.175,76.122L16.5601,76.9106ZM23.2887,81.216Q21.5101,80.2987,19.8244,79.22L20.3634,78.3777Q22.0098,79.4312,23.7471,80.3273L23.2887,81.216ZM30.7007,84.2035Q28.7821,83.6308,26.9251,82.8823L27.2989,81.9548Q29.1127,82.6859,30.9867,83.2453L30.7007,84.2035ZM38.542,85.7683Q36.5482,85.5605,34.5823,85.168L34.7781,84.1874Q36.6983,84.5707,38.6457,84.7737L38.542,85.7683ZM46.5193,85.8557Q44.7626,86,43,86Q42.7673,86,42.5345,85.9975L42.5454,84.9975Q42.7724,85,43,85Q44.7216,85,46.4374,84.8591L46.5193,85.8557ZM54.3906,84.4639Q52.4592,84.9945,50.4869,85.3432L50.3128,84.3585Q52.2392,84.0178,54.1257,83.4996L54.3906,84.4639ZM61.8646,81.641Q60.0657,82.5192,58.1931,83.2265L57.8397,82.291Q59.6688,81.6002,61.4259,80.7424L61.8646,81.641ZM68.6865,77.4848Q67.0819,78.68,65.3733,79.721L64.853,78.8671Q66.5219,77.8503,68.0891,76.6828L68.6865,77.4848ZM74.6282,72.1317Q73.2707,73.6055,71.782,74.9467L71.1127,74.2038Q72.5667,72.8938,73.8927,71.4542L74.6282,72.1317ZM79.4729,65.7756Q78.4129,67.473,77.1999,69.0647L76.4046,68.4585Q77.5894,66.9038,78.6247,65.2459L79.4729,65.7756ZM83.0565,58.6357Q82.3288,60.5,81.431,62.2887L80.5373,61.8401Q81.4142,60.093,82.125,58.2721L83.0565,58.6357ZM85.2576,50.9558Q84.8872,52.9232,84.3356,54.8478L83.3743,54.5722Q83.9131,52.6925,84.2749,50.7707L85.2576,50.9558ZM86,43Q86,45.0011,85.8141,46.9936L84.8185,46.9007Q85,44.9546,85,43L86,43ZM85.5686,36.9242Q85.8516,38.9069,85.9491,40.9074L84.9502,40.956Q84.855,39.0021,84.5786,37.0655L85.5686,36.9242ZM83.7048,29.1393Q84.3502,31.0346,84.8167,32.9816L83.8442,33.2146Q83.3886,31.3129,82.7582,29.4616L83.7048,29.1393ZM80.4388,21.8496Q81.4232,23.5921,82.2415,25.4186L81.3289,25.8275Q80.5296,24.0435,79.5681,22.3414L80.4388,21.8496ZM75.8784,15.287Q77.1697,16.819,78.313,18.4645L77.4918,19.035Q76.375,17.4278,75.1138,15.9315L75.8784,15.287ZM70.1811,9.68049Q71.7326,10.9462,73.1597,12.3505L72.4584,13.0633Q71.0644,11.6916,69.549,10.4554L70.1811,9.68049ZM63.5451,5.22569Q65.3036,6.1821,66.9655,7.29772L66.4082,8.12801Q64.7849,7.03834,63.0673,6.10417L63.5451,5.22569ZM56.2017,2.07672Q58.1068,2.69129,59.9465,3.48018L59.5524,4.39925Q57.7555,3.6287,55.8947,3.02843L56.2017,2.07672ZM48.3906,0.339231Q50.3829,0.590974,52.343,1.0273L52.1257,2.00341Q50.2112,1.57723,48.2653,1.33134L48.3906,0.339231ZM44.4024,0.0228745L44.3698,1.02234Q43.6851,1,43,1Q41.7455,1,40.4932,1.07488L40.4335,0.0766615Q41.7156,1.079e-14,43,0Q43.7014,0,44.4024,0.0228745Z" fill-rule="evenodd" fill="#FFFFFF" fill-opacity="0.6000000238418579"/></g><g transform="matrix(0.9659258127212524,0.258819043636322,-0.258819043636322,0.9659258127212524,6.520523424871499,-4.550751357135596)"><path d="M22.19945703125,29.376769531249998L22.19945703125,31.050769531249998L33.70145703125,31.050769531249998L33.70145703125,35.40676953125L24.79145703125,35.40676953125L24.79145703125,32.67076953125L23.04545703125,32.67076953125L23.04545703125,41.43676953125C23.04545703125,43.90276953125,24.01745703125,44.496769531249996,27.20345703125,44.496769531249996C27.92345703125,44.496769531249996,32.83745703125,44.496769531249996,33.62945703125,44.496769531249996C36.74345703125,44.496769531249996,37.42745703125,43.50676953125,37.80545703125,40.15876953125C37.301457031249996,40.05076953125,36.52745703125,39.76276953125,36.07745703125,39.474769531250004C35.82545703125,42.246769531249996,35.51945703125,42.80476953125,33.59345703125,42.80476953125C32.45945703125,42.80476953125,28.08545703125,42.80476953125,27.14945703125,42.80476953125C25.16945703125,42.80476953125,24.79145703125,42.58876953125,24.79145703125,41.45476953125L24.79145703125,37.08076953125L33.70145703125,37.08076953125L33.70145703125,37.962769531250004L35.48345703125,37.962769531250004L35.48345703125,29.376769531249998L22.19945703125,29.376769531249998ZM39.785457031250004,29.69682953125C40.77545703125,30.63507953125,41.92745703125,31.96876953125,42.431457031250005,32.83276953125L43.85345703125,31.84276953125C43.295457031249995,30.97764953125,42.10745703125,29.71482953125,41.09945703125,28.81257953125L39.785457031250004,29.69682953125ZM45.25745703125,34.974769531250004C46.157457031250004,36.090769531250004,47.25545703125,37.65676953125,47.74145703125,38.61076953125L49.19945703125,37.72876953125C48.67745703125,36.77476953125,47.52545703125,35.29876953125,46.62545703125,34.218769531250004L45.25745703125,34.974769531250004ZM43.36745703125,35.01076953125L39.389457031250004,35.01076953125L39.389457031250004,36.59476953125L41.71145703125,36.59476953125L41.71145703125,41.00476953125C40.919457031250005,41.31076953125,39.98345703125,42.04876953125,39.06545703125,43.03876953125L40.27145703125,44.71496953125C41.063457031249996,43.56076953125,41.89145703125,42.42676953125,42.46745703125,42.42676953125C42.88145703125,42.42676953125,43.47545703125,43.02076953125,44.267457031250004,43.48876953125C45.563457031249996,44.24476953125,47.07545703125,44.44276953125,49.34345703125,44.44276953125C51.12545703125,44.44276953125,54.20345703125,44.334769531250004,55.46345703125,44.26276953125C55.49945703125,43.758769531249996,55.78745703125,42.876769531250005,55.98545703125,42.39076953125C54.22145703125,42.624769531249996,51.395457031250004,42.78676953125,49.39745703125,42.78676953125C47.38145703125,42.78676953125,45.779457031250004,42.66076953125,44.59145703125,41.94076953125C44.069457031249996,41.63476953125,43.691457031249996,41.346769531250004,43.36745703125,41.14876953125L43.36745703125,35.01076953125ZM51.395457031250004,28.36145953125L51.395457031250004,31.46476953125L44.53745703125,31.46476953125L44.53745703125,33.084769531250004L51.395457031250004,33.084769531250004L51.395457031250004,39.69076953125C51.395457031250004,39.996769531249996,51.26945703125,40.10476953125,50.90945703125,40.12276953125C50.54945703125,40.12276953125,49.27145703125,40.12276953125,48.01145703125,40.06876953125C48.26345703125,40.55476953125,48.533457031249995,41.31076953125,48.60545703125,41.81476953125C50.297457031250005,41.81476953125,51.46745703125,41.77876953125,52.151457031250004,41.508769531249996C52.87145703125,41.23876953125,53.14145703125,40.752769531249996,53.14145703125,39.69076953125L53.14145703125,33.084769531250004L55.49945703125,33.084769531250004L55.49945703125,31.46476953125L53.14145703125,31.46476953125L53.14145703125,28.36145953125L51.395457031250004,28.36145953125ZM59.54945703125,40.93276953125C59.02745703125,42.084769531250004,58.09145703125,43.25476953125,57.11945703125,44.02876953125C57.51545703125,44.26276953125,58.18145703125,44.730769531250004,58.48745703125,45.019869531249995C59.45945703125,44.136769531249996,60.52145703125,42.73276953125,61.16945703125,41.38276953125L59.54945703125,40.93276953125ZM62.17745703125,41.59876953125C62.87945703125,42.44476953125,63.72545703125,43.614769531250005,64.06745703125,44.352769531250004L65.45345703125,43.54276953125C65.05745703125001,42.80476953125,64.19345703125,41.68876953125,63.49145703125,40.87876953125L62.17745703125,41.59876953125ZM71.66345703125,30.690769531249998L71.66345703125,33.246769531249996L68.45945703125,33.246769531249996L68.45945703125,30.690769531249998L71.66345703125,30.690769531249998ZM66.85745703125,29.14276953125L66.85745703125,35.71356953125C66.85745703125,38.30786953125,66.74945703125,41.73066953125,65.29145703124999,44.10866953125C65.66945703125,44.26276953125,66.37145703125,44.76676953125,66.65945703125,45.07446953125C67.68545703125,43.39876953125,68.15345703125,41.112769531249995,68.33345703124999,38.95276953125L71.66345703125,38.95276953125L71.66345703125,42.96676953125C71.66345703125,43.25476953125,71.57345703125,43.32676953125,71.30345703124999,43.34476953125C71.05145703125001,43.34476953125,70.15145703125,43.362769531249995,69.26945703125,43.32676953125C69.50345703125001,43.758769531249996,69.71945703125,44.496769531249996,69.77345703124999,44.94676953125C71.12345703125,44.965069531249995,72.00545703125,44.92876953125,72.56345703125001,44.64076953125C73.12145703125,44.370769531250005,73.31945703125001,43.88476953125,73.31945703125001,42.984769531249995L73.31945703125001,29.14276953125L66.85745703125,29.14276953125ZM71.66345703125,34.758769531249996L71.66345703125,37.42276953125L68.42345703125,37.42276953125L68.45945703125,35.712769531250004L68.45945703125,34.758769531249996L71.66345703125,34.758769531249996ZM63.23945703125,28.49476953125L63.23945703125,30.56476953125L60.41345703125,30.56476953125L60.41345703125,28.49476953125L58.86545703125,28.49476953125L58.86545703125,30.56476953125L57.38945703125,30.56476953125L57.38945703125,32.05876953125L58.86545703125,32.05876953125L58.86545703125,39.15076953125L57.17345703125,39.15076953125L57.17345703125,40.64476953125L66.04745703124999,40.64476953125L66.04745703124999,39.15076953125L64.82345703125,39.15076953125L64.82345703125,32.05876953125L66.10145703124999,32.05876953125L66.10145703124999,30.56476953125L64.82345703125,30.56476953125L64.82345703125,28.49476953125L63.23945703125,28.49476953125ZM60.41345703125,32.05876953125L63.23945703125,32.05876953125L63.23945703125,33.42676953125L60.41345703125,33.42676953125L60.41345703125,32.05876953125ZM60.41345703125,34.758769531249996L63.23945703125,34.758769531249996L63.23945703125,36.252769531249996L60.41345703125,36.252769531249996L60.41345703125,34.758769531249996ZM60.41345703125,37.602769531250004L63.23945703125,37.602769531250004L63.23945703125,39.15076953125L60.41345703125,39.15076953125L60.41345703125,37.602769531250004Z" fill="#FFFFFF" fill-opacity="1"/></g></g></svg>