<svg xmlns="http://www.w3.org/2000/svg" xmlns:xlink="http://www.w3.org/1999/xlink" fill="none" version="1.1" width="110" height="25" viewBox="0 0 110 25"><g><g><path d="M10.0994,15.4708C9.96985,15.5361,9.8264,15.5692,9.68129,15.5673C9.35264,15.5693,9.04718,15.3982,8.87719,15.117L8.81287,14.9883L6.30409,9.42398C6.26821,9.3654,6.24621,9.29939,6.23977,9.23099C6.25672,8.97718,6.46784,8.78014,6.72222,8.7807C6.81749,8.77688,6.91027,8.81167,6.97953,8.87719L9.97076,11C10.2037,11.1419,10.47,11.2196,10.7427,11.2251C10.8981,11.2274,11.0521,11.1944,11.193,11.1287L25.2164,4.88889C22.7076,1.92982,18.5906,0,13.8947,0C6.23977,0,0,5.17836,0,11.5468C0,15.0526,1.8655,18.1725,4.7924,20.2953C5.05624,20.4627,5.21449,20.7548,5.21053,21.0673C5.20466,21.1666,5.18294,21.2643,5.1462,21.3567C4.92105,22.2251,4.53509,23.6082,4.53509,23.6725C4.48805,23.7859,4.45563,23.9048,4.4386,24.0263C4.45555,24.2801,4.66667,24.4772,4.92105,24.4766C5.01524,24.4744,5.10591,24.4404,5.17836,24.3801L8.20175,22.6433C8.42688,22.5103,8.68051,22.4332,8.94152,22.4181L9.35965,22.4825C10.8329,22.9122,12.3601,23.1288,13.8947,23.1257C21.5497,23.1257,27.7573,17.9474,27.7573,11.5468C27.7641,9.65141,27.2163,7.79545,26.1813,6.2076L10.1959,15.4386L10.0994,15.4708Z" fill="#22AC38" fill-opacity="1"/></g><g><rect x="61.175437927246094" y="8.233918190002441" width="10.421052932739258" height="0.932748556137085" rx="0" fill="#FFFFFF" fill-opacity="1"/></g><g><rect x="61.175437927246094" y="11.128655433654785" width="10.421052932739258" height="1.0067251920700073" rx="0" fill="#FFFFFF" fill-opacity="1"/></g><g><path d="M61.46491241455078,14.119882583618164L71.33918241455078,14.119882583618164L71.33918241455078,19.748532583618164L61.46491241455078,19.748532583618164L61.46491241455078,14.119882583618164ZM70.34210241455078,15.052499583618165L62.46198241455078,15.052499583618165L62.46198241455078,18.815662583618163L70.34210241455078,18.815662583618163L70.34210241455078,15.052499583618165Z" fill-rule="evenodd" fill="#FFFFFF" fill-opacity="1"/></g><g><path d="M58.34502447265625,20.327445668411254L58.34502447265625,7.3654956684112545C58.94003447265625,6.061385668411255,59.44511447265625,4.718095668411255,59.85672447265625,3.345029668411255L58.95613447265625,2.798245668411255C58.10062447265625,5.877965668411255,56.75388447265625,8.799515668411255,54.96783447265625,11.450295668411254L55.54678147265625,12.415205668411256C56.12572447265625,11.546785668411255,56.73684447265625,10.517545668411255,57.31578447265625,9.456135668411255L57.31578447265625,20.327445668411254L58.34502447265625,20.327445668411254Z" fill="#FFFFFF" fill-opacity="1"/></g><g><path d="M96.1695920727539,20.327445668411254L96.1695920727539,7.3654956684112545C96.7613920727539,6.056265668411255,97.2768720727539,4.713865668411255,97.71345207275391,3.345029668411255L96.78070207275391,2.798245668411255C95.92230207275391,5.871305668411255,94.58738207275391,8.790775668411255,92.8245620727539,11.450295668411254L93.37134607275391,12.415205668411256C93.95029207275391,11.546785668411255,94.5614020727539,10.517545668411255,95.1725120727539,9.456135668411255L95.1725120727539,20.327445668411254L96.1695920727539,20.327445668411254Z" fill="#FFFFFF" fill-opacity="1"/></g><g><path d="M72.69006380004883,5.210525668411255L66.57894380004883,5.210525668411255L67.22222380004882,4.856725668411254L67.25438380004883,4.856725668411254C67.15789380004883,4.663745668411255,66.96491380004883,4.277775668411255,66.77193380004883,3.8274856684112546L66.28947380004882,2.798245668411255L66.25731380004883,2.798245668411255L65.32456380004882,3.345029668411255L65.35672380004883,3.345029668411255L66.22514380004883,5.114035668411255L66.28947380004882,5.274855668411255L60.17836380004883,5.274855668411255L60.17836380004883,6.3040956684112555L72.69006380004883,6.3040956684112555L72.69006380004883,5.210525668411255Z" fill="#FFFFFF" fill-opacity="1"/></g><g><path d="M45.801165174560545,4.470759202041626L44.86842517456055,4.470759202041626L44.86842517456055,7.751459202041626L43.131575174560545,7.751459202041626L43.131575174560545,3.087719202041626L42.19883517456055,3.087719202041626L42.19883517456055,7.751459202041626L40.33333417456055,7.751459202041626L40.33333417456055,4.470759202041626L39.40058517456055,4.470759202041626L39.40058517456055,8.684209202041625L45.801165174560545,8.684209202041625L45.801165174560545,4.470759202041626L45.801165174560545,4.470759202041626Z" fill="#FFFFFF" fill-opacity="1"/></g><g><rect x="39.690059661865234" y="10.51754379272461" width="5.660818576812744" height="0.932748556137085" rx="0" fill="#FFFFFF" fill-opacity="1"/></g><g><path d="M40.94444447265625,15.052635602722168L40.94444447265625,14.216374602722167L43.80701447265625,14.216374602722167L43.80701447265625,16.307015602722167C43.77485447265625,17.014615602722166,43.74268447265625,17.23976560272217,43.48537447265625,17.59356560272217L43.45321447265625,17.59356560272217L44.03216447265625,18.55847560272217L44.06432447265625,18.55847560272217L46.60526447265625,16.37134560272217L46.63742447265625,16.37134560272217L46.18713447265625,15.599415602722168L46.154964472656246,15.599415602722168L44.73976447265625,16.821635602722168L44.73976447265625,13.283625602722168L39.94736447265625,13.283625602722168L39.94736447265625,14.698825602722168C40.07602447265625,16.62865560272217,39.59356447265625,18.043855602722168,38.49999817265625,18.81578560272217L38.46783447265625,18.81578560272217L38.98245447265625,19.716375602722167L39.04678147265625,19.716375602722167C40.39765447265625,18.59064560272217,41.04093447265625,17.014615602722166,40.94444447265625,15.020465602722169L40.94444447265625,15.052635602722168Z" fill="#FFFFFF" fill-opacity="1"/></g><g><path d="M34.801170349121094,7.494156766815186L35.38011734912109,8.459066766815186C36.850380349121096,6.973206766815186,38.067270349121095,5.256516766815185,38.98246034912109,3.3771927668151855L38.1140403491211,2.8947367668151855C37.299270349121095,4.616956766815186,36.176530349121094,6.175716766815185,34.8011703491211,7.494156766815186L34.801170349121094,7.494156766815186Z" fill="#FFFFFF" fill-opacity="1"/></g><g><path d="M34.543861389160156,13.34795426589966L35.05848138916016,14.248534265899657L35.122808389160156,14.248534265899657C35.66959138916015,13.605264265899658,36.21637138916016,12.929824265899658,36.73099138916015,12.222224265899658L36.73099138916015,20.327534265899658L37.66374138916016,20.327534265899658L37.66374138916016,10.678364265899658C38.11575138916015,9.875594265899657,38.52376138916016,9.048834265899657,38.885971389160154,8.201754265899659L38.885971389160154,8.201754265899659L37.98538138916015,7.687134265899658L37.953221389160156,7.687134265899658C37.157601389160156,9.752404265899658,36.015491389160154,11.666804265899659,34.576025089160154,13.34795426589966L34.543861389160156,13.34795426589966Z" fill="#FFFFFF" fill-opacity="1"/></g><g><path d="M52.68420586181641,6.271933146820068L52.68420586181641,7.204683146820068L51.65496586181641,7.1725131468200685C51.3976558618164,10.83918314682007,50.7543858618164,13.669573146820069,49.6929858618164,15.599373146820069C50.45726586181641,16.957973146820066,51.43460586181641,18.185073146820066,52.587715861816406,19.23387314682007L52.04093586181641,20.19887314682007L52.0087758618164,20.19887314682007C50.901445861816406,19.10427314682007,49.93937586181641,17.871973146820068,49.14619586181641,16.53217314682007C48.599415861816404,17.561373146820067,47.57017586181641,18.783673146820068,46.12280686181641,20.166673146820067L46.05847986181641,20.166673146820067L45.511695861816406,19.23387314682007L45.543859561816404,19.23387314682007C46.76803586181641,18.181273146820068,47.820635861816406,16.94417314682007,48.66374586181641,15.56727314682007C47.956135861816406,14.087673146820068,47.441515861816406,12.061403146820068,47.152045861816404,9.552633146820067L46.76608586181641,10.260233146820068L46.34795286181641,11.128653146820069L45.73684186181641,10.09941314682007C47.045265861816404,7.856443146820069,47.96932586181641,5.410413146820068,48.47075586181641,2.8625731468200684L49.43567586181641,2.8625731468200684C49.2414058618164,4.024393146820069,48.93991586181641,5.165723146820069,48.535085861816405,6.271933146820068L52.68420586181641,6.271933146820068ZM47.85965586181641,8.073283146820067C48.149135861816404,10.742873146820068,48.59942586181641,12.897873146820068,49.2105358618164,14.473873146820068C50.014625861816405,12.704863146820069,50.529245861816406,10.260413146820069,50.722225861816405,7.204863146820069L48.213455861816406,7.204863146820069C48.084805861816406,7.494333146820068,47.95614586181641,7.783803146820069,47.85965586181641,8.073283146820067Z" fill-rule="evenodd" fill="#FFFFFF" fill-opacity="1"/></g><g><path d="M91.63453515625,5.242694331588745L91.63453515625,6.239764331588745L83.65789515624999,6.239764331588745L83.65789515624999,9.552634331588745L87.93563515625,9.552634331588745L88.77193515625,10.035084331588745C87.75853515625,12.620214331588745,86.02923515625,14.862854331588744,83.78654515625,16.499954331588746C85.03693515625,17.329454331588746,86.37433515625,18.019754331588743,87.77483515625,18.558454331588745C88.66943515625,18.916554331588745,89.58193515625,19.227854331588745,90.50873515625,19.491254331588745L90.09063515625,20.263154331588744L90.05843515625,20.263154331588744C87.53963515625,19.704654331588745,85.16333515625,18.631554331588745,83.07894515625,17.111154331588743C80.81265515625,18.564854331588744,78.32501515625,19.640254331588746,75.71344715625,20.295354331588744L75.13450015625,19.266054331588744C77.66604515625,18.796554331588744,80.08766515625,17.858454331588746,82.27485515625,16.499954331588746C81.40402515625,15.799954331588745,80.60656515625,15.013254331588746,79.89473515625,14.152054331588745C78.96264515625,13.020554331588745,78.17401515625,11.778204331588745,77.54678515625,10.453214331588745L77.54678515625,9.552634331588745L82.66081515625,9.552634331588745L82.66081515625,6.239764331588745L74.74853515625,6.239764331588745L74.74853515625,5.242694331588745L82.66081515625,5.242694331588745L82.66081515625,2.701754331588745L83.65789515624999,2.701754331588745L83.65789515624999,5.242694331588745L91.63453515625,5.242694331588745ZM83.04680515625,15.856654331588745C86.55263515625,13.347854331588746,87.58193515625,10.420994331588744,87.58193515625,10.420994331588744L78.54388515625,10.420994331588744C79.60789515625,12.554394331588744,81.14863515625,14.414254331588745,83.04680515625,15.856654331588745Z" fill-rule="evenodd" fill="#FFFFFF" fill-opacity="1"/></g><g><path d="M104.40351310546875,19.040936766815186L103.82456310546875,19.040936766815186L103.82456310546875,20.038036766815186L104.69298310546876,20.038036766815186C105.69006310546875,20.038036766815186,106.23684310546875,19.845036766815184,106.65497310546876,19.426936766815185C107.07310310546875,19.008736766815186,107.26608310546875,18.365536766815186,107.23392310546875,17.561436766815184L107.23392310546875,8.201756766815185L109.93563310546875,8.201756766815185L109.93563310546875,7.204676766815186L107.23392310546875,7.204676766815186L107.23392310546875,2.8947367668151855L106.23684310546875,2.8947367668151855L106.23684310546875,7.204676766815186L97.90643310546875,7.204676766815186L97.90643310546875,8.201756766815185L106.23684310546875,8.201756766815185L106.23684310546875,17.561436766815184C106.23684310546875,18.558436766815184,105.59356310546875,19.040936766815186,104.40351310546875,19.040936766815186L104.40351310546875,19.040936766815186Z" fill="#FFFFFF" fill-opacity="1"/></g><g><path d="M102.15204689453125,15.728070946350098L103.14912689453125,15.149120946350099C102.63450689453126,14.055550946350097,101.89473689453125,12.608190946350097,101.02631589453125,10.839180946350098L100.09356689453125,11.353800946350098C100.70467789453124,12.543860946350097,101.41227689453125,14.023390946350098,102.15204689453125,15.728070946350098L102.15204689453125,15.728070946350098Z" fill="#FFFFFF" fill-opacity="1"/></g></g></svg>