<svg xmlns="http://www.w3.org/2000/svg" xmlns:xlink="http://www.w3.org/1999/xlink" fill="none" version="1.1" width="72" height="66" viewBox="0 0 72 66"><defs><clipPath id="master_svg0_852_09160"><rect x="0" y="0" width="72" height="66" rx="0"/></clipPath></defs><g clip-path="url(#master_svg0_852_09160)"><g><path d="M7.388069754638672,60.47465756149292L64.94437975463867,60.47465756149292L64.99057975463867,60.34845756149292C69.88697975463867,60.34845756149292,69.19407975463866,55.72065756149292,69.19407975463866,55.72065756149292L69.19407975463866,17.26795756149292C69.36367975463867,16.11165756149292,68.93187975463867,14.94949756149292,68.02617975463868,14.12462756149292C67.12047975463867,13.29974756149292,65.84437975463868,12.906457561492921,64.57477975463867,13.06090756149292L38.568279754638674,13.06090756149292C37.702479754638674,13.11096756149292,36.85177975463867,12.83751756149292,36.212379754638675,12.30362756149292L33.16367975463867,7.75998756149292C31.36217975463867,5.06746356149292,28.682979754638673,5.53024216149292,28.682979754638673,5.53024216149292L8.496689754638671,5.53024216149292C7.002799754638672,5.48482286149292,5.552069754638672,5.99080956149292,4.473619754638672,6.93341756149292C3.395171754638672,7.87602756149292,2.780403654638672,9.17535756149292,2.768779754638672,10.53665756149292L2.768779754638672,55.55235756149292C2.768779754638672,61.14775756149292,7.388069754638672,60.47465756149292,7.388069754638672,60.47465756149292ZM57.558479754638675,22.59255756149292C57.93867975463867,22.97145756149292,58.152179754638674,23.485457561492918,58.152179754638674,24.02145756149292C58.16327975463867,24.56835756149292,57.95587975463867,25.09725756149292,57.575779754638674,25.49175756149292C57.19557975463867,25.88625756149292,56.67377975463867,26.11395756149292,56.12507975463867,26.12475756149292L15.955179754638673,26.12475756149292C15.392279754638672,26.13615756149292,14.848979754638671,25.91815756149292,14.450779754638672,25.52125756149292C14.052579754638671,25.12425756149292,13.833979754638673,24.58265756149292,13.845379754638671,24.02145756149292C13.856279754638672,23.47455756149292,14.084679754638671,22.95435756149292,14.480379754638673,22.57525756149292C14.876079754638672,22.19625756149292,15.406579754638672,21.98955756149292,15.955179754638673,22.00065756149292L56.12507975463867,22.00065756149292C56.662679754638674,22.00065756149292,57.17837975463867,22.21355756149292,57.558479754638675,22.59255756149292Z" fill-rule="evenodd" fill="#B59758" fill-opacity="1"/></g></g></svg>