<svg xmlns="http://www.w3.org/2000/svg" xmlns:xlink="http://www.w3.org/1999/xlink" fill="none" version="1.1" width="24" height="24" viewBox="0 0 24 24"><defs><clipPath id="master_svg0_852_11457"><rect x="0" y="0" width="24" height="24" rx="0"/></clipPath></defs><g clip-path="url(#master_svg0_852_11457)"><g></g><g><path d="M11.33708,4.774587C11.70321,4.4084708,12.29679,4.4084708,12.66292,4.774587C12.66292,4.774587,19.2254,11.33708,19.2254,11.33708C19.5915,11.70321,19.5915,12.29679,19.2254,12.66292C18.859299999999998,13.02903,18.265700000000002,13.02903,17.8996,12.66292C17.8996,12.66292,12.9375,7.70082,12.9375,7.70082C12.9375,7.70082,12.9375,18.5625,12.9375,18.5625C12.9375,19.0803,12.51776,19.5,12,19.5C11.482240000000001,19.5,11.0625,19.0803,11.0625,18.5625C11.0625,18.5625,11.0625,7.70082,11.0625,7.70082C11.0625,7.70082,6.10042,12.66292,6.10042,12.66292C5.73429,13.02903,5.140703,13.02903,4.774587,12.66292C4.4084708,12.29679,4.4084708,11.70321,4.774587,11.33708C4.774587,11.33708,11.33708,4.774587,11.33708,4.774587C11.33708,4.774587,11.33708,4.774587,11.33708,4.774587Z" fill-rule="evenodd" fill="#FFFFFF" fill-opacity="0.8500000238418579"/></g></g></svg>