<svg xmlns="http://www.w3.org/2000/svg" xmlns:xlink="http://www.w3.org/1999/xlink" fill="none" version="1.1" width="20" height="20" viewBox="0 0 20 20"><defs><clipPath id="master_svg0_852_04676"><rect x="0" y="0" width="20" height="20" rx="0"/></clipPath></defs><g clip-path="url(#master_svg0_852_04676)"><g></g><g><path d="M10,4C10.41421,4,10.75,4.335786,10.75,4.75C10.75,4.75,10.75,9.25,10.75,9.25C10.75,9.25,15.25,9.25,15.25,9.25C15.6642,9.25,16,9.58579,16,10C16,10.41421,15.6642,10.75,15.25,10.75C15.25,10.75,10.75,10.75,10.75,10.75C10.75,10.75,10.75,15.25,10.75,15.25C10.75,15.6642,10.41421,16,10,16C9.58579,16,9.25,15.6642,9.25,15.25C9.25,15.25,9.25,10.75,9.25,10.75C9.25,10.75,4.75,10.75,4.75,10.75C4.335786,10.75,4,10.41421,4,10C4,9.58579,4.335786,9.25,4.75,9.25C4.75,9.25,9.25,9.25,9.25,9.25C9.25,9.25,9.25,4.75,9.25,4.75C9.25,4.335786,9.58579,4,10,4C10,4,10,4,10,4Z" fill-rule="evenodd" fill="#2696FF" fill-opacity="1"/></g></g></svg>