<svg xmlns="http://www.w3.org/2000/svg" xmlns:xlink="http://www.w3.org/1999/xlink" fill="none" version="1.1" width="18" height="18" viewBox="0 0 18 18"><defs><clipPath id="master_svg0_778_19442"><rect x="0" y="0" width="18" height="18" rx="0"/></clipPath></defs><g clip-path="url(#master_svg0_778_19442)"><g><path d="M9,2.25C5.27208,2.25,2.25,5.27208,2.25,9C2.25,12.728,5.27208,15.75,9,15.75C12.728,15.75,15.75,12.728,15.75,9C15.75,5.27208,12.728,2.25,9,2.25C9,2.25,9,2.25,9,2.25ZM0.75,9C0.75,4.44365,4.44365,0.75,9,0.75C13.5563,0.75,17.25,4.44365,17.25,9C17.25,13.5563,13.5563,17.25,9,17.25C4.44365,17.25,0.75,13.5563,0.75,9C0.75,9,0.75,9,0.75,9ZM6.21967,6.21967C6.51257,5.92678,6.98743,5.92678,7.28033,6.21967C7.28033,6.21967,9,7.93934,9,7.93934C9,7.93934,10.71968,6.21967,10.71968,6.21967C11.0126,5.92678,11.4874,5.92678,11.7803,6.21967C12.0732,6.51257,12.0732,6.98743,11.7803,7.28033C11.7803,7.28033,10.06065,9,10.06065,9C10.06065,9,11.7803,10.71968,11.7803,10.71968C12.0732,11.0126,12.0732,11.4874,11.7803,11.7803C11.4874,12.0732,11.0126,12.0732,10.71968,11.7803C10.71968,11.7803,9,10.06065,9,10.06065C9,10.06065,7.28033,11.7803,7.28033,11.7803C6.98743,12.0732,6.51257,12.0732,6.21967,11.7803C5.92678,11.4874,5.92678,11.0126,6.21967,10.71968C6.21967,10.71968,7.93934,9,7.93934,9C7.93934,9,6.21967,7.28033,6.21967,7.28033C5.92678,6.98743,5.92678,6.51257,6.21967,6.21967C6.21967,6.21967,6.21967,6.21967,6.21967,6.21967Z" fill-rule="evenodd" fill="#FFFFFF" fill-opacity="0.8500000238418579"/></g></g></svg>