<svg xmlns="http://www.w3.org/2000/svg" xmlns:xlink="http://www.w3.org/1999/xlink" fill="none" version="1.1" width="18" height="18" viewBox="0 0 18 18"><defs><clipPath id="master_svg0_946_11253"><rect x="0" y="0" width="18" height="18" rx="0"/></clipPath></defs><g clip-path="url(#master_svg0_946_11253)"><g><path d="M3,2.25C2.80108,2.25,2.6103199999999998,2.32902,2.46967,2.46967C2.32902,2.6103199999999998,2.25,2.80108,2.25,3C2.25,3,2.25,9.75,2.25,9.75C2.25,9.9489,2.32902,10.1397,2.46967,10.28032C2.6103199999999998,10.42095,2.80108,10.5,3,10.5C3,10.5,3.75,10.5,3.75,10.5C4.164210000000001,10.5,4.5,10.8358,4.5,11.25C4.5,11.6642,4.164210000000001,12,3.75,12C3.75,12,3,12,3,12C2.40326,12,1.83097,11.7629,1.4090099999999999,11.341C0.987053,10.919,0.75,10.3467,0.75,9.75C0.75,9.75,0.75,3,0.75,3C0.75,2.40326,0.987053,1.83097,1.4090099999999999,1.4090099999999999C1.83097,0.987053,2.40326,0.75,3,0.75C3,0.75,9.75,0.75,9.75,0.75C10.3467,0.75,10.919,0.987053,11.341,1.4090099999999999C11.7629,1.83097,12,2.40326,12,3C12,3,12,3.75,12,3.75C12,4.164210000000001,11.6642,4.5,11.25,4.5C10.8358,4.5,10.5,4.164210000000001,10.5,3.75C10.5,3.75,10.5,3,10.5,3C10.5,2.80108,10.42095,2.6103199999999998,10.28032,2.46967C10.1397,2.32902,9.9489,2.25,9.75,2.25C9.75,2.25,3,2.25,3,2.25C3,2.25,3,2.25,3,2.25ZM8.25,7.5C7.83578,7.5,7.5,7.83578,7.5,8.25C7.5,8.25,7.5,15,7.5,15C7.5,15.4142,7.83578,15.75,8.25,15.75C8.25,15.75,15,15.75,15,15.75C15.4142,15.75,15.75,15.4142,15.75,15C15.75,15,15.75,8.25,15.75,8.25C15.75,7.83578,15.4142,7.5,15,7.5C15,7.5,8.25,7.5,8.25,7.5C8.25,7.5,8.25,7.5,8.25,7.5ZM6,8.25C6,7.00736,7.00736,6,8.25,6C8.25,6,15,6,15,6C16.2427,6,17.25,7.00736,17.25,8.25C17.25,8.25,17.25,15,17.25,15C17.25,16.2427,16.2427,17.25,15,17.25C15,17.25,8.25,17.25,8.25,17.25C7.00736,17.25,6,16.2427,6,15C6,15,6,8.25,6,8.25C6,8.25,6,8.25,6,8.25Z" fill-rule="evenodd" fill="#FFFFFF" fill-opacity="1"/></g></g></svg>