<svg xmlns="http://www.w3.org/2000/svg" xmlns:xlink="http://www.w3.org/1999/xlink" fill="none" version="1.1" width="18" height="18" viewBox="0 0 18 18"><defs><clipPath id="master_svg0_946_11255"><rect x="0" y="0" width="18" height="18" rx="0"/></clipPath></defs><g clip-path="url(#master_svg0_946_11255)"><g><path d="M7.5,2.25C7.30108,2.25,7.11032,2.32902,6.96967,2.46967C6.82902,2.6103199999999998,6.75,2.80108,6.75,3C6.75,3,6.75,3.75,6.75,3.75C6.75,3.75,11.25,3.75,11.25,3.75C11.25,3.75,11.25,3,11.25,3C11.25,2.80108,11.17095,2.6103199999999998,11.03032,2.46967C10.8897,2.32902,10.6989,2.25,10.5,2.25C10.5,2.25,7.5,2.25,7.5,2.25C7.5,2.25,7.5,2.25,7.5,2.25ZM12.75,3.75C12.75,3.75,12.75,3,12.75,3C12.75,2.40326,12.5129,1.83097,12.091,1.4090099999999999C11.669,0.987053,11.0967,0.75,10.5,0.75C10.5,0.75,7.5,0.75,7.5,0.75C6.90326,0.75,6.33097,0.987053,5.90901,1.4090099999999999C5.48705,1.83097,5.25,2.40326,5.25,3C5.25,3,5.25,3.75,5.25,3.75C5.25,3.75,2.25,3.75,2.25,3.75C1.835786,3.75,1.5,4.085789999999999,1.5,4.5C1.5,4.91421,1.835786,5.25,2.25,5.25C2.25,5.25,3,5.25,3,5.25C3,5.25,3,15,3,15C3,15.5968,3.23705,16.169,3.65901,16.591C4.080970000000001,17.0129,4.6532599999999995,17.25,5.25,17.25C5.25,17.25,12.75,17.25,12.75,17.25C13.3468,17.25,13.919,17.0129,14.341,16.591C14.7629,16.169,15,15.5968,15,15C15,15,15,5.25,15,5.25C15,5.25,15.75,5.25,15.75,5.25C16.1642,5.25,16.5,4.91421,16.5,4.5C16.5,4.085789999999999,16.1642,3.75,15.75,3.75C15.75,3.75,12.75,3.75,12.75,3.75C12.75,3.75,12.75,3.75,12.75,3.75ZM4.5,5.25C4.5,5.25,4.5,15,4.5,15C4.5,15.1989,4.57902,15.3897,4.71967,15.5303C4.86032,15.6709,5.05108,15.75,5.25,15.75C5.25,15.75,12.75,15.75,12.75,15.75C12.9489,15.75,13.1397,15.6709,13.2803,15.5303C13.4209,15.3897,13.5,15.1989,13.5,15C13.5,15,13.5,5.25,13.5,5.25C13.5,5.25,4.5,5.25,4.5,5.25C4.5,5.25,4.5,5.25,4.5,5.25ZM7.5,7.5C7.91421,7.5,8.25,7.83578,8.25,8.25C8.25,8.25,8.25,12.75,8.25,12.75C8.25,13.1642,7.91421,13.5,7.5,13.5C7.08579,13.5,6.75,13.1642,6.75,12.75C6.75,12.75,6.75,8.25,6.75,8.25C6.75,7.83578,7.08579,7.5,7.5,7.5C7.5,7.5,7.5,7.5,7.5,7.5ZM9.75,8.25C9.75,7.83578,10.08577,7.5,10.5,7.5C10.91423,7.5,11.25,7.83578,11.25,8.25C11.25,8.25,11.25,12.75,11.25,12.75C11.25,13.1642,10.91423,13.5,10.5,13.5C10.08577,13.5,9.75,13.1642,9.75,12.75C9.75,12.75,9.75,8.25,9.75,8.25C9.75,8.25,9.75,8.25,9.75,8.25Z" fill-rule="evenodd" fill="#FFFFFF" fill-opacity="1"/></g></g></svg>