<svg xmlns="http://www.w3.org/2000/svg" xmlns:xlink="http://www.w3.org/1999/xlink" fill="none" version="1.1" width="18" height="18" viewBox="0 0 18 18"><defs><clipPath id="master_svg0_946_11261"><rect x="0" y="0" width="18" height="18" rx="0"/></clipPath></defs><g clip-path="url(#master_svg0_946_11261)"><g><path d="M9,1.5C9.41423,1.5,9.75,1.835786,9.75,2.25C9.75,2.25,9.75,9.439350000000001,9.75,9.439350000000001C9.75,9.439350000000001,12.2197,6.96967,12.2197,6.96967C12.5126,6.67678,12.9874,6.67678,13.2803,6.96967C13.5732,7.26257,13.5732,7.73743,13.2803,8.03033C13.2803,8.03033,9.53032,11.7803,9.53032,11.7803C9.237449999999999,12.0732,8.76257,12.0732,8.46967,11.7803C8.46967,11.7803,4.71967,8.03033,4.71967,8.03033C4.42678,7.73743,4.42678,7.26257,4.71967,6.96967C5.01257,6.67678,5.48743,6.67678,5.78033,6.96967C5.78033,6.96967,8.25,9.439350000000001,8.25,9.439350000000001C8.25,9.439350000000001,8.25,2.25,8.25,2.25C8.25,1.835786,8.58578,1.5,9,1.5C9,1.5,9,1.5,9,1.5ZM2.25,10.5C2.6642099999999997,10.5,3,10.83577,3,11.25C3,11.25,3,14.25,3,14.25C3,14.4489,3.07902,14.6397,3.21967,14.7803C3.3603199999999998,14.9209,3.55108,15,3.75,15C3.75,15,14.25,15,14.25,15C14.4489,15,14.6397,14.9209,14.7803,14.7803C14.9209,14.6397,15,14.4489,15,14.25C15,14.25,15,11.25,15,11.25C15,10.83577,15.3358,10.5,15.75,10.5C16.1642,10.5,16.5,10.83577,16.5,11.25C16.5,11.25,16.5,14.25,16.5,14.25C16.5,14.8468,16.262900000000002,15.419,15.841,15.841C15.419,16.262900000000002,14.8468,16.5,14.25,16.5C14.25,16.5,3.75,16.5,3.75,16.5C3.15326,16.5,2.5809699999999998,16.262900000000002,2.15901,15.841C1.737053,15.419,1.5,14.8468,1.5,14.25C1.5,14.25,1.5,11.25,1.5,11.25C1.5,10.83577,1.835786,10.5,2.25,10.5C2.25,10.5,2.25,10.5,2.25,10.5Z" fill-rule="evenodd" fill="#FFFFFF" fill-opacity="1"/></g></g></svg>