<svg xmlns="http://www.w3.org/2000/svg" xmlns:xlink="http://www.w3.org/1999/xlink" fill="none" version="1.1" width="23.999998092651367" height="22" viewBox="0 0 23.999998092651367 22"><defs><clipPath id="master_svg0_128_60005"><rect x="0" y="0" width="23.999998092651367" height="22" rx="0"/></clipPath></defs><g clip-path="url(#master_svg0_128_60005)"><g><path d="M2.462836868057251,20.158233611488342L21.648276868057252,20.158233611488342L21.66367686805725,20.116133611488344C23.29577686805725,20.116133611488344,23.06487686805725,18.573533611488344,23.06487686805725,18.573533611488344L23.06487686805725,5.756003611488342C23.12137686805725,5.3705836114883425,22.977476868057252,4.983183611488342,22.675576868057252,4.708223611488343C22.373676868057252,4.433263611488343,21.948276868057253,4.302163611488343,21.52507686805725,4.353653611488342L12.85627686805725,4.353653611488342C12.567676868057251,4.370333611488342,12.284076868057252,4.279183611488342,12.070976868057251,4.101223611488342L11.054676868057252,2.586678611488342C10.45419686805725,1.6891686114883422,9.56113686805725,1.8434285114883422,9.56113686805725,1.8434285114883422L2.832376868057251,1.8434285114883422C2.334416868057251,1.8282887014883422,1.850841868057251,1.9969506114883422,1.491357868057251,2.311153611488342C1.131873868057251,2.625356611488342,0.926951508057251,3.0584636114883423,0.923076868057251,3.5122336114883423L0.923076868057251,18.517433611488343C0.923076868057251,20.38263361148834,2.462836868057251,20.158233611488342,2.462836868057251,20.158233611488342ZM19.18667686805725,7.530773611488343C19.31337686805725,7.657093611488342,19.384576868057252,7.828433611488342,19.384576868057252,8.007083611488342C19.38827686805725,8.189393611488342,19.31907686805725,8.365693611488343,19.192376868057252,8.497193611488342C19.065676868057253,8.628683611488341,18.89167686805725,8.704583611488342,18.70887686805725,8.708193611488342L5.318886868057251,8.708193611488342C5.131226868057251,8.711973611488343,4.950126868057251,8.639323611488344,4.817406868057251,8.507013611488343C4.684686868057251,8.374703611488343,4.611806868057251,8.194163611488342,4.615596868057251,8.007083611488342C4.619216868057251,7.824773611488342,4.695356868057251,7.651373611488342,4.827256868057251,7.525033611488342C4.959156868057251,7.398703611488342,5.136006868057251,7.329793611488342,5.318886868057251,7.333473611488342L18.70887686805725,7.333473611488342C18.88807686805725,7.333473611488342,19.059876868057252,7.404443611488342,19.18667686805725,7.530773611488343Z" fill-rule="evenodd" fill="#B59758" fill-opacity="1"/></g></g></svg>