<svg xmlns="http://www.w3.org/2000/svg" xmlns:xlink="http://www.w3.org/1999/xlink" fill="none" version="1.1" width="20" height="20" viewBox="0 0 20 20"><defs><clipPath id="master_svg0_852_00641"><rect x="0" y="0" width="20" height="20" rx="0"/></clipPath><clipPath id="master_svg1_852_00645"><rect x="2" y="2" width="16" height="16" rx="0"/></clipPath></defs><g clip-path="url(#master_svg0_852_00641)"><g></g><g clip-path="url(#master_svg1_852_00645)"><g><path d="M9.466797351837,13.73333740234375C9.466797351837,13.438787402343749,9.705578875,13.20000740234375,10.000130875,13.20000740234375C10.294681875,13.20000740234375,10.533466875,13.438787402343749,10.533466875,13.73333740234375C10.533466875,14.02788740234375,10.294681875,14.26666740234375,10.000130875,14.26666740234375C9.705578875,14.26666740234375,9.466797351837,14.02788740234375,9.466797351837,13.73333740234375M10.000130875,5.73333740234375C10.294681875,5.73333740234375,10.533466875,5.97211840234375,10.533466875,6.26667040234375L10.533466875,10.80000740234375C10.533466875,11.09455740234375,10.294681875,11.33333740234375,10.000129875,11.33333740234375C9.705577875,11.33333740234375,9.4667968953321,11.09455740234375,9.4667969204131,10.80000740234375L9.466797306424,6.26667040234375C9.466797331505,5.97211840234375,9.705578875,5.73333740234375,10.000130875,5.73333740234375" fill="#FF9000" fill-opacity="1"/></g><g><path d="M10,18C5.58172,18,2,14.4183,2,10C2,5.58172,5.58172,2,10,2C14.4183,2,18,5.58172,18,10C18,14.4183,14.4183,18,10,18ZM10,3.0666700000000002C6.17083,3.0666700000000002,3.0666700000000002,6.17083,3.0666700000000002,10C3.0666700000000002,13.8292,6.17083,16.9333,10,16.9333C13.8292,16.9333,16.9333,13.8292,16.9333,10C16.9333,6.17083,13.8292,3.0666700000000002,10,3.0666700000000002Z" fill="#FF9000" fill-opacity="1"/></g></g></g></svg>