<svg xmlns="http://www.w3.org/2000/svg" xmlns:xlink="http://www.w3.org/1999/xlink" fill="none" version="1.1" width="22" height="22" viewBox="0 0 22 22"><g><g><g><path d="M3.391666889190674,4.791666889190674L3.391666889190674,9.049996889190673Q3.391666889190674,9.118776889190674,3.3984082691906736,9.187226889190674Q3.4051496891906736,9.255666889190675,3.4185674891906737,9.323126889190675Q3.4319852891906737,9.390586889190674,3.451950389190674,9.456396889190675Q3.471915489190674,9.522216889190673,3.4982358891906737,9.585756889190673Q3.524555889190674,9.649296889190673,3.5569768891906737,9.709956889190675Q3.5893988891906736,9.770606889190674,3.6276098891906736,9.827796889190674Q3.665819889190674,9.884986889190674,3.7094518891906736,9.938146889190673Q3.7530838891906737,9.991316889190674,3.801716889190674,10.039946889190674Q3.8503508891906737,10.088586889190674,3.9035158891906736,10.132216889190673Q3.9566818891906737,10.175846889190673,4.0138688891906735,10.214056889190674Q4.071054889190674,10.252266889190674,4.131711889190674,10.284686889190674Q4.192367889190674,10.317106889190674,4.255909889190674,10.343426889190674Q4.319451889190674,10.369746889190674,4.385267889190674,10.389716889190673Q4.451086889190674,10.409676889190674,4.518536889190674,10.423096889190674Q4.585996889190674,10.436516889190674,4.654446889190674,10.443256889190675Q4.722886889190674,10.449996889190674,4.791666889190674,10.449996889190674L9.049996889190673,10.449996889190674Q9.118776889190674,10.449996889190674,9.187226889190674,10.443256889190675Q9.255666889190675,10.436516889190674,9.323126889190675,10.423096889190674Q9.390586889190674,10.409676889190674,9.456396889190675,10.389716889190673Q9.522216889190673,10.369756889190674,9.585756889190673,10.343426889190674Q9.649296889190673,10.317106889190674,9.709956889190675,10.284686889190674Q9.770606889190674,10.252266889190674,9.827796889190674,10.214056889190674Q9.884986889190674,10.175846889190673,9.938146889190673,10.132216889190673Q9.991316889190674,10.088586889190674,10.039946889190674,10.039946889190674Q10.088586889190674,9.991316889190674,10.132216889190673,9.938146889190673Q10.175846889190673,9.884986889190674,10.214056889190674,9.827796889190674Q10.252266889190674,9.770606889190674,10.284686889190674,9.709956889190675Q10.317106889190674,9.649296889190673,10.343426889190674,9.585756889190673Q10.369746889190674,9.522216889190673,10.389716889190673,9.456396889190675Q10.409676889190674,9.390576889190674,10.423096889190674,9.323126889190675Q10.436516889190674,9.255666889190675,10.443256889190675,9.187226889190674Q10.449996889190674,9.118776889190674,10.449996889190674,9.049996889190673L10.449996889190674,4.791666889190674Q10.449996889190674,4.722886889190674,10.443256889190675,4.654446889190674Q10.436516889190674,4.585996889190674,10.423096889190674,4.518536889190674Q10.409676889190674,4.451086889190674,10.389716889190673,4.385267889190674Q10.369756889190674,4.319451889190674,10.343426889190674,4.255909889190674Q10.317106889190674,4.192367889190674,10.284686889190674,4.131711889190674Q10.252266889190674,4.071054889190674,10.214056889190674,4.0138688891906735Q10.175846889190673,3.9566818891906737,10.132216889190673,3.9035158891906736Q10.088586889190674,3.8503508891906737,10.039946889190674,3.801716889190674Q9.991316889190674,3.7530838891906737,9.938146889190673,3.7094518891906736Q9.884986889190674,3.665819889190674,9.827796889190674,3.6276098891906736Q9.770606889190674,3.5893988891906736,9.709956889190675,3.5569768891906737Q9.649296889190673,3.524555889190674,9.585756889190673,3.4982358891906737Q9.522216889190673,3.471915489190674,9.456396889190675,3.451950389190674Q9.390576889190674,3.4319852891906737,9.323126889190675,3.4185674891906737Q9.255666889190675,3.4051496891906736,9.187226889190674,3.3984082691906736Q9.118776889190674,3.391666889190674,9.049996889190673,3.391666889190674L4.791666889190674,3.391666889190674Q4.722886889190674,3.391666889190674,4.654446889190674,3.3984082691906736Q4.585996889190674,3.4051496891906736,4.518536889190674,3.4185674891906737Q4.451086889190674,3.4319852891906737,4.385267889190674,3.451950389190674Q4.319451889190674,3.471915489190674,4.255909889190674,3.4982358891906737Q4.192367889190674,3.524555889190674,4.131711889190674,3.5569768891906737Q4.071054889190674,3.5893988891906736,4.0138688891906735,3.6276098891906736Q3.9566818891906737,3.665819889190674,3.9035158891906736,3.7094518891906736Q3.8503508891906737,3.7530838891906737,3.801716889190674,3.801716889190674Q3.7530838891906737,3.8503508891906737,3.7094518891906736,3.9035158891906736Q3.665819889190674,3.9566818891906737,3.6276098891906736,4.0138688891906735Q3.5893988891906736,4.071054889190674,3.5569768891906737,4.131711889190674Q3.524555889190674,4.192367889190674,3.4982358891906737,4.255909889190674Q3.471915489190674,4.319451889190674,3.451950389190674,4.385267889190674Q3.4319852891906737,4.451086889190674,3.4185674891906737,4.518536889190674Q3.4051496891906736,4.585996889190674,3.3984082691906736,4.654446889190674Q3.391666889190674,4.722886889190674,3.391666889190674,4.791666889190674ZM9.166656889190673,4.674996889190674L4.674996889190674,4.674996889190674L4.674996889190674,9.166656889190673L9.166656889190673,9.166656889190673L9.166656889190673,4.674996889190674Z" fill-rule="evenodd" fill="#FFFFFF" fill-opacity="0.6000000238418579"/></g><g><path d="M3.391666889190674,12.9500226020813L3.391666889190674,17.2083526020813Q3.391666889190674,17.2771326020813,3.3984082691906736,17.3455826020813Q3.4051496891906736,17.4140226020813,3.4185674891906737,17.4814826020813Q3.4319852891906737,17.548942602081297,3.451950389190674,17.6147526020813Q3.471915489190674,17.6805726020813,3.4982358891906737,17.744112602081298Q3.524555889190674,17.807652602081298,3.5569768891906737,17.8683126020813Q3.5893988891906736,17.9289626020813,3.6276098891906736,17.986152602081297Q3.665819889190674,18.0433426020813,3.7094518891906736,18.096502602081298Q3.7530838891906737,18.1496726020813,3.801716889190674,18.1983026020813Q3.8503508891906737,18.246942602081297,3.9035158891906736,18.290572602081298Q3.9566818891906737,18.334202602081298,4.0138688891906735,18.372412602081297Q4.071054889190674,18.410622602081297,4.131711889190674,18.4430426020813Q4.192367889190674,18.4754626020813,4.255909889190674,18.5017826020813Q4.319451889190674,18.528102602081297,4.385267889190674,18.548072602081298Q4.451086889190674,18.5680326020813,4.518536889190674,18.5814526020813Q4.585996889190674,18.5948726020813,4.654446889190674,18.6016126020813Q4.722886889190674,18.608352602081297,4.791666889190674,18.608352602081297L9.049996889190673,18.608352602081297Q9.118776889190674,18.608352602081297,9.187226889190674,18.6016126020813Q9.255666889190675,18.5948726020813,9.323126889190675,18.5814526020813Q9.390586889190674,18.5680326020813,9.456396889190675,18.548072602081298Q9.522216889190673,18.5281126020813,9.585756889190673,18.5017826020813Q9.649296889190673,18.4754626020813,9.709956889190675,18.4430426020813Q9.770606889190674,18.410622602081297,9.827796889190674,18.372412602081297Q9.884986889190674,18.334202602081298,9.938146889190673,18.290572602081298Q9.991316889190674,18.246942602081297,10.039946889190674,18.1983026020813Q10.088586889190674,18.1496726020813,10.132216889190673,18.096502602081298Q10.175846889190673,18.0433426020813,10.214056889190674,17.986152602081297Q10.252266889190674,17.9289626020813,10.284686889190674,17.8683126020813Q10.317106889190674,17.807652602081298,10.343426889190674,17.744112602081298Q10.369746889190674,17.6805726020813,10.389716889190673,17.6147526020813Q10.409676889190674,17.5489326020813,10.423096889190674,17.4814826020813Q10.436516889190674,17.4140226020813,10.443256889190675,17.3455826020813Q10.449996889190674,17.2771326020813,10.449996889190674,17.2083526020813L10.449996889190674,12.9500226020813Q10.449996889190674,12.881242602081299,10.443256889190675,12.812802602081298Q10.436516889190674,12.7443526020813,10.423096889190674,12.676892602081299Q10.409676889190674,12.609442602081298,10.389716889190673,12.543623602081299Q10.369756889190674,12.477807602081299,10.343426889190674,12.414265602081299Q10.317106889190674,12.350723602081299,10.284686889190674,12.2900676020813Q10.252266889190674,12.229410602081298,10.214056889190674,12.172224602081299Q10.175846889190673,12.1150376020813,10.132216889190673,12.061871602081299Q10.088586889190674,12.008706602081299,10.039946889190674,11.960072602081299Q9.991316889190674,11.911439602081298,9.938146889190673,11.8678076020813Q9.884986889190674,11.824175602081299,9.827796889190674,11.7859656020813Q9.770606889190674,11.747754602081299,9.709956889190675,11.715332602081299Q9.649296889190673,11.6829116020813,9.585756889190673,11.6565916020813Q9.522216889190673,11.6302712020813,9.456396889190675,11.6103061020813Q9.390576889190674,11.5903410020813,9.323126889190675,11.576923202081298Q9.255666889190675,11.563505402081299,9.187226889190674,11.556763982081298Q9.118776889190674,11.550022602081299,9.049996889190673,11.550022602081299L4.791666889190674,11.550022602081299Q4.722886889190674,11.550022602081299,4.654446889190674,11.556763982081298Q4.585996889190674,11.563505402081299,4.518536889190674,11.576923202081298Q4.451086889190674,11.5903410020813,4.385267889190674,11.6103061020813Q4.319451889190674,11.6302712020813,4.255909889190674,11.6565916020813Q4.192367889190674,11.6829116020813,4.131711889190674,11.715332602081299Q4.071054889190674,11.747754602081299,4.0138688891906735,11.7859656020813Q3.9566818891906737,11.824175602081299,3.9035158891906736,11.8678076020813Q3.8503508891906737,11.911439602081298,3.801716889190674,11.960072602081299Q3.7530838891906737,12.008706602081299,3.7094518891906736,12.061871602081299Q3.665819889190674,12.1150376020813,3.6276098891906736,12.172224602081299Q3.5893988891906736,12.229410602081298,3.5569768891906737,12.2900676020813Q3.524555889190674,12.350723602081299,3.4982358891906737,12.414265602081299Q3.471915489190674,12.477807602081299,3.451950389190674,12.543623602081299Q3.4319852891906737,12.609442602081298,3.4185674891906737,12.676892602081299Q3.4051496891906736,12.7443526020813,3.3984082691906736,12.812802602081298Q3.391666889190674,12.881242602081299,3.391666889190674,12.9500226020813ZM9.166656889190673,12.833352602081298L4.674996889190674,12.833352602081298L4.674996889190674,17.325012602081298L9.166656889190673,17.325012602081298L9.166656889190673,12.833352602081298Z" fill-rule="evenodd" fill="#FFFFFF" fill-opacity="0.6000000238418579"/></g><g><path d="M11.549999713897705,12.9500226020813L11.549999713897705,17.2083526020813Q11.549999713897705,17.2771326020813,11.556741093897704,17.3455826020813Q11.563482513897705,17.4140226020813,11.576900313897704,17.4814826020813Q11.590318113897705,17.548942602081297,11.610283213897706,17.6147526020813Q11.630248313897706,17.6805726020813,11.656568713897705,17.744112602081298Q11.682888713897706,17.807652602081298,11.715309713897705,17.8683126020813Q11.747731713897705,17.9289626020813,11.785942713897706,17.986152602081297Q11.824152713897705,18.0433426020813,11.867784713897706,18.096502602081298Q11.911416713897705,18.1496726020813,11.960049713897705,18.1983026020813Q12.008683713897705,18.246942602081297,12.061848713897705,18.290572602081298Q12.115014713897706,18.334202602081298,12.172201713897705,18.372412602081297Q12.229387713897705,18.410622602081297,12.290044713897705,18.4430426020813Q12.350700713897705,18.4754626020813,12.414242713897705,18.5017826020813Q12.477784713897705,18.528102602081297,12.543600713897705,18.548072602081298Q12.609419713897704,18.5680326020813,12.676869713897705,18.5814526020813Q12.744329713897706,18.5948726020813,12.812779713897704,18.6016126020813Q12.881219713897705,18.608352602081297,12.949999713897705,18.608352602081297L17.208329713897704,18.608352602081297Q17.277109713897705,18.608352602081297,17.345559713897707,18.6016126020813Q17.413999713897706,18.5948726020813,17.481459713897706,18.5814526020813Q17.548919713897703,18.5680326020813,17.614729713897706,18.548072602081298Q17.680549713897705,18.5281126020813,17.744089713897704,18.5017826020813Q17.807629713897704,18.4754626020813,17.868289713897706,18.4430426020813Q17.928939713897705,18.410622602081297,17.986129713897704,18.372412602081297Q18.043319713897706,18.334202602081298,18.096479713897704,18.290572602081298Q18.149649713897706,18.246942602081297,18.198279713897705,18.1983026020813Q18.246919713897704,18.1496726020813,18.290549713897704,18.096502602081298Q18.334179713897704,18.0433426020813,18.372389713897704,17.986152602081297Q18.410599713897703,17.9289626020813,18.443019713897705,17.8683126020813Q18.475439713897707,17.807652602081298,18.501759713897705,17.744112602081298Q18.528079713897704,17.6805726020813,18.548049713897704,17.6147526020813Q18.568009713897705,17.5489326020813,18.581429713897705,17.4814826020813Q18.594849713897705,17.4140226020813,18.601589713897706,17.3455826020813Q18.608329713897703,17.2771326020813,18.608329713897703,17.2083526020813L18.608329713897703,12.9500226020813Q18.608329713897703,12.881242602081299,18.601589713897706,12.812802602081298Q18.594849713897705,12.7443526020813,18.581429713897705,12.676892602081299Q18.568009713897705,12.609442602081298,18.548049713897704,12.543623602081299Q18.528089713897707,12.477807602081299,18.501759713897705,12.414265602081299Q18.475439713897707,12.350723602081299,18.443019713897705,12.2900676020813Q18.410599713897703,12.229410602081298,18.372389713897704,12.172224602081299Q18.334179713897704,12.1150376020813,18.290549713897704,12.061871602081299Q18.246919713897704,12.008706602081299,18.198279713897705,11.960072602081299Q18.149649713897706,11.911439602081298,18.096479713897704,11.8678076020813Q18.043319713897706,11.824175602081299,17.986129713897704,11.7859656020813Q17.928939713897705,11.747754602081299,17.868289713897706,11.715332602081299Q17.807629713897704,11.6829116020813,17.744089713897704,11.6565916020813Q17.680549713897705,11.6302712020813,17.614729713897706,11.6103061020813Q17.548909713897707,11.5903410020813,17.481459713897706,11.576923202081298Q17.413999713897706,11.563505402081299,17.345559713897707,11.556763982081298Q17.277109713897705,11.550022602081299,17.208329713897704,11.550022602081299L12.949999713897705,11.550022602081299Q12.881219713897705,11.550022602081299,12.812779713897704,11.556763982081298Q12.744329713897706,11.563505402081299,12.676869713897705,11.576923202081298Q12.609419713897704,11.5903410020813,12.543600713897705,11.6103061020813Q12.477784713897705,11.6302712020813,12.414242713897705,11.6565916020813Q12.350700713897705,11.6829116020813,12.290044713897705,11.715332602081299Q12.229387713897705,11.747754602081299,12.172201713897705,11.7859656020813Q12.115014713897706,11.824175602081299,12.061848713897705,11.8678076020813Q12.008683713897705,11.911439602081298,11.960049713897705,11.960072602081299Q11.911416713897705,12.008706602081299,11.867784713897706,12.061871602081299Q11.824152713897705,12.1150376020813,11.785942713897706,12.172224602081299Q11.747731713897705,12.229410602081298,11.715309713897705,12.2900676020813Q11.682888713897706,12.350723602081299,11.656568713897705,12.414265602081299Q11.630248313897706,12.477807602081299,11.610283213897706,12.543623602081299Q11.590318113897705,12.609442602081298,11.576900313897704,12.676892602081299Q11.563482513897705,12.7443526020813,11.556741093897704,12.812802602081298Q11.549999713897705,12.881242602081299,11.549999713897705,12.9500226020813ZM17.324989713897704,12.833352602081298L12.833329713897704,12.833352602081298L12.833329713897704,17.325012602081298L17.324989713897704,17.325012602081298L17.324989713897704,12.833352602081298Z" fill-rule="evenodd" fill="#FFFFFF" fill-opacity="0.6000000238418579"/></g><g><path d="M11.550000667572021,4.791666889190674L11.550000667572021,9.049996889190673Q11.550000667572021,9.118776889190674,11.55674204757202,9.187226889190674Q11.563483467572022,9.255666889190675,11.57690126757202,9.323126889190675Q11.590319067572022,9.390586889190674,11.610284167572022,9.456396889190675Q11.630249267572022,9.522216889190673,11.656569667572022,9.585756889190673Q11.682889667572022,9.649296889190673,11.715310667572021,9.709956889190675Q11.747732667572022,9.770606889190674,11.785943667572022,9.827796889190674Q11.824153667572022,9.884986889190674,11.867785667572022,9.938146889190673Q11.911417667572021,9.991316889190674,11.960050667572022,10.039946889190674Q12.008684667572021,10.088586889190674,12.061849667572021,10.132216889190673Q12.115015667572022,10.175846889190673,12.172202667572021,10.214056889190674Q12.229388667572021,10.252266889190674,12.290045667572022,10.284686889190674Q12.350701667572022,10.317106889190674,12.414243667572022,10.343426889190674Q12.477785667572022,10.369746889190674,12.543601667572021,10.389716889190673Q12.60942066757202,10.409676889190674,12.676870667572022,10.423096889190674Q12.744330667572022,10.436516889190674,12.81278066757202,10.443256889190675Q12.881220667572022,10.449996889190674,12.950000667572022,10.449996889190674L17.20833066757202,10.449996889190674Q17.27711066757202,10.449996889190674,17.345560667572023,10.443256889190675Q17.414000667572022,10.436516889190674,17.481460667572023,10.423096889190674Q17.54892066757202,10.409676889190674,17.614730667572022,10.389716889190673Q17.68055066757202,10.369756889190674,17.74409066757202,10.343426889190674Q17.80763066757202,10.317106889190674,17.868290667572023,10.284686889190674Q17.92894066757202,10.252266889190674,17.98613066757202,10.214056889190674Q18.043320667572022,10.175846889190673,18.09648066757202,10.132216889190673Q18.149650667572022,10.088586889190674,18.19828066757202,10.039946889190674Q18.24692066757202,9.991316889190674,18.29055066757202,9.938146889190673Q18.33418066757202,9.884986889190674,18.37239066757202,9.827796889190674Q18.41060066757202,9.770606889190674,18.44302066757202,9.709956889190675Q18.475440667572023,9.649296889190673,18.50176066757202,9.585756889190673Q18.52808066757202,9.522216889190673,18.54805066757202,9.456396889190675Q18.568010667572022,9.390576889190674,18.58143066757202,9.323126889190675Q18.59485066757202,9.255666889190675,18.601590667572022,9.187226889190674Q18.60833066757202,9.118776889190674,18.60833066757202,9.049996889190673L18.60833066757202,4.791666889190674Q18.60833066757202,4.722886889190674,18.601590667572022,4.654446889190674Q18.59485066757202,4.585996889190674,18.58143066757202,4.518536889190674Q18.568010667572022,4.451086889190674,18.54805066757202,4.385267889190674Q18.528090667572023,4.319451889190674,18.50176066757202,4.255909889190674Q18.475440667572023,4.192367889190674,18.44302066757202,4.131711889190674Q18.41060066757202,4.071054889190674,18.37239066757202,4.0138688891906735Q18.33418066757202,3.9566818891906737,18.29055066757202,3.9035158891906736Q18.24692066757202,3.8503508891906737,18.19828066757202,3.801716889190674Q18.149650667572022,3.7530838891906737,18.09648066757202,3.7094518891906736Q18.043320667572022,3.665819889190674,17.98613066757202,3.6276098891906736Q17.92894066757202,3.5893988891906736,17.868290667572023,3.5569768891906737Q17.80763066757202,3.524555889190674,17.74409066757202,3.4982358891906737Q17.68055066757202,3.471915489190674,17.614730667572022,3.451950389190674Q17.548910667572024,3.4319852891906737,17.481460667572023,3.4185674891906737Q17.414000667572022,3.4051496891906736,17.345560667572023,3.3984082691906736Q17.27711066757202,3.391666889190674,17.20833066757202,3.391666889190674L12.950000667572022,3.391666889190674Q12.881220667572022,3.391666889190674,12.81278066757202,3.3984082691906736Q12.744330667572022,3.4051496891906736,12.676870667572022,3.4185674891906737Q12.60942066757202,3.4319852891906737,12.543601667572021,3.451950389190674Q12.477785667572022,3.471915489190674,12.414243667572022,3.4982358891906737Q12.350701667572022,3.524555889190674,12.290045667572022,3.5569768891906737Q12.229388667572021,3.5893988891906736,12.172202667572021,3.6276098891906736Q12.115015667572022,3.665819889190674,12.061849667572021,3.7094518891906736Q12.008684667572021,3.7530838891906737,11.960050667572022,3.801716889190674Q11.911417667572021,3.8503508891906737,11.867785667572022,3.9035158891906736Q11.824153667572022,3.9566818891906737,11.785943667572022,4.0138688891906735Q11.747732667572022,4.071054889190674,11.715310667572021,4.131711889190674Q11.682889667572022,4.192367889190674,11.656569667572022,4.255909889190674Q11.630249267572022,4.319451889190674,11.610284167572022,4.385267889190674Q11.590319067572022,4.451086889190674,11.57690126757202,4.518536889190674Q11.563483467572022,4.585996889190674,11.55674204757202,4.654446889190674Q11.550000667572021,4.722886889190674,11.550000667572021,4.791666889190674ZM17.32499066757202,4.674996889190674L12.833330667572021,4.674996889190674L12.833330667572021,9.166656889190673L17.32499066757202,9.166656889190673L17.32499066757202,4.674996889190674Z" fill-rule="evenodd" fill="#FFFFFF" fill-opacity="0.6000000238418579"/></g></g></g></svg>