<svg xmlns="http://www.w3.org/2000/svg" xmlns:xlink="http://www.w3.org/1999/xlink" fill="none" version="1.1" width="24" height="22" viewBox="0 0 24 22"><g><g><path d="M14.448180114440918,2C14.483040114440918,2,14.517400114440917,2.00217848,14.551110114440919,2.00640672C14.551110114440919,2.00640672,14.448180114440918,2,14.448180114440918,2C14.491380114440918,2,14.534250114440917,2.00342115,14.576470114440918,2.0101135C14.602330114440917,2.0140757,14.627610114440918,2.019322,14.652500114440919,2.0257051C14.660700114440917,2.028047,14.669000114440918,2.0303136,14.677200114440918,2.0327078C14.702600114440918,2.0398718,14.727500114440918,2.0484577,14.751800114440918,2.0581759C14.759100114440917,2.0613388,14.766500114440918,2.0644189,14.773800114440919,2.0676071C14.797000114440918,2.0774312,14.819400114440917,2.0884193,14.841200114440918,2.10037C14.849700114440918,2.105184,14.858300114440919,2.110138,14.866900114440918,2.115253C14.889900114440918,2.128862,14.912100114440918,2.143631,14.933500114440918,2.159418C14.938800114440918,2.163338,14.944400114440917,2.167591,14.950000114440918,2.171922C14.953600114440919,2.174714,14.956800114440918,2.177218,14.960000114440918,2.179746C14.960000114440918,2.179746,15.026700114440917,2.23964,15.026700114440917,2.23964C15.026700114440917,2.23964,19.11760011444092,6.33055,19.11760011444092,6.33055C19.141700114440916,6.35455,19.164200114440916,6.38004,19.185000114440918,6.40687C19.185000114440918,6.40687,19.11760011444092,6.33055,19.11760011444092,6.33055C19.147000114440917,6.35988,19.173800114440915,6.3912,19.19810011444092,6.4242C19.21370011444092,6.44517,19.228400114440916,6.46735,19.242100114440916,6.49026C19.24710011444092,6.49897,19.252100114440918,6.50764,19.256900114440917,6.5164C19.268800114440918,6.53791,19.27990011444092,6.5603,19.28980011444092,6.58323C19.29210011444092,6.58918,19.294600114440918,6.59497,19.29700011444092,6.60079C19.307600114440916,6.62641,19.31690011444092,6.65295,19.32480011444092,6.68008C19.326900114440917,6.68827,19.329200114440916,6.69652,19.331300114440918,6.70481C19.338000114440916,6.72966,19.34320011444092,6.75495,19.347200114440916,6.78064C19.348500114440917,6.78932,19.349700114440918,6.79783,19.35080011444092,6.80638C19.351500114440917,6.81083,19.35200011444092,6.81546,19.352500114440918,6.82011C19.355600114440918,6.84953,19.357300114440918,6.87923,19.357300114440918,6.90909C19.357300114440918,6.90909,19.357300114440918,18.3636,19.357300114440918,18.3636C19.357300114440918,19.2674,18.62470011444092,20,17.720900114440916,20C17.720900114440916,20,6.266360114440918,20,6.266360114440918,20C5.362633114440918,20,4.630000114440918,19.2674,4.630000114440918,18.3636C4.630000114440918,18.3636,4.630000114440918,3.63636,4.630000114440918,3.63636C4.630000114440918,2.732625,5.362625114440918,2,6.266360114440918,2C6.266360114440918,2,14.448180114440918,2,14.448180114440918,2C14.448180114440918,2,14.448180114440918,2,14.448180114440918,2ZM13.630000114440918,3.63636C13.630000114440918,3.63636,6.266360114440918,3.63636,6.266360114440918,3.63636C6.266360114440918,3.63636,6.266360114440918,18.3636,6.266360114440918,18.3636C6.266360114440918,18.3636,17.720900114440916,18.3636,17.720900114440916,18.3636C17.720900114440916,18.3636,17.720900114440916,7.72727,17.720900114440916,7.72727C17.720900114440916,7.72727,14.448180114440918,7.72727,14.448180114440918,7.72727C13.996300114440919,7.72727,13.630000114440918,7.36096,13.630000114440918,6.90909C13.630000114440918,6.90909,13.630000114440918,3.63636,13.630000114440918,3.63636C13.630000114440918,3.63636,13.630000114440918,3.63636,13.630000114440918,3.63636ZM15.969800114440918,9.009360000000001C16.285400114440918,9.13106,16.493600114440916,9.434470000000001,16.493600114440916,9.77273C16.493600114440916,9.77273,16.493600114440916,16.318199999999997,16.493600114440916,16.318199999999997C16.493600114440916,16.7701,16.127300114440917,17.136400000000002,15.675500114440919,17.136400000000002C15.675500114440919,17.136400000000002,8.311820114440918,17.136400000000002,8.311820114440918,17.136400000000002C7.8599501144409185,17.136400000000002,7.493640114440918,16.7701,7.493640114440918,16.318199999999997C7.493640114440918,16.318199999999997,7.493640114440918,12.6364,7.493640114440918,12.6364C7.493640114440918,12.3634,7.629810114440918,12.1083,7.856700114440918,11.95645C8.083580114440919,11.8046,8.371270114440918,11.77588,8.623680114440917,11.87995C8.623680114440917,11.87995,11.564640114440918,13.0925,11.564640114440918,13.0925C11.564640114440918,13.0925,15.069000114440918,9.2235,15.069000114440918,9.2235C15.296100114440918,8.97277,15.654200114440918,8.88766,15.969800114440918,9.009360000000001C15.969800114440918,9.009360000000001,15.969800114440918,9.009360000000001,15.969800114440918,9.009360000000001ZM9.539090114440917,5.68182C10.89470011444092,5.68182,11.993640114440918,6.78076,11.993640114440918,8.13636C11.993640114440918,9.49197,10.89470011444092,10.59091,9.539090114440917,10.59091C8.183490114440918,10.59091,7.084550114440917,9.49197,7.084550114440917,8.13636C7.084550114440917,6.78076,8.183490114440918,5.68182,9.539090114440917,5.68182C9.539090114440917,5.68182,9.539090114440917,5.68182,9.539090114440917,5.68182ZM16.564000114440915,6.09091C16.564000114440915,6.09091,15.266400114440918,4.794090000000001,15.266400114440918,4.794090000000001C15.266400114440918,4.794090000000001,15.266400114440918,6.09091,15.266400114440918,6.09091C15.266400114440918,6.09091,16.564000114440915,6.09091,16.564000114440915,6.09091C16.564000114440915,6.09091,16.564000114440915,6.09091,16.564000114440915,6.09091Z" fill-rule="evenodd" fill="#54637C" fill-opacity="1"/></g></g></svg>