<svg xmlns="http://www.w3.org/2000/svg" xmlns:xlink="http://www.w3.org/1999/xlink" fill="none" version="1.1" width="20" height="20" viewBox="0 0 20 20"><defs><clipPath id="master_svg0_21243_66531"><rect x="0" y="0" width="20" height="20" rx="0"/></clipPath></defs><g clip-path="url(#master_svg0_21243_66531)"><g><path d="M7.243130390625,1.3314350937500001C10.938930390625,0.060612093749999985,15.033950390625,1.27667709375,17.437050390625,4.358676093750001L18.666850390625,3.39843609375C18.719150390625,3.35825609375,18.789450390625,3.35076609375,18.849050390625,3.37902609375C18.908550390625,3.40728609375,18.947250390625,3.46653609375,18.949150390625,3.53242609375L18.933250390625,7.47866609375C18.931050390625,7.59029609375,18.826650390625,7.67154609375,18.717950390625,7.64615609375L14.886550390625,6.70824609375C14.822050390625,6.69136609375,14.772650390625,6.63938609375,14.759150390625,6.57410609375C14.745550390625,6.50882609375,14.770250390625,6.44151609375,14.822750390625,6.40039609375L16.135450390625,5.37634609375C15.947250390625,5.13708609375,15.744650390625,4.90738609375,15.529350390625,4.69045609375C14.126850390625,3.27851609375,12.217350390625,2.48693609375,10.227260390625,2.49242609375C8.237320390625001,2.48782609375,6.328200390625,3.27927609375,4.925190390625,4.69045609375C3.515050390625,6.09586609375,2.724870390625,8.006426093750001,2.730350390625,9.99731609375C2.7251203906250003,11.98769609375,3.515290390625,13.89769609375,4.925190390625,15.30259609375C6.327430390625,16.71509609375,8.236920390625,17.50729609375,10.227260390625,17.50219609375C12.217150390625,17.50679609375,14.126350390625,16.71539609375,15.529350390625,15.30419609375C16.298250390625,14.53729609375,16.890550390625002,13.61189609375,17.264750390625,12.59249609375C17.297750390625,12.50379609375,17.395150390625,12.45719609375,17.484950390625,12.48719609375L18.721050390625,12.91309609375C18.812150390625,12.94549609375,18.859850390625,13.04529609375,18.827950390625,13.13639609375C17.308950390625,17.31759609375,13.004450390625,19.80189609375,8.624240390625001,19.02539609375C4.244010390625,18.24889609375,1.055787890625,14.43629609375,1.066678194625,9.98773609375C1.066678786225,6.07890609375,3.547810390625,2.60160609375,7.243130390625,1.3314350937500001ZM10.214520390625,11.59399609375C11.095450390625,11.59399609375,11.809650390625,10.87989609375,11.809650390625,9.99892609375C11.809650390625,9.11798609375,11.095450390625,8.40383609375,10.214520390625,8.40383609375C9.333570390625,8.40383609375,8.619430390625,9.11798609375,8.619430390625,9.99892609375C8.619430390625,10.87989609375,9.333570390625,11.59399609375,10.214520390625,11.59399609375Z" fill-rule="evenodd" fill="#FFFFFF" fill-opacity="0.8500000238418579"/></g></g></svg>