<svg xmlns="http://www.w3.org/2000/svg" xmlns:xlink="http://www.w3.org/1999/xlink" fill="none" version="1.1" width="18" height="18" viewBox="0 0 18 18"><defs><clipPath id="master_svg0_946_11245"><rect x="0" y="0" width="18" height="18" rx="0"/></clipPath></defs><g clip-path="url(#master_svg0_946_11245)"><g><path d="M2.25,9C2.25,8.171573,2.921573,7.5,3.75,7.5C4.57843,7.5,5.25,8.171573,5.25,9C5.25,9.82843,4.57843,10.5,3.75,10.5C2.921573,10.5,2.25,9.82843,2.25,9C2.25,9,2.25,9,2.25,9ZM7.5,9C7.5,8.171573,8.17157,7.5,9,7.5C9.82845,7.5,10.5,8.171573,10.5,9C10.5,9.82843,9.82845,10.5,9,10.5C8.17157,10.5,7.5,9.82843,7.5,9C7.5,9,7.5,9,7.5,9ZM12.75,9C12.75,8.171573,13.4215,7.5,14.25,7.5C15.0785,7.5,15.75,8.171573,15.75,9C15.75,9.82843,15.0785,10.5,14.25,10.5C13.4215,10.5,12.75,9.82843,12.75,9C12.75,9,12.75,9,12.75,9Z" fill-rule="evenodd" fill="#FFFFFF" fill-opacity="0.8500000238418579"/></g></g></svg>