<svg xmlns="http://www.w3.org/2000/svg" xmlns:xlink="http://www.w3.org/1999/xlink" fill="none" version="1.1" width="18" height="18" viewBox="0 0 18 18"><defs><clipPath id="master_svg0_946_11259"><rect x="0" y="0" width="18" height="18" rx="0"/></clipPath></defs><g clip-path="url(#master_svg0_946_11259)"><g><path d="M8.46968,0.96967C8.76255,0.6767767,9.23745,0.6767767,9.53032,0.96967C9.53032,0.96967,11.7803,3.21967,11.7803,3.21967C12.0732,3.51256,12.0732,3.98743,11.7803,4.28033C11.4874,4.57322,11.0126,4.57322,10.71968,4.28033C10.71968,4.28033,9.75,3.31066,9.75,3.31066C9.75,3.31066,9.75,8.25,9.75,8.25C9.75,8.25,14.6894,8.25,14.6894,8.25C14.6894,8.25,13.7197,7.28033,13.7197,7.28033C13.4268,6.98743,13.4268,6.51257,13.7197,6.21967C14.0125,5.92678,14.4875,5.92678,14.7803,6.21967C14.7803,6.21967,17.0303,8.46968,17.0303,8.46968C17.3232,8.76255,17.3232,9.23745,17.0303,9.53032C17.0303,9.53032,14.7803,11.7803,14.7803,11.7803C14.4875,12.0732,14.0125,12.0732,13.7197,11.7803C13.4268,11.4874,13.4268,11.0126,13.7197,10.71968C13.7197,10.71968,14.6894,9.75,14.6894,9.75C14.6894,9.75,9.75,9.75,9.75,9.75C9.75,9.75,9.75,14.6894,9.75,14.6894C9.75,14.6894,10.71968,13.7197,10.71968,13.7197C11.0126,13.4268,11.4874,13.4268,11.7803,13.7197C12.0732,14.0125,12.0732,14.4875,11.7803,14.7803C11.7803,14.7803,9.53032,17.0303,9.53032,17.0303C9.23745,17.3232,8.76255,17.3232,8.46968,17.0303C8.46968,17.0303,6.21967,14.7803,6.21967,14.7803C5.92678,14.4875,5.92678,14.0125,6.21967,13.7197C6.51257,13.4268,6.98743,13.4268,7.28033,13.7197C7.28033,13.7197,8.25,14.6894,8.25,14.6894C8.25,14.6894,8.25,9.75,8.25,9.75C8.25,9.75,3.31066,9.75,3.31066,9.75C3.31066,9.75,4.28033,10.71968,4.28033,10.71968C4.57322,11.0126,4.57322,11.4874,4.28033,11.7803C3.98743,12.0732,3.51256,12.0732,3.21967,11.7803C3.21967,11.7803,0.96967,9.53032,0.96967,9.53032C0.6767767,9.23745,0.6767767,8.76255,0.96967,8.46968C0.96967,8.46968,3.21967,6.21967,3.21967,6.21967C3.51256,5.92678,3.98743,5.92678,4.28033,6.21967C4.57322,6.51257,4.57322,6.98743,4.28033,7.28033C4.28033,7.28033,3.31066,8.25,3.31066,8.25C3.31066,8.25,8.25,8.25,8.25,8.25C8.25,8.25,8.25,3.31066,8.25,3.31066C8.25,3.31066,7.28033,4.28033,7.28033,4.28033C6.98743,4.57322,6.51257,4.57322,6.21967,4.28033C5.92678,3.98743,5.92678,3.51256,6.21967,3.21967C6.21967,3.21967,8.46968,0.96967,8.46968,0.96967C8.46968,0.96967,8.46968,0.96967,8.46968,0.96967Z" fill-rule="evenodd" fill="#FFFFFF" fill-opacity="1"/></g></g></svg>