<svg xmlns="http://www.w3.org/2000/svg" xmlns:xlink="http://www.w3.org/1999/xlink" fill="none" version="1.1" width="24" height="24" viewBox="0 0 24 24"><g><g><path d="M3,3C1.89543,3,1,3.89543,1,5C1,5,1,20,1,20C1,21.1046,1.89544,22,3,22C3,22,21,22,21,22C22.1046,22,23,21.1046,23,20C23,20,23,8,23,8C23,6.89542,22.1046,6,21,6C21,6,12.4684,6,12.4684,6C12.4684,6,10.26822,3.359816,10.26822,3.359816C10.07823,3.131823,9.79678,3,9.5,3C9.5,3,3,3,3,3C3,3,3,3,3,3ZM11.9749,10.25C12.5271,10.25,12.9749,10.69772,12.9749,11.25C12.9749,11.25,12.9749,13.25,12.9749,13.25C12.9749,13.25,14.9749,13.25,14.9749,13.25C15.5271,13.25,15.9749,13.6977,15.9749,14.25C15.9749,14.8023,15.5271,15.25,14.9749,15.25C14.9749,15.25,12.9749,15.25,12.9749,15.25C12.9749,15.25,12.9749,17.25,12.9749,17.25C12.9749,17.802300000000002,12.5271,18.25,11.9749,18.25C11.4226,18.25,10.97485,17.802300000000002,10.97485,17.25C10.97485,17.25,10.97485,15.25,10.97485,15.25C10.97485,15.25,8.97485,15.25,8.97485,15.25C8.42257,15.25,7.97485,14.8023,7.97485,14.25C7.97485,13.6977,8.42257,13.25,8.97485,13.25C8.97485,13.25,10.97485,13.25,10.97485,13.25C10.97485,13.25,10.97485,11.25,10.97485,11.25C10.97485,10.69772,11.4226,10.25,11.9749,10.25C11.9749,10.25,11.9749,10.25,11.9749,10.25Z" fill-rule="evenodd" fill="#FFFFFF" fill-opacity="0.6000000238418579"/></g></g></svg>