<svg xmlns="http://www.w3.org/2000/svg" xmlns:xlink="http://www.w3.org/1999/xlink" fill="none" version="1.1" width="16" height="16" viewBox="0 0 16 16"><g><g><path d="M1.99983390625,2C1.26345690625,2,0.66650390625,2.596953,0.66650390625,3.33333C0.66650390625,3.33333,0.66650390625,13.3333,0.66650390625,13.3333C0.66650390625,14.0697,1.2634639062500002,14.6667,1.99983390625,14.6667C1.99983390625,14.6667,13.99980390625,14.6667,13.99980390625,14.6667C14.73620390625,14.6667,15.33320390625,14.0697,15.33320390625,13.3333C15.33320390625,13.3333,15.33320390625,5.33333,15.33320390625,5.33333C15.33320390625,4.59695,14.73620390625,4,13.99980390625,4C13.99980390625,4,8.31210390625,4,8.31210390625,4C8.31210390625,4,6.84531390625,2.239877,6.84531390625,2.239877C6.71865390625,2.087882,6.53102390625,2,6.33317390625,2C6.33317390625,2,1.99983390625,2,1.99983390625,2C1.99983390625,2,1.99983390625,2,1.99983390625,2ZM7.98310390625,6.83333C8.35123390625,6.83333,8.649773906250001,7.13181,8.649773906250001,7.5C8.649773906250001,7.5,8.649773906250001,8.83333,8.649773906250001,8.83333C8.649773906250001,8.83333,9.98310390625,8.83333,9.98310390625,8.83333C10.35123390625,8.83333,10.64977390625,9.1318,10.64977390625,9.5C10.64977390625,9.8682,10.35123390625,10.16667,9.98310390625,10.16667C9.98310390625,10.16667,8.649773906250001,10.16667,8.649773906250001,10.16667C8.649773906250001,10.16667,8.649773906250001,11.5,8.649773906250001,11.5C8.649773906250001,11.8682,8.35123390625,12.1667,7.98310390625,12.1667C7.61490390625,12.1667,7.31640390625,11.8682,7.31640390625,11.5C7.31640390625,11.5,7.31640390625,10.16667,7.31640390625,10.16667C7.31640390625,10.16667,5.98307390625,10.16667,5.98307390625,10.16667C5.61488390625,10.16667,5.31640390625,9.8682,5.31640390625,9.5C5.31640390625,9.1318,5.61488390625,8.83333,5.98307390625,8.83333C5.98307390625,8.83333,7.31640390625,8.83333,7.31640390625,8.83333C7.31640390625,8.83333,7.31640390625,7.5,7.31640390625,7.5C7.31640390625,7.13181,7.61490390625,6.83333,7.98310390625,6.83333C7.98310390625,6.83333,7.98310390625,6.83333,7.98310390625,6.83333Z" fill-rule="evenodd" fill="#FFFFFF" fill-opacity="0.8500000238418579"/></g></g></svg>