<svg xmlns="http://www.w3.org/2000/svg" xmlns:xlink="http://www.w3.org/1999/xlink" fill="none" version="1.1" width="18" height="18" viewBox="0 0 18 18"><defs><clipPath id="master_svg0_852_31825"><rect x="0" y="0" width="18" height="18" rx="0"/></clipPath></defs><g clip-path="url(#master_svg0_852_31825)"><g><path d="M5.8923965625,11.31861C6.6810065625,12.62739,8.1139665625,13.5,9.7499965625,13.5C12.2352865625,13.5,14.2499765625,11.48528,14.2499765625,9C14.2499765625,6.5147200000000005,12.2352865625,4.5,9.7499965625,4.5C7.8264965625,4.5,6.1848565625,5.70684,5.5409865625000005,7.40464L6.3339865625,6.875970000000001L7.1660365625,8.12405L4.9160365625,9.62405C4.5713965625,9.85381,4.1057365625,9.76068,3.8759765625,9.41603L2.3759765625,7.16603L3.6240565625,6.33398L4.0833565625,7.02294C4.9005165625,4.68058,7.1289965625,3,9.7499965625,3C13.0636765625,3,15.7499765625,5.68629,15.7499765625,9C15.7499765625,12.31371,13.0636765625,15,9.7499965625,15C7.5665465625,15,5.6563365625,13.8332,4.6076065625,12.09277L5.8923965625,11.31861Z" fill-rule="evenodd" fill="#FFFFFF" fill-opacity="0.8500000238418579"/></g></g></svg>