<svg xmlns="http://www.w3.org/2000/svg" xmlns:xlink="http://www.w3.org/1999/xlink" fill="none" version="1.1" width="18" height="18" viewBox="0 0 18 18"><defs><clipPath id="master_svg0_778_19448"><rect x="0" y="0" width="18" height="18" rx="0"/></clipPath></defs><g clip-path="url(#master_svg0_778_19448)"><g><path d="M13.5,2.908935546875C13.2769,2.908935546875,13.0631,2.997535546875,12.9053,3.155255546875C12.9053,3.155255546875,3.67724,12.383435546875,3.67724,12.383435546875C3.67724,12.383435546875,3.28079,13.969135546875,3.28079,13.969135546875C3.28079,13.969135546875,4.86658,13.572735546875,4.86658,13.572735546875C4.86658,13.572735546875,14.0947,4.344595546875,14.0947,4.344595546875C14.1727,4.266505546875,14.2347,4.1737955468750005,14.277,4.071755546875C14.3192,3.969725546875,14.341,3.860365546875,14.341,3.749925546875C14.341,3.639485546875,14.3192,3.530125546875,14.277,3.428095546875C14.2347,3.3260555468749997,14.1727,3.2333455468750003,14.0947,3.155255546875C14.0166,3.077155546875,13.9239,3.015215546875,13.8218,2.972955546875C13.7198,2.930685546875,13.6105,2.908935546875,13.5,2.908935546875C13.5,2.908935546875,13.5,2.908935546875,13.5,2.908935546875ZM11.8447,2.094595546875C12.2837,1.655574546875,12.8792,1.408935546875,13.5,1.408935546875C13.8074,1.408935546875,14.1118,1.469487046875,14.3959,1.587132546875C14.6799,1.704778546875,14.938,1.877214546875,15.1553,2.094595546875C15.3727,2.311972546875,15.5452,2.570045546875,15.6628,2.854065546875C15.7804,3.1380955468750003,15.841,3.442505546875,15.841,3.749925546875C15.841,4.057355546875,15.7804,4.3617655468750005,15.6628,4.6457855468750004C15.5452,4.929805546875,15.3727,5.187875546875,15.1553,5.405255546875C15.1553,5.405255546875,5.78035,14.780235546875,5.78035,14.780235546875C5.68423,14.876435546875,5.56379,14.944535546875,5.43192,14.977535546875C5.43192,14.977535546875,2.43192,15.727535546875,2.43192,15.727535546875C2.176336,15.791435546875,1.905971,15.716535546875,1.719685,15.530235546875C1.5334006,15.343935546875,1.4585138,15.073635546875,1.522409,14.818035546875C1.522409,14.818035546875,2.27241,11.818035546875,2.27241,11.818035546875C2.30538,11.686235546875,2.37357,11.565735546875,2.469682,11.469535546875C2.469682,11.469535546875,11.8447,2.094595546875,11.8447,2.094595546875C11.8447,2.094595546875,11.8447,2.094595546875,11.8447,2.094595546875ZM8.25002,14.999935546875C8.25002,14.585735546875,8.585799999999999,14.249935546875,9,14.249935546875C9,14.249935546875,15.75,14.249935546875,15.75,14.249935546875C16.1642,14.249935546875,16.5,14.585735546875,16.5,14.999935546875C16.5,15.414135546875,16.1642,15.749935546875,15.75,15.749935546875C15.75,15.749935546875,9,15.749935546875,9,15.749935546875C8.585799999999999,15.749935546875,8.25002,15.414135546875,8.25002,14.999935546875C8.25002,14.999935546875,8.25002,14.999935546875,8.25002,14.999935546875Z" fill-rule="evenodd" fill="#FFFFFF" fill-opacity="0.8500000238418579"/></g></g></svg>