<svg xmlns="http://www.w3.org/2000/svg" xmlns:xlink="http://www.w3.org/1999/xlink" fill="none" version="1.1" width="24" height="22" viewBox="0 0 24 22"><defs><clipPath id="master_svg0_128_62182"><rect x="0" y="0" width="24" height="22" rx="0"/></clipPath></defs><g clip-path="url(#master_svg0_128_62182)"><g></g><g><path d="M17.092599999999997,1.9999513626098633Q18.2778,1.9999513626098633,18.8889,2.765257362609863Q19.5,3.5305613626098635,19.5,4.632601362609863L19.5,15.469351362609864Q19.5,15.979551362609863,19.1111,16.387751362609862L16.0185,19.65305136260986Q15.7778,19.877551362609864,15.6111,19.938751362609864Q15.4444,19.999951362609863,15.1852,19.999951362609863L6.870369999999999,19.999951362609863Q6.44444,19.999951362609863,6.0185200000000005,19.806051362609864Q5.5925899999999995,19.612151362609865,5.259259,19.255051362609862Q4.9259260000000005,18.897951362609863,4.712963,18.397951362609863Q4.499999823394,17.897951362609863,4.5,17.285651362609862L4.5,4.632611362609863Q4.5,3.428521362609863,5.101852,2.714239362609863Q5.7036999999999995,1.9999536008298633,6.81481,1.9999536008298633L17.092599999999997,1.9999513626098633ZM13.2037,14.795851362609863Q13.44444,14.795851362609863,13.61111,14.612151362609863Q13.77778,14.428551362609863,13.77778,14.163251362609863Q13.77778,13.877551362609863,13.61111,13.704051362609864Q13.44444,13.530551362609863,13.2037,13.530551362609863L7.4074100000000005,13.530551362609863Q7.16667,13.530551362609863,7,13.704051362609864Q6.83333,13.877551362609863,6.83333,14.163251362609863Q6.83333,14.428551362609863,7,14.612151362609863Q7.16667,14.795851362609863,7.4074100000000005,14.795851362609863L13.2037,14.795851362609863ZM15.5185,10.959131362609863Q15.7593,10.959131362609863,15.9259,10.775461362609864Q16.092599999999997,10.591791362609863,16.092599999999997,10.326481362609863Q16.092599999999997,10.061171362609864,15.9259,9.877501362609863Q15.7593,9.693831362609863,15.5185,9.693831362609863L7.4074100000000005,9.693831362609863Q7.16667,9.693831362609863,7,9.877501362609863Q6.83333,10.061171362609864,6.83333,10.326481362609863Q6.83333,10.591791362609863,7,10.775461362609864Q7.16667,10.959131362609863,7.4074100000000005,10.959131362609863L15.5185,10.959131362609863ZM16.6667,7.142811362609863Q16.907400000000003,7.142811362609863,17.0741,6.959131362609863Q17.2407,6.775461362609863,17.2407,6.489751362609863Q17.2407,6.224441362609864,17.0741,6.040771362609863Q16.907400000000003,5.857091362609863,16.6667,5.857091362609863L7.4074100000000005,5.857091362609863Q7.16667,5.857091362609863,7,6.040771362609863Q6.83333,6.224441362609864,6.83333,6.489751362609863Q6.83333,6.775461362609863,7,6.959131362609863Q7.16667,7.142811362609863,7.4074100000000005,7.142811362609863L16.6667,7.142811362609863Z" fill="#778EB2" fill-opacity="0.6000000238418579"/></g></g></svg>