<svg xmlns="http://www.w3.org/2000/svg" xmlns:xlink="http://www.w3.org/1999/xlink" fill="none" version="1.1" width="24" height="24" viewBox="0 0 24 24"><defs><clipPath id="master_svg0_946_11217"><rect x="0" y="0" width="24" height="24" rx="0"/></clipPath></defs><g clip-path="url(#master_svg0_946_11217)"><g><g><path d="M21,9C21,9,21,20,21,20C21,21.6569,19.6569,23,18,23C18,23,6,23,6,23C4.34315,23,3,21.6569,3,20C3,20,3,4,3,4C3,2.34315,4.34315,1,6,1C6,1,12,1,12,1C12,1,12,6,12,6C12,7.65685,13.3431,9,15,9C15,9,21,9,21,9ZM20.3053,7C20.1986,6.87198,20.0808,6.75215,19.9524,6.6421C19.9524,6.6421,14.2125,1.7222300000000001,14.2125,1.7222300000000001C14.144,1.663464,14.073,1.608035,14,1.556036C14,1.556036,14,6,14,6C14,6.55228,14.4477,7,15,7C15,7,20.3053,7,20.3053,7ZM16,19C16,19,8,19,8,19C8,19,8,17,8,17C8,17,16,17,16,17C16,17,16,19,16,19ZM15.7071,12.2929C15.7071,12.2929,12.70711,9.29289,12.70711,9.29289C12.31658,8.902370000000001,11.68342,8.902370000000001,11.29289,9.29289C11.29289,9.29289,8.29289,12.2929,8.29289,12.2929C8.29289,12.2929,9.70711,13.7071,9.70711,13.7071C9.70711,13.7071,11,12.4142,11,12.4142C11,12.4142,11,16,11,16C11,16,13,16,13,16C13,16,13,12.4142,13,12.4142C13,12.4142,14.2929,13.7071,14.2929,13.7071C14.2929,13.7071,15.7071,12.2929,15.7071,12.2929Z" fill-rule="evenodd" fill="#FFFFFF" fill-opacity="0.6000000238418579"/></g></g></g></svg>