<svg xmlns="http://www.w3.org/2000/svg" xmlns:xlink="http://www.w3.org/1999/xlink" fill="none" version="1.1" width="24" height="24" viewBox="0 0 24 24"><g><g><path d="M9.5,3C9.79678,3,10.07823,3.131823,10.26822,3.359816C10.26822,3.359816,12.469,6,12.469,6C12.469,6,21,6,21,6C22.0544,6,22.9182,6.81586,22.9945,7.85074C22.9945,7.85074,23,8,23,8C23,8,23,20,23,20C23,21.1046,22.1046,22,21,22C21,22,3,22,3,22C1.895427,22,1,21.1046,1,20C1,20,1,5,1,5C1,3.89543,1.89543,3,3,3C3,3,9.5,3,9.5,3C9.5,3,9.5,3,9.5,3ZM11.4639,9.65569C11.4639,9.65569,11.4754,9.64838,11.4754,9.64838C11.4908,9.63891,11.5063,9.62989,11.522,9.62132C11.541,9.61103,11.5608,9.601099999999999,11.5808,9.59182C11.5946,9.58545,11.6082,9.57953,11.6219,9.57394C11.643,9.565339999999999,11.6645,9.557400000000001,11.6863,9.5502C11.7037,9.544509999999999,11.7214,9.53921,11.7393,9.534410000000001C11.7577,9.52937,11.7764,9.52491,11.7953,9.52098C11.8148,9.517,11.8342,9.51357,11.8536,9.51071C11.8715,9.508,11.8902,9.50578,11.909,9.50409C11.9334,9.50192,11.9574,9.50062,11.9814,9.50017C11.9814,9.50017,12,9.5,12,9.5C12,9.5,12.0885,9.5039,12.0885,9.5039C12.0655,9.50187,12.0425,9.500630000000001,12.0195,9.50019C12.0195,9.50019,12,9.5,12,9.5C12.0506,9.5,12.1004,9.50376,12.149,9.51102C12.1657,9.513580000000001,12.183,9.516639999999999,12.2003,9.52016C12.2227,9.52464,12.2444,9.52983,12.2658,9.535720000000001C12.2811,9.53999,12.2965,9.54462,12.3118,9.54963C12.3318,9.55612,12.3516,9.563320000000001,12.3711,9.571100000000001C12.3885,9.57809,12.4059,9.58557,12.423,9.59356C12.4439,9.60338,12.4643,9.61379,12.4843,9.624880000000001C12.4962,9.6314,12.5085,9.63851,12.5206,9.645900000000001C12.5463,9.661719999999999,12.5711,9.67849,12.5952,9.69631C12.6011,9.70065,12.607,9.705110000000001,12.6128,9.70965C12.6128,9.70965,12.6254,9.71969,12.6254,9.71969C12.6254,9.71969,12.7071,9.79289,12.7071,9.79289C12.7071,9.79289,16.2071,13.2929,16.2071,13.2929C16.5976,13.6834,16.5976,14.3166,16.2071,14.7071C15.8466,15.0676,15.2794,15.0953,14.8871,14.7903C14.8871,14.7903,14.7929,14.7071,14.7929,14.7071C14.7929,14.7071,13,12.915,13,12.915C13,12.915,13,17.5,13,17.5C13,18.052300000000002,12.5523,18.5,12,18.5C11.4872,18.5,11.0645,18.114,11.0067,17.6166C11.0067,17.6166,11,17.5,11,17.5C11,17.5,11,12.916,11,12.916C11,12.916,9.20789,14.7141,9.20789,14.7141C8.847809999999999,15.075,8.28061,15.1034,7.88798,14.7988C7.88798,14.7988,7.79368,14.7157,7.79368,14.7157C7.4328,14.3556,7.40444,13.7884,7.70902,13.3958C7.70902,13.3958,7.79211,13.3015,7.79211,13.3015C7.79211,13.3015,11.2844,9.801459999999999,11.2844,9.801459999999999C11.3156,9.769490000000001,11.349,9.7396,11.3842,9.712019999999999C11.3842,9.712019999999999,11.3863,9.710329999999999,11.3863,9.710329999999999C11.3863,9.710329999999999,11.4639,9.65569,11.4639,9.65569C11.4639,9.65569,11.4639,9.65569,11.4639,9.65569Z" fill-rule="evenodd" fill="#FFFFFF" fill-opacity="0.6000000238418579"/></g></g></svg>