<svg xmlns="http://www.w3.org/2000/svg" xmlns:xlink="http://www.w3.org/1999/xlink" fill="none" version="1.1" width="16" height="16" viewBox="0 0 16 16"><g><g><path d="M6.33317390625,2C6.53102390625,2,6.71865390625,2.087882,6.84531390625,2.239877C6.84531390625,2.239877,8.31250390625,4,8.31250390625,4C8.31250390625,4,13.99980390625,4,13.99980390625,4C14.70280390625,4,15.27860390625,4.54391,15.32950390625,5.23383C15.32950390625,5.23383,15.33320390625,5.33333,15.33320390625,5.33333C15.33320390625,5.33333,15.33320390625,13.3333,15.33320390625,13.3333C15.33320390625,14.0697,14.73620390625,14.6667,13.99980390625,14.6667C13.99980390625,14.6667,1.99983390625,14.6667,1.99983390625,14.6667C1.26345490625,14.6667,0.66650390625,14.0697,0.66650390625,13.3333C0.66650390625,13.3333,0.66650390625,3.33333,0.66650390625,3.33333C0.66650390625,2.596953,1.26345690625,2,1.99983390625,2C1.99983390625,2,6.33317390625,2,6.33317390625,2C6.33317390625,2,6.33317390625,2,6.33317390625,2ZM7.64243390625,6.43713C7.64243390625,6.43713,7.65010390625,6.43225,7.65010390625,6.43225C7.66037390625,6.42594,7.67070390625,6.41993,7.68117390625,6.41421C7.69383390625,6.40735,7.70703390625,6.40073,7.72037390625,6.39455C7.72957390625,6.3903,7.73863390625,6.38635,7.74777390625,6.38263C7.76183390625,6.37689,7.77617390625,6.3716,7.79070390625,6.3668C7.80230390625,6.36301,7.81410390625,6.35947,7.82603390625,6.35627C7.83830390625,6.35291,7.85077390625,6.34994,7.86337390625,6.34732C7.87637390625,6.34467,7.88930390625,6.34238,7.90223390625,6.34047C7.91417390625,6.33867,7.92663390625,6.33719,7.93917390625,6.33606C7.95543390625,6.33461,7.97143390625,6.33375,7.98743390625,6.33345C7.98743390625,6.33345,7.99983390625,6.33333,7.99983390625,6.33333C7.99983390625,6.33333,8.058833906250001,6.33593,8.058833906250001,6.33593C8.043503906249999,6.33458,8.02817390625,6.33375,8.01283390625,6.33346C8.01283390625,6.33346,7.99983390625,6.33333,7.99983390625,6.33333C8.03357390625,6.33333,8.066773906249999,6.33584,8.09917390625,6.34068C8.11030390625,6.34239,8.12183390625,6.34443,8.13337390625,6.34677C8.14830390625,6.34976,8.162773906249999,6.35322,8.17703390625,6.35715C8.18723390625,6.35999,8.197503906249999,6.36308,8.20770390625,6.36642C8.22103390625,6.37075,8.234233906250001,6.37555,8.247233906249999,6.38073C8.25883390625,6.38539,8.27043390625,6.39038,8.28183390625,6.39571C8.29577390625,6.40225,8.30937390625,6.40919,8.32270390625,6.41659C8.33063390625,6.42093,8.338833906249999,6.42567,8.346903906249999,6.4306C8.36403390625,6.44115,8.38057390625,6.45233,8.396633906249999,6.46421C8.40057390625,6.4671,8.40450390625,6.47007,8.408373906249999,6.4731C8.408373906249999,6.4731,8.41677390625,6.47979,8.41677390625,6.47979C8.41677390625,6.47979,8.47123390625,6.52859,8.47123390625,6.52859C8.47123390625,6.52859,10.80460390625,8.861930000000001,10.80460390625,8.861930000000001C11.06490390625,9.12227,11.06490390625,9.5444,10.80460390625,9.80473C10.56423390625,10.04507,10.18610390625,10.06353,9.92457390625,9.860199999999999C9.92457390625,9.860199999999999,9.86177390625,9.80473,9.86177390625,9.80473C9.86177390625,9.80473,8.66650390625,8.61,8.66650390625,8.61C8.66650390625,8.61,8.66650390625,11.66667,8.66650390625,11.66667C8.66650390625,12.0349,8.36803390625,12.3333,7.99983390625,12.3333C7.65797390625,12.3333,7.37617390625,12.076,7.33763390625,11.7444C7.33763390625,11.7444,7.33317390625,11.66667,7.33317390625,11.66667C7.33317390625,11.66667,7.33317390625,8.610669999999999,7.33317390625,8.610669999999999C7.33317390625,8.610669999999999,6.13843390625,9.8094,6.13843390625,9.8094C5.89837390625,10.05,5.52024390625,10.06893,5.25849390625,9.865870000000001C5.25849390625,9.865870000000001,5.19562390625,9.810469999999999,5.19562390625,9.810469999999999C4.95503390625,9.5704,4.93613390625,9.19227,5.13918390625,8.930530000000001C5.13918390625,8.930530000000001,5.19457390625,8.86767,5.19457390625,8.86767C5.19457390625,8.86767,7.52277390625,6.53431,7.52277390625,6.53431C7.54357390625,6.51299,7.56583390625,6.49307,7.58930390625,6.47468C7.58930390625,6.47468,7.59070390625,6.47355,7.59070390625,6.47355C7.59070390625,6.47355,7.64243390625,6.43713,7.64243390625,6.43713C7.64243390625,6.43713,7.64243390625,6.43713,7.64243390625,6.43713Z" fill-rule="evenodd" fill="#FFFFFF" fill-opacity="1"/></g></g></svg>