<svg xmlns="http://www.w3.org/2000/svg" xmlns:xlink="http://www.w3.org/1999/xlink" fill="none" version="1.1" width="16" height="16" viewBox="0 0 16 16"><defs><clipPath id="master_svg0_852_31703"><rect x="0" y="0" width="16" height="16" rx="0"/></clipPath></defs><g clip-path="url(#master_svg0_852_31703)"><g><g><path d="M14,6.000078046875C14,6.000078046875,14,13.333448046875,14,13.333448046875C14,14.437948046875,13.1046,15.333448046875,12,15.333448046875C12,15.333448046875,4,15.333448046875,4,15.333448046875C2.895431,15.333448046875,2,14.437948046875,2,13.333448046875C2,13.333448046875,2,2.666748046875,2,2.666748046875C2,1.5621790468749999,2.89543,0.666748046875,4,0.666748046875C4,0.666748046875,8,0.666748046875,8,0.666748046875C8,0.666748046875,8,4.000078046875,8,4.000078046875C8,5.104648046875,8.895430000000001,6.000078046875,10,6.000078046875C10,6.000078046875,14,6.000078046875,14,6.000078046875ZM13.5368,4.666748046875C13.4658,4.581398046875,13.3872,4.501518046875,13.3016,4.428148046875C13.3016,4.428148046875,9.47502,1.148235046875,9.47502,1.148235046875C9.429310000000001,1.109058046875,9.38203,1.072105046875,9.33333,1.0374390468749999C9.33333,1.0374390468749999,9.33333,4.000078046875,9.33333,4.000078046875C9.33333,4.368268046875,9.63181,4.666748046875,10,4.666748046875C10,4.666748046875,13.5368,4.666748046875,13.5368,4.666748046875ZM10.66667,12.666748046875C10.66667,12.666748046875,5.33333,12.666748046875,5.33333,12.666748046875C5.33333,12.666748046875,5.33333,11.333448046875,5.33333,11.333448046875C5.33333,11.333448046875,10.66667,11.333448046875,10.66667,11.333448046875C10.66667,11.333448046875,10.66667,12.666748046875,10.66667,12.666748046875ZM10.47141,8.195348046875C10.47141,8.195348046875,8.4714,6.195348046875,8.4714,6.195348046875C8.21106,5.934998046875,7.78895,5.934998046875,7.5286,6.195348046875C7.5286,6.195348046875,5.5286,8.195348046875,5.5286,8.195348046875C5.5286,8.195348046875,6.4714,9.138158046875,6.4714,9.138158046875C6.4714,9.138158046875,7.33333,8.276228046875,7.33333,8.276228046875C7.33333,8.276228046875,7.33333,10.666748046875,7.33333,10.666748046875C7.33333,10.666748046875,8.66667,10.666748046875,8.66667,10.666748046875C8.66667,10.666748046875,8.66667,8.276228046875,8.66667,8.276228046875C8.66667,8.276228046875,9.5286,9.138158046875,9.5286,9.138158046875C9.5286,9.138158046875,10.47141,8.195348046875,10.47141,8.195348046875Z" fill-rule="evenodd" fill="#FFFFFF" fill-opacity="1"/></g></g></g></svg>