<svg xmlns="http://www.w3.org/2000/svg" xmlns:xlink="http://www.w3.org/1999/xlink" fill="none" version="1.1" width="24" height="22" viewBox="0 0 24 22"><defs><clipPath id="master_svg0_778_23422"><rect x="0" y="0" width="24" height="22" rx="0"/></clipPath></defs><g clip-path="url(#master_svg0_778_23422)"><g><g><path d="M19.5,6.95L19.5,18C19.5,19.105,18.660899999999998,20,17.625,20L6.375,20C5.339062,20,4.5,19.105,4.5,18L4.5,4C4.5,2.895,5.339063,2,6.375,2L14.8594,2L19.5,6.95Z" fill="#54637C" fill-opacity="1"/></g><g><path d="M14.85936450958252,4.95L14.85936450958252,2L19.499984509582518,6.95L16.73436450958252,6.95C15.69842850958252,6.95,14.85936450958252,6.055,14.85936450958252,4.95Z" fill="#394A62" fill-opacity="1"/></g><g><path d="M10.756886005401611,3.2030000000000003L11.884696005401612,3.2030000000000003L11.884696005401612,2L10.756886005401611,2L10.756886005401611,3.2030000000000003ZM11.884696005401612,4.406000000000001L13.012506005401612,4.406000000000001L13.012506005401612,3.2030000000000003L11.884696005401612,3.2030000000000003L11.884696005401612,4.406000000000001ZM10.756886005401611,5.609L11.884696005401612,5.609L11.884696005401612,4.406000000000001L10.756886005401611,4.406000000000001L10.756886005401611,5.609ZM11.884696005401612,6.812L13.012506005401612,6.812L13.012506005401612,5.609L11.884696005401612,5.609L11.884696005401612,6.812Z" fill="#FFFFFF" fill-opacity="1"/></g><g><path d="M10.756886005401611,8.0145234375L11.884696005401612,8.0145234375L11.884696005401612,6.8115234375L10.756886005401611,6.8115234375L10.756886005401611,8.0145234375ZM11.884696005401612,9.2180234375L13.012506005401612,9.2180234375L13.012506005401612,8.0150234375L11.884696005401612,8.0150234375L11.884696005401612,9.2180234375Z" fill="#FFFFFF" fill-opacity="1"/></g><g><path d="M10.756886649131612,10.420529296875L11.884696005401612,10.420529296875L11.884696005401612,9.217529296875L10.756886649131612,9.217529296875L10.756886649131612,10.420529296875ZM11.884696005401612,11.623529296875L13.012516005401611,11.623529296875L13.012516005401611,10.420529296875L11.884696005401612,10.420529296875L11.884696005401612,11.623529296875ZM11.32079200540161,15.398529296875001L12.448606005401611,15.398529296875001L12.448606005401611,14.195529296875L11.32079200540161,14.195529296875L11.32079200540161,15.398529296875001ZM10.756886005401611,12.992529296875L10.756886005401611,15.398529296875001C10.756886005401611,15.731029296875,11.009542005401611,16.000029296875,11.32079200540161,16.000029296875L12.448606005401611,16.000029296875C12.76032600540161,16.000029296875,13.012516005401611,15.731029296875,13.012516005401611,15.398529296875001L13.012516005401611,12.992529296875L10.756886005401611,12.992529296875Z" fill="#FFFFFF" fill-opacity="1"/></g></g></g></svg>