<svg xmlns="http://www.w3.org/2000/svg" xmlns:xlink="http://www.w3.org/1999/xlink" fill="none" version="1.1" width="16" height="16" viewBox="0 0 16 16"><defs><clipPath id="master_svg0_1900_27502"><rect x="0" y="0" width="16" height="16" rx="0"/></clipPath></defs><g clip-path="url(#master_svg0_1900_27502)"><g transform="matrix(1,-5.400848479553133e-8,5.400848479553133e-8,1,-2.3129140203081988e-7,1.1233859709136595e-7)"><path d="M3.4130875666809084,4.282501220703125L2.205270566680908,4.282501220703125C2.100582866680908,4.282501220703125,2.042770166680908,4.402814220703125,2.1068327666809084,4.484063220703125L7.6083975666809085,11.527811220703125C7.808397566680908,11.784061220703125,8.194327566680908,11.784061220703125,8.394327566680907,11.527811220703125L13.895917566680907,4.484064220703125C13.959917566680907,4.401252220703125,13.902117566680909,4.282501697540125,13.797417566680908,4.282501697540125L12.589617566680909,4.282501697540125C12.513117566680908,4.282501697540125,12.439617566680909,4.318439020703125,12.392817566680908,4.377814320703125L8.002147566680907,10.002811220703125L3.609957566680908,4.377813820703125C3.5630875666809083,4.318438520703125,3.489647566680908,4.282501220703125,3.4130875666809084,4.282501220703125Z" fill-rule="evenodd" fill="#FFFFFF" fill-opacity="0.6000000238418579"/></g></g></svg>