<svg xmlns="http://www.w3.org/2000/svg" xmlns:xlink="http://www.w3.org/1999/xlink" fill="none" version="1.1" width="16" height="16" viewBox="0 0 16 16"><defs><clipPath id="master_svg0_1141_26130/751_6327"><rect x="0" y="0" width="16" height="16" rx="0"/></clipPath></defs><g clip-path="url(#master_svg0_1141_26130/751_6327)"><g><path d="M8,2C8.41421,2,8.75,2.335786,8.75,2.75C8.75,2.75,8.75,7.25,8.75,7.25C8.75,7.25,13.25,7.25,13.25,7.25C13.6642,7.25,14,7.58579,14,8C14,8.41421,13.6642,8.75,13.25,8.75C13.25,8.75,8.75,8.75,8.75,8.75C8.75,8.75,8.75,13.25,8.75,13.25C8.75,13.6642,8.41421,14,8,14C7.58579,14,7.25,13.6642,7.25,13.25C7.25,13.25,7.25,8.75,7.25,8.75C7.25,8.75,2.75,8.75,2.75,8.75C2.335786,8.75,2,8.41421,2,8C2,7.58579,2.335786,7.25,2.75,7.25C2.75,7.25,7.25,7.25,7.25,7.25C7.25,7.25,7.25,2.75,7.25,2.75C7.25,2.335786,7.58579,2,8,2C8,2,8,2,8,2Z" fill-rule="evenodd" fill="#FFFFFF" fill-opacity="0.8500000238418579"/></g></g></svg>