<svg xmlns="http://www.w3.org/2000/svg" xmlns:xlink="http://www.w3.org/1999/xlink" fill="none" version="1.1" width="28" height="28" viewBox="0 0 28 28"><defs><clipPath id="master_svg0_523_7021"><rect x="0" y="0" width="28" height="28" rx="0"/></clipPath></defs><g clip-path="url(#master_svg0_523_7021)"><g></g><g><g><path d="M24.9999,14Q24.9999,14.27,24.9866,14.5397Q24.9734,14.8095,24.9469,15.0782Q24.9204,15.3469,24.8808,15.614Q24.8412,15.8811,24.7885,16.146Q24.7358,16.410800000000002,24.6702,16.672800000000002Q24.6046,16.9347,24.5262,17.1931Q24.4478,17.4515,24.3568,17.7058Q24.2659,17.96,24.1625,18.2095Q24.0592,18.459,23.9437,18.7031Q23.8283,18.947200000000002,23.701,19.1854Q23.5737,19.4235,23.4349,19.6551Q23.2961,19.8867,23.146,20.1113Q22.996,20.3358,22.8352,20.5527Q22.6743,20.7696,22.503,20.9783Q22.3317,21.1871,22.1503,21.3871Q21.969,21.5872,21.7781,21.7782Q21.5871,21.9691,21.387,22.1505Q21.1869,22.3318,20.9782,22.5031Q20.7695,22.6744,20.5526,22.8353Q20.3357,22.9961,20.1112,23.1462Q19.8866,23.2962,19.655,23.435Q19.4234,23.5738,19.1853,23.7011Q18.9471,23.8284,18.703,23.9439Q18.4589,24.0593,18.209400000000002,24.1627Q17.959899999999998,24.266,17.7057,24.357Q17.4514,24.448,17.192999999999998,24.5263Q16.9346,24.6047,16.6727,24.6703Q16.410800000000002,24.736,16.145899999999997,24.7886Q15.8811,24.8413,15.614,24.8809Q15.3468,24.9206,15.0781,24.947Q14.8094,24.9735,14.5397,24.9867Q14.27,25,13.9999,25Q13.7299,25,13.4602,24.9867Q13.1905,24.9735,12.92175,24.947Q12.65302,24.9206,12.38591,24.8809Q12.11879,24.8413,11.85395,24.7886Q11.58911,24.736,11.32717,24.6703Q11.06522,24.6047,10.80682,24.5263Q10.54841,24.448,10.294170000000001,24.357Q10.03992,24.266,9.79044,24.1627Q9.54096,24.0593,9.29685,23.9439Q9.05275,23.8284,8.8146,23.7011Q8.576450000000001,23.5738,8.34484,23.435Q8.11322,23.2962,7.8887,23.1462Q7.66417,22.9961,7.44728,22.8353Q7.23039,22.6744,7.02165,22.5031Q6.8129100000000005,22.3318,6.612830000000001,22.1505Q6.41275,21.9691,6.22181,21.7782Q6.0308600000000006,21.5872,5.84952,21.3871Q5.6681799999999996,21.1871,5.4968699999999995,20.9783Q5.325559999999999,20.7696,5.1647,20.5527Q5.00384,20.3358,4.85382,20.1113Q4.7038,19.8867,4.56498,19.6551Q4.42615,19.4235,4.2988599999999995,19.1854Q4.17157,18.947200000000002,4.05611,18.7031Q3.940657,18.459,3.83732,18.2095Q3.7339830000000003,17.96,3.643011,17.7058Q3.55204,17.4515,3.473653,17.1931Q3.395267,16.9347,3.329654,16.672800000000002Q3.264041,16.410800000000002,3.211361,16.146Q3.15868,15.8811,3.119058,15.614Q3.0794355,15.3469,3.0529677,15.0782Q3.0264998,14.8095,3.0132499,14.5397Q3,14.27,3,14Q3,13.73,3.0132499,13.4603Q3.0264998,13.1905,3.0529677,12.92181Q3.0794355,12.65308,3.119058,12.38596Q3.15868,12.11885,3.211361,11.854Q3.264041,11.58916,3.329654,11.32722Q3.395267,11.06527,3.473653,10.80687Q3.55204,10.54846,3.643011,10.29421Q3.7339830000000003,10.03996,3.83732,9.790479999999999Q3.940657,9.541,4.05611,9.296890000000001Q4.17157,9.05279,4.2988599999999995,8.81464Q4.42615,8.57649,4.56498,8.34487Q4.7038,8.11325,4.85382,7.88873Q5.00384,7.6642,5.1647,7.44731Q5.325559999999999,7.23041,5.4968699999999995,7.02167Q5.6681799999999996,6.81293,5.84952,6.61285Q6.0308600000000006,6.41277,6.22181,6.221830000000001Q6.41275,6.03088,6.612830000000001,5.84954Q6.8129100000000005,5.66819,7.02165,5.49688Q7.23039,5.32558,7.44728,5.16472Q7.66417,5.0038599999999995,7.8887,4.85383Q8.11322,4.70381,8.34484,4.56499Q8.576450000000001,4.42616,8.8146,4.29887Q9.05275,4.17157,9.29685,4.05612Q9.54096,3.940663,9.79044,3.837325Q10.03992,3.733987,10.294170000000001,3.643015Q10.54841,3.552043,10.80682,3.473656Q11.06522,3.395269,11.32717,3.329656Q11.58911,3.264043,11.85395,3.211362Q12.11879,3.158681,12.38591,3.119058Q12.65302,3.079436,12.92175,3.052968Q13.1905,3.0265,13.4602,3.01325Q13.7299,3,13.9999,3Q14.27,3,14.5397,3.01325Q14.8094,3.0265,15.0781,3.052968Q15.3468,3.079436,15.614,3.119058Q15.8811,3.158681,16.145899999999997,3.211362Q16.410800000000002,3.264043,16.6727,3.329656Q16.9346,3.395269,17.192999999999998,3.473656Q17.4514,3.552043,17.7057,3.643015Q17.959899999999998,3.733987,18.209400000000002,3.837325Q18.4589,3.940663,18.703,4.05612Q18.9471,4.17157,19.1853,4.29887Q19.4234,4.42616,19.655,4.56499Q19.8866,4.70381,20.1112,4.85383Q20.3357,5.0038599999999995,20.5526,5.16472Q20.7695,5.32558,20.9782,5.49688Q21.1869,5.66819,21.387,5.84954Q21.5871,6.03088,21.7781,6.221830000000001Q21.969,6.41277,22.1503,6.61285Q22.3317,6.81293,22.503,7.02167Q22.6743,7.23041,22.8352,7.44731Q22.996,7.6642,23.146,7.88873Q23.2961,8.11325,23.4349,8.34487Q23.5737,8.57649,23.701,8.81464Q23.8283,9.05279,23.9437,9.296890000000001Q24.0592,9.541,24.1625,9.790479999999999Q24.2659,10.03996,24.3568,10.29421Q24.4478,10.54846,24.5262,10.80687Q24.6046,11.06527,24.6702,11.32722Q24.7358,11.58916,24.7885,11.854Q24.8412,12.11885,24.8808,12.38596Q24.9204,12.65308,24.9469,12.92181Q24.9734,13.1905,24.9866,13.4603Q24.9999,13.73,24.9999,14Z" fill="#A14F8C" fill-opacity="1"/></g><g><g><path d="M14.000217061080933,5.675654172897339L11.561897061080932,8.113934172897338L8.114037061080932,8.11365417289734L8.113757061080932,11.561734172897339L5.675677061080933,14.00001417289734L8.113757061080932,16.43805417289734L8.113877061080933,19.88625417289734L11.561897061080932,19.88605417289734L14.000217061080933,22.32435417289734L16.43827706108093,19.88605417289734L19.886577061080935,19.88595417289734L19.886377061080932,16.43805417289734L22.324777061080933,14.00001417289734L19.886177061080932,11.56198417289734L16.438177061080932,8.114044172897339L14.000217061080933,5.675654172897339ZM14.740257061080932,8.113684172897338L14.740257061080932,10.744194172897338L14.000217061080933,11.484234172897338L13.260177061080933,10.744194172897338L13.260177061080933,8.113934172897338L14.740257061080932,8.113684172897338ZM10.361097061080933,9.314444172897339L12.221167061080934,11.174734172897338L12.221457061080933,12.22096417289734L11.174627061080933,12.22125417289734L9.314557061080933,10.36096417289734L10.361097061080933,9.314444172897339ZM8.113757061080932,13.259974172897339L10.744337061080934,13.259974172897339L11.484397061080934,14.00000417289734L10.744337061080934,14.740044172897338L8.113757061080932,14.740044172897338L8.113757061080932,13.259974172897339ZM17.196777061080933,13.259974172897339L19.827277061080935,13.259974172897339L19.827277061080935,14.740044172897338L17.196777061080933,14.740044172897338L16.45667706108093,14.00000417289734L17.196777061080933,13.259974172897339ZM11.216637061080933,15.736954172897338L12.263197061080932,15.73705417289734L12.263197061080932,16.78355417289734L10.403127061080934,18.64355417289734L9.356577061080932,17.597054172897337L11.216637061080933,15.736954172897338ZM15.737377061080933,15.736854172897338L16.783777061080933,15.73705417289734L18.643877061080932,17.597054172897337L17.59727706108093,18.64355417289734L15.737277061080933,16.78355417289734L15.737377061080933,15.736854172897338ZM14.000217061080933,16.456454172897338L14.740257061080932,17.19645417289734L14.740257061080932,19.826954172897338L13.260157061080932,19.826954172897338L13.260157061080932,17.19645417289734L14.000217061080933,16.456454172897338Z" fill="#FFFFFF" fill-opacity="1"/></g><g><path d="M14.740256861953736,12.299537815482788L14.000216861953735,12.953486260482787L13.260172861953736,12.299314260482788L13.260172861953736,13.259969260482787L12.299619126953734,13.259969260482787L12.953672861953736,14.000004260482788L12.299476861953735,14.740044260482788L13.260172861953736,14.740044260482788L13.260172861953736,15.700514260482787L14.000216861953735,15.046514260482788L14.740256861953736,15.700594260482788L14.740256861953736,14.740034260482787L15.700686861953734,14.740034260482787L15.046756861953735,14.000014260482788L15.700936861953736,13.259959260482788L14.740256861953736,13.259959260482788L14.740256861953736,12.299537815482788Z" fill="#EFA724" fill-opacity="1"/></g><g><path d="M16.4402841860199,8.11613943048706L17.638964186019898,9.31479453048706L15.778894186019897,11.174834530487061L15.778934833219898,12.22132453048706L16.825434186019898,12.22135453048706L18.685514186019898,10.36132453048706L19.8883641860199,11.564144530487061L19.886474186019896,8.11394453048706L16.4402841860199,8.11613943048706Z" fill="#EFA724" fill-opacity="1"/></g></g></g></g></svg>