<svg xmlns="http://www.w3.org/2000/svg" xmlns:xlink="http://www.w3.org/1999/xlink" fill="none" version="1.1" width="28" height="28" viewBox="0 0 28 28"><defs><clipPath id="master_svg0_778_5633"><rect x="0" y="0" width="28" height="28" rx="0"/></clipPath></defs><g clip-path="url(#master_svg0_778_5633)"><g></g><g><g><g><path d="M15.72302894116211,14.6237272078125C15.358475941162109,14.6287993078125,15.79200394116211,14.8115825078125,16.26793194116211,14.8848175078125C16.39939094116211,14.7821665078125,16.51867694116211,14.6782985078125,16.62497594116211,14.5772705078125C16.32858994116211,14.6498967078125,16.02692594116211,14.6515196078125,15.72302894116211,14.6237272078125Z" fill="#A80030" fill-opacity="1"/></g><g><path d="M17.67960675366211,14.1359353828125C17.89667575366211,13.8362993828125,18.05491175366211,13.508261382812499,18.11070075366211,13.1690673828125C18.06201275366211,13.4108863828125,17.93075675366211,13.6196373828125,17.80721075366211,13.839951382812501C17.12577775366211,14.2690173828125,17.74310475366211,13.5851493828125,17.80680575366211,13.3252753828125C17.07404675366211,14.2475073828125,17.70618275366211,13.8782933828125,17.67960675366211,14.1359353828125Z" fill="#A80030" fill-opacity="1"/></g><g><path d="M18.40165006616211,12.2567268125C18.44567206616211,11.6002468125,18.27242266616211,11.8077805225,18.21419906616211,12.0583228125C18.28215956616211,12.0936218125,18.33591906616211,12.5210638125,18.40165006616211,12.2567268125Z" fill="#A80030" fill-opacity="1"/></g><g><path d="M14.34066390991211,3.2838134765625C14.535213909912109,3.3187067765625,14.76100590991211,3.3454852765625,14.72935890991211,3.3919424765625C14.942166909912109,3.3452823765625,14.990448909912109,3.3022744765625,14.34066390991211,3.2838134765625Z" fill="#A80030" fill-opacity="1"/></g><g><path d="M14.729185472412109,3.391845703125L14.59164047241211,3.420247203125L14.719650472412109,3.408886603125L14.729185472412109,3.391845703125Z" fill="#A80030" fill-opacity="1"/></g><g><path d="M20.79549984741211,12.5056203515625C20.81719984741211,13.0951503515625,20.62299984741211,13.3811603515625,20.44789984741211,13.8875603515625L20.13289984741211,14.0449603515625C19.87499984741211,14.5456603515625,20.157799847412107,14.3628603515625,19.97319984741211,14.7610603515625C19.570699847412108,15.1189603515625,18.75179984741211,15.8809603515625,18.489699847412112,15.9505603515625C18.29839984741211,15.9462603515625,18.61929984741211,15.7247603515625,18.66129984741211,15.6378603515625C18.122499847412108,16.007960351562502,18.228999847412112,16.1933603515625,17.40489984741211,16.4181603515625L17.38079984741211,16.364560351562503C15.348499847412109,17.320660351562502,12.525349847412109,15.4258603515625,12.56246984741211,12.8405503515625C12.54076984741211,13.0046703515625,12.50079984741211,12.9636903515625,12.455759847412109,13.0300303515625C12.35087984741211,11.6998203515625,13.07004984741211,10.3637403515625,14.282999847412109,9.8182303515625C15.46939984741211,9.2309203515625,16.86019984741211,9.4719303515625,17.70999984741211,10.2639303515625C17.243199847412107,9.652480351562499,16.31409984741211,9.0043203515625,15.212939847412109,9.0649803515625C14.13428984741211,9.0820203515625,13.12522984741211,9.7675103515625,12.78846984741211,10.5116303515625C12.235859847412108,10.8595503515625,12.171749847412109,11.8527903515625,11.930949847412109,12.0345603515625C11.60696984741211,14.4156603515625,12.540359847412109,15.4443603515625,14.119279847412109,16.6544603515625C14.36779984741211,16.8220603515625,14.18926984741211,16.8473603515625,14.22294984741211,16.9749603515625C13.69832984741211,16.729360351562498,13.21793984741211,16.3584603515625,12.82295984741211,15.9044603515625C13.03251984741211,16.211160351562498,13.25871984741211,16.509460351562502,13.55104984741211,16.7437603515625C13.05645984741211,16.5761603515625,12.39571984741211,15.5451603515625,12.20278984741211,15.5031603515625C13.05543984741211,17.0297603515625,15.66209984741211,18.180460351562502,17.02699984741211,17.6095603515625C16.39549984741211,17.6328603515625,15.593099847412109,17.6225603515625,14.88347984741211,17.360260351562502C14.58546984741211,17.2068603515625,14.180139847412109,16.889160351562502,14.25256984741211,16.8297603515625C16.11529984741211,17.5255603515625,18.03949984741211,17.3567603515625,19.651299847412112,16.064760351562498C20.06129984741211,15.7454603515625,20.50919984741211,15.2021603515625,20.63859984741211,15.1946603515625C20.44369984741211,15.4877603515625,20.67189984741211,15.3356603515625,20.52219984741211,15.5944603515625C20.93079984741211,14.9355603515625,20.34469984741211,15.3262603515625,20.944599847412107,14.4565603515625L21.16609984741211,14.7617603515625C21.08369984741211,14.2147603515625,21.84529984741211,13.5505603515625,21.76799984741211,12.6855603515625C21.942699847412108,12.4210203515625,21.96299984741211,12.9701803515625,21.77749984741211,13.5787603515625C22.03479984741211,12.9036503515625,21.84529984741211,12.7951103515625,21.91139984741211,12.2380303515625C21.98279984741211,12.4252803515625,22.07659984741211,12.6242903515625,22.12459984741211,12.8218903515625C21.95709984741211,12.1694703515625,22.29669984741211,11.7231603515625,22.38069984741211,11.3440003515625C22.297899847412108,11.3072803515625,22.12199984741211,11.6324703515625,22.08179984741211,10.861780351562501C22.08769984741211,10.527050351562501,22.17499984741211,10.686300351562501,22.20859984741211,10.6039403515625C22.14289984741211,10.5662003515625,21.97049984741211,10.309570351562499,21.86559984741211,9.8174203515625C21.94169984741211,9.701780351562501,22.06889984741211,10.1172603515625,22.17229984741211,10.1343003515625C22.105799847412108,9.7429603515625,21.99119984741211,9.4445503515625,21.98649984741211,9.1443003515625C21.68419984741211,8.5125703515625,21.87959984741211,9.228490351562499,21.63429984741211,8.8730703515625C21.31259984741211,7.8694803515625,21.90129984741211,8.6401703515625,21.941099847412108,8.1841303515625C22.42869984741211,8.8907203515625,22.70689984741211,9.9858003515625,22.834499847412108,10.4394103515625C22.73709984741211,9.8863903515625,22.57969984741211,9.350620351562501,22.38759984741211,8.8322903515625C22.535699847412108,8.8945703515625,22.14899984741211,7.6944003515625,22.58009984741211,8.4892403515625C22.119599847412108,6.7948903515625005,20.609199847412107,5.2117103515625,19.21979984741211,4.4688103515624995C19.389799847412107,4.6244103515625,19.60439984741211,4.8197703515625,19.52729984741211,4.8504003515625005C18.83639984741211,4.4389803515625,18.957899847412108,4.4069303515625,18.85889984741211,4.2330703515625C18.29589984741211,4.0040363515625,18.25899984741211,4.2515303515625,17.886099847412112,4.2334803515625C16.825099847412112,3.6707243515625,16.62059984741211,3.7305703515625,15.644199847412109,3.3779863515625L15.68869984741211,3.5855203515625C14.98572984741211,3.3514103515625,14.86968984741211,3.6743763515625,14.109949847412109,3.5863313515625C14.06369984741211,3.5502213515625,14.35338984741211,3.4556843515624998,14.59175984741211,3.4209943515625C13.91215984741211,3.5106613515625,13.94400984741211,3.2871013515625,13.279009847412109,3.4457443515625C13.44291984741211,3.3307183515625,13.61616984741211,3.2546426515625,13.79103984741211,3.1568603515625C13.23680984741211,3.1905364515625,12.46793984741211,3.4794203515625,12.705289847412109,3.2167063515625C11.80131984741211,3.6200073515625,10.19581984741211,4.1862103515625,9.294879847412108,5.0309503515625L9.266479847412109,4.8416803515625C8.85364984741211,5.3372803515625,7.466229847412109,6.3218003515625,7.355669847412109,6.9636703515625005L7.245309847412109,6.9894403515625C7.0304698474121095,7.3531803515625,6.8915098474121095,7.7654103515625,6.721099847412109,8.1397003515625C6.440129847412109,8.6184703515625,6.3092798474121095,8.3239003515625,6.349239847412109,8.3989603515625C5.796632847412109,9.5194003515625,5.522151847412109,10.4609103515625,5.284999847412109,11.2330303515625C5.453988847412109,11.4856003515625,5.2890571974121094,12.7535203515625,5.35296054741211,13.7682603515625C5.075437847412109,18.7799603515625,8.87027984741211,23.6458603515625,13.018319847412108,24.7693603515625C13.626319847412109,24.9868603515625,14.53049984741211,24.9785603515625,15.299599847412109,25.0008603515625C14.392139847412109,24.7413603515625,14.274879847412109,24.8632603515625,13.39098984741211,24.5551603515625C12.75336984741211,24.2548603515625,12.61359984741211,23.9120603515625,12.16201984741211,23.5201603515625L12.34073984741211,23.8359603515625C11.45501984741211,23.5225603515625,11.825659847412108,23.4480603515625,11.10506984741211,23.2198603515625L11.29596984741211,22.9705603515625C11.00890984741211,22.9488603515625,10.535619847412109,22.4867603515625,10.40618984741211,22.2308603515625L10.092159847412109,22.2432603515625C9.714819847412109,21.7776603515625,9.51377984741211,21.4421603515625,9.52838984741211,21.1822603515625L9.426949847412109,21.3630603515625C9.31192984741211,21.1656603515625,8.03872984741211,19.6169603515625,8.69925984741211,19.9774603515625C8.57652984741211,19.8652603515625,8.41341984741211,19.7948603515625,8.23651984741211,19.4735603515625L8.371019847412109,19.3197603515625C8.053129847412109,18.9107603515625,7.785949847412109,18.3865603515625,7.80623984741211,18.2118603515625C7.975839847412109,18.440960351562502,8.09349984741211,18.483760351562502,8.209949847412108,18.5228603515625C7.407199847412109,16.531160351562498,7.3621598474121095,18.4131603515625,6.7541698474121095,16.4954603515625L6.882789847412109,16.485060351562502C6.78418984741211,16.3365603515625,6.7243498474121095,16.1752603515625,6.6450298474121094,16.0170603515625L6.701019847412109,15.4591603515625C6.1230448474121095,14.7909603515625,6.539329847412109,12.6178003515625,6.622709847412109,11.4259503515625C6.680529847412109,10.9413003515625,7.105129847412109,10.425410351562501,7.428089847412109,9.6163703515625L7.23130984741211,9.5824903515625C7.60742984741211,8.9264203515625,9.378869847412108,6.947650351562499,10.19926984741211,7.0494903515625005C10.596689847412108,6.5502303515625,10.12034984741211,7.0476603515625005,10.04264984741211,6.9218803515625C10.91558984741211,6.0185103515625,11.19006984741211,6.283660351562499,11.779199847412109,6.1211603515625C12.41457984741211,5.7440303515625,11.233889847412108,6.2682403515625005,11.535149847412109,5.9773303515625C12.63347984741211,5.696760351562499,12.313559847412108,5.339510351562501,13.74640984741211,5.1971003515625C13.89754984741211,5.2831203515625,13.395649847412109,5.3299803515625,13.26966984741211,5.4415603515625C14.18480984741211,4.9938303515625,16.16559984741211,5.0956703515625,17.45219984741211,5.6900703515625C18.94509984741211,6.3877303515624995,20.62239984741211,8.450090351562501,20.68849984741211,10.3905203515625L20.76379984741211,10.4108003515625C20.72569984741211,11.1821103515625,20.881899847412107,12.0741203515625,20.61129984741211,12.8935003515625L20.79549984741211,12.5056203515625Z" fill="#A80030" fill-opacity="1"/></g><g><path d="M11.74383719116211,15.1241455078125L11.69271469116211,15.3797585078125C11.93230169116211,15.7051585078125,12.12238869116211,16.0577425078125,12.42831369116211,16.3121355078125C12.208200691162109,15.8824655078125,12.044689691162109,15.7049555078125,11.74383719116211,15.1241455078125Z" fill="#A80030" fill-opacity="1"/></g><g><path d="M12.310098659912109,15.101900859375C12.18330565991211,14.961718859375,12.10824525991211,14.792933859375,12.02425765991211,14.624755859375C12.104593259912109,14.920334859375,12.269119659912109,15.174324859375,12.42228465991211,15.432574859375L12.310098659912109,15.101900859375Z" fill="#A80030" fill-opacity="1"/></g><g><path d="M22.33262156616211,12.9234619140625L22.27906456616211,13.0577599140625C22.18087656616211,13.7552199140625,21.96888056616211,14.4453719140625,21.64388656616211,15.085221914062501C22.00296156616211,14.4100819140625,22.23524456616211,13.6716379140625,22.33262156616211,12.9234619140625Z" fill="#A80030" fill-opacity="1"/></g><g><path d="M14.41295259741211,3.10894C14.65943759741211,3.0186638,15.01891859741211,3.0594403,15.28041859741211,3C14.93959759741211,3.0286044,14.60040259741211,3.0456453,14.26546859741211,3.0888561L14.41295259741211,3.10894Z" fill="#A80030" fill-opacity="1"/></g><g><path d="M5.759442597412109,7.71044921875C5.8162455974121094,8.23628321875,5.363849597412109,8.44036721875,5.85965859741211,8.09366621875C6.125415597412109,7.49500321875,5.755790597412109,7.92832921875,5.759442597412109,7.71044921875Z" fill="#A80030" fill-opacity="1"/></g><g><path d="M5.17665714741211,10.1440048828125C5.2908718474121095,9.7934498828125,5.311563847412109,9.5828728828125,5.355180847412109,9.3800048828125C5.0395188474121095,9.7835088828125,5.20992744741211,9.8695248828125,5.17665714741211,10.1440048828125Z" fill="#A80030" fill-opacity="1"/></g></g></g></g></svg>