<svg xmlns="http://www.w3.org/2000/svg" xmlns:xlink="http://www.w3.org/1999/xlink" fill="none" version="1.1" width="16" height="16" viewBox="0 0 16 16"><g><g><path d="M6.90905015625,3.09091C6.76438015625,3.09091,6.62565015625,3.14838,6.52335015625,3.25067C6.42106015625,3.35296,6.36359015625,3.4917,6.36359015625,3.63636L6.36359015625,4.18182L9.636320156250001,4.18182L9.636320156250001,3.63636C9.636320156250001,3.4917,9.57883015625,3.35296,9.476560156249999,3.25067C9.37428015625,3.14838,9.23552015625,3.09091,9.090860156249999,3.09091L6.90905015625,3.09091ZM10.72723015625,4.18182L10.72723015625,3.63636C10.72723015625,3.20237,10.55481015625,2.786158,10.24794015625,2.47928C9.94106015625,2.172402,9.524830156250001,2,9.090860156249999,2L6.90905015625,2C6.4750601562500005,2,6.05884015625,2.172402,5.75196015625,2.47928C5.44508015625,2.786158,5.27268015625,3.20237,5.27268015625,3.63636L5.27268015625,4.18182L3.09086515625,4.18182C2.78961815625,4.18182,2.54541015625,4.42603,2.54541015625,4.72727C2.54541015625,5.02852,2.78961815625,5.27273,3.09086515625,5.27273L3.63632015625,5.27273L3.63632015625,12.3636C3.63632015625,12.7977,3.8087201562499997,13.2138,4.11560015625,13.5207C4.42248015625,13.8276,4.83869015625,14,5.27268015625,14L10.72723015625,14C11.16125015625,14,11.57743015625,13.8276,11.88430015625,13.5207C12.19118015625,13.2138,12.36359015625,12.7977,12.36359015625,12.3636L12.36359015625,5.27273L12.90901015625,5.27273C13.21031015625,5.27273,13.45451015625,5.02852,13.45451015625,4.72727C13.45451015625,4.42603,13.21031015625,4.18182,12.90901015625,4.18182L10.72723015625,4.18182ZM4.72723015625,5.27273L4.72723015625,12.3636C4.72723015625,12.5083,4.7847001562500004,12.6471,4.88699015625,12.7493C4.98928015625,12.8516,5.12802015625,12.9091,5.27268015625,12.9091L10.72723015625,12.9091C10.87188015625,12.9091,11.01065015625,12.8516,11.11292015625,12.7493C11.21519015625,12.6471,11.27268015625,12.5083,11.27268015625,12.3636L11.27268015625,5.27273L4.72723015625,5.27273ZM6.90905015625,6.90909C7.21029015625,6.90909,7.45450015625,7.1533,7.45450015625,7.45455L7.45450015625,10.72727C7.45450015625,11.02853,7.21029015625,11.27273,6.90905015625,11.27273C6.60780015625,11.27273,6.36359015625,11.02853,6.36359015625,10.72727L6.36359015625,7.45455C6.36359015625,7.1533,6.60780015625,6.90909,6.90905015625,6.90909ZM8.54541015625,7.45455C8.54541015625,7.1533,8.78961015625,6.90909,9.090860156249999,6.90909C9.39212015625,6.90909,9.636320156250001,7.1533,9.636320156250001,7.45455L9.636320156250001,10.72727C9.636320156250001,11.02853,9.39212015625,11.27273,9.090860156249999,11.27273C8.78961015625,11.27273,8.54541015625,11.02853,8.54541015625,10.72727L8.54541015625,7.45455Z" fill-rule="evenodd" fill="#FFFFFF" fill-opacity="0.8500000238418579"/></g></g></svg>