<svg xmlns="http://www.w3.org/2000/svg" xmlns:xlink="http://www.w3.org/1999/xlink" fill="none" version="1.1" width="12" height="12" viewBox="0 0 12 12"><g><g><path d="M4.16569,10.09776C4.16569,10.32025,4.32545,10.5,4.52345,10.5C4.52345,10.5,7.47556,10.5,7.47556,10.5C7.67357,10.5,7.83333,10.32025,7.83333,10.09776C7.83333,10.09776,7.83333,7.63408,7.83333,7.63408C7.83333,7.63408,4.16569,7.63408,4.16569,7.63408C4.16569,7.63408,4.16569,10.09776,4.16569,10.09776ZM10.14079,1.5C10.14079,1.5,1.85823,1.5,1.85823,1.5C1.5825947,1.5,1.4104634,1.835615,1.5488436,2.103352C1.5488436,2.103352,4.03856,6.82961,4.03856,6.82961C4.03856,6.82961,7.96271,6.82961,7.96271,6.82961C7.96271,6.82961,10.45242,2.103352,10.45242,2.103352C10.58855,1.835615,10.41642,1.5,10.14079,1.5C10.14079,1.5,10.14079,1.5,10.14079,1.5Z" fill="#FFFFFF" fill-opacity="0.8500000238418579"/></g></g></svg>