<svg xmlns="http://www.w3.org/2000/svg" xmlns:xlink="http://www.w3.org/1999/xlink" fill="none" version="1.1" width="20" height="20" viewBox="0 0 20 20"><defs><clipPath id="master_svg0_2759_45957/2980_31007"><rect x="0" y="0" width="20" height="20" rx="10"/></clipPath><clipPath id="master_svg1_2759_45957/2980_31007/19087_56561"><rect x="0" y="0" width="20" height="20" rx="0"/></clipPath></defs><g clip-path="url(#master_svg0_2759_45957/2980_31007)"><rect x="0" y="0" width="20" height="20" rx="10" fill="#1D222A" fill-opacity="1"/><g clip-path="url(#master_svg1_2759_45957/2980_31007/19087_56561)"><g><path d="M13.80841,6.60607C12.11655,7.07503,11.80869,8.40554,11.92413,9.24966C10.711929999999999,7.86289,10.76965,6.28718,10.76965,4C6.90352,5.42564,7.80786,9.51228,7.692410000000001,10.75034Q6.73035,9.98124,6.53793,8.125499999999999C5.519516,8.63198,5,10.01876,5,11.125499999999999C5,13.82537,7.23062,16,10,16C12.76938,16,15,13.82537,15,11.125499999999999C15,9.53104,13.78917,8.78071,13.80841,6.60607Z" fill="#FF4550" fill-opacity="1"/></g></g></g></svg>