<svg xmlns="http://www.w3.org/2000/svg" xmlns:xlink="http://www.w3.org/1999/xlink" fill="none" version="1.1" width="20" height="20" viewBox="0 0 20 20"><defs><clipPath id="master_svg0_1282_33704"><rect x="0" y="0" width="20" height="20" rx="0"/></clipPath></defs><g clip-path="url(#master_svg0_1282_33704)"><g><path d="M18,10C18,14.4183,14.4183,18,10,18C5.58172,18,2,14.4183,2,10C2,5.58172,5.58172,2,10,2C14.4183,2,18,5.58172,18,10ZM17,10C17,13.866,13.866,17,10,17C6.13401,17,3,13.866,3,10C3,6.13401,6.13401,3,10,3C13.866,3,17,6.13401,17,10ZM9.99996,5.78571C10.74996,5.78571,11.45711,6.04285,11.99282,6.51249C12.55,6.99999,12.8571,7.65535,12.8553,8.35713C12.8553,9.38928,12.175,10.31785,11.12139,10.72321C10.79104,10.84999,10.56961,11.17142,10.56961,11.52321L10.56961,11.92856C10.56961,12.0071,10.50532,12.0714,10.42675,12.0714L9.56961,12.0714C9.49104,12.0714,9.42675,12.0071,9.42675,11.92856L9.42675,11.54463C9.42675,11.13213,9.54818,10.72499,9.78211,10.38571C10.01246,10.05356,10.33389,9.799990000000001,10.71247,9.65535C11.32139,9.421420000000001,11.71425,8.91249,11.71425,8.35713C11.71425,7.56963,10.94461,6.92856,9.99996,6.92856C9.05532,6.92856,8.28568,7.56963,8.28568,8.35713L8.28568,8.49285C8.28568,8.57142,8.22139,8.63571,8.14282,8.63571L7.28568,8.63571C7.20711,8.63571,7.14282,8.57142,7.14282,8.49285L7.14282,8.35713C7.14282,7.65535,7.44997,6.99999,8.00711,6.51249C8.542819999999999,6.04463,9.24996,5.78571,9.99996,5.78571ZM10.00005,14.6429C10.39454,14.6429,10.71434,14.3231,10.71434,13.9286C10.71434,13.5341,10.39454,13.2143,10.00005,13.2143C9.60556,13.2143,9.28577,13.5341,9.28577,13.9286C9.28577,14.3231,9.60556,14.6429,10.00005,14.6429Z" fill-rule="evenodd" fill="#FFFFFF" fill-opacity="0.6000000238418579"/></g></g></svg>