<svg xmlns="http://www.w3.org/2000/svg" xmlns:xlink="http://www.w3.org/1999/xlink" fill="none" version="1.1" width="28" height="28" viewBox="0 0 28 28"><defs><clipPath id="master_svg0_523_7010"><rect x="0" y="0" width="28" height="28" rx="0"/></clipPath></defs><g clip-path="url(#master_svg0_523_7010)"><g></g><g><g><path d="M17.6821,15.275379828338624C19.1272,15.275379828338624,21.2197,14.974799828338623,21.2197,13.252249828338623C21.2196,13.120469828338624,21.208,12.988949828338622,21.185,12.859189828338623L20.3295,9.113529828338624C20.1329,8.292719828338623,19.9595,7.911209828338623,18.514499999999998,7.194449828338623C17.3931,6.616415828338623,14.9538,5.679999828338623,14.2254,5.679999828338623C13.5434,5.679999828338623,13.3468,6.547051828338623,12.54913,6.547051828338623C11.77457,6.547051828338623,11.20809,5.899652828338623,10.47977,5.899652828338623C9.78613,5.899652828338623,9.33526,6.373641828338623,8.98844,7.344739828338623Q8.01734,10.084619828338624,7.89017,10.489249828338622C7.87107,10.560819828338623,7.86327,10.634929828338624,7.86705,10.708899828338623C7.85549,11.772489828338623,12.05202,15.263819828338622,17.6821,15.275379828338624ZM21.4393,13.957459828338623C21.6358,14.905429828338622,21.6358,15.009479828338623,21.6358,15.125089828338623C21.6358,16.743599828338624,19.8208,17.645299828338622,17.4277,17.645299828338622C12.01734,17.645299828338622,7.28902,14.477689828338622,7.28902,12.385199828338623C7.28849,12.094989828338623,7.34751,11.807759828338623,7.46243,11.541269828338624C5.52023,11.633759828338622,3,11.980579828338623,3,14.200229828338623C3,17.841899828338622,11.62428,22.327399828338624,18.4451,22.327399828338624C23.6821,22.327399828338624,25,19.957499828338623,25,18.084599828338625C25,16.616399828338622,23.7283,14.951679828338623,21.4393,13.957459828338623Z" fill="#EE0000" fill-opacity="1"/></g><g><path d="M21.439090702819826,13.957474965057372C21.635590702819826,14.905444965057374,21.635590702819826,15.009494965057373,21.635590702819826,15.125104965057373C21.635590702819826,16.743604965057372,19.820590702819825,17.645334965057373,17.427490702819824,17.645334965057373C12.017120702819824,17.645334965057373,7.288794230859824,14.477704965057374,7.288794230859824,12.385214965057372C7.288262818819824,12.095004965057374,7.347283502819824,11.807774965057373,7.462204702819824,11.541284965057374L7.889950702819824,10.489264965057373C7.870847702819824,10.560831365057373,7.863046702819824,10.634942965057373,7.8668287028198245,10.708917965057372C7.8668287028198245,11.772504965057372,12.063360702819825,15.263834965057374,17.681890702819825,15.263834965057374C19.126990702819825,15.263834965057374,21.219390702819823,14.963254965057374,21.219390702819823,13.240704965057374C21.219390702819823,13.108924965057373,21.207790702819825,12.977404965057373,21.184790702819825,12.847644965057373L21.439090702819826,13.957474965057372Z" fill="#000000" fill-opacity="1"/></g></g></g></svg>