<svg xmlns="http://www.w3.org/2000/svg" xmlns:xlink="http://www.w3.org/1999/xlink" fill="none" version="1.1" width="20" height="20" viewBox="0 0 20 20"><defs><clipPath id="master_svg0_1141_26138"><rect x="0" y="0" width="20" height="20" rx="0"/></clipPath></defs><g clip-path="url(#master_svg0_1141_26138)"><g><path d="M6.54726671875,12.57621298828125C7.42350671875,14.03041298828125,9.01567671875,15.00001298828125,10.83349671875,15.00001298828125C13.59493671875,15.00001298828125,15.83353671875,12.76140298828125,15.83353671875,9.99998298828125C15.83353671875,7.23855298828125,13.59493671875,4.99998298828125,10.83349671875,4.99998298828125C8.69626671875,4.99998298828125,6.87222671875,6.34091298828125,6.15681671875,8.22735298828125L7.03792671875,7.63995298828125L7.96242671875,9.02670298828125L5.462426718750001,10.693362988281251C5.07948671875,10.94866298828125,4.56209671875,10.84518298828125,4.30680671875,10.46224298828125L2.64013671875,7.96224298828125L4.02688671875,7.03774298828125L4.53722671875,7.80324298828125C5.44517671875,5.20062298828125,7.92127671875,3.33331298828125,10.83349671875,3.33331298828125C14.51543671875,3.33331298828125,17.50013671875,6.31808298828125,17.50013671875,9.99998298828125C17.50013671875,13.68191298828125,14.51543671875,16.66661298828125,10.83349671875,16.66661298828125C8.407436718749999,16.66661298828125,6.28498671875,15.37021298828125,5.11972671875,13.43641298828125L6.54726671875,12.57621298828125Z" fill-rule="evenodd" fill="#FFFFFF" fill-opacity="0.6000000238418579"/></g></g></svg>