<svg xmlns="http://www.w3.org/2000/svg" xmlns:xlink="http://www.w3.org/1999/xlink" fill="none" version="1.1" width="24" height="24" viewBox="0 0 24 24"><g><g><g><path d="M18.865959399414063,18.1604L16.484659399414063,15.6151C17.452559399414064,14.45564,17.981959399414063,12.99332,17.980559399414062,11.48354C17.980559399414062,7.9084,15.069359399414063,5,11.489969399414061,5C7.911439399414062,5,5.0002593994140625,7.9084,5.0002593994140625,11.48354C5.0002593994140625,15.0587,7.911439399414062,17.967100000000002,11.489969399414061,17.967100000000002C12.427959399414062,17.967100000000002,13.331789399414063,17.7711,14.177819399414062,17.3861C14.346189399414062,17.316200000000002,14.463029399414063,17.1602,14.482609399414063,16.979100000000003C14.502189399414062,16.798000000000002,14.421389399414062,16.6206,14.271829399414063,16.5164C14.122279399414062,16.4122,13.927769399414062,16.3978,13.764439399414062,16.4787C12.064389399414061,17.2481,10.089739399414063,17.1032,8.520449399414062,16.094C6.951159399414062,15.0847,6.001569399414063,13.34897,5.998676399414062,11.48441C6.001569399414063,8.4556,8.458269399414062,6.00084,11.489969399414061,5.997467C14.521469399414062,6.00084,16.978259399414064,8.45492,16.982159399414062,11.48354C16.982159399414062,12.90624,16.439159399414063,14.25632,15.452159399414063,15.2818C15.360259399414062,15.377,15.310059399414062,15.5049,15.312459399414063,15.6371C15.314959399414063,15.7694,15.369859399414063,15.8952,15.465259399414062,15.987C15.480159399414063,16.0019,15.500259399414062,16.0071,15.516059399414063,16.019399999999997C15.530059399414062,16.0395,15.537059399414062,16.0631,15.553659399414062,16.0806L18.135559399414063,18.8403C18.225559399414063,18.9378,18.350859399414063,18.9953,18.483559399414062,18.9997C18.616259399414062,19.0042,18.745159399414064,18.955199999999998,18.841459399414063,18.8639C18.93835939941406,18.7738,18.995359399414063,18.649,18.999959399414063,18.5168C19.004559399414063,18.384700000000002,18.956359399414062,18.2562,18.865959399414063,18.159599999999998L18.865959399414063,18.1604Z" fill="#FFFFFF" fill-opacity="0.30000001192092896"/></g></g></g></svg>