<svg xmlns="http://www.w3.org/2000/svg" xmlns:xlink="http://www.w3.org/1999/xlink" fill="none" version="1.1" width="28" height="28" viewBox="0 0 28 28"><defs><clipPath id="master_svg0_778_16249"><rect x="0" y="0" width="28" height="28" rx="0"/></clipPath></defs><g clip-path="url(#master_svg0_778_16249)"><g><g><path d="M25,14Q25,14.27,24.9868,14.5397Q24.9735,14.8095,24.947,15.0782Q24.9206,15.3469,24.8809,15.614Q24.8413,15.8811,24.7886,16.146Q24.736,16.410800000000002,24.6704,16.672800000000002Q24.6047,16.9347,24.5264,17.1931Q24.448,17.4515,24.357,17.7058Q24.266,17.96,24.1627,18.2095Q24.0593,18.459,23.9439,18.7031Q23.8284,18.947200000000002,23.7011,19.1854Q23.5738,19.4235,23.435,19.6551Q23.2962,19.8867,23.1462,20.1113Q22.9962,20.3358,22.8353,20.5527Q22.6744,20.7696,22.5031,20.9783Q22.3318,21.1871,22.1505,21.3871Q21.9691,21.5872,21.7782,21.7782Q21.5872,21.9691,21.3872,22.1505Q21.1871,22.3318,20.9783,22.5031Q20.7696,22.6744,20.5527,22.8353Q20.3358,22.9961,20.1113,23.1462Q19.8867,23.2962,19.6551,23.435Q19.4235,23.5738,19.1854,23.7011Q18.947200000000002,23.8284,18.7031,23.9439Q18.459,24.0593,18.2095,24.1627Q17.96,24.266,17.7058,24.357Q17.4515,24.448,17.1931,24.5263Q16.9347,24.6047,16.672800000000002,24.6703Q16.410800000000002,24.736,16.146,24.7886Q15.8812,24.8413,15.614,24.8809Q15.3469,24.9206,15.0782,24.947Q14.8095,24.9735,14.5397,24.9867Q14.27,25,14,25Q13.73,25,13.4603,24.9867Q13.1905,24.9735,12.92181,24.947Q12.65308,24.9206,12.38597,24.8809Q12.11886,24.8413,11.85401,24.7886Q11.58916,24.736,11.32722,24.6703Q11.06528,24.6047,10.80687,24.5263Q10.54846,24.448,10.29421,24.357Q10.03996,24.266,9.790479999999999,24.1627Q9.541,24.0593,9.2969,23.9439Q9.05279,23.8284,8.81464,23.7011Q8.57649,23.5738,8.34487,23.435Q8.11325,23.2962,7.88873,23.1462Q7.6642,22.9961,7.44731,22.8353Q7.23041,22.6744,7.02168,22.5031Q6.81294,22.3318,6.61285,22.1505Q6.41277,21.9691,6.221830000000001,21.7782Q6.03088,21.5872,5.84954,21.3871Q5.66819,21.1871,5.4968900000000005,20.9783Q5.32558,20.7696,5.16472,20.5527Q5.0038599999999995,20.3358,4.85383,20.1113Q4.70381,19.8867,4.56499,19.6551Q4.42616,19.4235,4.29887,19.1854Q4.17157,18.947200000000002,4.05612,18.7031Q3.940663,18.459,3.837325,18.2095Q3.733988,17.96,3.6430160000000003,17.7058Q3.552043,17.4515,3.473656,17.1931Q3.395269,16.9347,3.329656,16.672800000000002Q3.264043,16.410800000000002,3.211362,16.146Q3.158681,15.8811,3.119058,15.614Q3.0794361,15.3469,3.052968,15.0782Q3.0265,14.8095,3.01325,14.5397Q3,14.27,3,14Q3,13.73,3.01325,13.4603Q3.0265,13.1905,3.052968,12.92181Q3.0794361,12.65308,3.119058,12.38596Q3.158681,12.11885,3.211362,11.854Q3.264043,11.58916,3.329656,11.32722Q3.395269,11.06527,3.473656,10.80687Q3.552043,10.54846,3.6430160000000003,10.29421Q3.733988,10.03996,3.837325,9.790479999999999Q3.940663,9.541,4.05612,9.296890000000001Q4.17157,9.05279,4.29887,8.81464Q4.42616,8.57649,4.56499,8.34487Q4.70381,8.11325,4.85383,7.88873Q5.0038599999999995,7.6642,5.16472,7.44731Q5.32558,7.23041,5.4968900000000005,7.02167Q5.66819,6.81293,5.84954,6.61285Q6.03088,6.41277,6.221830000000001,6.221830000000001Q6.41277,6.03088,6.61285,5.84954Q6.81294,5.66819,7.02168,5.49688Q7.23042,5.32558,7.44731,5.16472Q7.6642,5.0038599999999995,7.88873,4.85383Q8.11325,4.70381,8.34487,4.56499Q8.57649,4.42616,8.81464,4.29887Q9.05279,4.17157,9.2969,4.05612Q9.541,3.940663,9.790479999999999,3.837325Q10.03996,3.733987,10.29421,3.643015Q10.54846,3.552043,10.80687,3.473656Q11.06528,3.395269,11.32722,3.329656Q11.58916,3.264043,11.85401,3.211362Q12.11886,3.158681,12.38597,3.119058Q12.65308,3.079436,12.92181,3.052968Q13.1905,3.0265,13.4603,3.01325Q13.73,3,14,3Q14.27,3,14.5397,3.01325Q14.8095,3.0265,15.0782,3.052968Q15.3469,3.079436,15.614,3.119058Q15.8812,3.158681,16.146,3.211362Q16.410800000000002,3.264043,16.672800000000002,3.329656Q16.9347,3.395269,17.1931,3.473656Q17.4515,3.552043,17.7058,3.643015Q17.96,3.733987,18.2095,3.837325Q18.459,3.940663,18.7031,4.05612Q18.947200000000002,4.17157,19.1854,4.29887Q19.4235,4.42616,19.6551,4.56499Q19.8868,4.70381,20.1113,4.85383Q20.3358,5.0038599999999995,20.5527,5.16472Q20.7696,5.32558,20.9783,5.49688Q21.1871,5.66819,21.3872,5.84954Q21.5872,6.03088,21.7782,6.221830000000001Q21.9691,6.41277,22.1505,6.61285Q22.3318,6.81293,22.5031,7.02167Q22.6744,7.23041,22.8353,7.44731Q22.9962,7.6642,23.1462,7.88873Q23.2962,8.11325,23.435,8.34487Q23.5738,8.57649,23.7011,8.81464Q23.8284,9.05279,23.9439,9.296890000000001Q24.0593,9.541,24.1627,9.790479999999999Q24.266,10.03996,24.357,10.29421Q24.448,10.54846,24.5264,10.80687Q24.6047,11.06527,24.6703,11.32722Q24.736,11.58916,24.7886,11.854Q24.8413,12.11885,24.8809,12.38596Q24.9206,12.65308,24.947,12.92181Q24.9735,13.1905,24.9868,13.4603Q25,13.73,25,14Z" fill="#DD4814" fill-opacity="1"/></g><g><path d="M7.121008433227539,12.702065272216796C6.374694433227539,12.702065272216796,5.790628433227539,13.286135272216796,5.790628433227539,14.032445272216798C5.790628433227539,14.746315272216798,6.374694433227539,15.362825272216798,7.121008433227539,15.362825272216798C7.86732843322754,15.362825272216798,8.451388433227539,14.778755272216797,8.451388433227539,14.032445272216798C8.451388433227539,13.286135272216796,7.86732843322754,12.702065272216796,7.121008433227539,12.702065272216796ZM16.56352843322754,18.705035272216797C15.91452843322754,19.061935272216797,15.719828433227539,19.873135272216796,16.076728433227537,20.522135272216797C16.43372843322754,21.171135272216794,17.24492843322754,21.365735272216796,17.89382843322754,21.008835272216796C18.54282843322754,20.651935272216797,18.73752843322754,19.840735272216797,18.38062843322754,19.191735272216796C18.02362843322754,18.542735272216795,17.212428433227537,18.348035272216798,16.56352843322754,18.705035272216797ZM10.008908433227539,13.999995272216797C10.008908433227539,12.702065272216796,10.65787843322754,11.533925272216797,11.663768433227538,10.852505272216796L10.690328433227538,9.230085272216797C9.52217843322754,10.008845272216798,8.67851843322754,11.176995272216796,8.32158843322754,12.572275272216796C8.74341843322754,12.896755272216797,9.003008433227539,13.415925272216796,9.003008433227539,13.999995272216797C9.003008433227539,14.584075272216797,8.74341843322754,15.103245272216796,8.32158843322754,15.427725272216797C8.67851843322754,16.823005272216797,9.554628433227538,17.991135272216795,10.690328433227538,18.7699352722168L11.663768433227538,17.147535272216796C10.65787843322754,16.4660752722168,10.008908433227539,15.330385272216796,10.008908433227539,13.999995272216797ZM13.870268433227539,10.138645272216797C15.88202843322754,10.138645272216797,17.536928433227537,11.696165272216797,17.73162843322754,13.675515272216796L19.61362843322754,13.643065272216797C19.51632843322754,12.182885272216797,18.899728433227537,10.884955272216796,17.89382843322754,9.911505272216797C17.40712843322754,10.106195272216796,16.82302843322754,10.073745272216797,16.30392843322754,9.781715272216797C15.81712843322754,9.489675272216797,15.492678433227539,9.002945272216797,15.39533843322754,8.483775272216796C14.90861843322754,8.353985272216796,14.38943843322754,8.289085272216797,13.870258433227539,8.289085272216797C12.961708433227539,8.289085272216797,12.085598433227538,8.516225272216797,11.339288433227539,8.873155272216797L12.247838433227539,10.528025272216798C12.734558433227539,10.268435272216797,13.286178433227539,10.138645272216797,13.870268433227539,10.138645272216797ZM13.870268433227539,17.8613352722168C13.28620843322754,17.8613352722168,12.73457843322754,17.731535272216796,12.247848433227539,17.504435272216796L11.33929843322754,19.159335272216797C12.118058433227539,19.5486352722168,12.961718433227539,19.743335272216797,13.870268433227539,19.743335272216797C14.38943843322754,19.743335272216797,14.90861843322754,19.678435272216795,15.39534843322754,19.5486352722168C15.492688433227539,19.029535272216798,15.784728433227539,18.542735272216795,16.30392843322754,18.250735272216797C16.79062843322754,17.9587352722168,17.37472843322754,17.926235272216797,17.89382843322754,18.120935272216798C18.86732843322754,17.147535272216796,19.51632843322754,15.849555272216797,19.61362843322754,14.389375272216796L17.73162843322754,14.356935272216797C17.536928433227537,16.3362852722168,15.882128433227539,17.8613352722168,13.870268433227539,17.8613352722168ZM16.56352843322754,9.327435272216796C17.212428433227537,9.684365272216796,17.99122843322754,9.489675272216797,18.38062843322754,8.840705272216796C18.73752843322754,8.224185272216797,18.54282843322754,7.412979272216797,17.89382843322754,7.0235982722167964C17.24492843322754,6.666666272216797,16.46612843322754,6.861356772216797,16.076728433227537,7.510324272216797C15.719828433227539,8.159295272216797,15.946928433227539,8.970505272216798,16.56352843322754,9.327435272216796Z" fill="#FFFFFF" fill-opacity="1"/></g></g><g></g></g></svg>