<svg xmlns="http://www.w3.org/2000/svg" xmlns:xlink="http://www.w3.org/1999/xlink" fill="none" version="1.1" width="20" height="20" viewBox="0 0 20 20"><g><g><path d="M2,10C2,14.4183,5.58172,18,10,18C14.4183,18,18,14.4183,18,10C18,5.58172,14.4183,2,10,2C5.58172,2,2,5.58172,2,10ZM3.0666700000000002,10C3.0666700000000002,6.17083,6.17083,3.0666700000000002,10,3.0666700000000002C13.8292,3.0666700000000002,16.9333,6.17083,16.9333,10C16.9333,13.8292,13.8292,16.9333,10,16.9333C6.17083,16.9333,3.0666700000000002,13.8292,3.0666700000000002,10ZM10.53346,6.26668C10.53346,5.97213,10.29468,5.73335,10.00013,5.73335C9.705580000000001,5.73335,9.4668,5.97213,9.4668,6.26668L9.4668,10.80002C9.4668,11.09457,9.705580000000001,11.33335,10.00013,11.33335C10.29468,11.33335,10.53346,11.09457,10.53346,10.80002L10.53346,6.26668ZM10.00013,13.2C9.705580000000001,13.2,9.4668,13.4388,9.4668,13.7334C9.4668,14.0279,9.705580000000001,14.2667,10.00013,14.2667C10.29468,14.2667,10.53346,14.0279,10.53346,13.7334C10.53346,13.4388,10.29468,13.2,10.00013,13.2Z" fill-rule="evenodd" fill="#FFFFFF" fill-opacity="0.6000000238418579"/></g></g></svg>