<svg xmlns="http://www.w3.org/2000/svg" xmlns:xlink="http://www.w3.org/1999/xlink" fill="none" version="1.1" width="12" height="12" viewBox="0 0 12 12"><g><g><path d="M6.0001953125,10.799951171875C8.6511653125,10.799951171875,10.8001953125,8.650921171875,10.8001953125,5.999951171875C10.8001953125,3.348981171875,8.6511653125,1.199951171875,6.0001953125,1.199951171875C3.3492253125,1.199951171875,1.2001953125,3.348981171875,1.2001953125,5.999951171875C1.2001953125,8.650921171875,3.3492253125,10.799951171875,6.0001953125,10.799951171875ZM6.0003253125,4.628541171875C5.7162853125,4.628541171875,5.4860353125,4.398291171875,5.4860353125,4.114251171875C5.4860353125,3.830221171875,5.7162853125,3.599971171875,6.0003253125,3.599971171875C6.2843553125,3.599971171875,6.5146053125,3.830221171875,6.5146053125,4.114251171875C6.5146053125,4.398291171875,6.2843553125,4.628541171875,6.0003253125,4.628541171875ZM5.7432853125,8.399971171875C5.6961353125,8.399971171875,5.6575653125,8.361401171875,5.6575653125,8.314261171875L5.6575653125,5.399971171875C5.6575653125,5.352831171875,5.6961353125,5.314261171875,5.7432853125,5.314261171875L6.2575653125,5.314261171875C6.3047153125,5.314261171875,6.3432853125,5.352831171875,6.3432853125,5.399971171875L6.3432853125,8.314261171875C6.3432853125,8.361401171875,6.3047153125,8.399971171875,6.2575653125,8.399971171875L5.7432853125,8.399971171875Z" fill-rule="evenodd" fill="#FFFFFF" fill-opacity="0.44999998807907104"/></g></g></svg>