<svg xmlns="http://www.w3.org/2000/svg" xmlns:xlink="http://www.w3.org/1999/xlink" fill="none" version="1.1" width="20" height="20" viewBox="0 0 20 20"><defs><clipPath id="master_svg0_21188_55995"><rect x="0" y="0" width="20" height="20" rx="0"/></clipPath></defs><g clip-path="url(#master_svg0_21188_55995)"><g><path d="M4.1850000000000005,17.32899997138977L4.165,17.33299997138977C3.93469,17.37839997138977,3.70366,17.42009997138977,3.472,17.45799997138977C3.2729999999999997,17.48999997138977,3.12,17.281999971389773,3.199,17.095999971389773C3.28707,16.886299971389768,3.36844,16.673899971389773,3.443,16.458999971389773L3.4459999999999997,16.44799997138977C3.7083500000000003,15.69779997138977,3.88416,14.92009997138977,3.9699999999999998,14.12999997138977C2.743,12.89999997138977,2,11.28999997138977,2,9.52999997138977C2,5.663999971389771,5.582,2.5299999713897705,10,2.5299999713897705C14.418,2.5299999713897705,18,5.663999971389771,18,9.52999997138977C18,13.39599997138977,14.418,16.52999997138977,10,16.52999997138977C9.20767,16.53109997138977,8.41859,16.42819997138977,7.653,16.223999971389773C7.133,16.48699997138977,6.015,16.96599997138977,4.1850000000000005,17.32899997138977ZM4.91094,13.79249997138977C4.96055,13.93089997138977,4.979010000000001,14.078599971389771,4.965,14.22499997138977C4.8947199999999995,14.90259997138977,4.76147,15.57209997138977,4.567,16.22499997138977C5.961,15.90199997138977,6.814,15.52799997138977,7.201,15.33199997138977C7.42079,15.22059997138977,7.67398,15.19419997138977,7.912,15.25799997138977C8.59311,15.43959997138977,9.29513,15.53099997138977,10,15.52999997138977C13.996,15.52999997138977,17,12.72299997138977,17,9.52999997138977C17,6.33799997138977,13.996,3.5299999713897705,10,3.5299999713897705C6.004,3.5299999713897705,3,6.33799997138977,3,9.52999997138977C3,10.99799997138977,3.6180000000000003,12.35999997138977,4.678,13.42399997138977C4.7818000000000005,13.528199971389771,4.861330000000001,13.653999971389771,4.91094,13.79249997138977ZM6.70711,10.23710997138977C6.89464,10.04956997138977,7,9.79520997138977,7,9.52999997138977C7,9.26478997138977,6.89464,9.01042997138977,6.70711,8.82288997138977C6.51957,8.635359971389772,6.26521,8.52999997138977,6,8.52999997138977C5.73479,8.52999997138977,5.48043,8.635359971389772,5.29289,8.82288997138977C5.10536,9.01042997138977,5,9.26478997138977,5,9.52999997138977C5,9.79520997138977,5.10536,10.04956997138977,5.29289,10.23710997138977C5.48043,10.42463997138977,5.73479,10.52999997138977,6,10.52999997138977C6.26521,10.52999997138977,6.51957,10.42463997138977,6.70711,10.23710997138977ZM10.70711,10.23710997138977C10.89464,10.04956997138977,11,9.79520997138977,11,9.52999997138977C11,9.26478997138977,10.89464,9.01042997138977,10.70711,8.82288997138977C10.51957,8.635359971389772,10.26521,8.52999997138977,10,8.52999997138977C9.73479,8.52999997138977,9.48043,8.635359971389772,9.29289,8.82288997138977C9.105360000000001,9.01042997138977,9,9.26478997138977,9,9.52999997138977C9,9.79520997138977,9.105360000000001,10.04956997138977,9.29289,10.23710997138977C9.48043,10.42463997138977,9.73479,10.52999997138977,10,10.52999997138977C10.26521,10.52999997138977,10.51957,10.42463997138977,10.70711,10.23710997138977ZM14.7071,10.23710997138977C14.5196,10.42463997138977,14.2652,10.52999997138977,14,10.52999997138977C13.7348,10.52999997138977,13.4804,10.42463997138977,13.2929,10.23710997138977C13.1053,10.04956997138977,13,9.79520997138977,13,9.52999997138977C13,9.26478997138977,13.1053,9.01042997138977,13.2929,8.82288997138977C13.4804,8.635359971389772,13.7348,8.52999997138977,14,8.52999997138977C14.2652,8.52999997138977,14.5196,8.635359971389772,14.7071,8.82288997138977C14.8947,9.01042997138977,15,9.26478997138977,15,9.52999997138977C15,9.79520997138977,14.8947,10.04956997138977,14.7071,10.23710997138977Z" fill-rule="evenodd" fill="#FFFFFF" fill-opacity="0.6000000238418579"/></g></g></svg>