<svg xmlns="http://www.w3.org/2000/svg" xmlns:xlink="http://www.w3.org/1999/xlink" fill="none" version="1.1" width="20" height="20" viewBox="0 0 20 20"><defs><clipPath id="master_svg0_990_08083"><rect x="0" y="0" width="20" height="20" rx="0"/></clipPath></defs><g clip-path="url(#master_svg0_990_08083)"><g><path d="M16.7683,2.5L12.4619,2.5C11.45748,2.5,10.56364,2.985314,10.00154,3.73171C9.43943,2.985314,8.54559,2.5,7.54118,2.5L3.23171,2.5C2.552889,2.5,2,3.052889,2,3.73171L2,15.1151C2,15.7939,2.552889,16.3468,3.23171,16.3468L7.75619,16.3468C8.3613,16.9366,9.16299,17.2683,10.00153,17.2683C10.84008,17.2683,11.64177,16.9366,12.2469,16.3468L16.7683,16.3468C17.4471,16.3468,18,15.7939,18,15.1151L18,3.73171C18,3.052889,17.4471,2.5,16.7683,2.5ZM16.7683,15.1151L11.97965,15.1151C11.8015,15.1151,11.62949,15.1919,11.51276,15.3301C11.12881,15.7786,10.57593,16.0366,10.00154,16.0366C9.42714,16.0366,8.87426,15.7786,8.490300000000001,15.3301C8.37358,15.1919,8.20157,15.1151,8.02342,15.1151L3.23171,15.1151L3.23171,3.73171L7.53811,3.73171C8.55481,3.73171,9.38414,4.56105,9.38414,5.57775L9.38414,10.8087C9.38414,11.14964,9.66059,11.42302,9.99846,11.42302C10.33941,11.42302,10.61278,11.14657,10.61278,10.8087L10.61278,5.57775C10.61278,4.56105,11.44212,3.73171,12.4588,3.73171L16.7683,3.73171L16.7683,15.1151Z" fill="#FFFFFF" fill-opacity="1"/></g></g></svg>