<svg xmlns="http://www.w3.org/2000/svg" xmlns:xlink="http://www.w3.org/1999/xlink" fill="none" version="1.1" width="14" height="14" viewBox="0 0 14 14"><g><g><path d="M2.8,2.2C2.64087,2.2,2.48826,2.26322,2.37573,2.37573C2.26322,2.48826,2.2,2.64087,2.2,2.8L2.2,11.2C2.2,11.3591,2.26322,11.5118,2.37573,11.6243C2.48826,11.7368,2.64087,11.8,2.8,11.8L5.2,11.8C5.53137,11.8,5.8,12.0686,5.8,12.4C5.8,12.7314,5.53137,13,5.2,13L2.8,13C2.32261,13,1.8647740000000002,12.8103,1.527208,12.4728C1.189642,12.1352,1,11.6774,1,11.2L1,2.8C1,2.32261,1.189642,1.8647740000000002,1.527208,1.527208C1.8647740000000002,1.189642,2.32261,1,2.8,1L5.2,1C5.53137,1,5.8,1.268629,5.8,1.6C5.8,1.931368,5.53137,2.2,5.2,2.2L2.8,2.2ZM8.97574,3.57573C9.21004,3.34142,9.58996,3.34142,9.82426,3.57573L12.8243,6.57573C13.0586,6.81005,13.0586,7.18996,12.8243,7.42426L9.82426,10.42426C9.58996,10.65856,9.21004,10.65856,8.97574,10.42426C8.74144,10.18996,8.74144,9.81004,8.97574,9.57574L10.95148,7.6L5.2,7.6C4.86863,7.6,4.6,7.33138,4.6,7C4.6,6.66863,4.86863,6.4,5.2,6.4L10.95148,6.4L8.97574,4.42427C8.74144,4.18995,8.74144,3.81005,8.97574,3.57573Z" fill-rule="evenodd" fill="#FFFFFF" fill-opacity="0.8500000238418579"/></g></g></svg>