<svg xmlns="http://www.w3.org/2000/svg" xmlns:xlink="http://www.w3.org/1999/xlink" fill="none" version="1.1" width="211" height="64" viewBox="0 0 211 64"><g><g style="opacity:0;"></g><g><g><g><rect x="186.23936462402344" y="31.187034606933594" width="9.758752822875977" height="1.6686502695083618" rx="0.8343251347541809" fill="#FFFFFF" fill-opacity="1"/></g><g><path d="M196.00001525878906,26.336025C196.00001525878906,26.151116,195.84871525878907,26,195.66221525878908,26L182.32635525878905,26C181.59491425878906,26.00127454,181.00001525878906,26.593624,181.00001525878906,27.32051L181.00001525878906,36.679500000000004C181.00001525878906,37.407,181.59555625878906,37.9994,182.32763525878906,38L195.66151525878905,38C195.84741525878906,38,195.99941525878907,37.8495,195.99941525878907,37.664L195.99941525878907,36.6667C195.99941525878907,36.4818,195.84811525878905,36.3307,195.66151525878905,36.3307L183.15586525878905,36.3307C182.89174525878906,36.3307,182.67700525878905,36.1171,182.67700525878905,35.85441L182.67700525878905,28.14431C182.67700525878905,27.88162,182.89176525878906,27.66801,183.15586525878905,27.66801L195.66151525878905,27.66801C195.84741525878906,27.66801,195.99941525878907,27.51754,195.99941525878907,27.33199L195.99941525878907,26.33475L196.00001525878906,26.336025Z" fill="#FFFFFF" fill-opacity="1"/></g><g><path d="M155.43034762939453,27.6633L165.66230762939452,27.6633C165.84850762939453,27.6633,166.00000762939453,27.51261,166.00000762939453,27.32745L166.00000762939453,26.335852C166.00000762939453,26.150687,165.84850762939453,26,165.66230762939452,26L155.53627762939453,26C153.03510762939453,26,151.00000762939453,28.02405,151.00000762939453,30.51165L151.00000762939453,33.48835C151.00000762939453,35.97595,153.03509762939453,38,155.53627762939453,38L165.66230762939452,38C165.84850762939453,38,166.00000762939453,37.8493,166.00000762939453,37.6641L166.00000762939453,36.67C166.00000762939453,36.4848,165.84850762939453,36.3341,165.66230762939452,36.3341L155.43034762939453,36.3341C154.12711762939452,36.3341,152.67045762939452,34.99521,152.67045762939452,33.20293L152.67045762939452,30.797060000000002C152.67045762939452,29.00351,154.12775762939452,27.66329,155.43034762939453,27.6633Z" fill="#FFFFFF" fill-opacity="1"/></g><g><path d="M135.97050762939452,37.626L130.39667762939453,27.04989C129.97537762939453,26.392513,129.25479762939455,26,128.47000762939453,26C127.68520762939453,26,126.95500762939453,26.397618,126.52727762939453,27.07605L121.02921032939453,37.6273C120.98746422939453,37.707,120.99067845939453,37.800200000000004,121.03755952939453,37.8768C121.08444052939453,37.9534,121.16600462939454,37.9994,121.25655962939453,37.9994L122.45686762939454,37.9994C122.58467762939453,37.9994,122.70027762939453,37.9285,122.75806762939453,37.8155L127.74877762939454,28.02319C127.79758762939453,27.92044,127.84897762939453,27.83491,127.90547762939453,27.76215C128.16943762939454,27.4207,128.36081762939452,27.37475,128.51366762939452,27.37475C128.66651762939452,27.37475,128.85789762939453,27.4207,129.12184762939452,27.76215C129.17900762939453,27.83619,129.23037762939452,27.92235,129.28175762939452,28.03021L134.23710762939453,37.8149C134.29500762939452,37.9292,134.41050762939454,38,134.53900762939452,38L135.74380762939452,38C135.83440762939452,38,135.91590762939452,37.954,135.96280762939452,37.8775C136.00970762939454,37.8009,136.01230762939454,37.707,135.97050762939452,37.6273L135.97050762939452,37.626Z" fill="#FFFFFF" fill-opacity="1"/></g><g><path d="M105.99620381469727,28.01664C105.99620381469727,26.810499,104.75780381469727,26,103.60140381469726,26L92.08217381469727,26L91.33341981469727,26C91.14911181469726,26,91.00000381469727,26.149167,91.00000381469727,26.333546L91.00000381469727,37.6665C91.00000381469727,37.8508,91.14911181469726,38,91.33341981469727,38L92.01753381469726,38C92.20184381469727,38,92.35095381469726,37.8508,92.35095381469726,37.6665L92.35095381469726,33.64085L103.83250381469726,33.64085C105.02790381469727,33.64085,106.00000381469727,32.66837,106.00000381469727,31.47311L105.99620381469727,28.01729L105.99620381469727,28.01664ZM104.26440381469726,31.9347C104.02960381469727,32.1735,103.70250381469727,32.294489999999996,103.29230381469726,32.29513L92.51798381469726,32.29001C92.42583381469727,32.29001,92.35159381469727,32.21511,92.35159381469727,32.12356L92.35159381469727,27.50704C92.35159381469727,27.41485,92.42647381469726,27.34059,92.51798381469726,27.34059L103.28270381469727,27.34571C104.03920381469726,27.34571,104.65540381469727,27.96159,104.65540381469727,28.71703L104.65930381469727,30.09475C104.65800381469727,30.18246,104.65930381469727,30.27209,104.66060381469727,30.363C104.66700381469727,30.904609999999998,104.67460381469726,31.51856,104.26510381469727,31.93406L104.26440381469726,31.9347Z" fill="#FFFFFF" fill-opacity="1"/></g><g><path d="M61.00000389586,37.7139L61.00000389586,36.934C61.00000389586,36.7762,61.127663,36.6479,61.28596,36.6479L73.4411,36.6479C74.10810000000001,36.6479,74.6487,36.106899999999996,74.6487,35.43943L74.6487,34.33957C74.6487,33.97551,74.6666,33.379599999999996,74.4553,33.090270000000004C74.1757,32.70704,73.6191,32.71662,73.1404,32.71662C73.1296,32.71662,73.1187,32.71662,73.1072,32.71662L63.07894,32.71662C61.935747,32.67,61.0236167,31.73941,61.00127784,30.59293L61,30.549500000000002L61,28.32105C61,27.03917,62.03851,26,63.31958,26L75.71340000000001,26C75.8711,26,75.9994,26.127741,75.9994,26.286141L75.9994,27.066C75.9994,27.22376,75.8717,27.35214,75.714,27.35214L63.87554,27.35214C63.03362,27.35214,62.35128,28.03492,62.35128,28.87737L62.35128,29.95295C62.35128,30.33042,62.48915,30.70151,62.7566,30.96785C63.02405,31.234189999999998,63.35788,31.36768,63.72362,31.36768L74.0634,31.36768C75.0655,31.36768,75.9126,32.12774,75.9917,33.09794L76,33.1056L76,35.687889999999996C76,36.9627,74.96340000000001,38,73.6894,38L61.286603,38C61.128945,38,61.000646713,37.872299999999996,61.000646713,37.7139L61.00000389586,37.7139Z" fill="#FFFFFF" fill-opacity="1"/></g></g></g><g><g><g><path d="M12.210024,40.996700000000004C12.130145,41.152100000000004,12.274035,41.3281,12.44223,41.2806L17.66108,39.8078C17.71533,39.792500000000004,17.76061,39.754999999999995,17.78576,39.7046L22.823700000000002,29.59686C22.896900000000002,29.45017,23.1057,29.448880000000003,23.1806,29.59465L28.3785,39.7072C28.4037,39.7561,28.4478,39.792500000000004,28.5006,39.8078L33.5541,41.2759C33.7226,41.324799999999996,33.867999999999995,41.1485,33.787800000000004,40.9924L23.1779,20.346157C23.1035,20.201375,22.8965,20.201375,22.8221,20.346157L12.210024,40.996700000000004ZM19.439230000000002,39.6804C19.40756,39.7444,19.412399999999998,39.8204,19.45193,39.8798L22.1318,43.9107C22.1689,43.966499999999996,22.2314,44,22.2984,44L23.7016,44C23.7686,44,23.8311,43.966499999999996,23.8682,43.9107L26.548099999999998,39.8798C26.587600000000002,39.8204,26.592399999999998,39.7444,26.5608,39.6804L23.1792,32.8486C23.105800000000002,32.7002,22.894199999999998,32.7002,22.8208,32.8486L19.439230000000002,39.6804Z" fill="#2696FF" fill-opacity="1"/></g></g></g></g></svg>