<svg xmlns="http://www.w3.org/2000/svg" xmlns:xlink="http://www.w3.org/1999/xlink" fill="none" version="1.1" width="20" height="20" viewBox="0 0 20 20"><defs><clipPath id="master_svg0_990_08039"><rect x="0" y="0" width="20" height="20" rx="0"/></clipPath></defs><g clip-path="url(#master_svg0_990_08039)"><g><path d="M10,18C14.4183,18,18,14.4183,18,10C18,5.58172,14.4183,2,10,2C5.58172,2,2,5.58172,2,10C2,14.4183,5.58172,18,10,18ZM14.8083,5.19167Q16.8,7.18335,16.8,10Q16.8,12.8167,14.8083,14.8083Q12.8167,16.8,10,16.8Q7.18335,16.8,5.19167,14.8083Q3.2,12.8167,3.2,10Q3.2,7.18335,5.19167,5.19167Q7.18335,3.2,10,3.2Q12.8167,3.2,14.8083,5.19167ZM12.3228,6.15331L12.3277,6.15401L12.3537,6.15646L12.3813,6.16294L12.4035,6.16716L12.4157,6.17174L12.4322,6.17549L12.4612,6.18781L12.4892,6.19622L12.5001,6.20401L12.5074,6.20706L12.545,6.23057L12.5629,6.24111L12.5696,6.24446L12.6305,6.29663L13.9997,7.66585Q14.1502,7.81677,14.15,8.029779999999999Q14.1497,8.24278,13.9989,8.39322Q13.8481,8.54366,13.6351,8.54341Q13.4221,8.54316,13.2717,8.39237L12.7846,7.90571L12.7846,13.3381Q12.7846,13.7747,12.3537,13.8453L12.3478,13.8463L12.2768,13.8521L12.2706,13.8521Q12.0577,13.8521,11.90711,13.7016Q11.75656,13.551,11.75656,13.3381L11.75656,7.9047L11.26877,8.392489999999999Q10.96611,8.69549,10.61343,8.4524L10.60742,8.448260000000001L10.54659,8.39696L10.54206,8.392430000000001Q10.39173,8.24191,10.39173,8.02917Q10.39173,7.81644,10.54206,7.66592L11.91135,6.29663L11.96675,6.24914L11.9793,6.2413L11.99317,6.23205L12.033,6.20812L12.0538,6.19836L12.0738,6.19019L12.1089,6.17564L12.1256,6.17167L12.1385,6.16712L12.1591,6.163L12.1877,6.15646L12.2086,6.15444L12.2301,6.15013L12.2474,6.15137L12.2708,6.14948L12.2987,6.1518L12.3122,6.1518L12.3228,6.15331ZM7.64892,6.15534L7.71392,6.14998L7.7201,6.14998Q7.93302,6.14998,8.083580000000001,6.30054Q8.23414,6.4511,8.23414,6.66402L8.23414,12.0966L8.722010000000001,11.60953Q9.02458,11.30662,9.37727,11.5497L9.38327,11.55384L9.44411,11.60515L9.44863,11.60968Q9.59897,11.7602,9.59897,11.97294Q9.59897,12.1857,9.44863,12.3362L8.08342,13.7014Q8.05542,13.7294,8.02351,13.7528L8.01594,13.7583L8.00758,13.763L7.99805,13.7693L7.95685,13.7951L7.93424,13.8046L7.91624,13.8119L7.88171,13.8266L7.86518,13.8304L7.85298,13.8349L7.83081,13.8392L7.80325,13.8457L7.78233,13.8476L7.76197,13.852L7.74318,13.8507L7.72027,13.8526L7.69158,13.8503L7.6792,13.8503L7.66291,13.8481L7.63721,13.8456L7.60858,13.8391L7.58801,13.835L7.57432,13.8302L7.55887,13.8263L7.52914,13.8143L7.50507,13.8067L7.493,13.7991L7.48272,13.7945L7.44459,13.7712L7.42632,13.7598L7.42327,13.7574L7.42113,13.756L7.41669,13.7528Q7.38478,13.7294,7.3568,13.7014L5.98976,12.3344L5.98795,12.3324Q5.8464100000000006,12.1805,5.8500700000000005,11.97295Q5.8537300000000005,11.76535,6.00055,11.61853Q6.14736,11.47172,6.35496,11.46805Q6.56256,11.46439,6.71446,11.60594L6.71635,11.6077L7.20606,12.0966L7.20606,6.66402Q7.20614,6.22739,7.637,6.15681L7.64293,6.15584L7.64892,6.15534Z" fill-rule="evenodd" fill="#000000D9" fill-opacity="0.6000000238418579"/></g></g></svg>