<svg xmlns="http://www.w3.org/2000/svg" xmlns:xlink="http://www.w3.org/1999/xlink" fill="none" version="1.1" width="20" height="20" viewBox="0 0 20 20"><defs><clipPath id="master_svg0_990_08023"><rect x="0" y="0" width="20" height="20" rx="0"/></clipPath></defs><g clip-path="url(#master_svg0_990_08023)"><g><path d="M18,10C18,14.4183,14.4183,18,10,18C5.58172,18,2,14.4183,2,10C2,5.58172,5.58172,2,10,2C14.4183,2,18,5.58172,18,10ZM16.8,10Q16.8,7.18335,14.8083,5.19167Q12.8167,3.2,10,3.2Q7.18335,3.2,5.19167,5.19167Q3.2,7.18335,3.2,10Q3.2,12.8167,5.19167,14.8083Q7.18335,16.8,10,16.8Q12.8167,16.8,14.8083,14.8083Q16.8,12.8167,16.8,10ZM12.3228,6.15337L12.3277,6.15407L12.3537,6.15652L12.3813,6.163L12.4035,6.16723L12.4157,6.1718L12.4322,6.17555L12.4612,6.18787L12.4892,6.19628L12.5001,6.20407L12.5074,6.20712L12.545,6.23063L12.5629,6.24118L12.5696,6.24452L12.6305,6.29669L13.9997,7.66591Q14.1502,7.81683,14.15,8.02984Q14.1497,8.242840000000001,13.9989,8.39328Q13.8481,8.54373,13.6351,8.54347Q13.4221,8.54322,13.2717,8.392430000000001L12.7846,7.90577L12.7846,13.3381Q12.7846,13.7748,12.3537,13.8454L12.3478,13.8463L12.2768,13.8522L12.2706,13.8522Q12.0577,13.8522,11.90711,13.7016Q11.75656,13.5511,11.75656,13.3381L11.75656,7.90476L11.26877,8.39255Q10.96611,8.69555,10.61343,8.45246L10.60742,8.44833L10.54659,8.397020000000001L10.54206,8.392489999999999Q10.39173,8.24197,10.39173,8.02923Q10.39173,7.8165,10.54206,7.66598L11.91135,6.29669L11.96675,6.2492L11.9793,6.24136L11.99317,6.23211L12.033,6.20819L12.0538,6.19842L12.0738,6.19025L12.1089,6.1757L12.1256,6.17173L12.1385,6.16718L12.1591,6.16306L12.1877,6.15652L12.2086,6.1545L12.2301,6.15019L12.2474,6.15143L12.2708,6.14954L12.2987,6.15186L12.3122,6.15186L12.3228,6.15337ZM7.64892,6.1554L7.71392,6.15004L7.7201,6.15004Q7.93302,6.15004,8.083580000000001,6.3006Q8.23414,6.45116,8.23414,6.66408L8.23414,12.0967L8.722010000000001,11.60959Q9.02458,11.30668,9.37727,11.54976L9.38327,11.5539L9.44411,11.60521L9.44863,11.60974Q9.59897,11.76026,9.59897,11.973Q9.59897,12.1857,9.44863,12.3363L8.08342,13.7015Q8.05542,13.7295,8.02351,13.7528L8.01594,13.7584L8.00758,13.763L7.99805,13.7694L7.95685,13.7951L7.93424,13.8046L7.91624,13.812L7.88171,13.8267L7.86518,13.8304L7.85298,13.835L7.83081,13.8392L7.80325,13.8457L7.78233,13.8477L7.76197,13.852L7.74318,13.8508L7.72027,13.8527L7.69158,13.8504L7.6792,13.8504L7.66291,13.8482L7.63721,13.8457L7.60858,13.8392L7.58801,13.8351L7.57432,13.8302L7.55887,13.8264L7.52914,13.8143L7.50507,13.8067L7.493,13.7992L7.48272,13.7946L7.44459,13.7713L7.42632,13.7598L7.42327,13.7574L7.42113,13.7561L7.41669,13.7528Q7.38478,13.7295,7.3568,13.7015L5.98976,12.3344L5.98795,12.3325Q5.8464100000000006,12.1806,5.8500700000000005,11.97301Q5.8537300000000005,11.76541,6.00055,11.61859Q6.14736,11.47178,6.35496,11.46811Q6.56256,11.46445,6.71446,11.606L6.71635,11.60776L7.20606,12.0967L7.20606,6.66408Q7.20614,6.22745,7.637,6.15687L7.64293,6.1559L7.64892,6.1554Z" fill-rule="evenodd" fill="#FFFFFF" fill-opacity="1"/></g></g></svg>