<svg xmlns="http://www.w3.org/2000/svg" xmlns:xlink="http://www.w3.org/1999/xlink" fill="none" version="1.1" width="14" height="14" viewBox="0 0 14 14"><g><g><path d="M2.12087,6.45455C2.12087,6.45455,4.300050000000001,6.45455,4.300050000000001,6.45455C4.42235,4.94735,4.92678,3.50059,5.75948,2.249C3.81935,2.7541700000000002,2.34619,4.41631,2.12087,6.45455C2.12087,6.45455,2.12087,6.45455,2.12087,6.45455ZM7,2.39135C6.08927,3.56469,5.53207,4.974629999999999,5.39505,6.45455C5.39505,6.45455,8.604949999999999,6.45455,8.604949999999999,6.45455C8.467929999999999,4.974629999999999,7.91074,3.56469,7,2.39135C7,2.39135,7,2.39135,7,2.39135ZM8.604949999999999,7.54545C8.467929999999999,9.02538,7.91074,10.43533,7,11.6087C6.08927,10.43533,5.53207,9.02538,5.39505,7.54545C5.39505,7.54545,8.604949999999999,7.54545,8.604949999999999,7.54545C8.604949999999999,7.54545,8.604949999999999,7.54545,8.604949999999999,7.54545ZM4.300050000000001,7.54545C4.300050000000001,7.54545,2.12087,7.54545,2.12087,7.54545C2.34619,9.58371,3.81935,11.2458,5.75948,11.751C4.92678,10.49942,4.42235,9.05265,4.300050000000001,7.54545C4.300050000000001,7.54545,4.300050000000001,7.54545,4.300050000000001,7.54545ZM8.24053,11.751C9.07322,10.49942,9.57765,9.05265,9.69995,7.54545C9.69995,7.54545,11.8791,7.54545,11.8791,7.54545C11.6538,9.58371,10.18065,11.2458,8.24053,11.751C8.24053,11.751,8.24053,11.751,8.24053,11.751ZM11.8791,6.45455C11.8791,6.45455,9.69995,6.45455,9.69995,6.45455C9.57765,4.94735,9.07322,3.50059,8.24053,2.249C10.18065,2.7541700000000002,11.6538,4.41631,11.8791,6.45455C11.8791,6.45455,11.8791,6.45455,11.8791,6.45455ZM1,7C1,3.68629,3.68629,1,7,1C10.31369,1,13,3.68629,13,7C13,10.31369,10.31369,13,7,13C3.68629,13,1,10.31369,1,7C1,7,1,7,1,7Z" fill-rule="evenodd" fill="#000000D9" fill-opacity="1"/></g></g></svg>