<svg xmlns="http://www.w3.org/2000/svg" xmlns:xlink="http://www.w3.org/1999/xlink" fill="none" version="1.1" width="14" height="14" viewBox="0 0 14 14"><g><g><path d="M7,13C10.31371,13,13,10.31371,13,7C13,3.68629,10.31371,1,7,1C3.68629,1,1,3.68629,1,7C1,10.31371,3.68629,13,7,13ZM4.30003,6.45454L2.12085,6.45454C2.34617,4.41631,3.81933,2.7541599999999997,5.75946,2.24899C4.92676,3.50059,4.42232,4.94735,4.30003,6.45454ZM9.69992,6.45454C9.57763,4.94735,9.0732,3.50059,8.24051,2.24899C10.18063,2.7541599999999997,11.6538,4.41631,11.8791,6.45454L9.69992,6.45454ZM8.60492,6.45454L5.39503,6.45454C5.53205,4.974629999999999,6.08924,3.56469,6.99998,2.39134C7.91072,3.56469,8.46791,4.974629999999999,8.60492,6.45454ZM5.75946,11.751C3.81933,11.2458,2.34617,9.5837,2.12085,7.54545L4.30003,7.54545C4.42232,9.05265,4.92676,10.49941,5.75946,11.751ZM6.99998,11.6087C6.08924,10.43532,5.53205,9.02538,5.39503,7.54545L8.60492,7.54545C8.46791,9.02538,7.91072,10.43532,6.99998,11.6087ZM11.8791,7.54545C11.6538,9.5837,10.18063,11.2458,8.24051,11.751C9.0732,10.49941,9.57763,9.05265,9.69992,7.54545L11.8791,7.54545Z" fill-rule="evenodd" fill="#D8D8D8" fill-opacity="1"/></g></g></svg>