<svg xmlns="http://www.w3.org/2000/svg" xmlns:xlink="http://www.w3.org/1999/xlink" fill="none" version="1.1" width="24" height="24" viewBox="0 0 24 24"><defs><clipPath id="master_svg0_20959_75460/985_07880"><rect x="0" y="0" width="24" height="24" rx="0"/></clipPath></defs><g clip-path="url(#master_svg0_20959_75460/985_07880)"><g><path d="M24,12Q24,12.2946,23.9855,12.5888Q23.9711,12.883,23.9422,13.1762Q23.9133,13.4694,23.8701,13.7608Q23.8269,14.0522,23.7694,14.3411Q23.712,14.63,23.6404,14.9158Q23.5688,15.2015,23.4833,15.4834Q23.3978,15.7653,23.2985,16.0427Q23.1993,16.32,23.0866,16.5922Q22.9738,16.8644,22.8479,17.1307Q22.7219,17.397,22.5831,17.6568Q22.4442,17.9166,22.2927,18.1692Q22.1413,18.4219,21.9776,18.6668Q21.814,18.9118,21.6385,19.1484Q21.463,19.385,21.2761,19.6127Q21.0892,19.8404,20.8914,20.0587Q20.6936,20.277,20.4853,20.4853Q20.277,20.6936,20.0587,20.8914Q19.8404,21.0892,19.6127,21.2761Q19.385,21.463,19.1484,21.6385Q18.9118,21.814,18.6668,21.9776Q18.4219,22.1413,18.1692,22.2927Q17.9166,22.4442,17.6568,22.5831Q17.397,22.7219,17.1307,22.8479Q16.8644,22.9738,16.5922,23.0866Q16.32,23.1993,16.0427,23.2985Q15.7653,23.3978,15.4834,23.4833Q15.2015,23.5688,14.9158,23.6404Q14.63,23.712,14.3411,23.7694Q14.0522,23.8269,13.7608,23.8701Q13.4694,23.9133,13.1762,23.9422Q12.883,23.9711,12.5888,23.9855Q12.2946,24,12,24Q11.7054,24,11.4112,23.9855Q11.117,23.9711,10.8238,23.9422Q10.5306,23.9133,10.2392,23.8701Q9.94784,23.8269,9.65892,23.7694Q9.36999,23.712,9.08424,23.6404Q8.79848,23.5688,8.51658,23.4833Q8.23468,23.3978,7.95732,23.2985Q7.67996,23.1993,7.4078,23.0866Q7.13564,22.9738,6.86934,22.8479Q6.60304,22.7219,6.34324,22.5831Q6.08344,22.4442,5.83077,22.2927Q5.57809,22.1413,5.33316,21.9776Q5.08822,21.814,4.85161,21.6385Q4.615,21.463,4.38728,21.2761Q4.15956,21.0892,3.94129,20.8914Q3.72302,20.6936,3.51472,20.4853Q3.30642,20.277,3.10859,20.0587Q2.91076,19.8404,2.72387,19.6127Q2.53699,19.385,2.36151,19.1484Q2.18603,18.9118,2.02236,18.6668Q1.8587,18.4219,1.70726,18.1692Q1.55581,17.9166,1.41694,17.6568Q1.27808,17.397,1.15213,17.1307Q1.02618,16.8644,0.913446,16.5922Q0.800713,16.32,0.701471,16.0427Q0.602229,15.7653,0.516716,15.4834Q0.431203,15.2015,0.359625,14.9158Q0.288047,14.63,0.230577,14.3411Q0.173106,14.0522,0.129882,13.7608Q0.0866575,13.4694,0.0577833,13.1762Q0.028909,12.883,0.0144545,12.5888Q0,12.2946,0,12Q0,11.7054,0.0144545,11.4112Q0.028909,11.117,0.0577833,10.8238Q0.0866575,10.5306,0.129882,10.2392Q0.173106,9.94784,0.230577,9.65892Q0.288047,9.36999,0.359625,9.08424Q0.431203,8.79848,0.516716,8.51658Q0.602229,8.23468,0.701471,7.95732Q0.800713,7.67996,0.913446,7.4078Q1.02618,7.13564,1.15213,6.86934Q1.27808,6.60304,1.41694,6.34324Q1.55581,6.08344,1.70726,5.83077Q1.8587,5.57809,2.02236,5.33316Q2.18603,5.08822,2.36151,4.85161Q2.53699,4.615,2.72387,4.38728Q2.91076,4.15956,3.10859,3.94129Q3.30642,3.72302,3.51472,3.51472Q3.72302,3.30642,3.94129,3.10859Q4.15956,2.91076,4.38728,2.72387Q4.615,2.53699,4.85161,2.36151Q5.08822,2.18603,5.33316,2.02236Q5.57809,1.8587,5.83077,1.70726Q6.08344,1.55581,6.34324,1.41694Q6.60304,1.27808,6.86934,1.15213Q7.13564,1.02618,7.4078,0.913446Q7.67996,0.800713,7.95732,0.701471Q8.23468,0.602229,8.51658,0.516716Q8.79848,0.431203,9.08424,0.359625Q9.36999,0.288047,9.65892,0.230577Q9.94784,0.173106,10.2392,0.129882Q10.5306,0.0866575,10.8238,0.0577833Q11.117,0.028909,11.4112,0.0144545Q11.7054,0,12,0Q12.2946,0,12.5888,0.0144545Q12.883,0.028909,13.1762,0.0577833Q13.4694,0.0866575,13.7608,0.129882Q14.0522,0.173106,14.3411,0.230577Q14.63,0.288047,14.9158,0.359625Q15.2015,0.431203,15.4834,0.516716Q15.7653,0.602229,16.0427,0.701471Q16.32,0.800713,16.5922,0.913446Q16.8644,1.02618,17.1307,1.15213Q17.397,1.27808,17.6568,1.41694Q17.9166,1.55581,18.1692,1.70726Q18.4219,1.8587,18.6668,2.02236Q18.9118,2.18603,19.1484,2.36151Q19.385,2.53699,19.6127,2.72387Q19.8404,2.91076,20.0587,3.10859Q20.277,3.30642,20.4853,3.51472Q20.6936,3.72302,20.8914,3.94129Q21.0892,4.15956,21.2761,4.38728Q21.463,4.615,21.6385,4.85161Q21.814,5.08822,21.9776,5.33316Q22.1413,5.57809,22.2927,5.83077Q22.4442,6.08344,22.5831,6.34324Q22.7219,6.60304,22.8479,6.86934Q22.9738,7.13564,23.0866,7.4078Q23.1993,7.67996,23.2985,7.95732Q23.3978,8.23468,23.4833,8.51658Q23.5688,8.79848,23.6404,9.08424Q23.712,9.36999,23.7694,9.65892Q23.8269,9.94784,23.8701,10.2392Q23.9133,10.5306,23.9422,10.8238Q23.9711,11.117,23.9855,11.4112Q24,11.7054,24,12ZM23,12Q23,12.27,22.9867,12.5397Q22.9735,12.8095,22.947,13.0782Q22.9206,13.3469,22.8809,13.614Q22.8413,13.8811,22.7886,14.146Q22.736,14.4108,22.6703,14.6728Q22.6047,14.9347,22.5263,15.1931Q22.448,15.4515,22.357,15.7058Q22.266,15.96,22.1627,16.2095Q22.0593,16.459,21.9439,16.7031Q21.8284,16.9472,21.7011,17.1854Q21.5738,17.4235,21.435,17.6551Q21.2962,17.8867,21.1462,18.1113Q20.9961,18.3358,20.8353,18.5527Q20.6744,18.7696,20.5031,18.9783Q20.3318,19.1871,20.1505,19.3871Q19.9691,19.5872,19.7782,19.7782Q19.5872,19.9691,19.3871,20.1505Q19.1871,20.3318,18.9783,20.5031Q18.7696,20.6744,18.5527,20.8353Q18.3358,20.9961,18.1113,21.1462Q17.8867,21.2962,17.6551,21.435Q17.4235,21.5738,17.1854,21.7011Q16.9472,21.8284,16.7031,21.9439Q16.459,22.0593,16.2095,22.1627Q15.96,22.266,15.7058,22.357Q15.4515,22.448,15.1931,22.5263Q14.9347,22.6047,14.6728,22.6703Q14.4108,22.736,14.146,22.7886Q13.8811,22.8413,13.614,22.8809Q13.3469,22.9206,13.0782,22.947Q12.8095,22.9735,12.5397,22.9867Q12.27,23,12,23Q11.73,23,11.4603,22.9867Q11.1905,22.9735,10.9218,22.947Q10.6531,22.9206,10.386,22.8809Q10.1189,22.8413,9.85401,22.7886Q9.58916,22.736,9.32722,22.6703Q9.06527,22.6047,8.80687,22.5263Q8.54846,22.448,8.29421,22.357Q8.03996,22.266,7.79048,22.1627Q7.541,22.0593,7.29689,21.9439Q7.05278,21.8284,6.81464,21.7011Q6.57649,21.5738,6.34487,21.435Q6.11325,21.2962,5.88873,21.1462Q5.6642,20.9961,5.44731,20.8353Q5.23041,20.6744,5.02167,20.5031Q4.81293,20.3318,4.61285,20.1505Q4.41277,19.9691,4.22183,19.7782Q4.03088,19.5872,3.84954,19.3871Q3.66819,19.1871,3.49688,18.9783Q3.32558,18.7696,3.16472,18.5527Q3.00386,18.3358,2.85383,18.1113Q2.70381,17.8867,2.56499,17.6551Q2.42616,17.4235,2.29887,17.1854Q2.17157,16.9472,2.05612,16.7031Q1.94066,16.459,1.83732,16.2095Q1.73399,15.96,1.64302,15.7058Q1.55204,15.4515,1.47366,15.1931Q1.39527,14.9347,1.32966,14.6728Q1.26404,14.4108,1.21136,14.146Q1.15868,13.8811,1.11906,13.614Q1.07944,13.3469,1.05297,13.0782Q1.0265,12.8095,1.01325,12.5397Q1,12.27,1,12Q1,11.73,1.01325,11.4603Q1.0265,11.1905,1.05297,10.9218Q1.07944,10.6531,1.11906,10.386Q1.15868,10.1189,1.21136,9.85401Q1.26404,9.58916,1.32966,9.32722Q1.39527,9.06527,1.47366,8.80687Q1.55204,8.54846,1.64301,8.29421Q1.73399,8.03996,1.83732,7.79048Q1.94066,7.541,2.05612,7.29689Q2.17157,7.05278,2.29887,6.81464Q2.42616,6.57649,2.56499,6.34487Q2.70381,6.11325,2.85383,5.88873Q3.00386,5.6642,3.16472,5.44731Q3.32558,5.23041,3.49688,5.02167Q3.66819,4.81293,3.84954,4.61285Q4.03088,4.41277,4.22183,4.22183Q4.41277,4.03088,4.61285,3.84954Q4.81293,3.66819,5.02167,3.49688Q5.23041,3.32558,5.44731,3.16472Q5.6642,3.00386,5.88873,2.85383Q6.11325,2.70381,6.34487,2.56499Q6.57649,2.42616,6.81464,2.29887Q7.05278,2.17157,7.29689,2.05612Q7.541,1.94066,7.79048,1.83732Q8.03996,1.73399,8.29421,1.64302Q8.54846,1.55204,8.80687,1.47366Q9.06527,1.39527,9.32722,1.32966Q9.58916,1.26404,9.85401,1.21136Q10.1189,1.15868,10.386,1.11906Q10.6531,1.07944,10.9218,1.05297Q11.1905,1.0265,11.4603,1.01325Q11.73,1,12,1Q12.27,1,12.5397,1.01325Q12.8095,1.0265,13.0782,1.05297Q13.3469,1.07944,13.614,1.11906Q13.8811,1.15868,14.146,1.21136Q14.4108,1.26404,14.6728,1.32966Q14.9347,1.39527,15.1931,1.47366Q15.4515,1.55204,15.7058,1.64302Q15.96,1.73399,16.2095,1.83732Q16.459,1.94066,16.7031,2.05612Q16.9472,2.17157,17.1854,2.29887Q17.4235,2.42616,17.6551,2.56499Q17.8867,2.70381,18.1113,2.85383Q18.3358,3.00386,18.5527,3.16472Q18.7696,3.32558,18.9783,3.49688Q19.1871,3.66819,19.3871,3.84954Q19.5872,4.03088,19.7782,4.22183Q19.9691,4.41277,20.1505,4.61285Q20.3318,4.81293,20.5031,5.02167Q20.6744,5.23041,20.8353,5.44731Q20.9961,5.6642,21.1462,5.88873Q21.2962,6.11325,21.435,6.34487Q21.5738,6.57649,21.7011,6.81464Q21.8284,7.05278,21.9439,7.29689Q22.0593,7.541,22.1627,7.79048Q22.266,8.03996,22.357,8.29421Q22.448,8.54846,22.5263,8.80687Q22.6047,9.06527,22.6703,9.32722Q22.736,9.58916,22.7886,9.85401Q22.8413,10.1189,22.8809,10.386Q22.9206,10.6531,22.947,10.9218Q22.9735,11.1905,22.9867,11.4603Q23,11.73,23,12ZM9.54665,16.2554Q9.59886,16.3133,9.66488,16.3549Q9.73089,16.3965,9.80574,16.4186Q9.88058,16.4406,9.9586,16.4414Q10.0366,16.4423,10.1119,16.4219Q10.2845,16.3819,10.403,16.2503L17.1115,8.7997Q17.1486,8.75853,17.1769,8.71091Q17.2052,8.6633,17.2237,8.61108Q17.2422,8.55885,17.2502,8.50402Q17.2581,8.4492,17.2552,8.39387Q17.2523,8.33855,17.2387,8.28485Q17.225,8.23115,17.2012,8.18115Q17.1773,8.13114,17.1442,8.08675Q17.111,8.04236,17.0699,8.00529Q16.9867,7.93042,16.8813,7.89307Q16.7758,7.85573,16.664,7.86158Q16.5523,7.86744,16.4513,7.91561Q16.3503,7.96378,16.2755,8.04693L9.97253,15.0471L7.73283,12.5596Q7.65796,12.4765,7.55697,12.4283Q7.45599,12.3801,7.34425,12.3743Q7.23252,12.3684,7.12705,12.4058Q7.02158,12.4431,6.93843,12.518Q6.85528,12.5929,6.80711,12.6938Q6.75894,12.7948,6.75308,12.9066Q6.74723,13.0183,6.78458,13.1238Q6.82193,13.2292,6.89679,13.3124L9.54665,16.2554Z" fill-rule="evenodd" fill="#177DDC" fill-opacity="1"/></g></g></svg>