<svg xmlns="http://www.w3.org/2000/svg" xmlns:xlink="http://www.w3.org/1999/xlink" fill="none" version="1.1" width="24" height="24" viewBox="0 0 24 24"><defs><clipPath id="master_svg0_2114_35403"><rect x="0" y="0" width="24" height="24" rx="0"/></clipPath></defs><g clip-path="url(#master_svg0_2114_35403)"><g><path d="M22.5,12C22.5,17.799,17.799,22.5,12,22.5C6.20101,22.5,1.5,17.799,1.5,12C1.5,6.20101,6.20101,1.5,12,1.5C17.799,1.5,22.5,6.20101,22.5,12ZM20.7188,12C20.7188,16.8152,16.8152,20.7188,12,20.7188C7.18477,20.7188,3.28125,16.8152,3.28125,12C3.28125,7.18477,7.18477,3.28125,12,3.28125C16.8152,3.28125,20.7188,7.18477,20.7188,12ZM15.2836,8.27344L16.3829,8.27344C16.5352,8.27344,16.624299999999998,8.44688,16.532899999999998,8.57109L11.5969,15.4148C11.29927,15.8297,10.68287,15.8297,10.38521,15.4148L7.4649,11.36484C7.37583,11.24063,7.4649,11.06719,7.61724,11.06719L8.71646,11.06719C8.95787,11.06719,9.182870000000001,11.18437,9.32349,11.37891L10.99224,13.6945L14.6766,8.58516C14.8172,8.38828,15.0446,8.27344,15.2836,8.27344Z" fill-rule="evenodd" fill="#49AA19" fill-opacity="1"/></g></g></svg>